<?xml version="1.0" encoding="UTF-8" standalone="no"?>
<!DOCTYPE svg PUBLIC "-//W3C//DTD SVG 1.1//EN"
 "http://www.w3.org/Graphics/SVG/1.1/DTD/svg11.dtd">
<!-- Generated by graphviz version 2.40.1 (0)
 -->
<!-- Title: snakemake_dag Pages: 1 -->
<svg width="1019pt" height="1628pt"
 viewBox="0.00 0.00 1019.00 1628.00" xmlns="http://www.w3.org/2000/svg" xmlns:xlink="http://www.w3.org/1999/xlink">
<g id="graph0" class="graph" transform="scale(1 1) rotate(0) translate(4 1624)">
<title>snakemake_dag</title>
<polygon fill="#ffffff" stroke="transparent" points="-4,4 -4,-1624 1015,-1624 1015,4 -4,4"/>
<!-- 0 -->
<g id="node1" class="node">
<title>0</title>
<path fill="none" stroke="#c6d856" stroke-width="2" d="M193.5,-36C193.5,-36 146.5,-36 146.5,-36 140.5,-36 134.5,-30 134.5,-24 134.5,-24 134.5,-12 134.5,-12 134.5,-6 140.5,0 146.5,0 146.5,0 193.5,0 193.5,0 199.5,0 205.5,-6 205.5,-12 205.5,-12 205.5,-24 205.5,-24 205.5,-30 199.5,-36 193.5,-36"/>
<text text-anchor="middle" x="170" y="-15.5" font-family="sans" font-size="10.00" fill="#000000">target_taxon</text>
</g>
<!-- 1 -->
<g id="node2" class="node">
<title>1</title>
<path fill="none" stroke="#d8b456" stroke-width="2" d="M518.5,-108C518.5,-108 465.5,-108 465.5,-108 459.5,-108 453.5,-102 453.5,-96 453.5,-96 453.5,-84 453.5,-84 453.5,-78 459.5,-72 465.5,-72 465.5,-72 518.5,-72 518.5,-72 524.5,-72 530.5,-78 530.5,-84 530.5,-84 530.5,-96 530.5,-96 530.5,-102 524.5,-108 518.5,-108"/>
<text text-anchor="middle" x="492" y="-87.5" font-family="sans" font-size="10.00" fill="#000000">multiqc_taxon</text>
</g>
<!-- 1&#45;&gt;0 -->
<g id="edge1" class="edge">
<title>1&#45;&gt;0</title>
<path fill="none" stroke="#c0c0c0" stroke-width="2" d="M453.4791,-81.3866C393.7416,-68.0292 279.0265,-42.3786 215.3681,-28.1444"/>
<polygon fill="#c0c0c0" stroke="#c0c0c0" stroke-width="2" points="216.1287,-24.7281 205.6059,-25.9616 214.6011,-31.5594 216.1287,-24.7281"/>
</g>
<!-- 2 -->
<g id="node3" class="node">
<title>2</title>
<path fill="none" stroke="#5673d8" stroke-width="2" d="M999,-1404C999,-1404 937,-1404 937,-1404 931,-1404 925,-1398 925,-1392 925,-1392 925,-1380 925,-1380 925,-1374 931,-1368 937,-1368 937,-1368 999,-1368 999,-1368 1005,-1368 1011,-1374 1011,-1380 1011,-1380 1011,-1392 1011,-1392 1011,-1398 1005,-1404 999,-1404"/>
<text text-anchor="middle" x="968" y="-1383.5" font-family="sans" font-size="10.00" fill="#000000">trim_fastqc_raw</text>
</g>
<!-- 2&#45;&gt;1 -->
<g id="edge14" class="edge">
<title>2&#45;&gt;1</title>
<path fill="none" stroke="#c0c0c0" stroke-width="2" d="M970.072,-1367.8427C973.0011,-1340.5621 978,-1287.359 978,-1242 978,-1242 978,-1242 978,-234 978,-174.2061 932.2025,-169.2468 878,-144 818.9973,-116.5173 630.6834,-99.8446 540.7334,-93.2553"/>
<polygon fill="#c0c0c0" stroke="#c0c0c0" stroke-width="2" points="540.7514,-89.7476 530.5257,-92.52 540.2483,-96.7295 540.7514,-89.7476"/>
</g>
<!-- 3 -->
<g id="node4" class="node">
<title>3</title>
<path fill="none" stroke="#5663d8" stroke-width="2" d="M927,-1620C927,-1620 851,-1620 851,-1620 845,-1620 839,-1614 839,-1608 839,-1608 839,-1596 839,-1596 839,-1590 845,-1584 851,-1584 851,-1584 927,-1584 927,-1584 933,-1584 939,-1590 939,-1596 939,-1596 939,-1608 939,-1608 939,-1614 933,-1620 927,-1620"/>
<text text-anchor="middle" x="889" y="-1599.5" font-family="sans" font-size="10.00" fill="#000000">trim_get_fastq_raw</text>
</g>
<!-- 3&#45;&gt;2 -->
<g id="edge19" class="edge">
<title>3&#45;&gt;2</title>
<path fill="none" stroke="#c0c0c0" stroke-width="2" d="M901.4668,-1583.6252C907.9546,-1573.4571 915.6302,-1560.4001 921,-1548 940.6365,-1502.6546 954.8063,-1446.7044 962.1848,-1413.8301"/>
<polygon fill="#c0c0c0" stroke="#c0c0c0" stroke-width="2" points="965.6149,-1414.528 964.3401,-1404.0102 958.7776,-1413.0273 965.6149,-1414.528"/>
</g>
<!-- 4 -->
<g id="node5" class="node">
<title>4</title>
<path fill="none" stroke="#568ad8" stroke-width="2" d="M900,-1548C900,-1548 776,-1548 776,-1548 770,-1548 764,-1542 764,-1536 764,-1536 764,-1524 764,-1524 764,-1518 770,-1512 776,-1512 776,-1512 900,-1512 900,-1512 906,-1512 912,-1518 912,-1524 912,-1524 912,-1536 912,-1536 912,-1542 906,-1548 900,-1548"/>
<text text-anchor="middle" x="838" y="-1527.5" font-family="sans" font-size="10.00" fill="#000000">trim_adapterremoval_fastq_pe</text>
</g>
<!-- 3&#45;&gt;4 -->
<g id="edge20" class="edge">
<title>3&#45;&gt;4</title>
<path fill="none" stroke="#c0c0c0" stroke-width="2" d="M876.1305,-1583.8314C870.3165,-1575.6232 863.3304,-1565.7606 856.9354,-1556.7323"/>
<polygon fill="#c0c0c0" stroke="#c0c0c0" stroke-width="2" points="859.679,-1554.5505 851.0427,-1548.4133 853.9669,-1558.5966 859.679,-1554.5505"/>
</g>
<!-- 4&#45;&gt;1 -->
<g id="edge12" class="edge">
<title>4&#45;&gt;1</title>
<path fill="none" stroke="#c0c0c0" stroke-width="2" d="M837.1712,-1511.8191C835.9996,-1484.5085 834,-1431.2675 834,-1386 834,-1386 834,-1386 834,-234 834,-190.7517 830.6833,-171.1266 797,-144 758.3497,-112.8732 616.8917,-98.5603 540.9595,-92.9963"/>
<polygon fill="#c0c0c0" stroke="#c0c0c0" stroke-width="2" points="540.9201,-89.4848 530.6975,-92.2684 540.4248,-96.4672 540.9201,-89.4848"/>
</g>
<!-- 5 -->
<g id="node6" class="node">
<title>5</title>
<path fill="none" stroke="#566bd8" stroke-width="2" d="M937.5,-1332C937.5,-1332 874.5,-1332 874.5,-1332 868.5,-1332 862.5,-1326 862.5,-1320 862.5,-1320 862.5,-1308 862.5,-1308 862.5,-1302 868.5,-1296 874.5,-1296 874.5,-1296 937.5,-1296 937.5,-1296 943.5,-1296 949.5,-1302 949.5,-1308 949.5,-1308 949.5,-1320 949.5,-1320 949.5,-1326 943.5,-1332 937.5,-1332"/>
<text text-anchor="middle" x="906" y="-1311.5" font-family="sans" font-size="10.00" fill="#000000">trim_fastqc_trim</text>
</g>
<!-- 4&#45;&gt;5 -->
<g id="edge21" class="edge">
<title>4&#45;&gt;5</title>
<path fill="none" stroke="#c0c0c0" stroke-width="2" d="M843.6807,-1511.9555C855.5557,-1474.235 883.0755,-1386.8188 897.2356,-1341.8399"/>
<polygon fill="#c0c0c0" stroke="#c0c0c0" stroke-width="2" points="900.6232,-1342.7346 900.2877,-1332.1451 893.9463,-1340.6325 900.6232,-1342.7346"/>
</g>
<!-- 7 -->
<g id="node8" class="node">
<title>7</title>
<path fill="none" stroke="#d87556" stroke-width="2" d="M545.5,-1476C545.5,-1476 468.5,-1476 468.5,-1476 462.5,-1476 456.5,-1470 456.5,-1464 456.5,-1464 456.5,-1452 456.5,-1452 456.5,-1446 462.5,-1440 468.5,-1440 468.5,-1440 545.5,-1440 545.5,-1440 551.5,-1440 557.5,-1446 557.5,-1452 557.5,-1452 557.5,-1464 557.5,-1464 557.5,-1470 551.5,-1476 545.5,-1476"/>
<text text-anchor="middle" x="507" y="-1455.5" font-family="sans" font-size="10.00" fill="#000000">derep_merge_lanes</text>
</g>
<!-- 4&#45;&gt;7 -->
<g id="edge25" class="edge">
<title>4&#45;&gt;7</title>
<path fill="none" stroke="#c0c0c0" stroke-width="2" d="M763.7171,-1513.8418C704.5927,-1500.9809 622.8809,-1483.2067 567.6523,-1471.1933"/>
<polygon fill="#c0c0c0" stroke="#c0c0c0" stroke-width="2" points="568.175,-1467.7252 557.6596,-1469.0196 566.6871,-1474.5652 568.175,-1467.7252"/>
</g>
<!-- 5&#45;&gt;1 -->
<g id="edge7" class="edge">
<title>5&#45;&gt;1</title>
<path fill="none" stroke="#c0c0c0" stroke-width="2" d="M902.4776,-1295.8955C897.4982,-1268.6824 889,-1215.5642 889,-1170 889,-1170 889,-1170 889,-234 889,-190.0449 883.0733,-170.4936 848,-144 800.4869,-108.1096 626.5434,-95.7318 540.651,-91.7475"/>
<polygon fill="#c0c0c0" stroke="#c0c0c0" stroke-width="2" points="540.7728,-88.2495 530.6273,-91.3022 540.4621,-95.2426 540.7728,-88.2495"/>
</g>
<!-- 6 -->
<g id="node7" class="node">
<title>6</title>
<path fill="none" stroke="#d86656" stroke-width="2" d="M137.5,-1260C137.5,-1260 88.5,-1260 88.5,-1260 82.5,-1260 76.5,-1254 76.5,-1248 76.5,-1248 76.5,-1236 76.5,-1236 76.5,-1230 82.5,-1224 88.5,-1224 88.5,-1224 137.5,-1224 137.5,-1224 143.5,-1224 149.5,-1230 149.5,-1236 149.5,-1236 149.5,-1248 149.5,-1248 149.5,-1254 143.5,-1260 137.5,-1260"/>
<text text-anchor="middle" x="113" y="-1239.5" font-family="sans" font-size="10.00" fill="#000000">derep_fastqc</text>
</g>
<!-- 6&#45;&gt;1 -->
<g id="edge18" class="edge">
<title>6&#45;&gt;1</title>
<path fill="none" stroke="#c0c0c0" stroke-width="2" d="M85.3571,-1223.952C51.9036,-1199.6792 0,-1153.1356 0,-1098 0,-1098 0,-1098 0,-594 0,-493.4877 67,-478.5123 67,-378 67,-378 67,-378 67,-234 67,-181.9317 96.6742,-169.6259 142,-144 192.6075,-115.3879 359.443,-99.5803 443.1697,-93.2731"/>
<polygon fill="#c0c0c0" stroke="#c0c0c0" stroke-width="2" points="443.4826,-96.7596 453.198,-92.5333 442.9675,-89.7786 443.4826,-96.7596"/>
</g>
<!-- 7&#45;&gt;6 -->
<g id="edge24" class="edge">
<title>7&#45;&gt;6</title>
<path fill="none" stroke="#c0c0c0" stroke-width="2" d="M463.1955,-1439.8296C409.7085,-1417.0452 317.0943,-1375.6465 242,-1332 207.425,-1311.9042 170.1929,-1285.3482 144.6583,-1266.2993"/>
<polygon fill="#c0c0c0" stroke="#c0c0c0" stroke-width="2" points="146.5656,-1263.3546 136.4679,-1260.1472 142.3615,-1268.9515 146.5656,-1263.3546"/>
</g>
<!-- 9 -->
<g id="node10" class="node">
<title>9</title>
<path fill="none" stroke="#d88556" stroke-width="2" d="M624.5,-1260C624.5,-1260 539.5,-1260 539.5,-1260 533.5,-1260 527.5,-1254 527.5,-1248 527.5,-1248 527.5,-1236 527.5,-1236 527.5,-1230 533.5,-1224 539.5,-1224 539.5,-1224 624.5,-1224 624.5,-1224 630.5,-1224 636.5,-1230 636.5,-1236 636.5,-1236 636.5,-1248 636.5,-1248 636.5,-1254 630.5,-1260 624.5,-1260"/>
<text text-anchor="middle" x="582" y="-1239.5" font-family="sans" font-size="10.00" fill="#000000">derep_nonpareil_infer</text>
</g>
<!-- 7&#45;&gt;9 -->
<g id="edge29" class="edge">
<title>7&#45;&gt;9</title>
<path fill="none" stroke="#c0c0c0" stroke-width="2" d="M513.2655,-1439.9555C526.3629,-1402.235 556.7157,-1314.8188 572.3334,-1269.8399"/>
<polygon fill="#c0c0c0" stroke="#c0c0c0" stroke-width="2" points="575.7258,-1270.7399 575.6996,-1260.1451 569.1131,-1268.4437 575.7258,-1270.7399"/>
</g>
<!-- 10 -->
<g id="node11" class="node">
<title>10</title>
<path fill="none" stroke="#d89556" stroke-width="2" d="M484,-1404C484,-1404 436,-1404 436,-1404 430,-1404 424,-1398 424,-1392 424,-1392 424,-1380 424,-1380 424,-1374 430,-1368 436,-1368 436,-1368 484,-1368 484,-1368 490,-1368 496,-1374 496,-1380 496,-1380 496,-1392 496,-1392 496,-1398 490,-1404 484,-1404"/>
<text text-anchor="middle" x="460" y="-1383.5" font-family="sans" font-size="10.00" fill="#000000">derep_seqkit</text>
</g>
<!-- 7&#45;&gt;10 -->
<g id="edge30" class="edge">
<title>7&#45;&gt;10</title>
<path fill="none" stroke="#c0c0c0" stroke-width="2" d="M495.1399,-1439.8314C489.8371,-1431.7079 483.4763,-1421.9637 477.6327,-1413.0118"/>
<polygon fill="#c0c0c0" stroke="#c0c0c0" stroke-width="2" points="480.4169,-1410.8739 472.0198,-1404.4133 474.5552,-1414.7003 480.4169,-1410.8739"/>
</g>
<!-- 8 -->
<g id="node9" class="node">
<title>8</title>
<path fill="none" stroke="#d88d56" stroke-width="2" d="M794,-1116C794,-1116 712,-1116 712,-1116 706,-1116 700,-1110 700,-1104 700,-1104 700,-1092 700,-1092 700,-1086 706,-1080 712,-1080 712,-1080 794,-1080 794,-1080 800,-1080 806,-1086 806,-1092 806,-1092 806,-1104 806,-1104 806,-1110 800,-1116 794,-1116"/>
<text text-anchor="middle" x="753" y="-1095.5" font-family="sans" font-size="10.00" fill="#000000">derep_nonpareil_plot</text>
</g>
<!-- 8&#45;&gt;1 -->
<g id="edge13" class="edge">
<title>8&#45;&gt;1</title>
<path fill="none" stroke="#c0c0c0" stroke-width="2" d="M762.1192,-1079.8786C774.7415,-1053.076 796,-1000.9635 796,-954 796,-954 796,-954 796,-234 796,-192.6022 802.2803,-172.2291 772,-144 739.0821,-113.3119 611.6966,-98.9766 540.6262,-93.2451"/>
<polygon fill="#c0c0c0" stroke="#c0c0c0" stroke-width="2" points="540.8087,-89.7488 530.567,-92.4609 540.2647,-96.7276 540.8087,-89.7488"/>
</g>
<!-- 9&#45;&gt;8 -->
<g id="edge26" class="edge">
<title>9&#45;&gt;8</title>
<path fill="none" stroke="#c0c0c0" stroke-width="2" d="M627.225,-1223.9781C646.5688,-1214.9454 668.6445,-1202.7639 686,-1188 707.1341,-1170.0217 725.4925,-1144.1866 737.6211,-1124.8039"/>
<polygon fill="#c0c0c0" stroke="#c0c0c0" stroke-width="2" points="740.6872,-1126.4983 742.901,-1116.1373 734.7092,-1122.8563 740.6872,-1126.4983"/>
</g>
<!-- 10&#45;&gt;6 -->
<g id="edge22" class="edge">
<title>10&#45;&gt;6</title>
<path fill="none" stroke="#c0c0c0" stroke-width="2" d="M423.8469,-1370.997C360.3505,-1344.6469 228.918,-1290.1043 159.0327,-1261.1029"/>
<polygon fill="#c0c0c0" stroke="#c0c0c0" stroke-width="2" points="160.1714,-1257.7861 149.5935,-1257.1858 157.4883,-1264.2515 160.1714,-1257.7861"/>
</g>
<!-- 10&#45;&gt;9 -->
<g id="edge27" class="edge">
<title>10&#45;&gt;9</title>
<path fill="none" stroke="#c0c0c0" stroke-width="2" d="M475.4514,-1367.7623C496.9019,-1342.4436 535.811,-1296.5182 560.2051,-1267.7251"/>
<polygon fill="#c0c0c0" stroke="#c0c0c0" stroke-width="2" points="562.8803,-1269.982 566.6741,-1260.0896 557.5394,-1265.457 562.8803,-1269.982"/>
</g>
<!-- 11 -->
<g id="node12" class="node">
<title>11</title>
<path fill="none" stroke="#d87556" stroke-width="2" d="M468.5,-1332C468.5,-1332 379.5,-1332 379.5,-1332 373.5,-1332 367.5,-1326 367.5,-1320 367.5,-1320 367.5,-1308 367.5,-1308 367.5,-1302 373.5,-1296 379.5,-1296 379.5,-1296 468.5,-1296 468.5,-1296 474.5,-1296 480.5,-1302 480.5,-1308 480.5,-1308 480.5,-1320 480.5,-1320 480.5,-1326 474.5,-1332 468.5,-1332"/>
<text text-anchor="middle" x="424" y="-1311.5" font-family="sans" font-size="10.00" fill="#000000">derep_low_complexity</text>
</g>
<!-- 10&#45;&gt;11 -->
<g id="edge31" class="edge">
<title>10&#45;&gt;11</title>
<path fill="none" stroke="#c0c0c0" stroke-width="2" d="M450.9157,-1367.8314C446.9385,-1359.8771 442.1845,-1350.369 437.7861,-1341.5723"/>
<polygon fill="#c0c0c0" stroke="#c0c0c0" stroke-width="2" points="440.8093,-1339.7923 433.2066,-1332.4133 434.5483,-1342.9228 440.8093,-1339.7923"/>
</g>
<!-- 11&#45;&gt;6 -->
<g id="edge23" class="edge">
<title>11&#45;&gt;6</title>
<path fill="none" stroke="#c0c0c0" stroke-width="2" d="M367.4321,-1304.5187C314.4078,-1295.0986 233.1636,-1279.2933 164,-1260 162.5303,-1259.59 161.0417,-1259.1596 159.5426,-1258.7129"/>
<polygon fill="#c0c0c0" stroke="#c0c0c0" stroke-width="2" points="160.1724,-1255.2418 149.5828,-1255.5745 158.0686,-1261.9182 160.1724,-1255.2418"/>
</g>
<!-- 11&#45;&gt;9 -->
<g id="edge28" class="edge">
<title>11&#45;&gt;9</title>
<path fill="none" stroke="#c0c0c0" stroke-width="2" d="M463.8701,-1295.8314C484.9077,-1286.2446 510.8983,-1274.4008 533.1396,-1264.2655"/>
<polygon fill="#c0c0c0" stroke="#c0c0c0" stroke-width="2" points="534.7683,-1267.3697 542.4166,-1260.038 531.8655,-1260.9999 534.7683,-1267.3697"/>
</g>
<!-- 12 -->
<g id="node13" class="node">
<title>12</title>
<path fill="none" stroke="#56d89a" stroke-width="2" d="M497.5,-1260C497.5,-1260 404.5,-1260 404.5,-1260 398.5,-1260 392.5,-1254 392.5,-1248 392.5,-1248 392.5,-1236 392.5,-1236 392.5,-1230 398.5,-1224 404.5,-1224 404.5,-1224 497.5,-1224 497.5,-1224 503.5,-1224 509.5,-1230 509.5,-1236 509.5,-1236 509.5,-1248 509.5,-1248 509.5,-1254 503.5,-1260 497.5,-1260"/>
<text text-anchor="middle" x="451" y="-1239.5" font-family="sans" font-size="10.00" fill="#000000">taxon_prefilter_bowtie2</text>
</g>
<!-- 11&#45;&gt;12 -->
<g id="edge32" class="edge">
<title>11&#45;&gt;12</title>
<path fill="none" stroke="#c0c0c0" stroke-width="2" d="M430.8132,-1295.8314C433.7644,-1287.9617 437.2858,-1278.5712 440.555,-1269.8533"/>
<polygon fill="#c0c0c0" stroke="#c0c0c0" stroke-width="2" points="443.8609,-1271.0055 444.095,-1260.4133 437.3066,-1268.5476 443.8609,-1271.0055"/>
</g>
<!-- 25 -->
<g id="node26" class="node">
<title>25</title>
<path fill="none" stroke="#d6d856" stroke-width="2" d="M446.5,-900C446.5,-900 357.5,-900 357.5,-900 351.5,-900 345.5,-894 345.5,-888 345.5,-888 345.5,-876 345.5,-876 345.5,-870 351.5,-864 357.5,-864 357.5,-864 446.5,-864 446.5,-864 452.5,-864 458.5,-870 458.5,-876 458.5,-876 458.5,-888 458.5,-888 458.5,-894 452.5,-900 446.5,-900"/>
<text text-anchor="middle" x="402" y="-879.5" font-family="sans" font-size="10.00" fill="#000000">prefilter_reads_extract</text>
</g>
<!-- 11&#45;&gt;25 -->
<g id="edge46" class="edge">
<title>11&#45;&gt;25</title>
<path fill="none" stroke="#c0c0c0" stroke-width="2" d="M407.4518,-1295.7466C399.2705,-1285.8201 389.9091,-1272.949 384,-1260 366.9889,-1222.7222 364,-1210.9758 364,-1170 364,-1170 364,-1170 364,-1026 364,-984.3681 379.0328,-938.14 390.1881,-909.567"/>
<polygon fill="#c0c0c0" stroke="#c0c0c0" stroke-width="2" points="393.4578,-910.817 393.9412,-900.2332 386.9632,-908.2055 393.4578,-910.817"/>
</g>
<!-- 38 -->
<g id="node39" class="node">
<title>38</title>
<path fill="none" stroke="#56a9d8" stroke-width="2" d="M196,-612C196,-612 40,-612 40,-612 34,-612 28,-606 28,-600 28,-600 28,-588 28,-588 28,-582 34,-576 40,-576 40,-576 196,-576 196,-576 202,-576 208,-582 208,-588 208,-588 208,-600 208,-600 208,-606 202,-612 196,-612"/>
<text text-anchor="middle" x="118" y="-591.5" font-family="sans" font-size="10.00" fill="#000000">taxon_shard_saturated_reads_extract</text>
</g>
<!-- 11&#45;&gt;38 -->
<g id="edge63" class="edge">
<title>11&#45;&gt;38</title>
<path fill="none" stroke="#c0c0c0" stroke-width="2" d="M367.2537,-1306.1764C294.604,-1292.5991 178,-1257.2215 178,-1170 178,-1170 178,-1170 178,-738 178,-694.2551 154.1152,-648.3872 136.4852,-620.4891"/>
<polygon fill="#c0c0c0" stroke="#c0c0c0" stroke-width="2" points="139.4066,-618.5614 131.0191,-612.0882 133.5392,-622.379 139.4066,-618.5614"/>
</g>
<!-- 12&#45;&gt;1 -->
<g id="edge16" class="edge">
<title>12&#45;&gt;1</title>
<path fill="none" stroke="#c0c0c0" stroke-width="2" d="M509.6794,-1225.8381C546.5105,-1214.8665 589.8101,-1200.1931 605,-1188 649.0501,-1152.6404 717.961,-1024.4221 739,-972 754.2268,-934.0599 758,-922.8816 758,-882 758,-882 758,-882 758,-234 758,-190.2273 751.6602,-171.9828 718,-144 691.3698,-121.8615 598.8055,-105.1291 540.7252,-96.5093"/>
<polygon fill="#c0c0c0" stroke="#c0c0c0" stroke-width="2" points="541.0579,-93.021 530.6582,-95.045 540.0503,-99.9481 541.0579,-93.021"/>
</g>
<!-- 16 -->
<g id="node17" class="node">
<title>16</title>
<path fill="none" stroke="#56d8d0" stroke-width="2" d="M584,-1188C584,-1188 438,-1188 438,-1188 432,-1188 426,-1182 426,-1176 426,-1176 426,-1164 426,-1164 426,-1158 432,-1152 438,-1152 438,-1152 584,-1152 584,-1152 590,-1152 596,-1158 596,-1164 596,-1164 596,-1176 596,-1176 596,-1182 590,-1188 584,-1188"/>
<text text-anchor="middle" x="511" y="-1167.5" font-family="sans" font-size="10.00" fill="#000000">taxon_prefilter_shard_clean_header</text>
</g>
<!-- 12&#45;&gt;16 -->
<g id="edge36" class="edge">
<title>12&#45;&gt;16</title>
<path fill="none" stroke="#c0c0c0" stroke-width="2" d="M466.1405,-1223.8314C473.1217,-1215.454 481.5391,-1205.3531 489.1876,-1196.1749"/>
<polygon fill="#c0c0c0" stroke="#c0c0c0" stroke-width="2" points="491.9425,-1198.3362 495.6556,-1188.4133 486.5649,-1193.8548 491.9425,-1198.3362"/>
</g>
<!-- 13 -->
<g id="node14" class="node">
<title>13</title>
<path fill="none" stroke="#56d88a" stroke-width="2" d="M599.5,-900C599.5,-900 492.5,-900 492.5,-900 486.5,-900 480.5,-894 480.5,-888 480.5,-888 480.5,-876 480.5,-876 480.5,-870 486.5,-864 492.5,-864 492.5,-864 599.5,-864 599.5,-864 605.5,-864 611.5,-870 611.5,-876 611.5,-876 611.5,-888 611.5,-888 611.5,-894 605.5,-900 599.5,-900"/>
<text text-anchor="middle" x="546" y="-879.5" font-family="sans" font-size="10.00" fill="#000000">taxon_prefilter_align_stats</text>
</g>
<!-- 13&#45;&gt;1 -->
<g id="edge17" class="edge">
<title>13&#45;&gt;1</title>
<path fill="none" stroke="#c0c0c0" stroke-width="2" d="M546,-863.8146C546,-836.4983 546,-783.25 546,-738 546,-738 546,-738 546,-522 546,-368.4648 512.0004,-186.5892 497.9577,-118.018"/>
<polygon fill="#c0c0c0" stroke="#c0c0c0" stroke-width="2" points="501.3397,-117.0891 495.8835,-108.0072 494.4853,-118.5094 501.3397,-117.0891"/>
</g>
<!-- 14 -->
<g id="node15" class="node">
<title>14</title>
<path fill="none" stroke="#56d873" stroke-width="2" d="M593,-1044C593,-1044 481,-1044 481,-1044 475,-1044 469,-1038 469,-1032 469,-1032 469,-1020 469,-1020 469,-1014 475,-1008 481,-1008 481,-1008 593,-1008 593,-1008 599,-1008 605,-1014 605,-1020 605,-1020 605,-1032 605,-1032 605,-1038 599,-1044 593,-1044"/>
<text text-anchor="middle" x="537" y="-1023.5" font-family="sans" font-size="10.00" fill="#000000">taxon_prefilter_align_merge</text>
</g>
<!-- 14&#45;&gt;13 -->
<g id="edge33" class="edge">
<title>14&#45;&gt;13</title>
<path fill="none" stroke="#c0c0c0" stroke-width="2" d="M538.1399,-1007.7623C539.6749,-983.201 542.422,-939.2474 544.2279,-910.3541"/>
<polygon fill="#c0c0c0" stroke="#c0c0c0" stroke-width="2" points="547.7387,-910.2885 544.8694,-900.0896 540.7523,-909.8518 547.7387,-910.2885"/>
</g>
<!-- 22 -->
<g id="node23" class="node">
<title>22</title>
<path fill="none" stroke="#56d882" stroke-width="2" d="M717.5,-972C717.5,-972 586.5,-972 586.5,-972 580.5,-972 574.5,-966 574.5,-960 574.5,-960 574.5,-948 574.5,-948 574.5,-942 580.5,-936 586.5,-936 586.5,-936 717.5,-936 717.5,-936 723.5,-936 729.5,-942 729.5,-948 729.5,-948 729.5,-960 729.5,-960 729.5,-966 723.5,-972 717.5,-972"/>
<text text-anchor="middle" x="652" y="-951.5" font-family="sans" font-size="10.00" fill="#000000">taxon_prefilter_align_sort_coord</text>
</g>
<!-- 14&#45;&gt;22 -->
<g id="edge42" class="edge">
<title>14&#45;&gt;22</title>
<path fill="none" stroke="#c0c0c0" stroke-width="2" d="M566.0194,-1007.8314C580.7286,-998.6221 598.7644,-987.3301 614.5122,-977.4706"/>
<polygon fill="#c0c0c0" stroke="#c0c0c0" stroke-width="2" points="616.3714,-980.436 622.9899,-972.1628 612.6567,-974.5029 616.3714,-980.436"/>
</g>
<!-- 26 -->
<g id="node27" class="node">
<title>26</title>
<path fill="none" stroke="#ced856" stroke-width="2" d="M506,-972C506,-972 404,-972 404,-972 398,-972 392,-966 392,-960 392,-960 392,-948 392,-948 392,-942 398,-936 404,-936 404,-936 506,-936 506,-936 512,-936 518,-942 518,-948 518,-948 518,-960 518,-960 518,-966 512,-972 506,-972"/>
<text text-anchor="middle" x="455" y="-951.5" font-family="sans" font-size="10.00" fill="#000000">prefilter_reads_taxonomy</text>
</g>
<!-- 14&#45;&gt;26 -->
<g id="edge48" class="edge">
<title>14&#45;&gt;26</title>
<path fill="none" stroke="#c0c0c0" stroke-width="2" d="M516.3079,-1007.8314C506.3052,-999.0485 494.145,-988.3712 483.3001,-978.8489"/>
<polygon fill="#c0c0c0" stroke="#c0c0c0" stroke-width="2" points="485.5092,-976.1308 475.6854,-972.1628 480.8906,-981.3909 485.5092,-976.1308"/>
</g>
<!-- 15 -->
<g id="node16" class="node">
<title>15</title>
<path fill="none" stroke="#56b9d8" stroke-width="2" d="M595,-1116C595,-1116 461,-1116 461,-1116 455,-1116 449,-1110 449,-1104 449,-1104 449,-1092 449,-1092 449,-1086 455,-1080 461,-1080 461,-1080 595,-1080 595,-1080 601,-1080 607,-1086 607,-1092 607,-1092 607,-1104 607,-1104 607,-1110 601,-1116 595,-1116"/>
<text text-anchor="middle" x="528" y="-1095.5" font-family="sans" font-size="10.00" fill="#000000">taxon_prefilter_shard_sort_query</text>
</g>
<!-- 15&#45;&gt;14 -->
<g id="edge34" class="edge">
<title>15&#45;&gt;14</title>
<path fill="none" stroke="#c0c0c0" stroke-width="2" d="M530.2711,-1079.8314C531.2336,-1072.131 532.3782,-1062.9743 533.4479,-1054.4166"/>
<polygon fill="#c0c0c0" stroke="#c0c0c0" stroke-width="2" points="536.9309,-1054.7702 534.6983,-1044.4133 529.9849,-1053.9019 536.9309,-1054.7702"/>
</g>
<!-- 16&#45;&gt;15 -->
<g id="edge35" class="edge">
<title>16&#45;&gt;15</title>
<path fill="none" stroke="#c0c0c0" stroke-width="2" d="M515.2898,-1151.8314C517.108,-1144.131 519.2699,-1134.9743 521.2905,-1126.4166"/>
<polygon fill="#c0c0c0" stroke="#c0c0c0" stroke-width="2" points="524.7608,-1126.95 523.6524,-1116.4133 517.9481,-1125.3414 524.7608,-1126.95"/>
</g>
<!-- 17 -->
<g id="node18" class="node">
<title>17</title>
<path fill="none" stroke="#56d8b9" stroke-width="2" d="M717.5,-252C717.5,-252 598.5,-252 598.5,-252 592.5,-252 586.5,-246 586.5,-240 586.5,-240 586.5,-228 586.5,-228 586.5,-222 592.5,-216 598.5,-216 598.5,-216 717.5,-216 717.5,-216 723.5,-216 729.5,-222 729.5,-228 729.5,-228 729.5,-240 729.5,-240 729.5,-246 723.5,-252 717.5,-252"/>
<text text-anchor="middle" x="658" y="-231.5" font-family="sans" font-size="10.00" fill="#000000">taxon_prefilter_metadmg_dfit</text>
</g>
<!-- 17&#45;&gt;1 -->
<g id="edge5" class="edge">
<title>17&#45;&gt;1</title>
<path fill="none" stroke="#c0c0c0" stroke-width="2" d="M677.7442,-215.8325C696.1247,-196.7012 718.2832,-166.3163 701,-144 681.5578,-118.896 596.2816,-103.3661 540.8444,-95.7348"/>
<polygon fill="#c0c0c0" stroke="#c0c0c0" stroke-width="2" points="541.2384,-92.2564 530.863,-94.4013 540.3114,-99.1948 541.2384,-92.2564"/>
</g>
<!-- 23 -->
<g id="node24" class="node">
<title>23</title>
<path fill="none" stroke="#56d8b1" stroke-width="2" d="M680,-180C680,-180 532,-180 532,-180 526,-180 520,-174 520,-168 520,-168 520,-156 520,-156 520,-150 526,-144 532,-144 532,-144 680,-144 680,-144 686,-144 692,-150 692,-156 692,-156 692,-168 692,-168 692,-174 686,-180 680,-180"/>
<text text-anchor="middle" x="606" y="-159.5" font-family="sans" font-size="10.00" fill="#000000">taxon_prefilter_metadmg_aggregate</text>
</g>
<!-- 17&#45;&gt;23 -->
<g id="edge43" class="edge">
<title>17&#45;&gt;23</title>
<path fill="none" stroke="#c0c0c0" stroke-width="2" d="M644.8782,-215.8314C638.9501,-207.6232 631.8271,-197.7606 625.3067,-188.7323"/>
<polygon fill="#c0c0c0" stroke="#c0c0c0" stroke-width="2" points="627.9908,-186.4708 619.2985,-180.4133 622.316,-190.5693 627.9908,-186.4708"/>
</g>
<!-- 18 -->
<g id="node19" class="node">
<title>18</title>
<path fill="none" stroke="#56d8c1" stroke-width="2" d="M711,-324C711,-324 593,-324 593,-324 587,-324 581,-318 581,-312 581,-312 581,-300 581,-300 581,-294 587,-288 593,-288 593,-288 711,-288 711,-288 717,-288 723,-294 723,-300 723,-300 723,-312 723,-312 723,-318 717,-324 711,-324"/>
<text text-anchor="middle" x="652" y="-303.5" font-family="sans" font-size="10.00" fill="#000000">taxon_prefilter_metadmg_lca</text>
</g>
<!-- 18&#45;&gt;17 -->
<g id="edge37" class="edge">
<title>18&#45;&gt;17</title>
<path fill="none" stroke="#c0c0c0" stroke-width="2" d="M653.5141,-287.8314C654.1558,-280.131 654.9188,-270.9743 655.6319,-262.4166"/>
<polygon fill="#c0c0c0" stroke="#c0c0c0" stroke-width="2" points="659.1229,-262.6694 656.4656,-252.4133 652.1471,-262.088 659.1229,-262.6694"/>
</g>
<!-- 18&#45;&gt;23 -->
<g id="edge44" class="edge">
<title>18&#45;&gt;23</title>
<path fill="none" stroke="#c0c0c0" stroke-width="2" d="M613.8117,-287.8328C599.9025,-279.0933 585.71,-267.1707 578,-252 567.789,-231.908 576.6699,-207.3845 587.0552,-189.0136"/>
<polygon fill="#c0c0c0" stroke="#c0c0c0" stroke-width="2" points="590.1602,-190.6435 592.3629,-180.2802 584.1783,-187.008 590.1602,-190.6435"/>
</g>
<!-- 19 -->
<g id="node20" class="node">
<title>19</title>
<path fill="none" stroke="#56d882" stroke-width="2" d="M717.5,-540C717.5,-540 586.5,-540 586.5,-540 580.5,-540 574.5,-534 574.5,-528 574.5,-528 574.5,-516 574.5,-516 574.5,-510 580.5,-504 586.5,-504 586.5,-504 717.5,-504 717.5,-504 723.5,-504 729.5,-510 729.5,-516 729.5,-516 729.5,-528 729.5,-528 729.5,-534 723.5,-540 717.5,-540"/>
<text text-anchor="middle" x="652" y="-519.5" font-family="sans" font-size="10.00" fill="#000000">taxon_prefilter_align_sort_query</text>
</g>
<!-- 19&#45;&gt;18 -->
<g id="edge38" class="edge">
<title>19&#45;&gt;18</title>
<path fill="none" stroke="#c0c0c0" stroke-width="2" d="M652,-503.9555C652,-466.3938 652,-379.5541 652,-334.4103"/>
<polygon fill="#c0c0c0" stroke="#c0c0c0" stroke-width="2" points="655.5001,-334.145 652,-324.1451 648.5001,-334.1451 655.5001,-334.145"/>
</g>
<!-- 20 -->
<g id="node21" class="node">
<title>20</title>
<path fill="none" stroke="#56d863" stroke-width="2" d="M704,-684C704,-684 600,-684 600,-684 594,-684 588,-678 588,-672 588,-672 588,-660 588,-660 588,-654 594,-648 600,-648 600,-648 704,-648 704,-648 710,-648 716,-654 716,-660 716,-660 716,-672 716,-672 716,-678 710,-684 704,-684"/>
<text text-anchor="middle" x="652" y="-663.5" font-family="sans" font-size="10.00" fill="#000000">taxon_prefilter_align_filter</text>
</g>
<!-- 20&#45;&gt;19 -->
<g id="edge39" class="edge">
<title>20&#45;&gt;19</title>
<path fill="none" stroke="#c0c0c0" stroke-width="2" d="M652,-647.7623C652,-623.201 652,-579.2474 652,-550.3541"/>
<polygon fill="#c0c0c0" stroke="#c0c0c0" stroke-width="2" points="655.5001,-550.0896 652,-540.0896 648.5001,-550.0897 655.5001,-550.0896"/>
</g>
<!-- 21 -->
<g id="node22" class="node">
<title>21</title>
<path fill="none" stroke="#56d87b" stroke-width="2" d="M713,-756C713,-756 591,-756 591,-756 585,-756 579,-750 579,-744 579,-744 579,-732 579,-732 579,-726 585,-720 591,-720 591,-720 713,-720 713,-720 719,-720 725,-726 725,-732 725,-732 725,-744 725,-744 725,-750 719,-756 713,-756"/>
<text text-anchor="middle" x="652" y="-735.5" font-family="sans" font-size="10.00" fill="#000000">taxon_prefilter_align_reassign</text>
</g>
<!-- 21&#45;&gt;20 -->
<g id="edge40" class="edge">
<title>21&#45;&gt;20</title>
<path fill="none" stroke="#c0c0c0" stroke-width="2" d="M652,-719.8314C652,-712.131 652,-702.9743 652,-694.4166"/>
<polygon fill="#c0c0c0" stroke="#c0c0c0" stroke-width="2" points="655.5001,-694.4132 652,-684.4133 648.5001,-694.4133 655.5001,-694.4132"/>
</g>
<!-- 22&#45;&gt;21 -->
<g id="edge41" class="edge">
<title>22&#45;&gt;21</title>
<path fill="none" stroke="#c0c0c0" stroke-width="2" d="M652,-935.9555C652,-898.3938 652,-811.5541 652,-766.4103"/>
<polygon fill="#c0c0c0" stroke="#c0c0c0" stroke-width="2" points="655.5001,-766.145 652,-756.1451 648.5001,-766.1451 655.5001,-766.145"/>
</g>
<!-- 23&#45;&gt;1 -->
<g id="edge6" class="edge">
<title>23&#45;&gt;1</title>
<path fill="none" stroke="#c0c0c0" stroke-width="2" d="M577.233,-143.8314C562.7867,-134.7074 545.1035,-123.539 529.596,-113.7449"/>
<polygon fill="#c0c0c0" stroke="#c0c0c0" stroke-width="2" points="531.0817,-110.5436 520.7578,-108.1628 527.3437,-116.462 531.0817,-110.5436"/>
</g>
<!-- 24 -->
<g id="node25" class="node">
<title>24</title>
<path fill="none" stroke="#d8d356" stroke-width="2" d="M505.5,-468C505.5,-468 448.5,-468 448.5,-468 442.5,-468 436.5,-462 436.5,-456 436.5,-456 436.5,-444 436.5,-444 436.5,-438 442.5,-432 448.5,-432 448.5,-432 505.5,-432 505.5,-432 511.5,-432 517.5,-438 517.5,-444 517.5,-444 517.5,-456 517.5,-456 517.5,-462 511.5,-468 505.5,-468"/>
<text text-anchor="middle" x="477" y="-447.5" font-family="sans" font-size="10.00" fill="#000000">prefilter_fastqc</text>
</g>
<!-- 24&#45;&gt;1 -->
<g id="edge9" class="edge">
<title>24&#45;&gt;1</title>
<path fill="none" stroke="#c0c0c0" stroke-width="2" d="M472.2344,-431.9623C465.4975,-404.8344 454,-351.8236 454,-306 454,-306 454,-306 454,-234 454,-192.3681 469.0328,-146.14 480.1881,-117.567"/>
<polygon fill="#c0c0c0" stroke="#c0c0c0" stroke-width="2" points="483.4578,-118.817 483.9412,-108.2332 476.9632,-116.2055 483.4578,-118.817"/>
</g>
<!-- 25&#45;&gt;24 -->
<g id="edge45" class="edge">
<title>25&#45;&gt;24</title>
<path fill="none" stroke="#c0c0c0" stroke-width="2" d="M421.6604,-863.5617C431.0935,-853.7816 441.8665,-841.0978 449,-828 468.9143,-791.4357 475,-779.6357 475,-738 475,-738 475,-738 475,-594 475,-553.8721 475.7861,-507.4602 476.3726,-478.416"/>
<polygon fill="#c0c0c0" stroke="#c0c0c0" stroke-width="2" points="479.8766,-478.255 476.5856,-468.1843 472.8782,-478.1092 479.8766,-478.255"/>
</g>
<!-- 27 -->
<g id="node28" class="node">
<title>27</title>
<path fill="none" stroke="#80d856" stroke-width="2" d="M428,-828C428,-828 372,-828 372,-828 366,-828 360,-822 360,-816 360,-816 360,-804 360,-804 360,-798 366,-792 372,-792 372,-792 428,-792 428,-792 434,-792 440,-798 440,-804 440,-804 440,-816 440,-816 440,-822 434,-828 428,-828"/>
<text text-anchor="middle" x="400" y="-807.5" font-family="sans" font-size="10.00" fill="#000000">taxon_bowtie2</text>
</g>
<!-- 25&#45;&gt;27 -->
<g id="edge49" class="edge">
<title>25&#45;&gt;27</title>
<path fill="none" stroke="#c0c0c0" stroke-width="2" d="M401.4953,-863.8314C401.2814,-856.131 401.0271,-846.9743 400.7894,-838.4166"/>
<polygon fill="#c0c0c0" stroke="#c0c0c0" stroke-width="2" points="404.2879,-838.3122 400.5115,-828.4133 397.2906,-838.5066 404.2879,-838.3122"/>
</g>
<!-- 26&#45;&gt;25 -->
<g id="edge47" class="edge">
<title>26&#45;&gt;25</title>
<path fill="none" stroke="#c0c0c0" stroke-width="2" d="M441.6259,-935.8314C435.5838,-927.6232 428.3237,-917.7606 421.6779,-908.7323"/>
<polygon fill="#c0c0c0" stroke="#c0c0c0" stroke-width="2" points="424.3011,-906.3918 415.5542,-900.4133 418.6637,-910.5415 424.3011,-906.3918"/>
</g>
<!-- 27&#45;&gt;1 -->
<g id="edge8" class="edge">
<title>27&#45;&gt;1</title>
<path fill="none" stroke="#c0c0c0" stroke-width="2" d="M406.2066,-791.7372C409.4376,-781.3825 413.101,-768.1118 415,-756 452.2154,-518.6427 405.5981,-453.7813 440,-216 444.708,-183.4589 444.091,-174.2398 457,-144 461.0367,-134.5439 466.6944,-124.9078 472.2859,-116.4432"/>
<polygon fill="#c0c0c0" stroke="#c0c0c0" stroke-width="2" points="475.2383,-118.3267 478.0181,-108.103 469.4695,-114.3617 475.2383,-118.3267"/>
</g>
<!-- 32 -->
<g id="node33" class="node">
<title>32</title>
<path fill="none" stroke="#569ad8" stroke-width="2" d="M396,-612C396,-612 238,-612 238,-612 232,-612 226,-606 226,-600 226,-600 226,-588 226,-588 226,-582 232,-576 238,-576 238,-576 396,-576 396,-576 402,-576 408,-582 408,-588 408,-588 408,-600 408,-600 408,-606 402,-612 396,-612"/>
<text text-anchor="middle" x="317" y="-591.5" font-family="sans" font-size="10.00" fill="#000000">taxon_shard_saturated_reads_remove</text>
</g>
<!-- 27&#45;&gt;32 -->
<g id="edge55" class="edge">
<title>27&#45;&gt;32</title>
<path fill="none" stroke="#c0c0c0" stroke-width="2" d="M401.6692,-791.7311C403.6954,-760.3385 404.167,-695.0039 379,-648 372.9992,-636.7924 363.6696,-626.8472 354.0537,-618.6426"/>
<polygon fill="#c0c0c0" stroke="#c0c0c0" stroke-width="2" points="355.9684,-615.6918 345.9758,-612.1705 351.5915,-621.1546 355.9684,-615.6918"/>
</g>
<!-- 34 -->
<g id="node35" class="node">
<title>34</title>
<path fill="none" stroke="#56b1d8" stroke-width="2" d="M348,-756C348,-756 250,-756 250,-756 244,-756 238,-750 238,-744 238,-744 238,-732 238,-732 238,-726 244,-720 250,-720 250,-720 348,-720 348,-720 354,-720 360,-726 360,-732 360,-732 360,-744 360,-744 360,-750 354,-756 348,-756"/>
<text text-anchor="middle" x="299" y="-735.5" font-family="sans" font-size="10.00" fill="#000000">taxon_shard_count_alns</text>
</g>
<!-- 27&#45;&gt;34 -->
<g id="edge57" class="edge">
<title>27&#45;&gt;34</title>
<path fill="none" stroke="#c0c0c0" stroke-width="2" d="M374.5134,-791.8314C361.8341,-782.7927 346.3404,-771.7476 332.6945,-762.0198"/>
<polygon fill="#c0c0c0" stroke="#c0c0c0" stroke-width="2" points="334.6529,-759.1176 324.4784,-756.1628 330.5895,-764.8176 334.6529,-759.1176"/>
</g>
<!-- 28 -->
<g id="node29" class="node">
<title>28</title>
<path fill="none" stroke="#8fd856" stroke-width="2" d="M375.5,-252C375.5,-252 306.5,-252 306.5,-252 300.5,-252 294.5,-246 294.5,-240 294.5,-240 294.5,-228 294.5,-228 294.5,-222 300.5,-216 306.5,-216 306.5,-216 375.5,-216 375.5,-216 381.5,-216 387.5,-222 387.5,-228 387.5,-228 387.5,-240 387.5,-240 387.5,-246 381.5,-252 375.5,-252"/>
<text text-anchor="middle" x="341" y="-231.5" font-family="sans" font-size="10.00" fill="#000000">taxon_align_stats</text>
</g>
<!-- 28&#45;&gt;1 -->
<g id="edge15" class="edge">
<title>28&#45;&gt;1</title>
<path fill="none" stroke="#c0c0c0" stroke-width="2" d="M350.2601,-215.7274C360.8041,-196.2286 379.5145,-165.2766 402,-144 414.4952,-132.1766 430.0141,-121.7298 444.6273,-113.2522"/>
<polygon fill="#c0c0c0" stroke="#c0c0c0" stroke-width="2" points="446.5648,-116.1785 453.5739,-108.2335 443.1401,-110.0735 446.5648,-116.1785"/>
</g>
<!-- 29 -->
<g id="node30" class="node">
<title>29</title>
<path fill="none" stroke="#a7d856" stroke-width="2" d="M305,-396C305,-396 231,-396 231,-396 225,-396 219,-390 219,-384 219,-384 219,-372 219,-372 219,-366 225,-360 231,-360 231,-360 305,-360 305,-360 311,-360 317,-366 317,-372 317,-372 317,-384 317,-384 317,-390 311,-396 305,-396"/>
<text text-anchor="middle" x="268" y="-375.5" font-family="sans" font-size="10.00" fill="#000000">taxon_align_merge</text>
</g>
<!-- 29&#45;&gt;28 -->
<g id="edge50" class="edge">
<title>29&#45;&gt;28</title>
<path fill="none" stroke="#c0c0c0" stroke-width="2" d="M277.2455,-359.7623C289.8612,-334.8764 312.5694,-290.0822 327.2028,-261.2165"/>
<polygon fill="#c0c0c0" stroke="#c0c0c0" stroke-width="2" points="330.4297,-262.5916 331.8296,-252.0896 324.1861,-259.4264 330.4297,-262.5916"/>
</g>
<!-- 36 -->
<g id="node37" class="node">
<title>36</title>
<path fill="none" stroke="#59d856" stroke-width="2" d="M264,-324C264,-324 184,-324 184,-324 178,-324 172,-318 172,-312 172,-312 172,-300 172,-300 172,-294 178,-288 184,-288 184,-288 264,-288 264,-288 270,-288 276,-294 276,-300 276,-300 276,-312 276,-312 276,-318 270,-324 264,-324"/>
<text text-anchor="middle" x="224" y="-303.5" font-family="sans" font-size="10.00" fill="#000000">taxon_metadmg_lca</text>
</g>
<!-- 29&#45;&gt;36 -->
<g id="edge59" class="edge">
<title>29&#45;&gt;36</title>
<path fill="none" stroke="#c0c0c0" stroke-width="2" d="M256.8969,-359.8314C251.9326,-351.7079 245.9778,-341.9637 240.5072,-333.0118"/>
<polygon fill="#c0c0c0" stroke="#c0c0c0" stroke-width="2" points="243.4536,-331.121 235.2526,-324.4133 237.4806,-334.7712 243.4536,-331.121"/>
</g>
<!-- 39 -->
<g id="node40" class="node">
<title>39</title>
<path fill="none" stroke="#61d856" stroke-width="2" d="M175,-108C175,-108 73,-108 73,-108 67,-108 61,-102 61,-96 61,-96 61,-84 61,-84 61,-78 67,-72 73,-72 73,-72 175,-72 175,-72 181,-72 187,-78 187,-84 187,-84 187,-96 187,-96 187,-102 181,-108 175,-108"/>
<text text-anchor="middle" x="124" y="-87.5" font-family="sans" font-size="10.00" fill="#000000">taxon_metadmg_damage</text>
</g>
<!-- 29&#45;&gt;39 -->
<g id="edge64" class="edge">
<title>29&#45;&gt;39</title>
<path fill="none" stroke="#c0c0c0" stroke-width="2" d="M218.8256,-363.6787C198.5187,-355.3116 176.5949,-342.6275 163,-324 117.6119,-261.8101 117.7151,-165.6692 121.0739,-118.323"/>
<polygon fill="#c0c0c0" stroke="#c0c0c0" stroke-width="2" points="124.5761,-118.4371 121.8981,-108.1863 117.5991,-117.8697 124.5761,-118.4371"/>
</g>
<!-- 30 -->
<g id="node31" class="node">
<title>30</title>
<path fill="none" stroke="#5692d8" stroke-width="2" d="M320.5,-468C320.5,-468 223.5,-468 223.5,-468 217.5,-468 211.5,-462 211.5,-456 211.5,-456 211.5,-444 211.5,-444 211.5,-438 217.5,-432 223.5,-432 223.5,-432 320.5,-432 320.5,-432 326.5,-432 332.5,-438 332.5,-444 332.5,-444 332.5,-456 332.5,-456 332.5,-462 326.5,-468 320.5,-468"/>
<text text-anchor="middle" x="272" y="-447.5" font-family="sans" font-size="10.00" fill="#000000">taxon_shard_sort_query</text>
</g>
<!-- 30&#45;&gt;29 -->
<g id="edge51" class="edge">
<title>30&#45;&gt;29</title>
<path fill="none" stroke="#c0c0c0" stroke-width="2" d="M270.9906,-431.8314C270.5628,-424.131 270.0541,-414.9743 269.5787,-406.4166"/>
<polygon fill="#c0c0c0" stroke="#c0c0c0" stroke-width="2" points="273.0724,-406.2037 269.023,-396.4133 266.0831,-406.592 273.0724,-406.2037"/>
</g>
<!-- 31 -->
<g id="node32" class="node">
<title>31</title>
<path fill="none" stroke="#56b9d8" stroke-width="2" d="M348.5,-540C348.5,-540 239.5,-540 239.5,-540 233.5,-540 227.5,-534 227.5,-528 227.5,-528 227.5,-516 227.5,-516 227.5,-510 233.5,-504 239.5,-504 239.5,-504 348.5,-504 348.5,-504 354.5,-504 360.5,-510 360.5,-516 360.5,-516 360.5,-528 360.5,-528 360.5,-534 354.5,-540 348.5,-540"/>
<text text-anchor="middle" x="294" y="-519.5" font-family="sans" font-size="10.00" fill="#000000">taxon_shard_clean_header</text>
</g>
<!-- 31&#45;&gt;30 -->
<g id="edge52" class="edge">
<title>31&#45;&gt;30</title>
<path fill="none" stroke="#c0c0c0" stroke-width="2" d="M288.4485,-503.8314C286.0697,-496.0463 283.2362,-486.7729 280.5967,-478.1347"/>
<polygon fill="#c0c0c0" stroke="#c0c0c0" stroke-width="2" points="283.8958,-476.954 277.6263,-468.4133 277.2013,-478.9996 283.8958,-476.954"/>
</g>
<!-- 32&#45;&gt;31 -->
<g id="edge53" class="edge">
<title>32&#45;&gt;31</title>
<path fill="none" stroke="#c0c0c0" stroke-width="2" d="M311.1961,-575.8314C308.7092,-568.0463 305.7469,-558.7729 302.9875,-550.1347"/>
<polygon fill="#c0c0c0" stroke="#c0c0c0" stroke-width="2" points="306.2591,-548.874 299.882,-540.4133 299.591,-551.0041 306.2591,-548.874"/>
</g>
<!-- 33 -->
<g id="node34" class="node">
<title>33</title>
<path fill="none" stroke="#56a2d8" stroke-width="2" d="M358,-684C358,-684 218,-684 218,-684 212,-684 206,-678 206,-672 206,-672 206,-660 206,-660 206,-654 212,-648 218,-648 218,-648 358,-648 358,-648 364,-648 370,-654 370,-660 370,-660 370,-672 370,-672 370,-678 364,-684 358,-684"/>
<text text-anchor="middle" x="288" y="-663.5" font-family="sans" font-size="10.00" fill="#000000">taxon_shard_saturated_reads_get</text>
</g>
<!-- 33&#45;&gt;32 -->
<g id="edge54" class="edge">
<title>33&#45;&gt;32</title>
<path fill="none" stroke="#c0c0c0" stroke-width="2" d="M295.3179,-647.8314C298.4876,-639.9617 302.27,-630.5712 305.7813,-621.8533"/>
<polygon fill="#c0c0c0" stroke="#c0c0c0" stroke-width="2" points="309.0939,-622.9968 309.5835,-612.4133 302.6008,-620.3815 309.0939,-622.9968"/>
</g>
<!-- 33&#45;&gt;38 -->
<g id="edge62" class="edge">
<title>33&#45;&gt;38</title>
<path fill="none" stroke="#c0c0c0" stroke-width="2" d="M245.1018,-647.8314C222.2643,-638.159 194.002,-626.1891 169.9313,-615.9944"/>
<polygon fill="#c0c0c0" stroke="#c0c0c0" stroke-width="2" points="171.1629,-612.7151 160.5897,-612.038 168.4329,-619.1608 171.1629,-612.7151"/>
</g>
<!-- 34&#45;&gt;33 -->
<g id="edge56" class="edge">
<title>34&#45;&gt;33</title>
<path fill="none" stroke="#c0c0c0" stroke-width="2" d="M296.2242,-719.8314C295.0478,-712.131 293.6489,-702.9743 292.3414,-694.4166"/>
<polygon fill="#c0c0c0" stroke="#c0c0c0" stroke-width="2" points="295.7833,-693.7699 290.8131,-684.4133 288.8636,-694.8272 295.7833,-693.7699"/>
</g>
<!-- 35 -->
<g id="node36" class="node">
<title>35</title>
<path fill="none" stroke="#61d856" stroke-width="2" d="M264.5,-252C264.5,-252 183.5,-252 183.5,-252 177.5,-252 171.5,-246 171.5,-240 171.5,-240 171.5,-228 171.5,-228 171.5,-222 177.5,-216 183.5,-216 183.5,-216 264.5,-216 264.5,-216 270.5,-216 276.5,-222 276.5,-228 276.5,-228 276.5,-240 276.5,-240 276.5,-246 270.5,-252 264.5,-252"/>
<text text-anchor="middle" x="224" y="-231.5" font-family="sans" font-size="10.00" fill="#000000">taxon_metadmg_dfit</text>
</g>
<!-- 35&#45;&gt;1 -->
<g id="edge10" class="edge">
<title>35&#45;&gt;1</title>
<path fill="none" stroke="#c0c0c0" stroke-width="2" d="M250.5855,-215.9044C279.1664,-196.8331 326.2658,-166.4979 369,-144 393.2135,-131.2526 421.07,-118.8465 444.1435,-109.1467"/>
<polygon fill="#c0c0c0" stroke="#c0c0c0" stroke-width="2" points="445.5001,-112.3732 453.3861,-105.2977 442.809,-105.9111 445.5001,-112.3732"/>
</g>
<!-- 37 -->
<g id="node38" class="node">
<title>37</title>
<path fill="none" stroke="#68d856" stroke-width="2" d="M273,-180C273,-180 163,-180 163,-180 157,-180 151,-174 151,-168 151,-168 151,-156 151,-156 151,-150 157,-144 163,-144 163,-144 273,-144 273,-144 279,-144 285,-150 285,-156 285,-156 285,-168 285,-168 285,-174 279,-180 273,-180"/>
<text text-anchor="middle" x="218" y="-159.5" font-family="sans" font-size="10.00" fill="#000000">taxon_metadmg_aggregate</text>
</g>
<!-- 35&#45;&gt;37 -->
<g id="edge61" class="edge">
<title>35&#45;&gt;37</title>
<path fill="none" stroke="#c0c0c0" stroke-width="2" d="M222.4859,-215.8314C221.8442,-208.131 221.0812,-198.9743 220.3681,-190.4166"/>
<polygon fill="#c0c0c0" stroke="#c0c0c0" stroke-width="2" points="223.8529,-190.088 219.5344,-180.4133 216.8771,-190.6694 223.8529,-190.088"/>
</g>
<!-- 36&#45;&gt;35 -->
<g id="edge58" class="edge">
<title>36&#45;&gt;35</title>
<path fill="none" stroke="#c0c0c0" stroke-width="2" d="M224,-287.8314C224,-280.131 224,-270.9743 224,-262.4166"/>
<polygon fill="#c0c0c0" stroke="#c0c0c0" stroke-width="2" points="227.5001,-262.4132 224,-252.4133 220.5001,-262.4133 227.5001,-262.4132"/>
</g>
<!-- 36&#45;&gt;37 -->
<g id="edge60" class="edge">
<title>36&#45;&gt;37</title>
<path fill="none" stroke="#c0c0c0" stroke-width="2" d="M193.5042,-287.7757C181.3178,-278.7056 168.6228,-266.5508 162,-252 155.3719,-237.4374 155.743,-230.7258 162,-216 166.6979,-204.9437 174.8914,-195.0516 183.5843,-186.8494"/>
<polygon fill="#c0c0c0" stroke="#c0c0c0" stroke-width="2" points="186.0754,-189.3197 191.2769,-180.0896 181.4547,-184.0614 186.0754,-189.3197"/>
</g>
<!-- 37&#45;&gt;0 -->
<g id="edge4" class="edge">
<title>37&#45;&gt;0</title>
<path fill="none" stroke="#c0c0c0" stroke-width="2" d="M214.7032,-143.7439C211.1077,-125.3259 204.6853,-96.2263 196,-72 192.7854,-63.0333 188.545,-53.5741 184.4235,-45.1213"/>
<polygon fill="#c0c0c0" stroke="#c0c0c0" stroke-width="2" points="187.5,-43.4484 179.8818,-36.0853 181.2455,-46.592 187.5,-43.4484"/>
</g>
<!-- 37&#45;&gt;1 -->
<g id="edge11" class="edge">
<title>37&#45;&gt;1</title>
<path fill="none" stroke="#c0c0c0" stroke-width="2" d="M285.0279,-144.3868C333.9733,-131.5253 399.2066,-114.3837 443.2519,-102.8097"/>
<polygon fill="#c0c0c0" stroke="#c0c0c0" stroke-width="2" points="444.3591,-106.1377 453.1412,-100.2111 442.58,-99.3675 444.3591,-106.1377"/>
</g>
<!-- 38&#45;&gt;0 -->
<g id="edge3" class="edge">
<title>38&#45;&gt;0</title>
<path fill="none" stroke="#c0c0c0" stroke-width="2" d="M104.8677,-575.974C80.1109,-540.1568 29,-456.6836 29,-378 29,-378 29,-378 29,-162 29,-120.7145 25.5325,-103.6854 52,-72 70.4884,-49.8667 99.9909,-36.3664 124.87,-28.3995"/>
<polygon fill="#c0c0c0" stroke="#c0c0c0" stroke-width="2" points="125.9238,-31.7376 134.4967,-25.5122 123.9127,-25.0327 125.9238,-31.7376"/>
</g>
<!-- 39&#45;&gt;0 -->
<g id="edge2" class="edge">
<title>39&#45;&gt;0</title>
<path fill="none" stroke="#c0c0c0" stroke-width="2" d="M135.6077,-71.8314C140.7978,-63.7079 147.0232,-53.9637 152.7425,-45.0118"/>
<polygon fill="#c0c0c0" stroke="#c0c0c0" stroke-width="2" points="155.8015,-46.7246 158.236,-36.4133 149.9026,-42.9559 155.8015,-46.7246"/>
</g>
</g>
</svg>
