<?xml version="1.0" encoding="UTF-8" standalone="no"?>
<!DOCTYPE svg PUBLIC "-//W3C//DTD SVG 1.1//EN"
 "http://www.w3.org/Graphics/SVG/1.1/DTD/svg11.dtd">
<!-- Generated by graphviz version 2.40.1 (0)
 -->
<!-- Title: snakemake_dag Pages: 1 -->
<svg width="1039pt" height="1628pt"
 viewBox="0.00 0.00 1039.00 1628.00" xmlns="http://www.w3.org/2000/svg" xmlns:xlink="http://www.w3.org/1999/xlink">
<g id="graph0" class="graph" transform="scale(1 1) rotate(0) translate(4 1624)">
<title>snakemake_dag</title>
<polygon fill="#ffffff" stroke="transparent" points="-4,4 -4,-1624 1035,-1624 1035,4 -4,4"/>
<!-- 0 -->
<g id="node1" class="node">
<title>0</title>
<path fill="none" stroke="#c6d856" stroke-width="2" d="M206.5,-36C206.5,-36 159.5,-36 159.5,-36 153.5,-36 147.5,-30 147.5,-24 147.5,-24 147.5,-12 147.5,-12 147.5,-6 153.5,0 159.5,0 159.5,0 206.5,0 206.5,0 212.5,0 218.5,-6 218.5,-12 218.5,-12 218.5,-24 218.5,-24 218.5,-30 212.5,-36 206.5,-36"/>
<text text-anchor="middle" x="183" y="-15.5" font-family="sans" font-size="10.00" fill="#000000">target_taxon</text>
</g>
<!-- 1 -->
<g id="node2" class="node">
<title>1</title>
<path fill="none" stroke="#d8b456" stroke-width="2" d="M538.5,-108C538.5,-108 485.5,-108 485.5,-108 479.5,-108 473.5,-102 473.5,-96 473.5,-96 473.5,-84 473.5,-84 473.5,-78 479.5,-72 485.5,-72 485.5,-72 538.5,-72 538.5,-72 544.5,-72 550.5,-78 550.5,-84 550.5,-84 550.5,-96 550.5,-96 550.5,-102 544.5,-108 538.5,-108"/>
<text text-anchor="middle" x="512" y="-87.5" font-family="sans" font-size="10.00" fill="#000000">multiqc_taxon</text>
</g>
<!-- 1&#45;&gt;0 -->
<g id="edge3" class="edge">
<title>1&#45;&gt;0</title>
<path fill="none" stroke="#c0c0c0" stroke-width="2" d="M473.2921,-81.529C412.1841,-68.1558 293.6307,-42.211 228.5288,-27.9637"/>
<polygon fill="#c0c0c0" stroke="#c0c0c0" stroke-width="2" points="229.0733,-24.5001 218.5562,-25.7813 227.5768,-31.3383 229.0733,-24.5001"/>
</g>
<!-- 2 -->
<g id="node3" class="node">
<title>2</title>
<path fill="none" stroke="#5673d8" stroke-width="2" d="M1019,-1404C1019,-1404 957,-1404 957,-1404 951,-1404 945,-1398 945,-1392 945,-1392 945,-1380 945,-1380 945,-1374 951,-1368 957,-1368 957,-1368 1019,-1368 1019,-1368 1025,-1368 1031,-1374 1031,-1380 1031,-1380 1031,-1392 1031,-1392 1031,-1398 1025,-1404 1019,-1404"/>
<text text-anchor="middle" x="988" y="-1383.5" font-family="sans" font-size="10.00" fill="#000000">trim_fastqc_raw</text>
</g>
<!-- 2&#45;&gt;1 -->
<g id="edge12" class="edge">
<title>2&#45;&gt;1</title>
<path fill="none" stroke="#c0c0c0" stroke-width="2" d="M990.072,-1367.8427C993.0011,-1340.5621 998,-1287.359 998,-1242 998,-1242 998,-1242 998,-234 998,-174.2061 952.2025,-169.2468 898,-144 838.9973,-116.5173 650.6834,-99.8446 560.7334,-93.2553"/>
<polygon fill="#c0c0c0" stroke="#c0c0c0" stroke-width="2" points="560.7514,-89.7476 550.5257,-92.52 560.2483,-96.7295 560.7514,-89.7476"/>
</g>
<!-- 3 -->
<g id="node4" class="node">
<title>3</title>
<path fill="none" stroke="#5663d8" stroke-width="2" d="M947,-1620C947,-1620 871,-1620 871,-1620 865,-1620 859,-1614 859,-1608 859,-1608 859,-1596 859,-1596 859,-1590 865,-1584 871,-1584 871,-1584 947,-1584 947,-1584 953,-1584 959,-1590 959,-1596 959,-1596 959,-1608 959,-1608 959,-1614 953,-1620 947,-1620"/>
<text text-anchor="middle" x="909" y="-1599.5" font-family="sans" font-size="10.00" fill="#000000">trim_get_fastq_raw</text>
</g>
<!-- 3&#45;&gt;2 -->
<g id="edge19" class="edge">
<title>3&#45;&gt;2</title>
<path fill="none" stroke="#c0c0c0" stroke-width="2" d="M921.4668,-1583.6252C927.9546,-1573.4571 935.6302,-1560.4001 941,-1548 960.6365,-1502.6546 974.8063,-1446.7044 982.1848,-1413.8301"/>
<polygon fill="#c0c0c0" stroke="#c0c0c0" stroke-width="2" points="985.6149,-1414.528 984.3401,-1404.0102 978.7776,-1413.0273 985.6149,-1414.528"/>
</g>
<!-- 4 -->
<g id="node5" class="node">
<title>4</title>
<path fill="none" stroke="#568ad8" stroke-width="2" d="M920,-1548C920,-1548 796,-1548 796,-1548 790,-1548 784,-1542 784,-1536 784,-1536 784,-1524 784,-1524 784,-1518 790,-1512 796,-1512 796,-1512 920,-1512 920,-1512 926,-1512 932,-1518 932,-1524 932,-1524 932,-1536 932,-1536 932,-1542 926,-1548 920,-1548"/>
<text text-anchor="middle" x="858" y="-1527.5" font-family="sans" font-size="10.00" fill="#000000">trim_adapterremoval_fastq_pe</text>
</g>
<!-- 3&#45;&gt;4 -->
<g id="edge20" class="edge">
<title>3&#45;&gt;4</title>
<path fill="none" stroke="#c0c0c0" stroke-width="2" d="M896.1305,-1583.8314C890.3165,-1575.6232 883.3304,-1565.7606 876.9354,-1556.7323"/>
<polygon fill="#c0c0c0" stroke="#c0c0c0" stroke-width="2" points="879.679,-1554.5505 871.0427,-1548.4133 873.9669,-1558.5966 879.679,-1554.5505"/>
</g>
<!-- 4&#45;&gt;1 -->
<g id="edge10" class="edge">
<title>4&#45;&gt;1</title>
<path fill="none" stroke="#c0c0c0" stroke-width="2" d="M857.1712,-1511.8191C855.9996,-1484.5085 854,-1431.2675 854,-1386 854,-1386 854,-1386 854,-234 854,-190.7517 850.6833,-171.1266 817,-144 778.3497,-112.8732 636.8917,-98.5603 560.9595,-92.9963"/>
<polygon fill="#c0c0c0" stroke="#c0c0c0" stroke-width="2" points="560.9201,-89.4848 550.6975,-92.2684 560.4248,-96.4672 560.9201,-89.4848"/>
</g>
<!-- 5 -->
<g id="node6" class="node">
<title>5</title>
<path fill="none" stroke="#566bd8" stroke-width="2" d="M957.5,-1332C957.5,-1332 894.5,-1332 894.5,-1332 888.5,-1332 882.5,-1326 882.5,-1320 882.5,-1320 882.5,-1308 882.5,-1308 882.5,-1302 888.5,-1296 894.5,-1296 894.5,-1296 957.5,-1296 957.5,-1296 963.5,-1296 969.5,-1302 969.5,-1308 969.5,-1308 969.5,-1320 969.5,-1320 969.5,-1326 963.5,-1332 957.5,-1332"/>
<text text-anchor="middle" x="926" y="-1311.5" font-family="sans" font-size="10.00" fill="#000000">trim_fastqc_trim</text>
</g>
<!-- 4&#45;&gt;5 -->
<g id="edge21" class="edge">
<title>4&#45;&gt;5</title>
<path fill="none" stroke="#c0c0c0" stroke-width="2" d="M863.6807,-1511.9555C875.5557,-1474.235 903.0755,-1386.8188 917.2356,-1341.8399"/>
<polygon fill="#c0c0c0" stroke="#c0c0c0" stroke-width="2" points="920.6232,-1342.7346 920.2877,-1332.1451 913.9463,-1340.6325 920.6232,-1342.7346"/>
</g>
<!-- 7 -->
<g id="node8" class="node">
<title>7</title>
<path fill="none" stroke="#d87556" stroke-width="2" d="M509.5,-1476C509.5,-1476 432.5,-1476 432.5,-1476 426.5,-1476 420.5,-1470 420.5,-1464 420.5,-1464 420.5,-1452 420.5,-1452 420.5,-1446 426.5,-1440 432.5,-1440 432.5,-1440 509.5,-1440 509.5,-1440 515.5,-1440 521.5,-1446 521.5,-1452 521.5,-1452 521.5,-1464 521.5,-1464 521.5,-1470 515.5,-1476 509.5,-1476"/>
<text text-anchor="middle" x="471" y="-1455.5" font-family="sans" font-size="10.00" fill="#000000">derep_merge_lanes</text>
</g>
<!-- 4&#45;&gt;7 -->
<g id="edge25" class="edge">
<title>4&#45;&gt;7</title>
<path fill="none" stroke="#c0c0c0" stroke-width="2" d="M783.8404,-1516.2029C710.6701,-1502.5898 600.1478,-1482.0275 531.94,-1469.3377"/>
<polygon fill="#c0c0c0" stroke="#c0c0c0" stroke-width="2" points="532.2526,-1465.8358 521.781,-1467.4476 530.9721,-1472.7178 532.2526,-1465.8358"/>
</g>
<!-- 5&#45;&gt;1 -->
<g id="edge17" class="edge">
<title>5&#45;&gt;1</title>
<path fill="none" stroke="#c0c0c0" stroke-width="2" d="M922.4776,-1295.8955C917.4982,-1268.6824 909,-1215.5642 909,-1170 909,-1170 909,-1170 909,-234 909,-190.0449 903.0733,-170.4936 868,-144 820.4869,-108.1096 646.5434,-95.7318 560.651,-91.7475"/>
<polygon fill="#c0c0c0" stroke="#c0c0c0" stroke-width="2" points="560.7728,-88.2495 550.6273,-91.3022 560.4621,-95.2426 560.7728,-88.2495"/>
</g>
<!-- 6 -->
<g id="node7" class="node">
<title>6</title>
<path fill="none" stroke="#d86656" stroke-width="2" d="M106.5,-1260C106.5,-1260 57.5,-1260 57.5,-1260 51.5,-1260 45.5,-1254 45.5,-1248 45.5,-1248 45.5,-1236 45.5,-1236 45.5,-1230 51.5,-1224 57.5,-1224 57.5,-1224 106.5,-1224 106.5,-1224 112.5,-1224 118.5,-1230 118.5,-1236 118.5,-1236 118.5,-1248 118.5,-1248 118.5,-1254 112.5,-1260 106.5,-1260"/>
<text text-anchor="middle" x="82" y="-1239.5" font-family="sans" font-size="10.00" fill="#000000">derep_fastqc</text>
</g>
<!-- 6&#45;&gt;1 -->
<g id="edge5" class="edge">
<title>6&#45;&gt;1</title>
<path fill="none" stroke="#c0c0c0" stroke-width="2" d="M63.3929,-1223.8719C39.1995,-1198.2662 0,-1148.9215 0,-1098 0,-1098 0,-1098 0,-594 0,-492.231 76,-479.769 76,-378 76,-378 76,-378 76,-234 76,-180.4818 108.9654,-169.5332 156,-144 208.0803,-115.7276 378.2789,-99.714 463.0752,-93.3085"/>
<polygon fill="#c0c0c0" stroke="#c0c0c0" stroke-width="2" points="463.5108,-96.7859 473.225,-92.557 462.9939,-89.805 463.5108,-96.7859"/>
</g>
<!-- 7&#45;&gt;6 -->
<g id="edge22" class="edge">
<title>7&#45;&gt;6</title>
<path fill="none" stroke="#c0c0c0" stroke-width="2" d="M429.3635,-1439.9597C377.5359,-1416.9876 286.8412,-1375.0798 213,-1332 178.0967,-1311.637 140.2575,-1285.1195 114.2633,-1266.1525"/>
<polygon fill="#c0c0c0" stroke="#c0c0c0" stroke-width="2" points="116.0554,-1263.1263 105.9233,-1260.0295 111.9128,-1268.7689 116.0554,-1263.1263"/>
</g>
<!-- 9 -->
<g id="node10" class="node">
<title>9</title>
<path fill="none" stroke="#d88556" stroke-width="2" d="M610.5,-1260C610.5,-1260 525.5,-1260 525.5,-1260 519.5,-1260 513.5,-1254 513.5,-1248 513.5,-1248 513.5,-1236 513.5,-1236 513.5,-1230 519.5,-1224 525.5,-1224 525.5,-1224 610.5,-1224 610.5,-1224 616.5,-1224 622.5,-1230 622.5,-1236 622.5,-1236 622.5,-1248 622.5,-1248 622.5,-1254 616.5,-1260 610.5,-1260"/>
<text text-anchor="middle" x="568" y="-1239.5" font-family="sans" font-size="10.00" fill="#000000">derep_nonpareil_infer</text>
</g>
<!-- 7&#45;&gt;9 -->
<g id="edge27" class="edge">
<title>7&#45;&gt;9</title>
<path fill="none" stroke="#c0c0c0" stroke-width="2" d="M479.1033,-1439.9555C496.114,-1402.0762 535.6299,-1314.0818 555.7519,-1269.274"/>
<polygon fill="#c0c0c0" stroke="#c0c0c0" stroke-width="2" points="558.9477,-1270.7013 559.8515,-1260.1451 552.562,-1267.8336 558.9477,-1270.7013"/>
</g>
<!-- 10 -->
<g id="node11" class="node">
<title>10</title>
<path fill="none" stroke="#d89556" stroke-width="2" d="M459,-1404C459,-1404 411,-1404 411,-1404 405,-1404 399,-1398 399,-1392 399,-1392 399,-1380 399,-1380 399,-1374 405,-1368 411,-1368 411,-1368 459,-1368 459,-1368 465,-1368 471,-1374 471,-1380 471,-1380 471,-1392 471,-1392 471,-1398 465,-1404 459,-1404"/>
<text text-anchor="middle" x="435" y="-1383.5" font-family="sans" font-size="10.00" fill="#000000">derep_seqkit</text>
</g>
<!-- 7&#45;&gt;10 -->
<g id="edge30" class="edge">
<title>7&#45;&gt;10</title>
<path fill="none" stroke="#c0c0c0" stroke-width="2" d="M461.9157,-1439.8314C457.9385,-1431.8771 453.1845,-1422.369 448.7861,-1413.5723"/>
<polygon fill="#c0c0c0" stroke="#c0c0c0" stroke-width="2" points="451.8093,-1411.7923 444.2066,-1404.4133 445.5483,-1414.9228 451.8093,-1411.7923"/>
</g>
<!-- 8 -->
<g id="node9" class="node">
<title>8</title>
<path fill="none" stroke="#d88d56" stroke-width="2" d="M814,-1116C814,-1116 732,-1116 732,-1116 726,-1116 720,-1110 720,-1104 720,-1104 720,-1092 720,-1092 720,-1086 726,-1080 732,-1080 732,-1080 814,-1080 814,-1080 820,-1080 826,-1086 826,-1092 826,-1092 826,-1104 826,-1104 826,-1110 820,-1116 814,-1116"/>
<text text-anchor="middle" x="773" y="-1095.5" font-family="sans" font-size="10.00" fill="#000000">derep_nonpareil_plot</text>
</g>
<!-- 8&#45;&gt;1 -->
<g id="edge14" class="edge">
<title>8&#45;&gt;1</title>
<path fill="none" stroke="#c0c0c0" stroke-width="2" d="M782.1192,-1079.8786C794.7415,-1053.076 816,-1000.9635 816,-954 816,-954 816,-954 816,-234 816,-192.6022 822.2803,-172.2291 792,-144 759.0821,-113.3119 631.6966,-98.9766 560.6262,-93.2451"/>
<polygon fill="#c0c0c0" stroke="#c0c0c0" stroke-width="2" points="560.8087,-89.7488 550.567,-92.4609 560.2647,-96.7276 560.8087,-89.7488"/>
</g>
<!-- 9&#45;&gt;8 -->
<g id="edge26" class="edge">
<title>9&#45;&gt;8</title>
<path fill="none" stroke="#c0c0c0" stroke-width="2" d="M622.6817,-1228.3312C649.6026,-1219.7669 681.4587,-1206.731 706,-1188 728.1899,-1171.0637 746.5317,-1144.8865 758.3802,-1125.1213"/>
<polygon fill="#c0c0c0" stroke="#c0c0c0" stroke-width="2" points="761.5213,-1126.6817 763.5105,-1116.2753 755.4659,-1123.1699 761.5213,-1126.6817"/>
</g>
<!-- 10&#45;&gt;6 -->
<g id="edge23" class="edge">
<title>10&#45;&gt;6</title>
<path fill="none" stroke="#c0c0c0" stroke-width="2" d="M398.8817,-1371.2662C334.3531,-1344.9429 199.3746,-1289.8809 128.2011,-1260.8469"/>
<polygon fill="#c0c0c0" stroke="#c0c0c0" stroke-width="2" points="129.1769,-1257.465 118.5957,-1256.9285 126.5329,-1263.9465 129.1769,-1257.465"/>
</g>
<!-- 10&#45;&gt;9 -->
<g id="edge28" class="edge">
<title>10&#45;&gt;9</title>
<path fill="none" stroke="#c0c0c0" stroke-width="2" d="M451.8397,-1367.7186C468.6007,-1349.5277 495.0637,-1320.8209 518,-1296 526.4503,-1286.8553 535.7127,-1276.8476 543.9443,-1267.9591"/>
<polygon fill="#c0c0c0" stroke="#c0c0c0" stroke-width="2" points="546.6387,-1270.2007 550.8665,-1260.4859 541.5033,-1265.4439 546.6387,-1270.2007"/>
</g>
<!-- 11 -->
<g id="node12" class="node">
<title>11</title>
<path fill="none" stroke="#d87556" stroke-width="2" d="M447.5,-1332C447.5,-1332 358.5,-1332 358.5,-1332 352.5,-1332 346.5,-1326 346.5,-1320 346.5,-1320 346.5,-1308 346.5,-1308 346.5,-1302 352.5,-1296 358.5,-1296 358.5,-1296 447.5,-1296 447.5,-1296 453.5,-1296 459.5,-1302 459.5,-1308 459.5,-1308 459.5,-1320 459.5,-1320 459.5,-1326 453.5,-1332 447.5,-1332"/>
<text text-anchor="middle" x="403" y="-1311.5" font-family="sans" font-size="10.00" fill="#000000">derep_low_complexity</text>
</g>
<!-- 10&#45;&gt;11 -->
<g id="edge31" class="edge">
<title>10&#45;&gt;11</title>
<path fill="none" stroke="#c0c0c0" stroke-width="2" d="M426.925,-1367.8314C423.3898,-1359.8771 419.164,-1350.369 415.2544,-1341.5723"/>
<polygon fill="#c0c0c0" stroke="#c0c0c0" stroke-width="2" points="418.4435,-1340.1299 411.1837,-1332.4133 412.0468,-1342.9729 418.4435,-1340.1299"/>
</g>
<!-- 11&#45;&gt;6 -->
<g id="edge24" class="edge">
<title>11&#45;&gt;6</title>
<path fill="none" stroke="#c0c0c0" stroke-width="2" d="M346.3476,-1305.0785C291.3346,-1295.8514 205.7109,-1279.9938 133,-1260 131.5288,-1259.5955 130.0389,-1259.1698 128.5386,-1258.7272"/>
<polygon fill="#c0c0c0" stroke="#c0c0c0" stroke-width="2" points="129.1626,-1255.2551 118.5737,-1255.6076 127.0712,-1261.9354 129.1626,-1255.2551"/>
</g>
<!-- 11&#45;&gt;9 -->
<g id="edge29" class="edge">
<title>11&#45;&gt;9</title>
<path fill="none" stroke="#c0c0c0" stroke-width="2" d="M444.6365,-1295.8314C466.7042,-1286.2018 493.9907,-1274.295 517.2857,-1264.1299"/>
<polygon fill="#c0c0c0" stroke="#c0c0c0" stroke-width="2" points="518.8974,-1267.2454 526.6629,-1260.038 516.0977,-1260.8296 518.8974,-1267.2454"/>
</g>
<!-- 12 -->
<g id="node13" class="node">
<title>12</title>
<path fill="none" stroke="#56d89a" stroke-width="2" d="M483.5,-1260C483.5,-1260 390.5,-1260 390.5,-1260 384.5,-1260 378.5,-1254 378.5,-1248 378.5,-1248 378.5,-1236 378.5,-1236 378.5,-1230 384.5,-1224 390.5,-1224 390.5,-1224 483.5,-1224 483.5,-1224 489.5,-1224 495.5,-1230 495.5,-1236 495.5,-1236 495.5,-1248 495.5,-1248 495.5,-1254 489.5,-1260 483.5,-1260"/>
<text text-anchor="middle" x="437" y="-1239.5" font-family="sans" font-size="10.00" fill="#000000">taxon_prefilter_bowtie2</text>
</g>
<!-- 11&#45;&gt;12 -->
<g id="edge32" class="edge">
<title>11&#45;&gt;12</title>
<path fill="none" stroke="#c0c0c0" stroke-width="2" d="M411.5796,-1295.8314C415.3358,-1287.8771 419.8257,-1278.369 423.9798,-1269.5723"/>
<polygon fill="#c0c0c0" stroke="#c0c0c0" stroke-width="2" points="427.1996,-1270.9503 428.3048,-1260.4133 420.8699,-1267.9612 427.1996,-1270.9503"/>
</g>
<!-- 21 -->
<g id="node22" class="node">
<title>21</title>
<path fill="none" stroke="#d6d856" stroke-width="2" d="M431.5,-900C431.5,-900 342.5,-900 342.5,-900 336.5,-900 330.5,-894 330.5,-888 330.5,-888 330.5,-876 330.5,-876 330.5,-870 336.5,-864 342.5,-864 342.5,-864 431.5,-864 431.5,-864 437.5,-864 443.5,-870 443.5,-876 443.5,-876 443.5,-888 443.5,-888 443.5,-894 437.5,-900 431.5,-900"/>
<text text-anchor="middle" x="387" y="-879.5" font-family="sans" font-size="10.00" fill="#000000">prefilter_reads_extract</text>
</g>
<!-- 11&#45;&gt;21 -->
<g id="edge43" class="edge">
<title>11&#45;&gt;21</title>
<path fill="none" stroke="#c0c0c0" stroke-width="2" d="M389.7938,-1295.8115C383.0008,-1285.6979 375.099,-1272.6337 370,-1260 354.664,-1222.0024 350,-1210.9758 350,-1170 350,-1170 350,-1170 350,-1026 350,-984.4385 364.6372,-938.1923 375.499,-909.5961"/>
<polygon fill="#c0c0c0" stroke="#c0c0c0" stroke-width="2" points="378.7698,-910.8419 379.1533,-900.254 372.2508,-908.2919 378.7698,-910.8419"/>
</g>
<!-- 34 -->
<g id="node35" class="node">
<title>34</title>
<path fill="none" stroke="#56a9d8" stroke-width="2" d="M196,-612C196,-612 40,-612 40,-612 34,-612 28,-606 28,-600 28,-600 28,-588 28,-588 28,-582 34,-576 40,-576 40,-576 196,-576 196,-576 202,-576 208,-582 208,-588 208,-588 208,-600 208,-600 208,-606 202,-612 196,-612"/>
<text text-anchor="middle" x="118" y="-591.5" font-family="sans" font-size="10.00" fill="#000000">taxon_shard_saturated_reads_extract</text>
</g>
<!-- 11&#45;&gt;34 -->
<g id="edge59" class="edge">
<title>11&#45;&gt;34</title>
<path fill="none" stroke="#c0c0c0" stroke-width="2" d="M346.1853,-1307.3209C270.7656,-1294.9299 147,-1260.7679 147,-1170 147,-1170 147,-1170 147,-738 147,-697.1172 135.6276,-650.9678 127.126,-622.1802"/>
<polygon fill="#c0c0c0" stroke="#c0c0c0" stroke-width="2" points="130.41,-620.9494 124.1502,-612.4016 123.7133,-622.9874 130.41,-620.9494"/>
</g>
<!-- 12&#45;&gt;1 -->
<g id="edge18" class="edge">
<title>12&#45;&gt;1</title>
<path fill="none" stroke="#c0c0c0" stroke-width="2" d="M495.6659,-1224.9225C527.7545,-1214.4504 563.1434,-1200.6653 574,-1188 627.895,-1125.1261 725.8099,-613.5007 759,-252 763.4707,-203.3058 773.4178,-177.7149 738,-144 712.848,-120.0572 619.3124,-103.8954 560.7464,-95.8775"/>
<polygon fill="#c0c0c0" stroke="#c0c0c0" stroke-width="2" points="560.9733,-92.3768 550.5979,-94.5215 560.0462,-99.3152 560.9733,-92.3768"/>
</g>
<!-- 16 -->
<g id="node17" class="node">
<title>16</title>
<path fill="none" stroke="#56d8d0" stroke-width="2" d="M553,-1188C553,-1188 407,-1188 407,-1188 401,-1188 395,-1182 395,-1176 395,-1176 395,-1164 395,-1164 395,-1158 401,-1152 407,-1152 407,-1152 553,-1152 553,-1152 559,-1152 565,-1158 565,-1164 565,-1164 565,-1176 565,-1176 565,-1182 559,-1188 553,-1188"/>
<text text-anchor="middle" x="480" y="-1167.5" font-family="sans" font-size="10.00" fill="#000000">taxon_prefilter_shard_clean_header</text>
</g>
<!-- 12&#45;&gt;16 -->
<g id="edge36" class="edge">
<title>12&#45;&gt;16</title>
<path fill="none" stroke="#c0c0c0" stroke-width="2" d="M447.8507,-1223.8314C452.7023,-1215.7079 458.5217,-1205.9637 463.868,-1197.0118"/>
<polygon fill="#c0c0c0" stroke="#c0c0c0" stroke-width="2" points="466.8806,-1198.7933 469.0032,-1188.4133 460.8708,-1195.2041 466.8806,-1198.7933"/>
</g>
<!-- 13 -->
<g id="node14" class="node">
<title>13</title>
<path fill="none" stroke="#56d88a" stroke-width="2" d="M585.5,-900C585.5,-900 478.5,-900 478.5,-900 472.5,-900 466.5,-894 466.5,-888 466.5,-888 466.5,-876 466.5,-876 466.5,-870 472.5,-864 478.5,-864 478.5,-864 585.5,-864 585.5,-864 591.5,-864 597.5,-870 597.5,-876 597.5,-876 597.5,-888 597.5,-888 597.5,-894 591.5,-900 585.5,-900"/>
<text text-anchor="middle" x="532" y="-879.5" font-family="sans" font-size="10.00" fill="#000000">taxon_prefilter_align_stats</text>
</g>
<!-- 13&#45;&gt;1 -->
<g id="edge11" class="edge">
<title>13&#45;&gt;1</title>
<path fill="none" stroke="#c0c0c0" stroke-width="2" d="M531.5447,-863.9699C528.9373,-760.7176 515.9046,-244.6211 512.7085,-118.0559"/>
<polygon fill="#c0c0c0" stroke="#c0c0c0" stroke-width="2" points="516.206,-117.9104 512.4546,-108.0019 509.2083,-118.0871 516.206,-117.9104"/>
</g>
<!-- 14 -->
<g id="node15" class="node">
<title>14</title>
<path fill="none" stroke="#56d873" stroke-width="2" d="M554,-1044C554,-1044 442,-1044 442,-1044 436,-1044 430,-1038 430,-1032 430,-1032 430,-1020 430,-1020 430,-1014 436,-1008 442,-1008 442,-1008 554,-1008 554,-1008 560,-1008 566,-1014 566,-1020 566,-1020 566,-1032 566,-1032 566,-1038 560,-1044 554,-1044"/>
<text text-anchor="middle" x="498" y="-1023.5" font-family="sans" font-size="10.00" fill="#000000">taxon_prefilter_align_merge</text>
</g>
<!-- 14&#45;&gt;13 -->
<g id="edge33" class="edge">
<title>14&#45;&gt;13</title>
<path fill="none" stroke="#c0c0c0" stroke-width="2" d="M503.4259,-1007.5809C506.4126,-997.1773 510.0918,-983.9098 513,-972 518.0431,-951.3476 522.9792,-927.8366 526.5557,-910.025"/>
<polygon fill="#c0c0c0" stroke="#c0c0c0" stroke-width="2" points="530.0307,-910.4951 528.5453,-900.0049 523.1647,-909.1317 530.0307,-910.4951"/>
</g>
<!-- 18 -->
<g id="node19" class="node">
<title>18</title>
<path fill="none" stroke="#56d8c1" stroke-width="2" d="M685,-324C685,-324 567,-324 567,-324 561,-324 555,-318 555,-312 555,-312 555,-300 555,-300 555,-294 561,-288 567,-288 567,-288 685,-288 685,-288 691,-288 697,-294 697,-300 697,-300 697,-312 697,-312 697,-318 691,-324 685,-324"/>
<text text-anchor="middle" x="626" y="-303.5" font-family="sans" font-size="10.00" fill="#000000">taxon_prefilter_metadmg_lca</text>
</g>
<!-- 14&#45;&gt;18 -->
<g id="edge38" class="edge">
<title>14&#45;&gt;18</title>
<path fill="none" stroke="#c0c0c0" stroke-width="2" d="M530.9632,-1007.8336C568.8887,-984.233 626,-939.1976 626,-882 626,-882 626,-882 626,-450 626,-409.876 626,-363.4631 626,-334.4177"/>
<polygon fill="#c0c0c0" stroke="#c0c0c0" stroke-width="2" points="629.5001,-334.1853 626,-324.1854 622.5001,-334.1854 629.5001,-334.1853"/>
</g>
<!-- 22 -->
<g id="node23" class="node">
<title>22</title>
<path fill="none" stroke="#ced856" stroke-width="2" d="M492,-972C492,-972 390,-972 390,-972 384,-972 378,-966 378,-960 378,-960 378,-948 378,-948 378,-942 384,-936 390,-936 390,-936 492,-936 492,-936 498,-936 504,-942 504,-948 504,-948 504,-960 504,-960 504,-966 498,-972 492,-972"/>
<text text-anchor="middle" x="441" y="-951.5" font-family="sans" font-size="10.00" fill="#000000">prefilter_reads_taxonomy</text>
</g>
<!-- 14&#45;&gt;22 -->
<g id="edge44" class="edge">
<title>14&#45;&gt;22</title>
<path fill="none" stroke="#c0c0c0" stroke-width="2" d="M483.6165,-1007.8314C477.0514,-999.5386 469.1493,-989.557 461.9422,-980.4533"/>
<polygon fill="#c0c0c0" stroke="#c0c0c0" stroke-width="2" points="464.5284,-978.0813 455.5772,-972.4133 459.0401,-982.4262 464.5284,-978.0813"/>
</g>
<!-- 15 -->
<g id="node16" class="node">
<title>15</title>
<path fill="none" stroke="#56b9d8" stroke-width="2" d="M556,-1116C556,-1116 422,-1116 422,-1116 416,-1116 410,-1110 410,-1104 410,-1104 410,-1092 410,-1092 410,-1086 416,-1080 422,-1080 422,-1080 556,-1080 556,-1080 562,-1080 568,-1086 568,-1092 568,-1092 568,-1104 568,-1104 568,-1110 562,-1116 556,-1116"/>
<text text-anchor="middle" x="489" y="-1095.5" font-family="sans" font-size="10.00" fill="#000000">taxon_prefilter_shard_sort_query</text>
</g>
<!-- 15&#45;&gt;14 -->
<g id="edge34" class="edge">
<title>15&#45;&gt;14</title>
<path fill="none" stroke="#c0c0c0" stroke-width="2" d="M491.2711,-1079.8314C492.2336,-1072.131 493.3782,-1062.9743 494.4479,-1054.4166"/>
<polygon fill="#c0c0c0" stroke="#c0c0c0" stroke-width="2" points="497.9309,-1054.7702 495.6983,-1044.4133 490.9849,-1053.9019 497.9309,-1054.7702"/>
</g>
<!-- 16&#45;&gt;15 -->
<g id="edge35" class="edge">
<title>16&#45;&gt;15</title>
<path fill="none" stroke="#c0c0c0" stroke-width="2" d="M482.2711,-1151.8314C483.2336,-1144.131 484.3782,-1134.9743 485.4479,-1126.4166"/>
<polygon fill="#c0c0c0" stroke="#c0c0c0" stroke-width="2" points="488.9309,-1126.7702 486.6983,-1116.4133 481.9849,-1125.9019 488.9309,-1126.7702"/>
</g>
<!-- 17 -->
<g id="node18" class="node">
<title>17</title>
<path fill="none" stroke="#56d8b9" stroke-width="2" d="M737.5,-252C737.5,-252 618.5,-252 618.5,-252 612.5,-252 606.5,-246 606.5,-240 606.5,-240 606.5,-228 606.5,-228 606.5,-222 612.5,-216 618.5,-216 618.5,-216 737.5,-216 737.5,-216 743.5,-216 749.5,-222 749.5,-228 749.5,-228 749.5,-240 749.5,-240 749.5,-246 743.5,-252 737.5,-252"/>
<text text-anchor="middle" x="678" y="-231.5" font-family="sans" font-size="10.00" fill="#000000">taxon_prefilter_metadmg_dfit</text>
</g>
<!-- 17&#45;&gt;1 -->
<g id="edge8" class="edge">
<title>17&#45;&gt;1</title>
<path fill="none" stroke="#c0c0c0" stroke-width="2" d="M697.7442,-215.8325C716.1247,-196.7012 738.2832,-166.3163 721,-144 701.5578,-118.896 616.2816,-103.3661 560.8444,-95.7348"/>
<polygon fill="#c0c0c0" stroke="#c0c0c0" stroke-width="2" points="561.2384,-92.2564 550.863,-94.4013 560.3114,-99.1948 561.2384,-92.2564"/>
</g>
<!-- 19 -->
<g id="node20" class="node">
<title>19</title>
<path fill="none" stroke="#56d8b1" stroke-width="2" d="M700,-180C700,-180 552,-180 552,-180 546,-180 540,-174 540,-168 540,-168 540,-156 540,-156 540,-150 546,-144 552,-144 552,-144 700,-144 700,-144 706,-144 712,-150 712,-156 712,-156 712,-168 712,-168 712,-174 706,-180 700,-180"/>
<text text-anchor="middle" x="626" y="-159.5" font-family="sans" font-size="10.00" fill="#000000">taxon_prefilter_metadmg_aggregate</text>
</g>
<!-- 17&#45;&gt;19 -->
<g id="edge39" class="edge">
<title>17&#45;&gt;19</title>
<path fill="none" stroke="#c0c0c0" stroke-width="2" d="M664.8782,-215.8314C658.9501,-207.6232 651.8271,-197.7606 645.3067,-188.7323"/>
<polygon fill="#c0c0c0" stroke="#c0c0c0" stroke-width="2" points="647.9908,-186.4708 639.2985,-180.4133 642.316,-190.5693 647.9908,-186.4708"/>
</g>
<!-- 18&#45;&gt;17 -->
<g id="edge37" class="edge">
<title>18&#45;&gt;17</title>
<path fill="none" stroke="#c0c0c0" stroke-width="2" d="M639.1218,-287.8314C645.0499,-279.6232 652.1729,-269.7606 658.6933,-260.7323"/>
<polygon fill="#c0c0c0" stroke="#c0c0c0" stroke-width="2" points="661.684,-262.5693 664.7015,-252.4133 656.0092,-258.4708 661.684,-262.5693"/>
</g>
<!-- 18&#45;&gt;19 -->
<g id="edge40" class="edge">
<title>18&#45;&gt;19</title>
<path fill="none" stroke="#c0c0c0" stroke-width="2" d="M613.8183,-287.882C607.7685,-277.7891 601.1022,-264.7221 598,-252 594.2096,-236.4555 594.2096,-231.5445 598,-216 600.2539,-206.7566 604.3893,-197.3312 608.8027,-188.9966"/>
<polygon fill="#c0c0c0" stroke="#c0c0c0" stroke-width="2" points="611.9471,-190.5463 613.8183,-180.118 605.8524,-187.1033 611.9471,-190.5463"/>
</g>
<!-- 19&#45;&gt;1 -->
<g id="edge9" class="edge">
<title>19&#45;&gt;1</title>
<path fill="none" stroke="#c0c0c0" stroke-width="2" d="M597.233,-143.8314C582.7867,-134.7074 565.1035,-123.539 549.596,-113.7449"/>
<polygon fill="#c0c0c0" stroke="#c0c0c0" stroke-width="2" points="551.0817,-110.5436 540.7578,-108.1628 547.3437,-116.462 551.0817,-110.5436"/>
</g>
<!-- 20 -->
<g id="node21" class="node">
<title>20</title>
<path fill="none" stroke="#d8d356" stroke-width="2" d="M502.5,-756C502.5,-756 445.5,-756 445.5,-756 439.5,-756 433.5,-750 433.5,-744 433.5,-744 433.5,-732 433.5,-732 433.5,-726 439.5,-720 445.5,-720 445.5,-720 502.5,-720 502.5,-720 508.5,-720 514.5,-726 514.5,-732 514.5,-732 514.5,-744 514.5,-744 514.5,-750 508.5,-756 502.5,-756"/>
<text text-anchor="middle" x="474" y="-735.5" font-family="sans" font-size="10.00" fill="#000000">prefilter_fastqc</text>
</g>
<!-- 20&#45;&gt;1 -->
<g id="edge6" class="edge">
<title>20&#45;&gt;1</title>
<path fill="none" stroke="#c0c0c0" stroke-width="2" d="M474,-719.8146C474,-692.4983 474,-639.25 474,-594 474,-594 474,-594 474,-234 474,-192.3681 489.0328,-146.14 500.1881,-117.567"/>
<polygon fill="#c0c0c0" stroke="#c0c0c0" stroke-width="2" points="503.4578,-118.817 503.9412,-108.2332 496.9632,-116.2055 503.4578,-118.817"/>
</g>
<!-- 21&#45;&gt;20 -->
<g id="edge41" class="edge">
<title>21&#45;&gt;20</title>
<path fill="none" stroke="#c0c0c0" stroke-width="2" d="M400.5486,-863.859C408.0533,-853.5424 417.3779,-840.2693 425,-828 437.6739,-807.5988 450.6073,-783.6863 460.002,-765.6392"/>
<polygon fill="#c0c0c0" stroke="#c0c0c0" stroke-width="2" points="463.3581,-766.7676 464.8331,-756.276 457.1374,-763.5579 463.3581,-766.7676"/>
</g>
<!-- 23 -->
<g id="node24" class="node">
<title>23</title>
<path fill="none" stroke="#80d856" stroke-width="2" d="M404,-828C404,-828 348,-828 348,-828 342,-828 336,-822 336,-816 336,-816 336,-804 336,-804 336,-798 342,-792 348,-792 348,-792 404,-792 404,-792 410,-792 416,-798 416,-804 416,-804 416,-816 416,-816 416,-822 410,-828 404,-828"/>
<text text-anchor="middle" x="376" y="-807.5" font-family="sans" font-size="10.00" fill="#000000">taxon_bowtie2</text>
</g>
<!-- 21&#45;&gt;23 -->
<g id="edge45" class="edge">
<title>21&#45;&gt;23</title>
<path fill="none" stroke="#c0c0c0" stroke-width="2" d="M384.2242,-863.8314C383.0478,-856.131 381.6489,-846.9743 380.3414,-838.4166"/>
<polygon fill="#c0c0c0" stroke="#c0c0c0" stroke-width="2" points="383.7833,-837.7699 378.8131,-828.4133 376.8636,-838.8272 383.7833,-837.7699"/>
</g>
<!-- 22&#45;&gt;21 -->
<g id="edge42" class="edge">
<title>22&#45;&gt;21</title>
<path fill="none" stroke="#c0c0c0" stroke-width="2" d="M427.3735,-935.8314C421.154,-927.5386 413.6678,-917.557 406.84,-908.4533"/>
<polygon fill="#c0c0c0" stroke="#c0c0c0" stroke-width="2" points="409.61,-906.3133 400.81,-900.4133 404.01,-910.5133 409.61,-906.3133"/>
</g>
<!-- 23&#45;&gt;1 -->
<g id="edge7" class="edge">
<title>23&#45;&gt;1</title>
<path fill="none" stroke="#c0c0c0" stroke-width="2" d="M382.5353,-791.7443C398.086,-746.6169 436,-625.9347 436,-522 436,-522 436,-522 436,-234 436,-188.656 465.8384,-143.5999 488.1226,-116.2735"/>
<polygon fill="#c0c0c0" stroke="#c0c0c0" stroke-width="2" points="491.0006,-118.2889 494.7544,-108.3814 485.6415,-113.7856 491.0006,-118.2889"/>
</g>
<!-- 28 -->
<g id="node29" class="node">
<title>28</title>
<path fill="none" stroke="#569ad8" stroke-width="2" d="M396,-612C396,-612 238,-612 238,-612 232,-612 226,-606 226,-600 226,-600 226,-588 226,-588 226,-582 232,-576 238,-576 238,-576 396,-576 396,-576 402,-576 408,-582 408,-588 408,-588 408,-600 408,-600 408,-606 402,-612 396,-612"/>
<text text-anchor="middle" x="317" y="-591.5" font-family="sans" font-size="10.00" fill="#000000">taxon_shard_saturated_reads_remove</text>
</g>
<!-- 23&#45;&gt;28 -->
<g id="edge51" class="edge">
<title>23&#45;&gt;28</title>
<path fill="none" stroke="#c0c0c0" stroke-width="2" d="M374.9407,-791.98C372.7018,-761.5059 366.1082,-698.2079 348,-648 344.6603,-638.74 339.774,-629.2351 334.8641,-620.8312"/>
<polygon fill="#c0c0c0" stroke="#c0c0c0" stroke-width="2" points="337.7974,-618.9189 329.599,-612.2079 331.8229,-622.5667 337.7974,-618.9189"/>
</g>
<!-- 30 -->
<g id="node31" class="node">
<title>30</title>
<path fill="none" stroke="#56b1d8" stroke-width="2" d="M316,-756C316,-756 218,-756 218,-756 212,-756 206,-750 206,-744 206,-744 206,-732 206,-732 206,-726 212,-720 218,-720 218,-720 316,-720 316,-720 322,-720 328,-726 328,-732 328,-732 328,-744 328,-744 328,-750 322,-756 316,-756"/>
<text text-anchor="middle" x="267" y="-735.5" font-family="sans" font-size="10.00" fill="#000000">taxon_shard_count_alns</text>
</g>
<!-- 23&#45;&gt;30 -->
<g id="edge53" class="edge">
<title>23&#45;&gt;30</title>
<path fill="none" stroke="#c0c0c0" stroke-width="2" d="M348.4947,-791.8314C334.682,-782.7074 317.7744,-771.539 302.9471,-761.7449"/>
<polygon fill="#c0c0c0" stroke="#c0c0c0" stroke-width="2" points="304.7696,-758.7541 294.4965,-756.1628 300.9114,-764.5949 304.7696,-758.7541"/>
</g>
<!-- 24 -->
<g id="node25" class="node">
<title>24</title>
<path fill="none" stroke="#8fd856" stroke-width="2" d="M395.5,-252C395.5,-252 326.5,-252 326.5,-252 320.5,-252 314.5,-246 314.5,-240 314.5,-240 314.5,-228 314.5,-228 314.5,-222 320.5,-216 326.5,-216 326.5,-216 395.5,-216 395.5,-216 401.5,-216 407.5,-222 407.5,-228 407.5,-228 407.5,-240 407.5,-240 407.5,-246 401.5,-252 395.5,-252"/>
<text text-anchor="middle" x="361" y="-231.5" font-family="sans" font-size="10.00" fill="#000000">taxon_align_stats</text>
</g>
<!-- 24&#45;&gt;1 -->
<g id="edge16" class="edge">
<title>24&#45;&gt;1</title>
<path fill="none" stroke="#c0c0c0" stroke-width="2" d="M370.2601,-215.7274C380.8041,-196.2286 399.5145,-165.2766 422,-144 434.4952,-132.1766 450.0141,-121.7298 464.6273,-113.2522"/>
<polygon fill="#c0c0c0" stroke="#c0c0c0" stroke-width="2" points="466.5648,-116.1785 473.5739,-108.2335 463.1401,-110.0735 466.5648,-116.1785"/>
</g>
<!-- 25 -->
<g id="node26" class="node">
<title>25</title>
<path fill="none" stroke="#a7d856" stroke-width="2" d="M290,-396C290,-396 216,-396 216,-396 210,-396 204,-390 204,-384 204,-384 204,-372 204,-372 204,-366 210,-360 216,-360 216,-360 290,-360 290,-360 296,-360 302,-366 302,-372 302,-372 302,-384 302,-384 302,-390 296,-396 290,-396"/>
<text text-anchor="middle" x="253" y="-375.5" font-family="sans" font-size="10.00" fill="#000000">taxon_align_merge</text>
</g>
<!-- 25&#45;&gt;24 -->
<g id="edge46" class="edge">
<title>25&#45;&gt;24</title>
<path fill="none" stroke="#c0c0c0" stroke-width="2" d="M272.3102,-359.8914C282.5751,-349.8013 295.0852,-336.7339 305,-324 320.5715,-304.001 335.5972,-279.4704 346.1572,-261.0731"/>
<polygon fill="#c0c0c0" stroke="#c0c0c0" stroke-width="2" points="349.2287,-262.7519 351.1082,-252.3251 343.1367,-259.3041 349.2287,-262.7519"/>
</g>
<!-- 32 -->
<g id="node33" class="node">
<title>32</title>
<path fill="none" stroke="#59d856" stroke-width="2" d="M284,-324C284,-324 204,-324 204,-324 198,-324 192,-318 192,-312 192,-312 192,-300 192,-300 192,-294 198,-288 204,-288 204,-288 284,-288 284,-288 290,-288 296,-294 296,-300 296,-300 296,-312 296,-312 296,-318 290,-324 284,-324"/>
<text text-anchor="middle" x="244" y="-303.5" font-family="sans" font-size="10.00" fill="#000000">taxon_metadmg_lca</text>
</g>
<!-- 25&#45;&gt;32 -->
<g id="edge55" class="edge">
<title>25&#45;&gt;32</title>
<path fill="none" stroke="#c0c0c0" stroke-width="2" d="M250.7289,-359.8314C249.7664,-352.131 248.6218,-342.9743 247.5521,-334.4166"/>
<polygon fill="#c0c0c0" stroke="#c0c0c0" stroke-width="2" points="251.0151,-333.9019 246.3017,-324.4133 244.0691,-334.7702 251.0151,-333.9019"/>
</g>
<!-- 35 -->
<g id="node36" class="node">
<title>35</title>
<path fill="none" stroke="#61d856" stroke-width="2" d="M187,-108C187,-108 85,-108 85,-108 79,-108 73,-102 73,-96 73,-96 73,-84 73,-84 73,-78 79,-72 85,-72 85,-72 187,-72 187,-72 193,-72 199,-78 199,-84 199,-84 199,-96 199,-96 199,-102 193,-108 187,-108"/>
<text text-anchor="middle" x="136" y="-87.5" font-family="sans" font-size="10.00" fill="#000000">taxon_metadmg_damage</text>
</g>
<!-- 25&#45;&gt;35 -->
<g id="edge60" class="edge">
<title>25&#45;&gt;35</title>
<path fill="none" stroke="#c0c0c0" stroke-width="2" d="M220.0835,-359.8238C206.6051,-350.7625 192.0726,-338.6014 183,-324 142.4074,-258.6702 135.9707,-165.0568 135.4996,-118.5213"/>
<polygon fill="#c0c0c0" stroke="#c0c0c0" stroke-width="2" points="138.9994,-118.2713 135.4868,-108.2757 131.9994,-118.2801 138.9994,-118.2713"/>
</g>
<!-- 26 -->
<g id="node27" class="node">
<title>26</title>
<path fill="none" stroke="#5692d8" stroke-width="2" d="M337.5,-468C337.5,-468 240.5,-468 240.5,-468 234.5,-468 228.5,-462 228.5,-456 228.5,-456 228.5,-444 228.5,-444 228.5,-438 234.5,-432 240.5,-432 240.5,-432 337.5,-432 337.5,-432 343.5,-432 349.5,-438 349.5,-444 349.5,-444 349.5,-456 349.5,-456 349.5,-462 343.5,-468 337.5,-468"/>
<text text-anchor="middle" x="289" y="-447.5" font-family="sans" font-size="10.00" fill="#000000">taxon_shard_sort_query</text>
</g>
<!-- 26&#45;&gt;25 -->
<g id="edge47" class="edge">
<title>26&#45;&gt;25</title>
<path fill="none" stroke="#c0c0c0" stroke-width="2" d="M279.9157,-431.8314C275.9385,-423.8771 271.1845,-414.369 266.7861,-405.5723"/>
<polygon fill="#c0c0c0" stroke="#c0c0c0" stroke-width="2" points="269.8093,-403.7923 262.2066,-396.4133 263.5483,-406.9228 269.8093,-403.7923"/>
</g>
<!-- 27 -->
<g id="node28" class="node">
<title>27</title>
<path fill="none" stroke="#56b9d8" stroke-width="2" d="M361.5,-540C361.5,-540 252.5,-540 252.5,-540 246.5,-540 240.5,-534 240.5,-528 240.5,-528 240.5,-516 240.5,-516 240.5,-510 246.5,-504 252.5,-504 252.5,-504 361.5,-504 361.5,-504 367.5,-504 373.5,-510 373.5,-516 373.5,-516 373.5,-528 373.5,-528 373.5,-534 367.5,-540 361.5,-540"/>
<text text-anchor="middle" x="307" y="-519.5" font-family="sans" font-size="10.00" fill="#000000">taxon_shard_clean_header</text>
</g>
<!-- 27&#45;&gt;26 -->
<g id="edge48" class="edge">
<title>27&#45;&gt;26</title>
<path fill="none" stroke="#c0c0c0" stroke-width="2" d="M302.4578,-503.8314C300.5116,-496.0463 298.1932,-486.7729 296.0337,-478.1347"/>
<polygon fill="#c0c0c0" stroke="#c0c0c0" stroke-width="2" points="299.4242,-477.2658 293.6033,-468.4133 292.6332,-478.9636 299.4242,-477.2658"/>
</g>
<!-- 28&#45;&gt;27 -->
<g id="edge49" class="edge">
<title>28&#45;&gt;27</title>
<path fill="none" stroke="#c0c0c0" stroke-width="2" d="M314.4766,-575.8314C313.4071,-568.131 312.1353,-558.9743 310.9468,-550.4166"/>
<polygon fill="#c0c0c0" stroke="#c0c0c0" stroke-width="2" points="314.3999,-549.8367 309.5574,-540.4133 307.4664,-550.7997 314.3999,-549.8367"/>
</g>
<!-- 29 -->
<g id="node30" class="node">
<title>29</title>
<path fill="none" stroke="#56a2d8" stroke-width="2" d="M327,-684C327,-684 187,-684 187,-684 181,-684 175,-678 175,-672 175,-672 175,-660 175,-660 175,-654 181,-648 187,-648 187,-648 327,-648 327,-648 333,-648 339,-654 339,-660 339,-660 339,-672 339,-672 339,-678 333,-684 327,-684"/>
<text text-anchor="middle" x="257" y="-663.5" font-family="sans" font-size="10.00" fill="#000000">taxon_shard_saturated_reads_get</text>
</g>
<!-- 29&#45;&gt;28 -->
<g id="edge50" class="edge">
<title>29&#45;&gt;28</title>
<path fill="none" stroke="#c0c0c0" stroke-width="2" d="M272.1405,-647.8314C279.1217,-639.454 287.5391,-629.3531 295.1876,-620.1749"/>
<polygon fill="#c0c0c0" stroke="#c0c0c0" stroke-width="2" points="297.9425,-622.3362 301.6556,-612.4133 292.5649,-617.8548 297.9425,-622.3362"/>
</g>
<!-- 29&#45;&gt;34 -->
<g id="edge58" class="edge">
<title>29&#45;&gt;34</title>
<path fill="none" stroke="#c0c0c0" stroke-width="2" d="M221.9244,-647.8314C203.7339,-638.4089 181.3342,-626.8062 161.994,-616.7883"/>
<polygon fill="#c0c0c0" stroke="#c0c0c0" stroke-width="2" points="163.5537,-613.6545 153.0643,-612.1628 160.334,-619.8701 163.5537,-613.6545"/>
</g>
<!-- 30&#45;&gt;29 -->
<g id="edge52" class="edge">
<title>30&#45;&gt;29</title>
<path fill="none" stroke="#c0c0c0" stroke-width="2" d="M264.4766,-719.8314C263.4071,-712.131 262.1353,-702.9743 260.9468,-694.4166"/>
<polygon fill="#c0c0c0" stroke="#c0c0c0" stroke-width="2" points="264.3999,-693.8367 259.5574,-684.4133 257.4664,-694.7997 264.3999,-693.8367"/>
</g>
<!-- 31 -->
<g id="node32" class="node">
<title>31</title>
<path fill="none" stroke="#61d856" stroke-width="2" d="M284.5,-252C284.5,-252 203.5,-252 203.5,-252 197.5,-252 191.5,-246 191.5,-240 191.5,-240 191.5,-228 191.5,-228 191.5,-222 197.5,-216 203.5,-216 203.5,-216 284.5,-216 284.5,-216 290.5,-216 296.5,-222 296.5,-228 296.5,-228 296.5,-240 296.5,-240 296.5,-246 290.5,-252 284.5,-252"/>
<text text-anchor="middle" x="244" y="-231.5" font-family="sans" font-size="10.00" fill="#000000">taxon_metadmg_dfit</text>
</g>
<!-- 31&#45;&gt;1 -->
<g id="edge13" class="edge">
<title>31&#45;&gt;1</title>
<path fill="none" stroke="#c0c0c0" stroke-width="2" d="M270.5855,-215.9044C299.1664,-196.8331 346.2658,-166.4979 389,-144 413.2135,-131.2526 441.07,-118.8465 464.1435,-109.1467"/>
<polygon fill="#c0c0c0" stroke="#c0c0c0" stroke-width="2" points="465.5001,-112.3732 473.3861,-105.2977 462.809,-105.9111 465.5001,-112.3732"/>
</g>
<!-- 33 -->
<g id="node34" class="node">
<title>33</title>
<path fill="none" stroke="#68d856" stroke-width="2" d="M287,-180C287,-180 177,-180 177,-180 171,-180 165,-174 165,-168 165,-168 165,-156 165,-156 165,-150 171,-144 177,-144 177,-144 287,-144 287,-144 293,-144 299,-150 299,-156 299,-156 299,-168 299,-168 299,-174 293,-180 287,-180"/>
<text text-anchor="middle" x="232" y="-159.5" font-family="sans" font-size="10.00" fill="#000000">taxon_metadmg_aggregate</text>
</g>
<!-- 31&#45;&gt;33 -->
<g id="edge56" class="edge">
<title>31&#45;&gt;33</title>
<path fill="none" stroke="#c0c0c0" stroke-width="2" d="M240.9719,-215.8314C239.6885,-208.131 238.1624,-198.9743 236.7361,-190.4166"/>
<polygon fill="#c0c0c0" stroke="#c0c0c0" stroke-width="2" points="240.1653,-189.7018 235.0689,-180.4133 233.2606,-190.8526 240.1653,-189.7018"/>
</g>
<!-- 32&#45;&gt;31 -->
<g id="edge54" class="edge">
<title>32&#45;&gt;31</title>
<path fill="none" stroke="#c0c0c0" stroke-width="2" d="M244,-287.8314C244,-280.131 244,-270.9743 244,-262.4166"/>
<polygon fill="#c0c0c0" stroke="#c0c0c0" stroke-width="2" points="247.5001,-262.4132 244,-252.4133 240.5001,-262.4133 247.5001,-262.4132"/>
</g>
<!-- 32&#45;&gt;33 -->
<g id="edge57" class="edge">
<title>32&#45;&gt;33</title>
<path fill="none" stroke="#c0c0c0" stroke-width="2" d="M213.5042,-287.7757C201.3178,-278.7056 188.6228,-266.5508 182,-252 175.3719,-237.4374 176.1623,-230.897 182,-216 186.1758,-205.3439 193.5513,-195.5335 201.3759,-187.2816"/>
<polygon fill="#c0c0c0" stroke="#c0c0c0" stroke-width="2" points="203.9375,-189.6713 208.6091,-180.162 199.0271,-184.6825 203.9375,-189.6713"/>
</g>
<!-- 33&#45;&gt;0 -->
<g id="edge2" class="edge">
<title>33&#45;&gt;0</title>
<path fill="none" stroke="#c0c0c0" stroke-width="2" d="M228.1193,-143.7879C223.976,-125.4043 216.8013,-96.3307 208,-72 204.7828,-63.1063 200.6696,-53.6679 196.7126,-45.2117"/>
<polygon fill="#c0c0c0" stroke="#c0c0c0" stroke-width="2" points="199.8513,-43.6625 192.3674,-36.1631 193.5412,-46.6927 199.8513,-43.6625"/>
</g>
<!-- 33&#45;&gt;1 -->
<g id="edge15" class="edge">
<title>33&#45;&gt;1</title>
<path fill="none" stroke="#c0c0c0" stroke-width="2" d="M299.067,-144.7542C349.756,-131.7199 418.1422,-114.1349 463.5865,-102.4492"/>
<polygon fill="#c0c0c0" stroke="#c0c0c0" stroke-width="2" points="464.6728,-105.7838 473.4861,-99.9036 462.9295,-99.0043 464.6728,-105.7838"/>
</g>
<!-- 34&#45;&gt;0 -->
<g id="edge1" class="edge">
<title>34&#45;&gt;0</title>
<path fill="none" stroke="#c0c0c0" stroke-width="2" d="M99.8468,-575.7859C76.2434,-550.0803 38,-500.6202 38,-450 38,-450 38,-450 38,-162 38,-120.3643 36.7653,-103.4929 64,-72 82.9966,-50.0332 112.7491,-36.5329 137.7512,-28.5244"/>
<polygon fill="#c0c0c0" stroke="#c0c0c0" stroke-width="2" points="138.8509,-31.8487 147.4204,-25.6186 136.8361,-25.1449 138.8509,-31.8487"/>
</g>
<!-- 35&#45;&gt;0 -->
<g id="edge4" class="edge">
<title>35&#45;&gt;0</title>
<path fill="none" stroke="#c0c0c0" stroke-width="2" d="M147.8601,-71.8314C153.1629,-63.7079 159.5237,-53.9637 165.3673,-45.0118"/>
<polygon fill="#c0c0c0" stroke="#c0c0c0" stroke-width="2" points="168.4448,-46.7003 170.9802,-36.4133 162.5831,-42.8739 168.4448,-46.7003"/>
</g>
</g>
</svg>
