<?xml version="1.0" encoding="UTF-8" standalone="no"?>
<!DOCTYPE svg PUBLIC "-//W3C//DTD SVG 1.1//EN"
 "http://www.w3.org/Graphics/SVG/1.1/DTD/svg11.dtd">
<!-- Generated by graphviz version 2.40.1 (0)
 -->
<!-- Title: snakemake_dag Pages: 1 -->
<svg width="1362pt" height="1916pt"
 viewBox="0.00 0.00 1361.76 1916.00" xmlns="http://www.w3.org/2000/svg" xmlns:xlink="http://www.w3.org/1999/xlink">
<g id="graph0" class="graph" transform="scale(1 1) rotate(0) translate(4 1912)">
<title>snakemake_dag</title>
<polygon fill="#ffffff" stroke="transparent" points="-4,4 -4,-1912 1357.76,-1912 1357.76,4 -4,4"/>
<!-- 0 -->
<g id="node1" class="node">
<title>0</title>
<path fill="none" stroke="#bed856" stroke-width="2" d="M602.4404,-36C602.4404,-36 555.4404,-36 555.4404,-36 549.4404,-36 543.4404,-30 543.4404,-24 543.4404,-24 543.4404,-12 543.4404,-12 543.4404,-6 549.4404,0 555.4404,0 555.4404,0 602.4404,0 602.4404,0 608.4404,0 614.4404,-6 614.4404,-12 614.4404,-12 614.4404,-24 614.4404,-24 614.4404,-30 608.4404,-36 602.4404,-36"/>
<text text-anchor="middle" x="578.9404" y="-15.5" font-family="sans" font-size="10.00" fill="#000000">target_taxon</text>
</g>
<!-- 1 -->
<g id="node2" class="node">
<title>1</title>
<path fill="none" stroke="#d8b456" stroke-width="2" d="M684.4404,-108C684.4404,-108 631.4404,-108 631.4404,-108 625.4404,-108 619.4404,-102 619.4404,-96 619.4404,-96 619.4404,-84 619.4404,-84 619.4404,-78 625.4404,-72 631.4404,-72 631.4404,-72 684.4404,-72 684.4404,-72 690.4404,-72 696.4404,-78 696.4404,-84 696.4404,-84 696.4404,-96 696.4404,-96 696.4404,-102 690.4404,-108 684.4404,-108"/>
<text text-anchor="middle" x="657.9404" y="-87.5" font-family="sans" font-size="10.00" fill="#000000">multiqc_taxon</text>
</g>
<!-- 1&#45;&gt;0 -->
<g id="edge5" class="edge">
<title>1&#45;&gt;0</title>
<path fill="none" stroke="#c0c0c0" stroke-width="2" d="M638.0053,-71.8314C628.4621,-63.1337 616.8805,-52.5783 606.5098,-43.1265"/>
<polygon fill="#c0c0c0" stroke="#c0c0c0" stroke-width="2" points="608.6176,-40.3121 598.869,-36.1628 603.9024,-45.4857 608.6176,-40.3121"/>
</g>
<!-- 2 -->
<g id="node3" class="node">
<title>2</title>
<path fill="none" stroke="#5673d8" stroke-width="2" d="M160.9404,-1692C160.9404,-1692 98.9404,-1692 98.9404,-1692 92.9404,-1692 86.9404,-1686 86.9404,-1680 86.9404,-1680 86.9404,-1668 86.9404,-1668 86.9404,-1662 92.9404,-1656 98.9404,-1656 98.9404,-1656 160.9404,-1656 160.9404,-1656 166.9404,-1656 172.9404,-1662 172.9404,-1668 172.9404,-1668 172.9404,-1680 172.9404,-1680 172.9404,-1686 166.9404,-1692 160.9404,-1692"/>
<text text-anchor="middle" x="129.9404" y="-1671.5" font-family="sans" font-size="10.00" fill="#000000">trim_fastqc_raw</text>
</g>
<!-- 2&#45;&gt;1 -->
<g id="edge13" class="edge">
<title>2&#45;&gt;1</title>
<path fill="none" stroke="#c0c0c0" stroke-width="2" d="M101.7606,-1655.8002C68.0019,-1631.5315 15.9404,-1585.1626 15.9404,-1530 15.9404,-1530 15.9404,-1530 15.9404,-1314 15.9404,-775.4835 -105.3883,-459.622 330.9404,-144 374.5543,-112.4515 529.0852,-98.1737 609.1074,-92.7734"/>
<polygon fill="#c0c0c0" stroke="#c0c0c0" stroke-width="2" points="609.6684,-96.2443 619.4186,-92.099 609.2114,-89.2592 609.6684,-96.2443"/>
</g>
<!-- 3 -->
<g id="node4" class="node">
<title>3</title>
<path fill="none" stroke="#5663d8" stroke-width="2" d="M450.9404,-1908C450.9404,-1908 374.9404,-1908 374.9404,-1908 368.9404,-1908 362.9404,-1902 362.9404,-1896 362.9404,-1896 362.9404,-1884 362.9404,-1884 362.9404,-1878 368.9404,-1872 374.9404,-1872 374.9404,-1872 450.9404,-1872 450.9404,-1872 456.9404,-1872 462.9404,-1878 462.9404,-1884 462.9404,-1884 462.9404,-1896 462.9404,-1896 462.9404,-1902 456.9404,-1908 450.9404,-1908"/>
<text text-anchor="middle" x="412.9404" y="-1887.5" font-family="sans" font-size="10.00" fill="#000000">trim_get_fastq_raw</text>
</g>
<!-- 3&#45;&gt;2 -->
<g id="edge23" class="edge">
<title>3&#45;&gt;2</title>
<path fill="none" stroke="#c0c0c0" stroke-width="2" d="M389.2987,-1871.9555C338.5253,-1833.2026 219.0287,-1741.9967 161.7047,-1698.2442"/>
<polygon fill="#c0c0c0" stroke="#c0c0c0" stroke-width="2" points="163.7865,-1695.4301 153.7138,-1692.1451 159.5394,-1700.9945 163.7865,-1695.4301"/>
</g>
<!-- 4 -->
<g id="node5" class="node">
<title>4</title>
<path fill="none" stroke="#568ad8" stroke-width="2" d="M601.9404,-1836C601.9404,-1836 477.9404,-1836 477.9404,-1836 471.9404,-1836 465.9404,-1830 465.9404,-1824 465.9404,-1824 465.9404,-1812 465.9404,-1812 465.9404,-1806 471.9404,-1800 477.9404,-1800 477.9404,-1800 601.9404,-1800 601.9404,-1800 607.9404,-1800 613.9404,-1806 613.9404,-1812 613.9404,-1812 613.9404,-1824 613.9404,-1824 613.9404,-1830 607.9404,-1836 601.9404,-1836"/>
<text text-anchor="middle" x="539.9404" y="-1815.5" font-family="sans" font-size="10.00" fill="#000000">trim_adapterremoval_fastq_pe</text>
</g>
<!-- 3&#45;&gt;4 -->
<g id="edge24" class="edge">
<title>3&#45;&gt;4</title>
<path fill="none" stroke="#c0c0c0" stroke-width="2" d="M444.9878,-1871.8314C461.3823,-1862.5368 481.5189,-1851.1208 499.0232,-1841.1971"/>
<polygon fill="#c0c0c0" stroke="#c0c0c0" stroke-width="2" points="500.9301,-1844.1395 507.9032,-1836.1628 497.4777,-1838.05 500.9301,-1844.1395"/>
</g>
<!-- 4&#45;&gt;1 -->
<g id="edge11" class="edge">
<title>4&#45;&gt;1</title>
<path fill="none" stroke="#c0c0c0" stroke-width="2" d="M614.0177,-1810.7482C796.1225,-1791.9272 1250.9404,-1738.4674 1250.9404,-1674 1250.9404,-1674 1250.9404,-1674 1250.9404,-378 1250.9404,-337.1184 1249.0711,-325.1194 1231.9404,-288 1223.4752,-269.6574 1138.5208,-153.9518 1120.9404,-144 1111.9678,-138.9208 823.714,-107.6912 706.6402,-95.1778"/>
<polygon fill="#c0c0c0" stroke="#c0c0c0" stroke-width="2" points="706.8353,-91.6788 696.5201,-94.0972 706.092,-98.6393 706.8353,-91.6788"/>
</g>
<!-- 5 -->
<g id="node6" class="node">
<title>5</title>
<path fill="none" stroke="#566bd8" stroke-width="2" d="M265.4404,-1620C265.4404,-1620 202.4404,-1620 202.4404,-1620 196.4404,-1620 190.4404,-1614 190.4404,-1608 190.4404,-1608 190.4404,-1596 190.4404,-1596 190.4404,-1590 196.4404,-1584 202.4404,-1584 202.4404,-1584 265.4404,-1584 265.4404,-1584 271.4404,-1584 277.4404,-1590 277.4404,-1596 277.4404,-1596 277.4404,-1608 277.4404,-1608 277.4404,-1614 271.4404,-1620 265.4404,-1620"/>
<text text-anchor="middle" x="233.9404" y="-1599.5" font-family="sans" font-size="10.00" fill="#000000">trim_fastqc_trim</text>
</g>
<!-- 4&#45;&gt;5 -->
<g id="edge25" class="edge">
<title>4&#45;&gt;5</title>
<path fill="none" stroke="#c0c0c0" stroke-width="2" d="M514.3773,-1799.9555C459.3649,-1761.1232 329.7392,-1669.6227 267.9061,-1625.9758"/>
<polygon fill="#c0c0c0" stroke="#c0c0c0" stroke-width="2" points="269.834,-1623.0525 259.6459,-1620.1451 265.7972,-1628.7713 269.834,-1623.0525"/>
</g>
<!-- 7 -->
<g id="node8" class="node">
<title>7</title>
<path fill="none" stroke="#d87556" stroke-width="2" d="M655.4404,-1764C655.4404,-1764 578.4404,-1764 578.4404,-1764 572.4404,-1764 566.4404,-1758 566.4404,-1752 566.4404,-1752 566.4404,-1740 566.4404,-1740 566.4404,-1734 572.4404,-1728 578.4404,-1728 578.4404,-1728 655.4404,-1728 655.4404,-1728 661.4404,-1728 667.4404,-1734 667.4404,-1740 667.4404,-1740 667.4404,-1752 667.4404,-1752 667.4404,-1758 661.4404,-1764 655.4404,-1764"/>
<text text-anchor="middle" x="616.9404" y="-1743.5" font-family="sans" font-size="10.00" fill="#000000">derep_merge_lanes</text>
</g>
<!-- 4&#45;&gt;7 -->
<g id="edge29" class="edge">
<title>4&#45;&gt;7</title>
<path fill="none" stroke="#c0c0c0" stroke-width="2" d="M559.3707,-1799.8314C568.6723,-1791.1337 579.9608,-1780.5783 590.069,-1771.1265"/>
<polygon fill="#c0c0c0" stroke="#c0c0c0" stroke-width="2" points="592.6025,-1773.5493 597.5162,-1764.1628 587.8215,-1768.4363 592.6025,-1773.5493"/>
</g>
<!-- 5&#45;&gt;1 -->
<g id="edge12" class="edge">
<title>5&#45;&gt;1</title>
<path fill="none" stroke="#c0c0c0" stroke-width="2" d="M190.3674,-1588.575C137.0959,-1569.1337 53.9404,-1527.634 53.9404,-1458 53.9404,-1458 53.9404,-1458 53.9404,-1386 53.9404,-1248.124 39.76,-1201.4961 104.9404,-1080 204.6894,-894.0682 312.4032,-914.2715 451.9404,-756 504.1488,-696.782 528.4902,-686.0202 555.9404,-612 603.3989,-484.0265 581.9404,-442.49 581.9404,-306 581.9404,-306 581.9404,-306 581.9404,-234 581.9404,-188.656 611.7788,-143.5999 634.063,-116.2735"/>
<polygon fill="#c0c0c0" stroke="#c0c0c0" stroke-width="2" points="636.941,-118.2889 640.6948,-108.3814 631.5819,-113.7856 636.941,-118.2889"/>
</g>
<!-- 6 -->
<g id="node7" class="node">
<title>6</title>
<path fill="none" stroke="#d86656" stroke-width="2" d="M634.4404,-1548C634.4404,-1548 585.4404,-1548 585.4404,-1548 579.4404,-1548 573.4404,-1542 573.4404,-1536 573.4404,-1536 573.4404,-1524 573.4404,-1524 573.4404,-1518 579.4404,-1512 585.4404,-1512 585.4404,-1512 634.4404,-1512 634.4404,-1512 640.4404,-1512 646.4404,-1518 646.4404,-1524 646.4404,-1524 646.4404,-1536 646.4404,-1536 646.4404,-1542 640.4404,-1548 634.4404,-1548"/>
<text text-anchor="middle" x="609.9404" y="-1527.5" font-family="sans" font-size="10.00" fill="#000000">derep_fastqc</text>
</g>
<!-- 6&#45;&gt;1 -->
<g id="edge9" class="edge">
<title>6&#45;&gt;1</title>
<path fill="none" stroke="#c0c0c0" stroke-width="2" d="M646.68,-1515.0773C649.7929,-1513.9798 652.909,-1512.9374 655.9404,-1512 723.9201,-1490.9794 760.7826,-1525.457 811.9404,-1476 841.7036,-1447.2263 835.9404,-1427.3978 835.9404,-1386 835.9404,-1386 835.9404,-1386 835.9404,-234 835.9404,-192.6022 840.0699,-174.3728 811.9404,-144 797.2987,-128.1907 745.6873,-112.1039 706.2086,-101.6509"/>
<polygon fill="#c0c0c0" stroke="#c0c0c0" stroke-width="2" points="707.0218,-98.246 696.4629,-99.1183 705.2611,-105.021 707.0218,-98.246"/>
</g>
<!-- 7&#45;&gt;6 -->
<g id="edge26" class="edge">
<title>7&#45;&gt;6</title>
<path fill="none" stroke="#c0c0c0" stroke-width="2" d="M611.3958,-1727.7012C608.5438,-1717.3353 605.3722,-1704.0653 603.9404,-1692 598.3978,-1645.296 602.6479,-1590.5362 606.2677,-1558.1389"/>
<polygon fill="#c0c0c0" stroke="#c0c0c0" stroke-width="2" points="609.7618,-1558.3941 607.4561,-1548.0532 602.8099,-1557.5749 609.7618,-1558.3941"/>
</g>
<!-- 9 -->
<g id="node10" class="node">
<title>9</title>
<path fill="none" stroke="#d88556" stroke-width="2" d="M761.4404,-1548C761.4404,-1548 676.4404,-1548 676.4404,-1548 670.4404,-1548 664.4404,-1542 664.4404,-1536 664.4404,-1536 664.4404,-1524 664.4404,-1524 664.4404,-1518 670.4404,-1512 676.4404,-1512 676.4404,-1512 761.4404,-1512 761.4404,-1512 767.4404,-1512 773.4404,-1518 773.4404,-1524 773.4404,-1524 773.4404,-1536 773.4404,-1536 773.4404,-1542 767.4404,-1548 761.4404,-1548"/>
<text text-anchor="middle" x="718.9404" y="-1527.5" font-family="sans" font-size="10.00" fill="#000000">derep_nonpareil_infer</text>
</g>
<!-- 7&#45;&gt;9 -->
<g id="edge31" class="edge">
<title>7&#45;&gt;9</title>
<path fill="none" stroke="#c0c0c0" stroke-width="2" d="M654.6557,-1727.984C669.1908,-1719.1483 684.5447,-1707.115 693.9404,-1692 719.5622,-1650.7814 722.1414,-1592.5854 721.0082,-1558.325"/>
<polygon fill="#c0c0c0" stroke="#c0c0c0" stroke-width="2" points="724.4933,-1557.9217 720.5343,-1548.0944 717.5008,-1558.2457 724.4933,-1557.9217"/>
</g>
<!-- 10 -->
<g id="node11" class="node">
<title>10</title>
<path fill="none" stroke="#d89556" stroke-width="2" d="M672.9404,-1692C672.9404,-1692 624.9404,-1692 624.9404,-1692 618.9404,-1692 612.9404,-1686 612.9404,-1680 612.9404,-1680 612.9404,-1668 612.9404,-1668 612.9404,-1662 618.9404,-1656 624.9404,-1656 624.9404,-1656 672.9404,-1656 672.9404,-1656 678.9404,-1656 684.9404,-1662 684.9404,-1668 684.9404,-1668 684.9404,-1680 684.9404,-1680 684.9404,-1686 678.9404,-1692 672.9404,-1692"/>
<text text-anchor="middle" x="648.9404" y="-1671.5" font-family="sans" font-size="10.00" fill="#000000">derep_seqkit</text>
</g>
<!-- 7&#45;&gt;10 -->
<g id="edge34" class="edge">
<title>7&#45;&gt;10</title>
<path fill="none" stroke="#c0c0c0" stroke-width="2" d="M625.0153,-1727.8314C628.5506,-1719.8771 632.7764,-1710.369 636.686,-1701.5723"/>
<polygon fill="#c0c0c0" stroke="#c0c0c0" stroke-width="2" points="639.8936,-1702.9729 640.7567,-1692.4133 633.4969,-1700.1299 639.8936,-1702.9729"/>
</g>
<!-- 8 -->
<g id="node9" class="node">
<title>8</title>
<path fill="none" stroke="#d88d56" stroke-width="2" d="M957.9404,-1404C957.9404,-1404 875.9404,-1404 875.9404,-1404 869.9404,-1404 863.9404,-1398 863.9404,-1392 863.9404,-1392 863.9404,-1380 863.9404,-1380 863.9404,-1374 869.9404,-1368 875.9404,-1368 875.9404,-1368 957.9404,-1368 957.9404,-1368 963.9404,-1368 969.9404,-1374 969.9404,-1380 969.9404,-1380 969.9404,-1392 969.9404,-1392 969.9404,-1398 963.9404,-1404 957.9404,-1404"/>
<text text-anchor="middle" x="916.9404" y="-1383.5" font-family="sans" font-size="10.00" fill="#000000">derep_nonpareil_plot</text>
</g>
<!-- 8&#45;&gt;1 -->
<g id="edge22" class="edge">
<title>8&#45;&gt;1</title>
<path fill="none" stroke="#c0c0c0" stroke-width="2" d="M907.8212,-1367.8786C895.1989,-1341.076 873.9404,-1288.9635 873.9404,-1242 873.9404,-1242 873.9404,-1242 873.9404,-234 873.9404,-192.6022 879.0138,-173.4705 849.9404,-144 839.7169,-133.6369 760.0775,-113.5877 706.6299,-101.0494"/>
<polygon fill="#c0c0c0" stroke="#c0c0c0" stroke-width="2" points="707.1814,-97.5842 696.648,-98.7233 705.5927,-104.4015 707.1814,-97.5842"/>
</g>
<!-- 9&#45;&gt;8 -->
<g id="edge30" class="edge">
<title>9&#45;&gt;8</title>
<path fill="none" stroke="#c0c0c0" stroke-width="2" d="M773.7365,-1514.8178C798.6547,-1506.1362 827.5109,-1493.4409 849.9404,-1476 871.9769,-1458.8646 890.3371,-1432.7112 902.2314,-1413.0056"/>
<polygon fill="#c0c0c0" stroke="#c0c0c0" stroke-width="2" points="905.3598,-1414.5893 907.385,-1404.1898 899.3166,-1411.0565 905.3598,-1414.5893"/>
</g>
<!-- 10&#45;&gt;6 -->
<g id="edge27" class="edge">
<title>10&#45;&gt;6</title>
<path fill="none" stroke="#c0c0c0" stroke-width="2" d="M644.001,-1655.7623C637.3197,-1631.0928 625.3399,-1586.8598 617.5164,-1557.9731"/>
<polygon fill="#c0c0c0" stroke="#c0c0c0" stroke-width="2" points="620.8322,-1556.8269 614.8396,-1548.0896 614.0756,-1558.6569 620.8322,-1556.8269"/>
</g>
<!-- 10&#45;&gt;9 -->
<g id="edge32" class="edge">
<title>10&#45;&gt;9</title>
<path fill="none" stroke="#c0c0c0" stroke-width="2" d="M657.8059,-1655.7623C669.9032,-1630.8764 691.6782,-1586.0822 705.7101,-1557.2165"/>
<polygon fill="#c0c0c0" stroke="#c0c0c0" stroke-width="2" points="708.9226,-1558.6135 710.1468,-1548.0896 702.627,-1555.5531 708.9226,-1558.6135"/>
</g>
<!-- 11 -->
<g id="node12" class="node">
<title>11</title>
<path fill="none" stroke="#d86e56" stroke-width="2" d="M541.4404,-1620C541.4404,-1620 452.4404,-1620 452.4404,-1620 446.4404,-1620 440.4404,-1614 440.4404,-1608 440.4404,-1608 440.4404,-1596 440.4404,-1596 440.4404,-1590 446.4404,-1584 452.4404,-1584 452.4404,-1584 541.4404,-1584 541.4404,-1584 547.4404,-1584 553.4404,-1590 553.4404,-1596 553.4404,-1596 553.4404,-1608 553.4404,-1608 553.4404,-1614 547.4404,-1620 541.4404,-1620"/>
<text text-anchor="middle" x="496.9404" y="-1599.5" font-family="sans" font-size="10.00" fill="#000000">derep_low_complexity</text>
</g>
<!-- 10&#45;&gt;11 -->
<g id="edge35" class="edge">
<title>10&#45;&gt;11</title>
<path fill="none" stroke="#c0c0c0" stroke-width="2" d="M612.9185,-1656.937C592.4086,-1647.2218 566.4683,-1634.9343 544.3238,-1624.4448"/>
<polygon fill="#c0c0c0" stroke="#c0c0c0" stroke-width="2" points="545.6282,-1621.1899 535.0925,-1620.0721 542.6316,-1627.5161 545.6282,-1621.1899"/>
</g>
<!-- 11&#45;&gt;6 -->
<g id="edge28" class="edge">
<title>11&#45;&gt;6</title>
<path fill="none" stroke="#c0c0c0" stroke-width="2" d="M525.455,-1583.8314C539.7746,-1574.7074 557.3027,-1563.539 572.6741,-1553.7449"/>
<polygon fill="#c0c0c0" stroke="#c0c0c0" stroke-width="2" points="574.882,-1556.4882 581.4348,-1548.1628 571.1205,-1550.5847 574.882,-1556.4882"/>
</g>
<!-- 11&#45;&gt;9 -->
<g id="edge33" class="edge">
<title>11&#45;&gt;9</title>
<path fill="none" stroke="#c0c0c0" stroke-width="2" d="M552.6738,-1583.9243C583.6356,-1573.8826 622.2996,-1561.343 654.5495,-1550.8835"/>
<polygon fill="#c0c0c0" stroke="#c0c0c0" stroke-width="2" points="655.9041,-1554.1238 664.3365,-1547.7094 653.7445,-1547.4652 655.9041,-1554.1238"/>
</g>
<!-- 13 -->
<g id="node14" class="node">
<title>13</title>
<path fill="none" stroke="#d8d356" stroke-width="2" d="M507.4404,-900C507.4404,-900 418.4404,-900 418.4404,-900 412.4404,-900 406.4404,-894 406.4404,-888 406.4404,-888 406.4404,-876 406.4404,-876 406.4404,-870 412.4404,-864 418.4404,-864 418.4404,-864 507.4404,-864 507.4404,-864 513.4404,-864 519.4404,-870 519.4404,-876 519.4404,-876 519.4404,-888 519.4404,-888 519.4404,-894 513.4404,-900 507.4404,-900"/>
<text text-anchor="middle" x="462.9404" y="-879.5" font-family="sans" font-size="10.00" fill="#000000">prefilter_reads_extract</text>
</g>
<!-- 11&#45;&gt;13 -->
<g id="edge38" class="edge">
<title>11&#45;&gt;13</title>
<path fill="none" stroke="#c0c0c0" stroke-width="2" d="M462.8636,-1583.8248C424.0489,-1560.3662 365.9404,-1515.6241 365.9404,-1458 365.9404,-1458 365.9404,-1458 365.9404,-1026 365.9404,-984.2388 369.2711,-970.4059 392.9404,-936 400.8431,-924.5125 411.9519,-914.378 422.9961,-906.0827"/>
<polygon fill="#c0c0c0" stroke="#c0c0c0" stroke-width="2" points="425.2664,-908.7625 431.375,-900.1059 421.2014,-903.0638 425.2664,-908.7625"/>
</g>
<!-- 20 -->
<g id="node21" class="node">
<title>20</title>
<path fill="none" stroke="#56d89a" stroke-width="2" d="M543.4404,-1548C543.4404,-1548 450.4404,-1548 450.4404,-1548 444.4404,-1548 438.4404,-1542 438.4404,-1536 438.4404,-1536 438.4404,-1524 438.4404,-1524 438.4404,-1518 444.4404,-1512 450.4404,-1512 450.4404,-1512 543.4404,-1512 543.4404,-1512 549.4404,-1512 555.4404,-1518 555.4404,-1524 555.4404,-1524 555.4404,-1536 555.4404,-1536 555.4404,-1542 549.4404,-1548 543.4404,-1548"/>
<text text-anchor="middle" x="496.9404" y="-1527.5" font-family="sans" font-size="10.00" fill="#000000">taxon_prefilter_bowtie2</text>
</g>
<!-- 11&#45;&gt;20 -->
<g id="edge47" class="edge">
<title>11&#45;&gt;20</title>
<path fill="none" stroke="#c0c0c0" stroke-width="2" d="M496.9404,-1583.8314C496.9404,-1576.131 496.9404,-1566.9743 496.9404,-1558.4166"/>
<polygon fill="#c0c0c0" stroke="#c0c0c0" stroke-width="2" points="500.4405,-1558.4132 496.9404,-1548.4133 493.4405,-1558.4133 500.4405,-1558.4132"/>
</g>
<!-- 42 -->
<g id="node43" class="node">
<title>42</title>
<path fill="none" stroke="#56d0d8" stroke-width="2" d="M287.9404,-1332C287.9404,-1332 93.9404,-1332 93.9404,-1332 87.9404,-1332 81.9404,-1326 81.9404,-1320 81.9404,-1320 81.9404,-1308 81.9404,-1308 81.9404,-1302 87.9404,-1296 93.9404,-1296 93.9404,-1296 287.9404,-1296 287.9404,-1296 293.9404,-1296 299.9404,-1302 299.9404,-1308 299.9404,-1308 299.9404,-1320 299.9404,-1320 299.9404,-1326 293.9404,-1332 287.9404,-1332"/>
<text text-anchor="middle" x="190.9404" y="-1311.5" font-family="sans" font-size="10.00" fill="#000000">taxon_prefilter_shard_saturated_reads_extract</text>
</g>
<!-- 11&#45;&gt;42 -->
<g id="edge73" class="edge">
<title>11&#45;&gt;42</title>
<path fill="none" stroke="#c0c0c0" stroke-width="2" d="M440.3574,-1596.9003C401.1671,-1590.8012 349.7986,-1577.4083 313.9404,-1548 246.6605,-1492.822 211.5724,-1391.0317 197.8952,-1341.9326"/>
<polygon fill="#c0c0c0" stroke="#c0c0c0" stroke-width="2" points="201.2047,-1340.7617 195.226,-1332.0149 194.4452,-1342.5809 201.2047,-1340.7617"/>
</g>
<!-- 45 -->
<g id="node46" class="node">
<title>45</title>
<path fill="none" stroke="#56a9d8" stroke-width="2" d="M334.9404,-612C334.9404,-612 178.9404,-612 178.9404,-612 172.9404,-612 166.9404,-606 166.9404,-600 166.9404,-600 166.9404,-588 166.9404,-588 166.9404,-582 172.9404,-576 178.9404,-576 178.9404,-576 334.9404,-576 334.9404,-576 340.9404,-576 346.9404,-582 346.9404,-588 346.9404,-588 346.9404,-600 346.9404,-600 346.9404,-606 340.9404,-612 334.9404,-612"/>
<text text-anchor="middle" x="256.9404" y="-591.5" font-family="sans" font-size="10.00" fill="#000000">taxon_shard_saturated_reads_extract</text>
</g>
<!-- 11&#45;&gt;45 -->
<g id="edge77" class="edge">
<title>11&#45;&gt;45</title>
<path fill="none" stroke="#c0c0c0" stroke-width="2" d="M440.9097,-1583.9189C420.3973,-1575.3527 398.0455,-1563.5289 380.9404,-1548 346.5707,-1516.7976 327.9404,-1504.4205 327.9404,-1458 327.9404,-1458 327.9404,-1458 327.9404,-1386 327.9404,-1085.9714 276.7696,-724.5546 261.3108,-622.2157"/>
<polygon fill="#c0c0c0" stroke="#c0c0c0" stroke-width="2" points="264.7325,-621.4357 259.7675,-612.0763 257.8122,-622.4892 264.7325,-621.4357"/>
</g>
<!-- 12 -->
<g id="node13" class="node">
<title>12</title>
<path fill="none" stroke="#d8d356" stroke-width="2" d="M656.4404,-756C656.4404,-756 599.4404,-756 599.4404,-756 593.4404,-756 587.4404,-750 587.4404,-744 587.4404,-744 587.4404,-732 587.4404,-732 587.4404,-726 593.4404,-720 599.4404,-720 599.4404,-720 656.4404,-720 656.4404,-720 662.4404,-720 668.4404,-726 668.4404,-732 668.4404,-732 668.4404,-744 668.4404,-744 668.4404,-750 662.4404,-756 656.4404,-756"/>
<text text-anchor="middle" x="627.9404" y="-735.5" font-family="sans" font-size="10.00" fill="#000000">prefilter_fastqc</text>
</g>
<!-- 12&#45;&gt;1 -->
<g id="edge14" class="edge">
<title>12&#45;&gt;1</title>
<path fill="none" stroke="#c0c0c0" stroke-width="2" d="M634.3026,-719.615C643.1088,-692.4838 657.9404,-639.9662 657.9404,-594 657.9404,-594 657.9404,-594 657.9404,-234 657.9404,-193.876 657.9404,-147.4631 657.9404,-118.4177"/>
<polygon fill="#c0c0c0" stroke="#c0c0c0" stroke-width="2" points="661.4405,-118.1853 657.9404,-108.1854 654.4405,-118.1854 661.4405,-118.1853"/>
</g>
<!-- 13&#45;&gt;12 -->
<g id="edge36" class="edge">
<title>13&#45;&gt;12</title>
<path fill="none" stroke="#c0c0c0" stroke-width="2" d="M483.8377,-863.7623C513.0967,-838.2272 566.3729,-791.7316 599.3053,-762.9906"/>
<polygon fill="#c0c0c0" stroke="#c0c0c0" stroke-width="2" points="601.9798,-765.302 607.2127,-756.0896 597.377,-760.028 601.9798,-765.302"/>
</g>
<!-- 31 -->
<g id="node32" class="node">
<title>31</title>
<path fill="none" stroke="#78d856" stroke-width="2" d="M497.9404,-828C497.9404,-828 441.9404,-828 441.9404,-828 435.9404,-828 429.9404,-822 429.9404,-816 429.9404,-816 429.9404,-804 429.9404,-804 429.9404,-798 435.9404,-792 441.9404,-792 441.9404,-792 497.9404,-792 497.9404,-792 503.9404,-792 509.9404,-798 509.9404,-804 509.9404,-804 509.9404,-816 509.9404,-816 509.9404,-822 503.9404,-828 497.9404,-828"/>
<text text-anchor="middle" x="469.9404" y="-807.5" font-family="sans" font-size="10.00" fill="#000000">taxon_bowtie2</text>
</g>
<!-- 13&#45;&gt;31 -->
<g id="edge59" class="edge">
<title>13&#45;&gt;31</title>
<path fill="none" stroke="#c0c0c0" stroke-width="2" d="M464.7068,-863.8314C465.4554,-856.131 466.3456,-846.9743 467.1776,-838.4166"/>
<polygon fill="#c0c0c0" stroke="#c0c0c0" stroke-width="2" points="470.666,-838.7051 468.1502,-828.4133 463.6989,-838.0276 470.666,-838.7051"/>
</g>
<!-- 14 -->
<g id="node15" class="node">
<title>14</title>
<path fill="none" stroke="#d6d856" stroke-width="2" d="M499.9404,-972C499.9404,-972 413.9404,-972 413.9404,-972 407.9404,-972 401.9404,-966 401.9404,-960 401.9404,-960 401.9404,-948 401.9404,-948 401.9404,-942 407.9404,-936 413.9404,-936 413.9404,-936 499.9404,-936 499.9404,-936 505.9404,-936 511.9404,-942 511.9404,-948 511.9404,-948 511.9404,-960 511.9404,-960 511.9404,-966 505.9404,-972 499.9404,-972"/>
<text text-anchor="middle" x="456.9404" y="-951.5" font-family="sans" font-size="10.00" fill="#000000">prefilter_reads_merge</text>
</g>
<!-- 14&#45;&gt;13 -->
<g id="edge37" class="edge">
<title>14&#45;&gt;13</title>
<path fill="none" stroke="#c0c0c0" stroke-width="2" d="M458.4544,-935.8314C459.0961,-928.131 459.8592,-918.9743 460.5723,-910.4166"/>
<polygon fill="#c0c0c0" stroke="#c0c0c0" stroke-width="2" points="464.0633,-910.6694 461.4059,-900.4133 457.0875,-910.088 464.0633,-910.6694"/>
</g>
<!-- 15 -->
<g id="node16" class="node">
<title>15</title>
<path fill="none" stroke="#ced856" stroke-width="2" d="M545.9404,-1044C545.9404,-1044 443.9404,-1044 443.9404,-1044 437.9404,-1044 431.9404,-1038 431.9404,-1032 431.9404,-1032 431.9404,-1020 431.9404,-1020 431.9404,-1014 437.9404,-1008 443.9404,-1008 443.9404,-1008 545.9404,-1008 545.9404,-1008 551.9404,-1008 557.9404,-1014 557.9404,-1020 557.9404,-1020 557.9404,-1032 557.9404,-1032 557.9404,-1038 551.9404,-1044 545.9404,-1044"/>
<text text-anchor="middle" x="494.9404" y="-1023.5" font-family="sans" font-size="10.00" fill="#000000">prefilter_reads_taxonomy</text>
</g>
<!-- 15&#45;&gt;14 -->
<g id="edge39" class="edge">
<title>15&#45;&gt;14</title>
<path fill="none" stroke="#c0c0c0" stroke-width="2" d="M485.3514,-1007.8314C481.1086,-999.7925 476.0283,-990.1666 471.3444,-981.2918"/>
<polygon fill="#c0c0c0" stroke="#c0c0c0" stroke-width="2" points="474.4215,-979.6235 466.6585,-972.4133 468.2308,-982.8908 474.4215,-979.6235"/>
</g>
<!-- 16 -->
<g id="node17" class="node">
<title>16</title>
<path fill="none" stroke="#56d873" stroke-width="2" d="M641.9404,-1116C641.9404,-1116 529.9404,-1116 529.9404,-1116 523.9404,-1116 517.9404,-1110 517.9404,-1104 517.9404,-1104 517.9404,-1092 517.9404,-1092 517.9404,-1086 523.9404,-1080 529.9404,-1080 529.9404,-1080 641.9404,-1080 641.9404,-1080 647.9404,-1080 653.9404,-1086 653.9404,-1092 653.9404,-1092 653.9404,-1104 653.9404,-1104 653.9404,-1110 647.9404,-1116 641.9404,-1116"/>
<text text-anchor="middle" x="585.9404" y="-1095.5" font-family="sans" font-size="10.00" fill="#000000">taxon_prefilter_align_merge</text>
</g>
<!-- 16&#45;&gt;15 -->
<g id="edge41" class="edge">
<title>16&#45;&gt;15</title>
<path fill="none" stroke="#c0c0c0" stroke-width="2" d="M562.9772,-1079.8314C551.7689,-1070.9632 538.1195,-1060.1637 525.9964,-1050.5718"/>
<polygon fill="#c0c0c0" stroke="#c0c0c0" stroke-width="2" points="527.9101,-1047.6229 517.8962,-1044.1628 523.5667,-1053.1125 527.9101,-1047.6229"/>
</g>
<!-- 23 -->
<g id="node24" class="node">
<title>23</title>
<path fill="none" stroke="#56d892" stroke-width="2" d="M649.4404,-972C649.4404,-972 542.4404,-972 542.4404,-972 536.4404,-972 530.4404,-966 530.4404,-960 530.4404,-960 530.4404,-948 530.4404,-948 530.4404,-942 536.4404,-936 542.4404,-936 542.4404,-936 649.4404,-936 649.4404,-936 655.4404,-936 661.4404,-942 661.4404,-948 661.4404,-948 661.4404,-960 661.4404,-960 661.4404,-966 655.4404,-972 649.4404,-972"/>
<text text-anchor="middle" x="595.9404" y="-951.5" font-family="sans" font-size="10.00" fill="#000000">taxon_prefilter_align_stats</text>
</g>
<!-- 16&#45;&gt;23 -->
<g id="edge50" class="edge">
<title>16&#45;&gt;23</title>
<path fill="none" stroke="#c0c0c0" stroke-width="2" d="M587.2069,-1079.7623C588.9125,-1055.201 591.9649,-1011.2474 593.9713,-982.3541"/>
<polygon fill="#c0c0c0" stroke="#c0c0c0" stroke-width="2" points="597.4829,-982.3081 594.6841,-972.0896 590.4997,-981.8231 597.4829,-982.3081"/>
</g>
<!-- 29 -->
<g id="node30" class="node">
<title>29</title>
<path fill="none" stroke="#56d882" stroke-width="2" d="M757.4404,-1044C757.4404,-1044 626.4404,-1044 626.4404,-1044 620.4404,-1044 614.4404,-1038 614.4404,-1032 614.4404,-1032 614.4404,-1020 614.4404,-1020 614.4404,-1014 620.4404,-1008 626.4404,-1008 626.4404,-1008 757.4404,-1008 757.4404,-1008 763.4404,-1008 769.4404,-1014 769.4404,-1020 769.4404,-1020 769.4404,-1032 769.4404,-1032 769.4404,-1038 763.4404,-1044 757.4404,-1044"/>
<text text-anchor="middle" x="691.9404" y="-1023.5" font-family="sans" font-size="10.00" fill="#000000">taxon_prefilter_align_sort_coord</text>
</g>
<!-- 16&#45;&gt;29 -->
<g id="edge56" class="edge">
<title>16&#45;&gt;29</title>
<path fill="none" stroke="#c0c0c0" stroke-width="2" d="M612.6886,-1079.8314C625.9956,-1070.7927 642.2564,-1059.7476 656.5779,-1050.0198"/>
<polygon fill="#c0c0c0" stroke="#c0c0c0" stroke-width="2" points="658.8951,-1052.677 665.2007,-1044.1628 654.9619,-1046.8864 658.8951,-1052.677"/>
</g>
<!-- 17 -->
<g id="node18" class="node">
<title>17</title>
<path fill="none" stroke="#56b9d8" stroke-width="2" d="M652.9404,-1188C652.9404,-1188 518.9404,-1188 518.9404,-1188 512.9404,-1188 506.9404,-1182 506.9404,-1176 506.9404,-1176 506.9404,-1164 506.9404,-1164 506.9404,-1158 512.9404,-1152 518.9404,-1152 518.9404,-1152 652.9404,-1152 652.9404,-1152 658.9404,-1152 664.9404,-1158 664.9404,-1164 664.9404,-1164 664.9404,-1176 664.9404,-1176 664.9404,-1182 658.9404,-1188 652.9404,-1188"/>
<text text-anchor="middle" x="585.9404" y="-1167.5" font-family="sans" font-size="10.00" fill="#000000">taxon_prefilter_shard_sort_query</text>
</g>
<!-- 17&#45;&gt;16 -->
<g id="edge42" class="edge">
<title>17&#45;&gt;16</title>
<path fill="none" stroke="#c0c0c0" stroke-width="2" d="M585.9404,-1151.8314C585.9404,-1144.131 585.9404,-1134.9743 585.9404,-1126.4166"/>
<polygon fill="#c0c0c0" stroke="#c0c0c0" stroke-width="2" points="589.4405,-1126.4132 585.9404,-1116.4133 582.4405,-1126.4133 589.4405,-1126.4132"/>
</g>
<!-- 18 -->
<g id="node19" class="node">
<title>18</title>
<path fill="none" stroke="#56d8d0" stroke-width="2" d="M658.9404,-1260C658.9404,-1260 512.9404,-1260 512.9404,-1260 506.9404,-1260 500.9404,-1254 500.9404,-1248 500.9404,-1248 500.9404,-1236 500.9404,-1236 500.9404,-1230 506.9404,-1224 512.9404,-1224 512.9404,-1224 658.9404,-1224 658.9404,-1224 664.9404,-1224 670.9404,-1230 670.9404,-1236 670.9404,-1236 670.9404,-1248 670.9404,-1248 670.9404,-1254 664.9404,-1260 658.9404,-1260"/>
<text text-anchor="middle" x="585.9404" y="-1239.5" font-family="sans" font-size="10.00" fill="#000000">taxon_prefilter_shard_clean_header</text>
</g>
<!-- 18&#45;&gt;17 -->
<g id="edge43" class="edge">
<title>18&#45;&gt;17</title>
<path fill="none" stroke="#c0c0c0" stroke-width="2" d="M585.9404,-1223.8314C585.9404,-1216.131 585.9404,-1206.9743 585.9404,-1198.4166"/>
<polygon fill="#c0c0c0" stroke="#c0c0c0" stroke-width="2" points="589.4405,-1198.4132 585.9404,-1188.4133 582.4405,-1198.4133 589.4405,-1198.4132"/>
</g>
<!-- 19 -->
<g id="node20" class="node">
<title>19</title>
<path fill="none" stroke="#56c1d8" stroke-width="2" d="M683.9404,-1332C683.9404,-1332 487.9404,-1332 487.9404,-1332 481.9404,-1332 475.9404,-1326 475.9404,-1320 475.9404,-1320 475.9404,-1308 475.9404,-1308 475.9404,-1302 481.9404,-1296 487.9404,-1296 487.9404,-1296 683.9404,-1296 683.9404,-1296 689.9404,-1296 695.9404,-1302 695.9404,-1308 695.9404,-1308 695.9404,-1320 695.9404,-1320 695.9404,-1326 689.9404,-1332 683.9404,-1332"/>
<text text-anchor="middle" x="585.9404" y="-1311.5" font-family="sans" font-size="10.00" fill="#000000">taxon_prefilter_shard_saturated_reads_remove</text>
</g>
<!-- 19&#45;&gt;18 -->
<g id="edge44" class="edge">
<title>19&#45;&gt;18</title>
<path fill="none" stroke="#c0c0c0" stroke-width="2" d="M585.9404,-1295.8314C585.9404,-1288.131 585.9404,-1278.9743 585.9404,-1270.4166"/>
<polygon fill="#c0c0c0" stroke="#c0c0c0" stroke-width="2" points="589.4405,-1270.4132 585.9404,-1260.4133 582.4405,-1270.4133 589.4405,-1270.4132"/>
</g>
<!-- 20&#45;&gt;1 -->
<g id="edge20" class="edge">
<title>20&#45;&gt;1</title>
<path fill="none" stroke="#c0c0c0" stroke-width="2" d="M545.9711,-1511.9616C631.263,-1479.857 797.9404,-1413.5888 797.9404,-1386 797.9404,-1386 797.9404,-1386 797.9404,-234 797.9404,-179.1017 744.984,-137.262 704.2106,-113.1839"/>
<polygon fill="#c0c0c0" stroke="#c0c0c0" stroke-width="2" points="705.8751,-110.1039 695.4578,-108.1724 702.3969,-116.1786 705.8751,-110.1039"/>
</g>
<!-- 20&#45;&gt;19 -->
<g id="edge46" class="edge">
<title>20&#45;&gt;19</title>
<path fill="none" stroke="#c0c0c0" stroke-width="2" d="M540.1304,-1511.8523C556.4607,-1503.1156 573.9723,-1491.1899 585.9404,-1476 616.3128,-1437.4512 618.7542,-1416.0852 608.9404,-1368 607.1243,-1359.1016 603.785,-1349.8541 600.2033,-1341.5789"/>
<polygon fill="#c0c0c0" stroke="#c0c0c0" stroke-width="2" points="603.3314,-1340.0044 595.9639,-1332.3906 596.9753,-1342.937 603.3314,-1340.0044"/>
</g>
<!-- 22 -->
<g id="node23" class="node">
<title>22</title>
<path fill="none" stroke="#56d8d8" stroke-width="2" d="M564.9404,-1476C564.9404,-1476 428.9404,-1476 428.9404,-1476 422.9404,-1476 416.9404,-1470 416.9404,-1464 416.9404,-1464 416.9404,-1452 416.9404,-1452 416.9404,-1446 422.9404,-1440 428.9404,-1440 428.9404,-1440 564.9404,-1440 564.9404,-1440 570.9404,-1440 576.9404,-1446 576.9404,-1452 576.9404,-1452 576.9404,-1464 576.9404,-1464 576.9404,-1470 570.9404,-1476 564.9404,-1476"/>
<text text-anchor="middle" x="496.9404" y="-1455.5" font-family="sans" font-size="10.00" fill="#000000">taxon_prefilter_shard_count_alns</text>
</g>
<!-- 20&#45;&gt;22 -->
<g id="edge49" class="edge">
<title>20&#45;&gt;22</title>
<path fill="none" stroke="#c0c0c0" stroke-width="2" d="M496.9404,-1511.8314C496.9404,-1504.131 496.9404,-1494.9743 496.9404,-1486.4166"/>
<polygon fill="#c0c0c0" stroke="#c0c0c0" stroke-width="2" points="500.4405,-1486.4132 496.9404,-1476.4133 493.4405,-1486.4133 500.4405,-1486.4132"/>
</g>
<!-- 21 -->
<g id="node22" class="node">
<title>21</title>
<path fill="none" stroke="#56c9d8" stroke-width="2" d="M587.9404,-1404C587.9404,-1404 405.9404,-1404 405.9404,-1404 399.9404,-1404 393.9404,-1398 393.9404,-1392 393.9404,-1392 393.9404,-1380 393.9404,-1380 393.9404,-1374 399.9404,-1368 405.9404,-1368 405.9404,-1368 587.9404,-1368 587.9404,-1368 593.9404,-1368 599.9404,-1374 599.9404,-1380 599.9404,-1380 599.9404,-1392 599.9404,-1392 599.9404,-1398 593.9404,-1404 587.9404,-1404"/>
<text text-anchor="middle" x="496.9404" y="-1383.5" font-family="sans" font-size="10.00" fill="#000000">taxon_prefilter_shard_saturated_reads_filter</text>
</g>
<!-- 21&#45;&gt;14 -->
<g id="edge40" class="edge">
<title>21&#45;&gt;14</title>
<path fill="none" stroke="#c0c0c0" stroke-width="2" d="M475.3705,-1367.9468C447.8974,-1342.7991 403.9404,-1294.3785 403.9404,-1242 403.9404,-1242 403.9404,-1242 403.9404,-1098 403.9404,-1057.1184 407.5873,-1045.8892 422.9404,-1008 426.7694,-998.5506 432.2394,-988.9164 437.6758,-980.4515"/>
<polygon fill="#c0c0c0" stroke="#c0c0c0" stroke-width="2" points="440.6051,-982.3674 443.2587,-972.1102 434.7878,-978.4738 440.6051,-982.3674"/>
</g>
<!-- 21&#45;&gt;19 -->
<g id="edge45" class="edge">
<title>21&#45;&gt;19</title>
<path fill="none" stroke="#c0c0c0" stroke-width="2" d="M519.3988,-1367.8314C530.3609,-1358.9632 543.7103,-1348.1637 555.5669,-1338.5718"/>
<polygon fill="#c0c0c0" stroke="#c0c0c0" stroke-width="2" points="557.9159,-1341.1734 563.4891,-1332.1628 553.5133,-1335.7313 557.9159,-1341.1734"/>
</g>
<!-- 21&#45;&gt;42 -->
<g id="edge72" class="edge">
<title>21&#45;&gt;42</title>
<path fill="none" stroke="#c0c0c0" stroke-width="2" d="M420.1186,-1367.9243C376.7493,-1357.7198 322.4163,-1344.9355 277.5393,-1334.3762"/>
<polygon fill="#c0c0c0" stroke="#c0c0c0" stroke-width="2" points="278.0641,-1330.9042 267.5283,-1332.0207 276.4608,-1337.7181 278.0641,-1330.9042"/>
</g>
<!-- 22&#45;&gt;21 -->
<g id="edge48" class="edge">
<title>22&#45;&gt;21</title>
<path fill="none" stroke="#c0c0c0" stroke-width="2" d="M496.9404,-1439.8314C496.9404,-1432.131 496.9404,-1422.9743 496.9404,-1414.4166"/>
<polygon fill="#c0c0c0" stroke="#c0c0c0" stroke-width="2" points="500.4405,-1414.4132 496.9404,-1404.4133 493.4405,-1414.4133 500.4405,-1414.4132"/>
</g>
<!-- 23&#45;&gt;1 -->
<g id="edge19" class="edge">
<title>23&#45;&gt;1</title>
<path fill="none" stroke="#c0c0c0" stroke-width="2" d="M598.0261,-935.9273C600.5595,-917.4012 605.6894,-887.9888 614.9404,-864 634.935,-812.152 657.9458,-807.848 677.9404,-756 692.65,-717.8564 696.9404,-706.8816 696.9404,-666 696.9404,-666 696.9404,-666 696.9404,-234 696.9404,-192.2959 681.512,-146.0864 670.0631,-117.5372"/>
<polygon fill="#c0c0c0" stroke="#c0c0c0" stroke-width="2" points="673.2639,-116.1183 666.2113,-108.2119 666.7941,-118.7907 673.2639,-116.1183"/>
</g>
<!-- 24 -->
<g id="node25" class="node">
<title>24</title>
<path fill="none" stroke="#56d8c1" stroke-width="2" d="M1033.4404,-252C1033.4404,-252 914.4404,-252 914.4404,-252 908.4404,-252 902.4404,-246 902.4404,-240 902.4404,-240 902.4404,-228 902.4404,-228 902.4404,-222 908.4404,-216 914.4404,-216 914.4404,-216 1033.4404,-216 1033.4404,-216 1039.4404,-216 1045.4404,-222 1045.4404,-228 1045.4404,-228 1045.4404,-240 1045.4404,-240 1045.4404,-246 1039.4404,-252 1033.4404,-252"/>
<text text-anchor="middle" x="973.9404" y="-231.5" font-family="sans" font-size="10.00" fill="#000000">taxon_prefilter_metadmg_dfit</text>
</g>
<!-- 24&#45;&gt;1 -->
<g id="edge17" class="edge">
<title>24&#45;&gt;1</title>
<path fill="none" stroke="#c0c0c0" stroke-width="2" d="M958.8311,-215.8914C938.9078,-192.4386 904.4508,-153.4393 887.9404,-144 830.9284,-111.4053 755.2621,-98.4592 706.577,-93.3339"/>
<polygon fill="#c0c0c0" stroke="#c0c0c0" stroke-width="2" points="706.9085,-89.8497 696.6141,-92.3547 706.2237,-96.8161 706.9085,-89.8497"/>
</g>
<!-- 30 -->
<g id="node31" class="node">
<title>30</title>
<path fill="none" stroke="#56d8b1" stroke-width="2" d="M1099.9404,-180C1099.9404,-180 951.9404,-180 951.9404,-180 945.9404,-180 939.9404,-174 939.9404,-168 939.9404,-168 939.9404,-156 939.9404,-156 939.9404,-150 945.9404,-144 951.9404,-144 951.9404,-144 1099.9404,-144 1099.9404,-144 1105.9404,-144 1111.9404,-150 1111.9404,-156 1111.9404,-156 1111.9404,-168 1111.9404,-168 1111.9404,-174 1105.9404,-180 1099.9404,-180"/>
<text text-anchor="middle" x="1025.9404" y="-159.5" font-family="sans" font-size="10.00" fill="#000000">taxon_prefilter_metadmg_aggregate</text>
</g>
<!-- 24&#45;&gt;30 -->
<g id="edge57" class="edge">
<title>24&#45;&gt;30</title>
<path fill="none" stroke="#c0c0c0" stroke-width="2" d="M987.0622,-215.8314C992.9903,-207.6232 1000.1133,-197.7606 1006.6337,-188.7323"/>
<polygon fill="#c0c0c0" stroke="#c0c0c0" stroke-width="2" points="1009.6243,-190.5693 1012.6419,-180.4133 1003.9496,-186.4708 1009.6243,-190.5693"/>
</g>
<!-- 25 -->
<g id="node26" class="node">
<title>25</title>
<path fill="none" stroke="#56d8c9" stroke-width="2" d="M1032.9404,-324C1032.9404,-324 914.9404,-324 914.9404,-324 908.9404,-324 902.9404,-318 902.9404,-312 902.9404,-312 902.9404,-300 902.9404,-300 902.9404,-294 908.9404,-288 914.9404,-288 914.9404,-288 1032.9404,-288 1032.9404,-288 1038.9404,-288 1044.9404,-294 1044.9404,-300 1044.9404,-300 1044.9404,-312 1044.9404,-312 1044.9404,-318 1038.9404,-324 1032.9404,-324"/>
<text text-anchor="middle" x="973.9404" y="-303.5" font-family="sans" font-size="10.00" fill="#000000">taxon_prefilter_metadmg_lca</text>
</g>
<!-- 25&#45;&gt;24 -->
<g id="edge51" class="edge">
<title>25&#45;&gt;24</title>
<path fill="none" stroke="#c0c0c0" stroke-width="2" d="M973.9404,-287.8314C973.9404,-280.131 973.9404,-270.9743 973.9404,-262.4166"/>
<polygon fill="#c0c0c0" stroke="#c0c0c0" stroke-width="2" points="977.4405,-262.4132 973.9404,-252.4133 970.4405,-262.4133 977.4405,-262.4132"/>
</g>
<!-- 25&#45;&gt;30 -->
<g id="edge58" class="edge">
<title>25&#45;&gt;30</title>
<path fill="none" stroke="#c0c0c0" stroke-width="2" d="M1016.9258,-287.8854C1031.7232,-279.3151 1046.6465,-267.4972 1054.9404,-252 1065.7244,-231.8499 1056.2026,-206.9991 1045.2713,-188.5195"/>
<polygon fill="#c0c0c0" stroke="#c0c0c0" stroke-width="2" points="1048.1854,-186.5793 1039.8746,-180.008 1042.2736,-190.3277 1048.1854,-186.5793"/>
</g>
<!-- 26 -->
<g id="node27" class="node">
<title>26</title>
<path fill="none" stroke="#56d88a" stroke-width="2" d="M1083.4404,-396C1083.4404,-396 952.4404,-396 952.4404,-396 946.4404,-396 940.4404,-390 940.4404,-384 940.4404,-384 940.4404,-372 940.4404,-372 940.4404,-366 946.4404,-360 952.4404,-360 952.4404,-360 1083.4404,-360 1083.4404,-360 1089.4404,-360 1095.4404,-366 1095.4404,-372 1095.4404,-372 1095.4404,-384 1095.4404,-384 1095.4404,-390 1089.4404,-396 1083.4404,-396"/>
<text text-anchor="middle" x="1017.9404" y="-375.5" font-family="sans" font-size="10.00" fill="#000000">taxon_prefilter_align_sort_query</text>
</g>
<!-- 26&#45;&gt;25 -->
<g id="edge52" class="edge">
<title>26&#45;&gt;25</title>
<path fill="none" stroke="#c0c0c0" stroke-width="2" d="M1006.8373,-359.8314C1001.873,-351.7079 995.9182,-341.9637 990.4476,-333.0118"/>
<polygon fill="#c0c0c0" stroke="#c0c0c0" stroke-width="2" points="993.394,-331.121 985.1929,-324.4133 987.421,-334.7712 993.394,-331.121"/>
</g>
<!-- 43 -->
<g id="node44" class="node">
<title>43</title>
<path fill="none" stroke="#56d8b9" stroke-width="2" d="M1319.9404,-180C1319.9404,-180 1179.9404,-180 1179.9404,-180 1173.9404,-180 1167.9404,-174 1167.9404,-168 1167.9404,-168 1167.9404,-156 1167.9404,-156 1167.9404,-150 1173.9404,-144 1179.9404,-144 1179.9404,-144 1319.9404,-144 1319.9404,-144 1325.9404,-144 1331.9404,-150 1331.9404,-156 1331.9404,-156 1331.9404,-168 1331.9404,-168 1331.9404,-174 1325.9404,-180 1319.9404,-180"/>
<text text-anchor="middle" x="1249.9404" y="-159.5" font-family="sans" font-size="10.00" fill="#000000">taxon_prefilter_metadmg_damage</text>
</g>
<!-- 26&#45;&gt;43 -->
<g id="edge74" class="edge">
<title>26&#45;&gt;43</title>
<path fill="none" stroke="#c0c0c0" stroke-width="2" d="M1031.1025,-359.8103C1045.1633,-340.9299 1068.5958,-310.9981 1091.9404,-288 1131.4028,-249.1231 1182.2896,-210.2721 1215.4974,-186.2036"/>
<polygon fill="#c0c0c0" stroke="#c0c0c0" stroke-width="2" points="1217.8839,-188.7983 1223.9556,-180.1158 1213.7947,-183.1168 1217.8839,-188.7983"/>
</g>
<!-- 27 -->
<g id="node28" class="node">
<title>27</title>
<path fill="none" stroke="#56d863" stroke-width="2" d="M1069.9404,-468C1069.9404,-468 965.9404,-468 965.9404,-468 959.9404,-468 953.9404,-462 953.9404,-456 953.9404,-456 953.9404,-444 953.9404,-444 953.9404,-438 959.9404,-432 965.9404,-432 965.9404,-432 1069.9404,-432 1069.9404,-432 1075.9404,-432 1081.9404,-438 1081.9404,-444 1081.9404,-444 1081.9404,-456 1081.9404,-456 1081.9404,-462 1075.9404,-468 1069.9404,-468"/>
<text text-anchor="middle" x="1017.9404" y="-447.5" font-family="sans" font-size="10.00" fill="#000000">taxon_prefilter_align_filter</text>
</g>
<!-- 27&#45;&gt;26 -->
<g id="edge53" class="edge">
<title>27&#45;&gt;26</title>
<path fill="none" stroke="#c0c0c0" stroke-width="2" d="M1017.9404,-431.8314C1017.9404,-424.131 1017.9404,-414.9743 1017.9404,-406.4166"/>
<polygon fill="#c0c0c0" stroke="#c0c0c0" stroke-width="2" points="1021.4405,-406.4132 1017.9404,-396.4133 1014.4405,-406.4133 1021.4405,-406.4132"/>
</g>
<!-- 44 -->
<g id="node45" class="node">
<title>44</title>
<path fill="none" stroke="#56d86b" stroke-width="2" d="M1210.9404,-324C1210.9404,-324 1112.9404,-324 1112.9404,-324 1106.9404,-324 1100.9404,-318 1100.9404,-312 1100.9404,-312 1100.9404,-300 1100.9404,-300 1100.9404,-294 1106.9404,-288 1112.9404,-288 1112.9404,-288 1210.9404,-288 1210.9404,-288 1216.9404,-288 1222.9404,-294 1222.9404,-300 1222.9404,-300 1222.9404,-312 1222.9404,-312 1222.9404,-318 1216.9404,-324 1210.9404,-324"/>
<text text-anchor="middle" x="1161.9404" y="-303.5" font-family="sans" font-size="10.00" fill="#000000">taxon_prefilter_align_lca</text>
</g>
<!-- 27&#45;&gt;44 -->
<g id="edge75" class="edge">
<title>27&#45;&gt;44</title>
<path fill="none" stroke="#c0c0c0" stroke-width="2" d="M1054.829,-431.997C1071.3878,-422.7487 1090.419,-410.3901 1104.9404,-396 1123.3715,-377.7354 1138.7203,-352.4593 1148.8296,-333.3424"/>
<polygon fill="#c0c0c0" stroke="#c0c0c0" stroke-width="2" points="1152.0465,-334.7394 1153.4944,-324.244 1145.8175,-331.5457 1152.0465,-334.7394"/>
</g>
<!-- 28 -->
<g id="node29" class="node">
<title>28</title>
<path fill="none" stroke="#56d87b" stroke-width="2" d="M757.9404,-900C757.9404,-900 635.9404,-900 635.9404,-900 629.9404,-900 623.9404,-894 623.9404,-888 623.9404,-888 623.9404,-876 623.9404,-876 623.9404,-870 629.9404,-864 635.9404,-864 635.9404,-864 757.9404,-864 757.9404,-864 763.9404,-864 769.9404,-870 769.9404,-876 769.9404,-876 769.9404,-888 769.9404,-888 769.9404,-894 763.9404,-900 757.9404,-900"/>
<text text-anchor="middle" x="696.9404" y="-879.5" font-family="sans" font-size="10.00" fill="#000000">taxon_prefilter_align_reassign</text>
</g>
<!-- 28&#45;&gt;27 -->
<g id="edge54" class="edge">
<title>28&#45;&gt;27</title>
<path fill="none" stroke="#c0c0c0" stroke-width="2" d="M704.9992,-863.7668C716.1538,-836.8248 734.9404,-784.5405 734.9404,-738 734.9404,-738 734.9404,-738 734.9404,-594 734.9404,-500.2373 859.8636,-467.501 943.7126,-456.0885"/>
<polygon fill="#c0c0c0" stroke="#c0c0c0" stroke-width="2" points="944.252,-459.5481 953.7233,-454.7998 943.3582,-452.6054 944.252,-459.5481"/>
</g>
<!-- 29&#45;&gt;28 -->
<g id="edge55" class="edge">
<title>29&#45;&gt;28</title>
<path fill="none" stroke="#c0c0c0" stroke-width="2" d="M692.5736,-1007.7623C693.4264,-983.201 694.9526,-939.2474 695.9559,-910.3541"/>
<polygon fill="#c0c0c0" stroke="#c0c0c0" stroke-width="2" points="699.463,-910.2051 696.3123,-900.0896 692.4673,-909.9621 699.463,-910.2051"/>
</g>
<!-- 30&#45;&gt;0 -->
<g id="edge7" class="edge">
<title>30&#45;&gt;0</title>
<path fill="none" stroke="#c0c0c0" stroke-width="2" d="M969.7801,-143.9081C880.1016,-115.0184 706.3193,-59.0348 624.1192,-32.5543"/>
<polygon fill="#c0c0c0" stroke="#c0c0c0" stroke-width="2" points="625.1522,-29.21 614.5607,-29.475 623.0057,-35.8728 625.1522,-29.21"/>
</g>
<!-- 30&#45;&gt;1 -->
<g id="edge21" class="edge">
<title>30&#45;&gt;1</title>
<path fill="none" stroke="#c0c0c0" stroke-width="2" d="M939.6607,-145.1192C866.9628,-130.8957 765.5945,-111.0628 706.3554,-99.4725"/>
<polygon fill="#c0c0c0" stroke="#c0c0c0" stroke-width="2" points="706.9969,-96.0317 696.5109,-97.5464 705.6528,-102.9015 706.9969,-96.0317"/>
</g>
<!-- 31&#45;&gt;1 -->
<g id="edge15" class="edge">
<title>31&#45;&gt;1</title>
<path fill="none" stroke="#c0c0c0" stroke-width="2" d="M497.6725,-791.793C510.3781,-782.3385 524.8245,-769.8674 534.9404,-756 555.2714,-728.1293 551.4385,-716.1532 563.9404,-684 576.3255,-652.1471 583.2612,-645.3021 590.9404,-612 621.6358,-478.8838 619.9404,-442.6094 619.9404,-306 619.9404,-306 619.9404,-306 619.9404,-234 619.9404,-192.3681 634.9732,-146.14 646.1285,-117.567"/>
<polygon fill="#c0c0c0" stroke="#c0c0c0" stroke-width="2" points="649.3982,-118.817 649.8815,-108.2332 642.9035,-116.2055 649.3982,-118.817"/>
</g>
<!-- 36 -->
<g id="node37" class="node">
<title>36</title>
<path fill="none" stroke="#569ad8" stroke-width="2" d="M534.9404,-612C534.9404,-612 376.9404,-612 376.9404,-612 370.9404,-612 364.9404,-606 364.9404,-600 364.9404,-600 364.9404,-588 364.9404,-588 364.9404,-582 370.9404,-576 376.9404,-576 376.9404,-576 534.9404,-576 534.9404,-576 540.9404,-576 546.9404,-582 546.9404,-588 546.9404,-588 546.9404,-600 546.9404,-600 546.9404,-606 540.9404,-612 534.9404,-612"/>
<text text-anchor="middle" x="455.9404" y="-591.5" font-family="sans" font-size="10.00" fill="#000000">taxon_shard_saturated_reads_remove</text>
</g>
<!-- 31&#45;&gt;36 -->
<g id="edge64" class="edge">
<title>31&#45;&gt;36</title>
<path fill="none" stroke="#c0c0c0" stroke-width="2" d="M469.9192,-791.979C469.7392,-762.0255 468.7522,-700.1267 463.9404,-648 463.1686,-639.6392 461.9729,-630.598 460.7391,-622.3486"/>
<polygon fill="#c0c0c0" stroke="#c0c0c0" stroke-width="2" points="464.1914,-621.7711 459.185,-612.4337 457.2758,-622.8551 464.1914,-621.7711"/>
</g>
<!-- 38 -->
<g id="node39" class="node">
<title>38</title>
<path fill="none" stroke="#56b1d8" stroke-width="2" d="M430.9404,-756C430.9404,-756 332.9404,-756 332.9404,-756 326.9404,-756 320.9404,-750 320.9404,-744 320.9404,-744 320.9404,-732 320.9404,-732 320.9404,-726 326.9404,-720 332.9404,-720 332.9404,-720 430.9404,-720 430.9404,-720 436.9404,-720 442.9404,-726 442.9404,-732 442.9404,-732 442.9404,-744 442.9404,-744 442.9404,-750 436.9404,-756 430.9404,-756"/>
<text text-anchor="middle" x="381.9404" y="-735.5" font-family="sans" font-size="10.00" fill="#000000">taxon_shard_count_alns</text>
</g>
<!-- 31&#45;&gt;38 -->
<g id="edge67" class="edge">
<title>31&#45;&gt;38</title>
<path fill="none" stroke="#c0c0c0" stroke-width="2" d="M447.7343,-791.8314C436.8954,-782.9632 423.696,-772.1637 411.9726,-762.5718"/>
<polygon fill="#c0c0c0" stroke="#c0c0c0" stroke-width="2" points="414.0953,-759.7864 404.1394,-756.1628 409.6626,-765.2041 414.0953,-759.7864"/>
</g>
<!-- 32 -->
<g id="node33" class="node">
<title>32</title>
<path fill="none" stroke="#88d856" stroke-width="2" d="M541.4404,-252C541.4404,-252 472.4404,-252 472.4404,-252 466.4404,-252 460.4404,-246 460.4404,-240 460.4404,-240 460.4404,-228 460.4404,-228 460.4404,-222 466.4404,-216 472.4404,-216 472.4404,-216 541.4404,-216 541.4404,-216 547.4404,-216 553.4404,-222 553.4404,-228 553.4404,-228 553.4404,-240 553.4404,-240 553.4404,-246 547.4404,-252 541.4404,-252"/>
<text text-anchor="middle" x="506.9404" y="-231.5" font-family="sans" font-size="10.00" fill="#000000">taxon_align_stats</text>
</g>
<!-- 32&#45;&gt;1 -->
<g id="edge16" class="edge">
<title>32&#45;&gt;1</title>
<path fill="none" stroke="#c0c0c0" stroke-width="2" d="M516.2004,-215.7274C526.7445,-196.2286 545.4549,-165.2766 567.9404,-144 580.4356,-132.1766 595.9545,-121.7298 610.5677,-113.2522"/>
<polygon fill="#c0c0c0" stroke="#c0c0c0" stroke-width="2" points="612.5052,-116.1785 619.5143,-108.2335 609.0804,-110.0735 612.5052,-116.1785"/>
</g>
<!-- 33 -->
<g id="node34" class="node">
<title>33</title>
<path fill="none" stroke="#a7d856" stroke-width="2" d="M432.9404,-396C432.9404,-396 358.9404,-396 358.9404,-396 352.9404,-396 346.9404,-390 346.9404,-384 346.9404,-384 346.9404,-372 346.9404,-372 346.9404,-366 352.9404,-360 358.9404,-360 358.9404,-360 432.9404,-360 432.9404,-360 438.9404,-360 444.9404,-366 444.9404,-372 444.9404,-372 444.9404,-384 444.9404,-384 444.9404,-390 438.9404,-396 432.9404,-396"/>
<text text-anchor="middle" x="395.9404" y="-375.5" font-family="sans" font-size="10.00" fill="#000000">taxon_align_merge</text>
</g>
<!-- 33&#45;&gt;32 -->
<g id="edge60" class="edge">
<title>33&#45;&gt;32</title>
<path fill="none" stroke="#c0c0c0" stroke-width="2" d="M416.7163,-359.819C427.5486,-349.8115 440.6474,-336.8439 450.9404,-324 466.8892,-304.0985 481.9816,-279.3689 492.4709,-260.8709"/>
<polygon fill="#c0c0c0" stroke="#c0c0c0" stroke-width="2" points="495.5586,-262.5202 497.3751,-252.0822 489.4459,-259.1092 495.5586,-262.5202"/>
</g>
<!-- 40 -->
<g id="node41" class="node">
<title>40</title>
<path fill="none" stroke="#56d85b" stroke-width="2" d="M429.9404,-324C429.9404,-324 349.9404,-324 349.9404,-324 343.9404,-324 337.9404,-318 337.9404,-312 337.9404,-312 337.9404,-300 337.9404,-300 337.9404,-294 343.9404,-288 349.9404,-288 349.9404,-288 429.9404,-288 429.9404,-288 435.9404,-288 441.9404,-294 441.9404,-300 441.9404,-300 441.9404,-312 441.9404,-312 441.9404,-318 435.9404,-324 429.9404,-324"/>
<text text-anchor="middle" x="389.9404" y="-303.5" font-family="sans" font-size="10.00" fill="#000000">taxon_metadmg_lca</text>
</g>
<!-- 33&#45;&gt;40 -->
<g id="edge69" class="edge">
<title>33&#45;&gt;40</title>
<path fill="none" stroke="#c0c0c0" stroke-width="2" d="M394.4263,-359.8314C393.7846,-352.131 393.0216,-342.9743 392.3084,-334.4166"/>
<polygon fill="#c0c0c0" stroke="#c0c0c0" stroke-width="2" points="395.7933,-334.088 391.4748,-324.4133 388.8174,-334.6694 395.7933,-334.088"/>
</g>
<!-- 46 -->
<g id="node47" class="node">
<title>46</title>
<path fill="none" stroke="#61d856" stroke-width="2" d="M398.9404,-108C398.9404,-108 296.9404,-108 296.9404,-108 290.9404,-108 284.9404,-102 284.9404,-96 284.9404,-96 284.9404,-84 284.9404,-84 284.9404,-78 290.9404,-72 296.9404,-72 296.9404,-72 398.9404,-72 398.9404,-72 404.9404,-72 410.9404,-78 410.9404,-84 410.9404,-84 410.9404,-96 410.9404,-96 410.9404,-102 404.9404,-108 398.9404,-108"/>
<text text-anchor="middle" x="347.9404" y="-87.5" font-family="sans" font-size="10.00" fill="#000000">taxon_metadmg_damage</text>
</g>
<!-- 33&#45;&gt;46 -->
<g id="edge78" class="edge">
<title>33&#45;&gt;46</title>
<path fill="none" stroke="#c0c0c0" stroke-width="2" d="M364.0176,-359.7848C351.0396,-350.7163 337.1848,-338.5603 328.9404,-324 291.427,-257.7486 318.7737,-163.5959 336.3009,-117.5319"/>
<polygon fill="#c0c0c0" stroke="#c0c0c0" stroke-width="2" points="339.5686,-118.786 339.9709,-108.1988 333.0541,-116.2243 339.5686,-118.786"/>
</g>
<!-- 34 -->
<g id="node35" class="node">
<title>34</title>
<path fill="none" stroke="#5692d8" stroke-width="2" d="M450.4404,-468C450.4404,-468 353.4404,-468 353.4404,-468 347.4404,-468 341.4404,-462 341.4404,-456 341.4404,-456 341.4404,-444 341.4404,-444 341.4404,-438 347.4404,-432 353.4404,-432 353.4404,-432 450.4404,-432 450.4404,-432 456.4404,-432 462.4404,-438 462.4404,-444 462.4404,-444 462.4404,-456 462.4404,-456 462.4404,-462 456.4404,-468 450.4404,-468"/>
<text text-anchor="middle" x="401.9404" y="-447.5" font-family="sans" font-size="10.00" fill="#000000">taxon_shard_sort_query</text>
</g>
<!-- 34&#45;&gt;33 -->
<g id="edge61" class="edge">
<title>34&#45;&gt;33</title>
<path fill="none" stroke="#c0c0c0" stroke-width="2" d="M400.4263,-431.8314C399.7846,-424.131 399.0216,-414.9743 398.3084,-406.4166"/>
<polygon fill="#c0c0c0" stroke="#c0c0c0" stroke-width="2" points="401.7933,-406.088 397.4748,-396.4133 394.8174,-406.6694 401.7933,-406.088"/>
</g>
<!-- 35 -->
<g id="node36" class="node">
<title>35</title>
<path fill="none" stroke="#56b1d8" stroke-width="2" d="M474.4404,-540C474.4404,-540 365.4404,-540 365.4404,-540 359.4404,-540 353.4404,-534 353.4404,-528 353.4404,-528 353.4404,-516 353.4404,-516 353.4404,-510 359.4404,-504 365.4404,-504 365.4404,-504 474.4404,-504 474.4404,-504 480.4404,-504 486.4404,-510 486.4404,-516 486.4404,-516 486.4404,-528 486.4404,-528 486.4404,-534 480.4404,-540 474.4404,-540"/>
<text text-anchor="middle" x="419.9404" y="-519.5" font-family="sans" font-size="10.00" fill="#000000">taxon_shard_clean_header</text>
</g>
<!-- 35&#45;&gt;34 -->
<g id="edge62" class="edge">
<title>35&#45;&gt;34</title>
<path fill="none" stroke="#c0c0c0" stroke-width="2" d="M415.3982,-503.8314C413.452,-496.0463 411.1336,-486.7729 408.9741,-478.1347"/>
<polygon fill="#c0c0c0" stroke="#c0c0c0" stroke-width="2" points="412.3646,-477.2658 406.5437,-468.4133 405.5736,-478.9636 412.3646,-477.2658"/>
</g>
<!-- 36&#45;&gt;35 -->
<g id="edge63" class="edge">
<title>36&#45;&gt;35</title>
<path fill="none" stroke="#c0c0c0" stroke-width="2" d="M446.8561,-575.8314C442.8789,-567.8771 438.1249,-558.369 433.7265,-549.5723"/>
<polygon fill="#c0c0c0" stroke="#c0c0c0" stroke-width="2" points="436.7497,-547.7923 429.147,-540.4133 430.4887,-550.9228 436.7497,-547.7923"/>
</g>
<!-- 37 -->
<g id="node38" class="node">
<title>37</title>
<path fill="none" stroke="#56a2d8" stroke-width="2" d="M442.4404,-684C442.4404,-684 297.4404,-684 297.4404,-684 291.4404,-684 285.4404,-678 285.4404,-672 285.4404,-672 285.4404,-660 285.4404,-660 285.4404,-654 291.4404,-648 297.4404,-648 297.4404,-648 442.4404,-648 442.4404,-648 448.4404,-648 454.4404,-654 454.4404,-660 454.4404,-660 454.4404,-672 454.4404,-672 454.4404,-678 448.4404,-684 442.4404,-684"/>
<text text-anchor="middle" x="369.9404" y="-663.5" font-family="sans" font-size="10.00" fill="#000000">taxon_shard_saturated_reads_filter</text>
</g>
<!-- 37&#45;&gt;36 -->
<g id="edge65" class="edge">
<title>37&#45;&gt;36</title>
<path fill="none" stroke="#c0c0c0" stroke-width="2" d="M391.6418,-647.8314C402.1325,-639.0485 414.8859,-628.3712 426.2598,-618.8489"/>
<polygon fill="#c0c0c0" stroke="#c0c0c0" stroke-width="2" points="428.8251,-621.2659 434.2459,-612.1628 424.3315,-615.8986 428.8251,-621.2659"/>
</g>
<!-- 37&#45;&gt;45 -->
<g id="edge76" class="edge">
<title>37&#45;&gt;45</title>
<path fill="none" stroke="#c0c0c0" stroke-width="2" d="M341.4257,-647.8314C327.1061,-638.7074 309.578,-627.539 294.2066,-617.7449"/>
<polygon fill="#c0c0c0" stroke="#c0c0c0" stroke-width="2" points="295.7602,-614.5847 285.4459,-612.1628 291.9987,-620.4882 295.7602,-614.5847"/>
</g>
<!-- 38&#45;&gt;37 -->
<g id="edge66" class="edge">
<title>38&#45;&gt;37</title>
<path fill="none" stroke="#c0c0c0" stroke-width="2" d="M378.9123,-719.8314C377.6289,-712.131 376.1028,-702.9743 374.6765,-694.4166"/>
<polygon fill="#c0c0c0" stroke="#c0c0c0" stroke-width="2" points="378.1057,-693.7018 373.0092,-684.4133 371.2009,-694.8526 378.1057,-693.7018"/>
</g>
<!-- 39 -->
<g id="node40" class="node">
<title>39</title>
<path fill="none" stroke="#59d856" stroke-width="2" d="M430.4404,-252C430.4404,-252 349.4404,-252 349.4404,-252 343.4404,-252 337.4404,-246 337.4404,-240 337.4404,-240 337.4404,-228 337.4404,-228 337.4404,-222 343.4404,-216 349.4404,-216 349.4404,-216 430.4404,-216 430.4404,-216 436.4404,-216 442.4404,-222 442.4404,-228 442.4404,-228 442.4404,-240 442.4404,-240 442.4404,-246 436.4404,-252 430.4404,-252"/>
<text text-anchor="middle" x="389.9404" y="-231.5" font-family="sans" font-size="10.00" fill="#000000">taxon_metadmg_dfit</text>
</g>
<!-- 39&#45;&gt;1 -->
<g id="edge18" class="edge">
<title>39&#45;&gt;1</title>
<path fill="none" stroke="#c0c0c0" stroke-width="2" d="M422.5985,-215.8794C440.6049,-205.6792 463.2396,-192.5113 482.9404,-180 506.6689,-164.9308 510.403,-157.7128 534.9404,-144 558.9167,-130.6007 586.8651,-118.1011 610.0562,-108.5094"/>
<polygon fill="#c0c0c0" stroke="#c0c0c0" stroke-width="2" points="611.413,-111.736 619.3481,-104.7157 608.767,-105.2553 611.413,-111.736"/>
</g>
<!-- 41 -->
<g id="node42" class="node">
<title>41</title>
<path fill="none" stroke="#68d856" stroke-width="2" d="M461.9404,-180C461.9404,-180 351.9404,-180 351.9404,-180 345.9404,-180 339.9404,-174 339.9404,-168 339.9404,-168 339.9404,-156 339.9404,-156 339.9404,-150 345.9404,-144 351.9404,-144 351.9404,-144 461.9404,-144 461.9404,-144 467.9404,-144 473.9404,-150 473.9404,-156 473.9404,-156 473.9404,-168 473.9404,-168 473.9404,-174 467.9404,-180 461.9404,-180"/>
<text text-anchor="middle" x="406.9404" y="-159.5" font-family="sans" font-size="10.00" fill="#000000">taxon_metadmg_aggregate</text>
</g>
<!-- 39&#45;&gt;41 -->
<g id="edge70" class="edge">
<title>39&#45;&gt;41</title>
<path fill="none" stroke="#c0c0c0" stroke-width="2" d="M394.2302,-215.8314C396.0483,-208.131 398.2103,-198.9743 400.2309,-190.4166"/>
<polygon fill="#c0c0c0" stroke="#c0c0c0" stroke-width="2" points="403.7011,-190.95 402.5928,-180.4133 396.8885,-189.3414 403.7011,-190.95"/>
</g>
<!-- 40&#45;&gt;39 -->
<g id="edge68" class="edge">
<title>40&#45;&gt;39</title>
<path fill="none" stroke="#c0c0c0" stroke-width="2" d="M389.9404,-287.8314C389.9404,-280.131 389.9404,-270.9743 389.9404,-262.4166"/>
<polygon fill="#c0c0c0" stroke="#c0c0c0" stroke-width="2" points="393.4405,-262.4132 389.9404,-252.4133 386.4405,-262.4133 393.4405,-262.4132"/>
</g>
<!-- 40&#45;&gt;41 -->
<g id="edge71" class="edge">
<title>40&#45;&gt;41</title>
<path fill="none" stroke="#c0c0c0" stroke-width="2" d="M360.2463,-287.9172C348.1567,-278.8022 335.5025,-266.5731 328.9404,-252 322.371,-237.4108 321.5147,-230.1725 328.9404,-216 335.3989,-203.6735 346.0908,-193.6013 357.5182,-185.6382"/>
<polygon fill="#c0c0c0" stroke="#c0c0c0" stroke-width="2" points="359.419,-188.5771 365.919,-180.2105 355.6202,-182.6975 359.419,-188.5771"/>
</g>
<!-- 41&#45;&gt;0 -->
<g id="edge2" class="edge">
<title>41&#45;&gt;0</title>
<path fill="none" stroke="#c0c0c0" stroke-width="2" d="M428.7243,-143.7623C459.3537,-118.119 515.232,-71.3372 549.5258,-42.6262"/>
<polygon fill="#c0c0c0" stroke="#c0c0c0" stroke-width="2" points="551.9125,-45.1927 557.3333,-36.0896 547.4189,-39.8254 551.9125,-45.1927"/>
</g>
<!-- 41&#45;&gt;1 -->
<g id="edge10" class="edge">
<title>41&#45;&gt;1</title>
<path fill="none" stroke="#c0c0c0" stroke-width="2" d="M469.9543,-143.9243C513.1949,-131.5206 569.7224,-115.3055 609.4571,-103.9076"/>
<polygon fill="#c0c0c0" stroke="#c0c0c0" stroke-width="2" points="610.5317,-107.2405 619.179,-101.1188 608.6015,-100.5119 610.5317,-107.2405"/>
</g>
<!-- 42&#45;&gt;0 -->
<g id="edge1" class="edge">
<title>42&#45;&gt;0</title>
<path fill="none" stroke="#c0c0c0" stroke-width="2" d="M174.9612,-1295.898C153.7495,-1269.9361 118.9404,-1219.7525 118.9404,-1170 118.9404,-1170 118.9404,-1170 118.9404,-162 118.9404,-103.8389 161.636,-97.4357 213.9404,-72 269.4484,-45.0064 448.224,-28.0526 533.2246,-21.3198"/>
<polygon fill="#c0c0c0" stroke="#c0c0c0" stroke-width="2" points="533.6574,-24.7968 543.3553,-20.5307 533.1137,-17.818 533.6574,-24.7968"/>
</g>
<!-- 43&#45;&gt;0 -->
<g id="edge3" class="edge">
<title>43&#45;&gt;0</title>
<path fill="none" stroke="#c0c0c0" stroke-width="2" d="M1167.6626,-144.3428C1024.9619,-113.7185 736.1392,-51.7357 624.4594,-27.7686"/>
<polygon fill="#c0c0c0" stroke="#c0c0c0" stroke-width="2" points="625.0395,-24.3135 614.5277,-25.6372 623.5707,-31.1577 625.0395,-24.3135"/>
</g>
<!-- 44&#45;&gt;0 -->
<g id="edge8" class="edge">
<title>44&#45;&gt;0</title>
<path fill="none" stroke="#c0c0c0" stroke-width="2" d="M1210.1877,-287.9694C1278.5425,-259.7932 1390.098,-202.4689 1340.9404,-144 1294.2836,-88.5057 782.5739,-36.8453 624.9092,-22.1506"/>
<polygon fill="#c0c0c0" stroke="#c0c0c0" stroke-width="2" points="624.8922,-18.6341 614.6119,-21.1966 624.2464,-25.6043 624.8922,-18.6341"/>
</g>
<!-- 45&#45;&gt;0 -->
<g id="edge6" class="edge">
<title>45&#45;&gt;0</title>
<path fill="none" stroke="#c0c0c0" stroke-width="2" d="M243.4873,-575.9776C225.2526,-549.7117 194.9404,-498.7216 194.9404,-450 194.9404,-450 194.9404,-450 194.9404,-162 194.9404,-108.1855 228.9,-98.1382 275.9404,-72 319.345,-47.8821 459.4348,-30.3209 532.942,-22.5083"/>
<polygon fill="#c0c0c0" stroke="#c0c0c0" stroke-width="2" points="533.703,-25.9479 543.2847,-21.4267 532.9749,-18.9859 533.703,-25.9479"/>
</g>
<!-- 46&#45;&gt;0 -->
<g id="edge4" class="edge">
<title>46&#45;&gt;0</title>
<path fill="none" stroke="#c0c0c0" stroke-width="2" d="M405.9333,-71.9243C445.3911,-59.6257 496.8709,-43.5801 533.3872,-32.1984"/>
<polygon fill="#c0c0c0" stroke="#c0c0c0" stroke-width="2" points="534.762,-35.436 543.2675,-29.1188 532.679,-28.7531 534.762,-35.436"/>
</g>
</g>
</svg>
