<?xml version="1.0" encoding="UTF-8" standalone="no"?>
<!DOCTYPE svg PUBLIC "-//W3C//DTD SVG 1.1//EN"
 "http://www.w3.org/Graphics/SVG/1.1/DTD/svg11.dtd">
<!-- Generated by graphviz version 2.40.1 (0)
 -->
<!-- Title: snakemake_dag Pages: 1 -->
<svg width="814pt" height="1052pt"
 viewBox="0.00 0.00 814.00 1052.00" xmlns="http://www.w3.org/2000/svg" xmlns:xlink="http://www.w3.org/1999/xlink">
<g id="graph0" class="graph" transform="scale(1 1) rotate(0) translate(4 1048)">
<title>snakemake_dag</title>
<polygon fill="#ffffff" stroke="transparent" points="-4,4 -4,-1048 810,-1048 810,4 -4,4"/>
<!-- 0 -->
<g id="node1" class="node">
<title>0</title>
<path fill="none" stroke="#566bd8" stroke-width="2" d="M296.5,-36C296.5,-36 249.5,-36 249.5,-36 243.5,-36 237.5,-30 237.5,-24 237.5,-24 237.5,-12 237.5,-12 237.5,-6 243.5,0 249.5,0 249.5,0 296.5,0 296.5,0 302.5,0 308.5,-6 308.5,-12 308.5,-12 308.5,-24 308.5,-24 308.5,-30 302.5,-36 296.5,-36"/>
<text text-anchor="middle" x="273" y="-15.5" font-family="sans" font-size="10.00" fill="#000000">target_taxon</text>
</g>
<!-- 1 -->
<g id="node2" class="node">
<title>1</title>
<path fill="none" stroke="#56d8a9" stroke-width="2" d="M502.5,-108C502.5,-108 449.5,-108 449.5,-108 443.5,-108 437.5,-102 437.5,-96 437.5,-96 437.5,-84 437.5,-84 437.5,-78 443.5,-72 449.5,-72 449.5,-72 502.5,-72 502.5,-72 508.5,-72 514.5,-78 514.5,-84 514.5,-84 514.5,-96 514.5,-96 514.5,-102 508.5,-108 502.5,-108"/>
<text text-anchor="middle" x="476" y="-87.5" font-family="sans" font-size="10.00" fill="#000000">multiqc_taxon</text>
</g>
<!-- 1&#45;&gt;0 -->
<g id="edge2" class="edge">
<title>1&#45;&gt;0</title>
<path fill="none" stroke="#c0c0c0" stroke-width="2" d="M437.3394,-76.2879C403.481,-64.279 354.2421,-46.8149 318.4949,-34.1361"/>
<polygon fill="#c0c0c0" stroke="#c0c0c0" stroke-width="2" points="319.3888,-30.7396 308.7941,-30.6954 317.0488,-37.3369 319.3888,-30.7396"/>
</g>
<!-- 2 -->
<g id="node3" class="node">
<title>2</title>
<path fill="none" stroke="#d8ac56" stroke-width="2" d="M794,-828C794,-828 732,-828 732,-828 726,-828 720,-822 720,-816 720,-816 720,-804 720,-804 720,-798 726,-792 732,-792 732,-792 794,-792 794,-792 800,-792 806,-798 806,-804 806,-804 806,-816 806,-816 806,-822 800,-828 794,-828"/>
<text text-anchor="middle" x="763" y="-807.5" font-family="sans" font-size="10.00" fill="#000000">trim_fastqc_raw</text>
</g>
<!-- 2&#45;&gt;1 -->
<g id="edge4" class="edge">
<title>2&#45;&gt;1</title>
<path fill="none" stroke="#c0c0c0" stroke-width="2" d="M765.072,-791.8427C768.0011,-764.5621 773,-711.359 773,-666 773,-666 773,-666 773,-234 773,-173.875 724.812,-172.7386 672,-144 625.4137,-118.6492 565.9876,-104.4538 524.8458,-97.0523"/>
<polygon fill="#c0c0c0" stroke="#c0c0c0" stroke-width="2" points="525.2492,-93.5702 514.799,-95.3143 524.056,-100.4678 525.2492,-93.5702"/>
</g>
<!-- 3 -->
<g id="node4" class="node">
<title>3</title>
<path fill="none" stroke="#56c9d8" stroke-width="2" d="M722,-1044C722,-1044 646,-1044 646,-1044 640,-1044 634,-1038 634,-1032 634,-1032 634,-1020 634,-1020 634,-1014 640,-1008 646,-1008 646,-1008 722,-1008 722,-1008 728,-1008 734,-1014 734,-1020 734,-1020 734,-1032 734,-1032 734,-1038 728,-1044 722,-1044"/>
<text text-anchor="middle" x="684" y="-1023.5" font-family="sans" font-size="10.00" fill="#000000">trim_get_fastq_raw</text>
</g>
<!-- 3&#45;&gt;2 -->
<g id="edge13" class="edge">
<title>3&#45;&gt;2</title>
<path fill="none" stroke="#c0c0c0" stroke-width="2" d="M696.4668,-1007.6252C702.9546,-997.4571 710.6302,-984.4001 716,-972 735.6365,-926.6546 749.8063,-870.7044 757.1848,-837.8301"/>
<polygon fill="#c0c0c0" stroke="#c0c0c0" stroke-width="2" points="760.6149,-838.528 759.3401,-828.0102 753.7776,-837.0273 760.6149,-838.528"/>
</g>
<!-- 4 -->
<g id="node5" class="node">
<title>4</title>
<path fill="none" stroke="#d8b456" stroke-width="2" d="M695,-972C695,-972 571,-972 571,-972 565,-972 559,-966 559,-960 559,-960 559,-948 559,-948 559,-942 565,-936 571,-936 571,-936 695,-936 695,-936 701,-936 707,-942 707,-948 707,-948 707,-960 707,-960 707,-966 701,-972 695,-972"/>
<text text-anchor="middle" x="633" y="-951.5" font-family="sans" font-size="10.00" fill="#000000">trim_adapterremoval_fastq_pe</text>
</g>
<!-- 3&#45;&gt;4 -->
<g id="edge14" class="edge">
<title>3&#45;&gt;4</title>
<path fill="none" stroke="#c0c0c0" stroke-width="2" d="M671.1305,-1007.8314C665.3165,-999.6232 658.3304,-989.7606 651.9354,-980.7323"/>
<polygon fill="#c0c0c0" stroke="#c0c0c0" stroke-width="2" points="654.679,-978.5505 646.0427,-972.4133 648.9669,-982.5966 654.679,-978.5505"/>
</g>
<!-- 4&#45;&gt;1 -->
<g id="edge5" class="edge">
<title>4&#45;&gt;1</title>
<path fill="none" stroke="#c0c0c0" stroke-width="2" d="M632.1712,-935.8191C630.9996,-908.5085 629,-855.2675 629,-810 629,-810 629,-810 629,-234 629,-175.3035 568.5496,-133.5022 523.6434,-110.5476"/>
<polygon fill="#c0c0c0" stroke="#c0c0c0" stroke-width="2" points="525.1229,-107.3746 514.6084,-106.0723 522.0158,-113.6473 525.1229,-107.3746"/>
</g>
<!-- 5 -->
<g id="node6" class="node">
<title>5</title>
<path fill="none" stroke="#bed856" stroke-width="2" d="M732.5,-756C732.5,-756 669.5,-756 669.5,-756 663.5,-756 657.5,-750 657.5,-744 657.5,-744 657.5,-732 657.5,-732 657.5,-726 663.5,-720 669.5,-720 669.5,-720 732.5,-720 732.5,-720 738.5,-720 744.5,-726 744.5,-732 744.5,-732 744.5,-744 744.5,-744 744.5,-750 738.5,-756 732.5,-756"/>
<text text-anchor="middle" x="701" y="-735.5" font-family="sans" font-size="10.00" fill="#000000">trim_fastqc_trim</text>
</g>
<!-- 4&#45;&gt;5 -->
<g id="edge15" class="edge">
<title>4&#45;&gt;5</title>
<path fill="none" stroke="#c0c0c0" stroke-width="2" d="M638.6807,-935.9555C650.5557,-898.235 678.0755,-810.8188 692.2356,-765.8399"/>
<polygon fill="#c0c0c0" stroke="#c0c0c0" stroke-width="2" points="695.6232,-766.7346 695.2877,-756.1451 688.9463,-764.6325 695.6232,-766.7346"/>
</g>
<!-- 7 -->
<g id="node8" class="node">
<title>7</title>
<path fill="none" stroke="#d8bc56" stroke-width="2" d="M534.5,-900C534.5,-900 457.5,-900 457.5,-900 451.5,-900 445.5,-894 445.5,-888 445.5,-888 445.5,-876 445.5,-876 445.5,-870 451.5,-864 457.5,-864 457.5,-864 534.5,-864 534.5,-864 540.5,-864 546.5,-870 546.5,-876 546.5,-876 546.5,-888 546.5,-888 546.5,-894 540.5,-900 534.5,-900"/>
<text text-anchor="middle" x="496" y="-879.5" font-family="sans" font-size="10.00" fill="#000000">derep_merge_lanes</text>
</g>
<!-- 4&#45;&gt;7 -->
<g id="edge19" class="edge">
<title>4&#45;&gt;7</title>
<path fill="none" stroke="#c0c0c0" stroke-width="2" d="M598.4291,-935.8314C580.5815,-926.4516 558.6226,-914.9112 539.62,-904.9244"/>
<polygon fill="#c0c0c0" stroke="#c0c0c0" stroke-width="2" points="541.0401,-901.7168 530.5598,-900.1628 537.7836,-907.9132 541.0401,-901.7168"/>
</g>
<!-- 5&#45;&gt;1 -->
<g id="edge7" class="edge">
<title>5&#45;&gt;1</title>
<path fill="none" stroke="#c0c0c0" stroke-width="2" d="M697.4776,-719.8955C692.4982,-692.6824 684,-639.5642 684,-594 684,-594 684,-594 684,-234 684,-190.0449 675.8117,-173.248 643,-144 610.0457,-114.6249 560.9044,-101.2033 524.4523,-95.0863"/>
<polygon fill="#c0c0c0" stroke="#c0c0c0" stroke-width="2" points="524.9497,-91.6217 514.5314,-93.5475 523.8767,-98.539 524.9497,-91.6217"/>
</g>
<!-- 6 -->
<g id="node7" class="node">
<title>6</title>
<path fill="none" stroke="#d88d56" stroke-width="2" d="M358.5,-684C358.5,-684 283.5,-684 283.5,-684 277.5,-684 271.5,-678 271.5,-672 271.5,-672 271.5,-660 271.5,-660 271.5,-654 277.5,-648 283.5,-648 283.5,-648 358.5,-648 358.5,-648 364.5,-648 370.5,-654 370.5,-660 370.5,-660 370.5,-672 370.5,-672 370.5,-678 364.5,-684 358.5,-684"/>
<text text-anchor="middle" x="321" y="-663.5" font-family="sans" font-size="10.00" fill="#000000">derep_seqkit_stats</text>
</g>
<!-- 6&#45;&gt;1 -->
<g id="edge11" class="edge">
<title>6&#45;&gt;1</title>
<path fill="none" stroke="#c0c0c0" stroke-width="2" d="M271.7977,-647.9C222.5369,-626.2239 154,-584.7843 154,-522 154,-522 154,-522 154,-234 154,-189.669 161.9282,-171.1147 197,-144 232.2696,-116.7324 356.7853,-101.0522 426.9639,-94.1884"/>
<polygon fill="#c0c0c0" stroke="#c0c0c0" stroke-width="2" points="427.7001,-97.6342 437.3227,-93.2007 427.0356,-90.6658 427.7001,-97.6342"/>
</g>
<!-- 7&#45;&gt;6 -->
<g id="edge17" class="edge">
<title>7&#45;&gt;6</title>
<path fill="none" stroke="#c0c0c0" stroke-width="2" d="M461.7335,-863.811C425.8035,-842.8337 370.6634,-804.8672 342,-756 330.8873,-737.0543 325.6545,-712.6352 323.1908,-694.014"/>
<polygon fill="#c0c0c0" stroke="#c0c0c0" stroke-width="2" points="326.6679,-693.6128 322.0619,-684.0716 319.7126,-694.4026 326.6679,-693.6128"/>
</g>
<!-- 9 -->
<g id="node10" class="node">
<title>9</title>
<path fill="none" stroke="#56a2d8" stroke-width="2" d="M588.5,-684C588.5,-684 503.5,-684 503.5,-684 497.5,-684 491.5,-678 491.5,-672 491.5,-672 491.5,-660 491.5,-660 491.5,-654 497.5,-648 503.5,-648 503.5,-648 588.5,-648 588.5,-648 594.5,-648 600.5,-654 600.5,-660 600.5,-660 600.5,-672 600.5,-672 600.5,-678 594.5,-684 588.5,-684"/>
<text text-anchor="middle" x="546" y="-663.5" font-family="sans" font-size="10.00" fill="#000000">derep_nonpareil_infer</text>
</g>
<!-- 7&#45;&gt;9 -->
<g id="edge22" class="edge">
<title>7&#45;&gt;9</title>
<path fill="none" stroke="#c0c0c0" stroke-width="2" d="M501.4041,-863.5756C504.384,-853.1703 508.0636,-839.9029 511,-828 522.5167,-781.3156 533.9117,-726.5499 540.4365,-694.146"/>
<polygon fill="#c0c0c0" stroke="#c0c0c0" stroke-width="2" points="543.9249,-694.5505 542.4557,-684.0581 537.061,-693.1766 543.9249,-694.5505"/>
</g>
<!-- 10 -->
<g id="node11" class="node">
<title>10</title>
<path fill="none" stroke="#5673d8" stroke-width="2" d="M490,-828C490,-828 442,-828 442,-828 436,-828 430,-822 430,-816 430,-816 430,-804 430,-804 430,-798 436,-792 442,-792 442,-792 490,-792 490,-792 496,-792 502,-798 502,-804 502,-804 502,-816 502,-816 502,-822 496,-828 490,-828"/>
<text text-anchor="middle" x="466" y="-807.5" font-family="sans" font-size="10.00" fill="#000000">derep_seqkit</text>
</g>
<!-- 7&#45;&gt;10 -->
<g id="edge24" class="edge">
<title>7&#45;&gt;10</title>
<path fill="none" stroke="#c0c0c0" stroke-width="2" d="M488.4297,-863.8314C485.1507,-855.9617 481.238,-846.5712 477.6055,-837.8533"/>
<polygon fill="#c0c0c0" stroke="#c0c0c0" stroke-width="2" points="480.7492,-836.2979 473.6722,-828.4133 474.2876,-838.9902 480.7492,-836.2979"/>
</g>
<!-- 8 -->
<g id="node9" class="node">
<title>8</title>
<path fill="none" stroke="#56d863" stroke-width="2" d="M589,-540C589,-540 507,-540 507,-540 501,-540 495,-534 495,-528 495,-528 495,-516 495,-516 495,-510 501,-504 507,-504 507,-504 589,-504 589,-504 595,-504 601,-510 601,-516 601,-516 601,-528 601,-528 601,-534 595,-540 589,-540"/>
<text text-anchor="middle" x="548" y="-519.5" font-family="sans" font-size="10.00" fill="#000000">derep_nonpareil_plot</text>
</g>
<!-- 8&#45;&gt;1 -->
<g id="edge9" class="edge">
<title>8&#45;&gt;1</title>
<path fill="none" stroke="#c0c0c0" stroke-width="2" d="M548,-503.8146C548,-476.4983 548,-423.25 548,-378 548,-378 548,-378 548,-234 548,-192.6022 543.6151,-180.4558 524,-144 518.5396,-133.8515 510.8162,-124.0322 503.1573,-115.6129"/>
<polygon fill="#c0c0c0" stroke="#c0c0c0" stroke-width="2" points="505.6359,-113.1402 496.2086,-108.3051 500.563,-117.9638 505.6359,-113.1402"/>
</g>
<!-- 9&#45;&gt;8 -->
<g id="edge20" class="edge">
<title>9&#45;&gt;8</title>
<path fill="none" stroke="#c0c0c0" stroke-width="2" d="M546.2533,-647.7623C546.5944,-623.201 547.2049,-579.2474 547.6062,-550.3541"/>
<polygon fill="#c0c0c0" stroke="#c0c0c0" stroke-width="2" points="551.1094,-550.1373 547.7488,-540.0896 544.1101,-550.04 551.1094,-550.1373"/>
</g>
<!-- 10&#45;&gt;6 -->
<g id="edge16" class="edge">
<title>10&#45;&gt;6</title>
<path fill="none" stroke="#c0c0c0" stroke-width="2" d="M429.921,-794.9357C411.0219,-785.7373 388.4535,-772.5506 372,-756 354.2093,-738.1043 340.5842,-712.7409 331.9115,-693.4982"/>
<polygon fill="#c0c0c0" stroke="#c0c0c0" stroke-width="2" points="335.0139,-691.8544 327.8318,-684.0654 328.589,-694.6332 335.0139,-691.8544"/>
</g>
<!-- 10&#45;&gt;9 -->
<g id="edge21" class="edge">
<title>10&#45;&gt;9</title>
<path fill="none" stroke="#c0c0c0" stroke-width="2" d="M479.3984,-791.963C486.7701,-781.6789 495.8451,-768.4037 503,-756 514.754,-735.6233 526.1416,-711.5299 534.242,-693.4019"/>
<polygon fill="#c0c0c0" stroke="#c0c0c0" stroke-width="2" points="537.5529,-694.5681 538.3855,-684.006 531.148,-691.7436 537.5529,-694.5681"/>
</g>
<!-- 11 -->
<g id="node12" class="node">
<title>11</title>
<path fill="none" stroke="#a7d856" stroke-width="2" d="M481.5,-756C481.5,-756 392.5,-756 392.5,-756 386.5,-756 380.5,-750 380.5,-744 380.5,-744 380.5,-732 380.5,-732 380.5,-726 386.5,-720 392.5,-720 392.5,-720 481.5,-720 481.5,-720 487.5,-720 493.5,-726 493.5,-732 493.5,-732 493.5,-744 493.5,-744 493.5,-750 487.5,-756 481.5,-756"/>
<text text-anchor="middle" x="437" y="-735.5" font-family="sans" font-size="10.00" fill="#000000">derep_low_complexity</text>
</g>
<!-- 10&#45;&gt;11 -->
<g id="edge25" class="edge">
<title>10&#45;&gt;11</title>
<path fill="none" stroke="#c0c0c0" stroke-width="2" d="M458.6821,-791.8314C455.5124,-783.9617 451.73,-774.5712 448.2187,-765.8533"/>
<polygon fill="#c0c0c0" stroke="#c0c0c0" stroke-width="2" points="451.3992,-764.3815 444.4165,-756.4133 444.9061,-766.9968 451.3992,-764.3815"/>
</g>
<!-- 11&#45;&gt;6 -->
<g id="edge18" class="edge">
<title>11&#45;&gt;6</title>
<path fill="none" stroke="#c0c0c0" stroke-width="2" d="M407.7283,-719.8314C392.8912,-710.6221 374.6985,-699.3301 358.8138,-689.4706"/>
<polygon fill="#c0c0c0" stroke="#c0c0c0" stroke-width="2" points="360.6045,-686.4628 350.2623,-684.1628 356.913,-692.4102 360.6045,-686.4628"/>
</g>
<!-- 11&#45;&gt;9 -->
<g id="edge23" class="edge">
<title>11&#45;&gt;9</title>
<path fill="none" stroke="#c0c0c0" stroke-width="2" d="M464.5053,-719.8314C478.318,-710.7074 495.2256,-699.539 510.0529,-689.7449"/>
<polygon fill="#c0c0c0" stroke="#c0c0c0" stroke-width="2" points="512.0886,-692.5949 518.5035,-684.1628 508.2304,-686.7541 512.0886,-692.5949"/>
</g>
<!-- 12 -->
<g id="node13" class="node">
<title>12</title>
<path fill="none" stroke="#d89c56" stroke-width="2" d="M461,-684C461,-684 405,-684 405,-684 399,-684 393,-678 393,-672 393,-672 393,-660 393,-660 393,-654 399,-648 405,-648 405,-648 461,-648 461,-648 467,-648 473,-654 473,-660 473,-660 473,-672 473,-672 473,-678 467,-684 461,-684"/>
<text text-anchor="middle" x="433" y="-663.5" font-family="sans" font-size="10.00" fill="#000000">taxon_bowtie2</text>
</g>
<!-- 11&#45;&gt;12 -->
<g id="edge26" class="edge">
<title>11&#45;&gt;12</title>
<path fill="none" stroke="#c0c0c0" stroke-width="2" d="M435.9906,-719.8314C435.5628,-712.131 435.0541,-702.9743 434.5787,-694.4166"/>
<polygon fill="#c0c0c0" stroke="#c0c0c0" stroke-width="2" points="438.0724,-694.2037 434.023,-684.4133 431.0831,-694.592 438.0724,-694.2037"/>
</g>
<!-- 12&#45;&gt;1 -->
<g id="edge12" class="edge">
<title>12&#45;&gt;1</title>
<path fill="none" stroke="#c0c0c0" stroke-width="2" d="M438.8388,-647.672C441.9547,-637.297 445.6255,-624.0276 448,-612 482.2884,-438.3177 501.4823,-392.724 491,-216 489.0027,-182.3266 484.0281,-143.8564 480.3525,-118.3754"/>
<polygon fill="#c0c0c0" stroke="#c0c0c0" stroke-width="2" points="483.7887,-117.6855 478.8692,-108.302 476.8634,-118.7052 483.7887,-117.6855"/>
</g>
<!-- 17 -->
<g id="node18" class="node">
<title>17</title>
<path fill="none" stroke="#d86e56" stroke-width="2" d="M426.5,-612C426.5,-612 317.5,-612 317.5,-612 311.5,-612 305.5,-606 305.5,-600 305.5,-600 305.5,-588 305.5,-588 305.5,-582 311.5,-576 317.5,-576 317.5,-576 426.5,-576 426.5,-576 432.5,-576 438.5,-582 438.5,-588 438.5,-588 438.5,-600 438.5,-600 438.5,-606 432.5,-612 426.5,-612"/>
<text text-anchor="middle" x="372" y="-591.5" font-family="sans" font-size="10.00" fill="#000000">taxon_shard_clean_header</text>
</g>
<!-- 12&#45;&gt;17 -->
<g id="edge31" class="edge">
<title>12&#45;&gt;17</title>
<path fill="none" stroke="#c0c0c0" stroke-width="2" d="M417.6071,-647.8314C410.5096,-639.454 401.952,-629.3531 394.176,-620.1749"/>
<polygon fill="#c0c0c0" stroke="#c0c0c0" stroke-width="2" points="396.7348,-617.7807 387.6001,-612.4133 391.3939,-622.3056 396.7348,-617.7807"/>
</g>
<!-- 13 -->
<g id="node14" class="node">
<title>13</title>
<path fill="none" stroke="#c6d856" stroke-width="2" d="M470,-252C470,-252 356,-252 356,-252 350,-252 344,-246 344,-240 344,-240 344,-228 344,-228 344,-222 350,-216 356,-216 356,-216 470,-216 470,-216 476,-216 482,-222 482,-228 482,-228 482,-240 482,-240 482,-246 476,-252 470,-252"/>
<text text-anchor="middle" x="413" y="-231.5" font-family="sans" font-size="10.00" fill="#000000">taxon_align_samtools_stats</text>
</g>
<!-- 13&#45;&gt;1 -->
<g id="edge6" class="edge">
<title>13&#45;&gt;1</title>
<path fill="none" stroke="#c0c0c0" stroke-width="2" d="M420.979,-215.7623C431.8192,-190.9846 451.2938,-146.4714 463.9277,-117.5939"/>
<polygon fill="#c0c0c0" stroke="#c0c0c0" stroke-width="2" points="467.2841,-118.6541 468.0858,-108.0896 460.871,-115.8483 467.2841,-118.6541"/>
</g>
<!-- 14 -->
<g id="node15" class="node">
<title>14</title>
<path fill="none" stroke="#568ad8" stroke-width="2" d="M448.5,-396C448.5,-396 355.5,-396 355.5,-396 349.5,-396 343.5,-390 343.5,-384 343.5,-384 343.5,-372 343.5,-372 343.5,-366 349.5,-360 355.5,-360 355.5,-360 448.5,-360 448.5,-360 454.5,-360 460.5,-366 460.5,-372 460.5,-372 460.5,-384 460.5,-384 460.5,-390 454.5,-396 448.5,-396"/>
<text text-anchor="middle" x="402" y="-375.5" font-family="sans" font-size="10.00" fill="#000000">taxon_align_sort_coord</text>
</g>
<!-- 14&#45;&gt;13 -->
<g id="edge27" class="edge">
<title>14&#45;&gt;13</title>
<path fill="none" stroke="#c0c0c0" stroke-width="2" d="M403.3932,-359.7623C405.2694,-335.201 408.6269,-291.2474 410.8341,-262.3541"/>
<polygon fill="#c0c0c0" stroke="#c0c0c0" stroke-width="2" points="414.3462,-262.3272 411.6182,-252.0896 407.3666,-261.794 414.3462,-262.3272"/>
</g>
<!-- 15 -->
<g id="node16" class="node">
<title>15</title>
<path fill="none" stroke="#d8cb56" stroke-width="2" d="M409,-468C409,-468 335,-468 335,-468 329,-468 323,-462 323,-456 323,-456 323,-444 323,-444 323,-438 329,-432 335,-432 335,-432 409,-432 409,-432 415,-432 421,-438 421,-444 421,-444 421,-456 421,-456 421,-462 415,-468 409,-468"/>
<text text-anchor="middle" x="372" y="-447.5" font-family="sans" font-size="10.00" fill="#000000">taxon_align_merge</text>
</g>
<!-- 15&#45;&gt;14 -->
<g id="edge28" class="edge">
<title>15&#45;&gt;14</title>
<path fill="none" stroke="#c0c0c0" stroke-width="2" d="M379.5703,-431.8314C382.8493,-423.9617 386.762,-414.5712 390.3945,-405.8533"/>
<polygon fill="#c0c0c0" stroke="#c0c0c0" stroke-width="2" points="393.7124,-406.9902 394.3278,-396.4133 387.2508,-404.2979 393.7124,-406.9902"/>
</g>
<!-- 20 -->
<g id="node21" class="node">
<title>20</title>
<path fill="none" stroke="#78d856" stroke-width="2" d="M303.5,-396C303.5,-396 210.5,-396 210.5,-396 204.5,-396 198.5,-390 198.5,-384 198.5,-384 198.5,-372 198.5,-372 198.5,-366 204.5,-360 210.5,-360 210.5,-360 303.5,-360 303.5,-360 309.5,-360 315.5,-366 315.5,-372 315.5,-372 315.5,-384 315.5,-384 315.5,-390 309.5,-396 303.5,-396"/>
<text text-anchor="middle" x="257" y="-375.5" font-family="sans" font-size="10.00" fill="#000000">taxon_align_sort_query</text>
</g>
<!-- 15&#45;&gt;20 -->
<g id="edge34" class="edge">
<title>15&#45;&gt;20</title>
<path fill="none" stroke="#c0c0c0" stroke-width="2" d="M342.9806,-431.8314C328.2714,-422.6221 310.2356,-411.3301 294.4878,-401.4706"/>
<polygon fill="#c0c0c0" stroke="#c0c0c0" stroke-width="2" points="296.3433,-398.5029 286.0101,-396.1628 292.6286,-404.436 296.3433,-398.5029"/>
</g>
<!-- 16 -->
<g id="node17" class="node">
<title>16</title>
<path fill="none" stroke="#d87d56" stroke-width="2" d="M420.5,-540C420.5,-540 323.5,-540 323.5,-540 317.5,-540 311.5,-534 311.5,-528 311.5,-528 311.5,-516 311.5,-516 311.5,-510 317.5,-504 323.5,-504 323.5,-504 420.5,-504 420.5,-504 426.5,-504 432.5,-510 432.5,-516 432.5,-516 432.5,-528 432.5,-528 432.5,-534 426.5,-540 420.5,-540"/>
<text text-anchor="middle" x="372" y="-519.5" font-family="sans" font-size="10.00" fill="#000000">taxon_shard_sort_coord</text>
</g>
<!-- 16&#45;&gt;15 -->
<g id="edge29" class="edge">
<title>16&#45;&gt;15</title>
<path fill="none" stroke="#c0c0c0" stroke-width="2" d="M372,-503.8314C372,-496.131 372,-486.9743 372,-478.4166"/>
<polygon fill="#c0c0c0" stroke="#c0c0c0" stroke-width="2" points="375.5001,-478.4132 372,-468.4133 368.5001,-478.4133 375.5001,-478.4132"/>
</g>
<!-- 17&#45;&gt;16 -->
<g id="edge30" class="edge">
<title>17&#45;&gt;16</title>
<path fill="none" stroke="#c0c0c0" stroke-width="2" d="M372,-575.8314C372,-568.131 372,-558.9743 372,-550.4166"/>
<polygon fill="#c0c0c0" stroke="#c0c0c0" stroke-width="2" points="375.5001,-550.4132 372,-540.4133 368.5001,-550.4133 375.5001,-550.4132"/>
</g>
<!-- 18 -->
<g id="node19" class="node">
<title>18</title>
<path fill="none" stroke="#9fd856" stroke-width="2" d="M313.5,-252C313.5,-252 232.5,-252 232.5,-252 226.5,-252 220.5,-246 220.5,-240 220.5,-240 220.5,-228 220.5,-228 220.5,-222 226.5,-216 232.5,-216 232.5,-216 313.5,-216 313.5,-216 319.5,-216 325.5,-222 325.5,-228 325.5,-228 325.5,-240 325.5,-240 325.5,-246 319.5,-252 313.5,-252"/>
<text text-anchor="middle" x="273" y="-231.5" font-family="sans" font-size="10.00" fill="#000000">taxon_metadmg_dfit</text>
</g>
<!-- 18&#45;&gt;1 -->
<g id="edge10" class="edge">
<title>18&#45;&gt;1</title>
<path fill="none" stroke="#c0c0c0" stroke-width="2" d="M298.7101,-215.7623C335.165,-189.9026 401.9246,-142.5461 442.3031,-113.9032"/>
<polygon fill="#c0c0c0" stroke="#c0c0c0" stroke-width="2" points="444.3674,-116.7301 450.4987,-108.0896 440.3173,-111.0207 444.3674,-116.7301"/>
</g>
<!-- 21 -->
<g id="node22" class="node">
<title>21</title>
<path fill="none" stroke="#56d86b" stroke-width="2" d="M328,-180C328,-180 218,-180 218,-180 212,-180 206,-174 206,-168 206,-168 206,-156 206,-156 206,-150 212,-144 218,-144 218,-144 328,-144 328,-144 334,-144 340,-150 340,-156 340,-156 340,-168 340,-168 340,-174 334,-180 328,-180"/>
<text text-anchor="middle" x="273" y="-159.5" font-family="sans" font-size="10.00" fill="#000000">taxon_metadmg_aggregate</text>
</g>
<!-- 18&#45;&gt;21 -->
<g id="edge35" class="edge">
<title>18&#45;&gt;21</title>
<path fill="none" stroke="#c0c0c0" stroke-width="2" d="M273,-215.8314C273,-208.131 273,-198.9743 273,-190.4166"/>
<polygon fill="#c0c0c0" stroke="#c0c0c0" stroke-width="2" points="276.5001,-190.4132 273,-180.4133 269.5001,-190.4133 276.5001,-190.4132"/>
</g>
<!-- 19 -->
<g id="node20" class="node">
<title>19</title>
<path fill="none" stroke="#56d873" stroke-width="2" d="M297,-324C297,-324 217,-324 217,-324 211,-324 205,-318 205,-312 205,-312 205,-300 205,-300 205,-294 211,-288 217,-288 217,-288 297,-288 297,-288 303,-288 309,-294 309,-300 309,-300 309,-312 309,-312 309,-318 303,-324 297,-324"/>
<text text-anchor="middle" x="257" y="-303.5" font-family="sans" font-size="10.00" fill="#000000">taxon_metadmg_lca</text>
</g>
<!-- 19&#45;&gt;18 -->
<g id="edge32" class="edge">
<title>19&#45;&gt;18</title>
<path fill="none" stroke="#c0c0c0" stroke-width="2" d="M261.0375,-287.8314C262.7487,-280.131 264.7835,-270.9743 266.6852,-262.4166"/>
<polygon fill="#c0c0c0" stroke="#c0c0c0" stroke-width="2" points="270.1554,-262.9344 268.9082,-252.4133 263.3221,-261.4159 270.1554,-262.9344"/>
</g>
<!-- 19&#45;&gt;21 -->
<g id="edge36" class="edge">
<title>19&#45;&gt;21</title>
<path fill="none" stroke="#c0c0c0" stroke-width="2" d="M235.6873,-287.7308C226.1866,-278.1756 216.021,-265.6372 211,-252 205.4718,-236.9854 204.3719,-230.5626 211,-216 216.174,-204.6322 225.0543,-194.7268 234.5028,-186.6122"/>
<polygon fill="#c0c0c0" stroke="#c0c0c0" stroke-width="2" points="236.8729,-189.1986 242.5042,-180.2243 232.5055,-183.7281 236.8729,-189.1986"/>
</g>
<!-- 20&#45;&gt;19 -->
<g id="edge33" class="edge">
<title>20&#45;&gt;19</title>
<path fill="none" stroke="#c0c0c0" stroke-width="2" d="M257,-359.8314C257,-352.131 257,-342.9743 257,-334.4166"/>
<polygon fill="#c0c0c0" stroke="#c0c0c0" stroke-width="2" points="260.5001,-334.4132 257,-324.4133 253.5001,-334.4133 260.5001,-334.4132"/>
</g>
<!-- 22 -->
<g id="node23" class="node">
<title>22</title>
<path fill="none" stroke="#56d882" stroke-width="2" d="M114,-180C114,-180 12,-180 12,-180 6,-180 0,-174 0,-168 0,-168 0,-156 0,-156 0,-150 6,-144 12,-144 12,-144 114,-144 114,-144 120,-144 126,-150 126,-156 126,-156 126,-168 126,-168 126,-174 120,-180 114,-180"/>
<text text-anchor="middle" x="63" y="-159.5" font-family="sans" font-size="10.00" fill="#000000">taxon_metadmg_damage</text>
</g>
<!-- 20&#45;&gt;22 -->
<g id="edge37" class="edge">
<title>20&#45;&gt;22</title>
<path fill="none" stroke="#c0c0c0" stroke-width="2" d="M234.7766,-359.8085C222.8606,-349.694 208.1686,-336.6299 196,-324 152.6591,-279.0162 107.6411,-221.5193 82.6828,-188.5167"/>
<polygon fill="#c0c0c0" stroke="#c0c0c0" stroke-width="2" points="85.2967,-186.1693 76.4879,-180.2824 79.7029,-190.3777 85.2967,-186.1693"/>
</g>
<!-- 21&#45;&gt;0 -->
<g id="edge3" class="edge">
<title>21&#45;&gt;0</title>
<path fill="none" stroke="#c0c0c0" stroke-width="2" d="M273,-143.7623C273,-119.201 273,-75.2474 273,-46.3541"/>
<polygon fill="#c0c0c0" stroke="#c0c0c0" stroke-width="2" points="276.5001,-46.0896 273,-36.0896 269.5001,-46.0897 276.5001,-46.0896"/>
</g>
<!-- 21&#45;&gt;1 -->
<g id="edge8" class="edge">
<title>21&#45;&gt;1</title>
<path fill="none" stroke="#c0c0c0" stroke-width="2" d="M323.9634,-143.9243C355.6506,-132.6855 396.16,-118.3176 427.395,-107.2392"/>
<polygon fill="#c0c0c0" stroke="#c0c0c0" stroke-width="2" points="428.9326,-110.4076 437.1873,-103.7661 426.5926,-103.8102 428.9326,-110.4076"/>
</g>
<!-- 22&#45;&gt;0 -->
<g id="edge1" class="edge">
<title>22&#45;&gt;0</title>
<path fill="none" stroke="#c0c0c0" stroke-width="2" d="M89.5966,-143.7623C127.3086,-117.9026 196.3702,-70.5461 238.1412,-41.9032"/>
<polygon fill="#c0c0c0" stroke="#c0c0c0" stroke-width="2" points="240.3514,-44.6315 246.6193,-36.0896 236.3926,-38.8584 240.3514,-44.6315"/>
</g>
</g>
</svg>
