<?xml version="1.0" encoding="UTF-8" standalone="no"?>
<!DOCTYPE svg PUBLIC "-//W3C//DTD SVG 1.1//EN"
 "http://www.w3.org/Graphics/SVG/1.1/DTD/svg11.dtd">
<!-- Generated by graphviz version 2.40.1 (0)
 -->
<!-- Title: snakemake_dag Pages: 1 -->
<svg width="789pt" height="1052pt"
 viewBox="0.00 0.00 789.00 1052.00" xmlns="http://www.w3.org/2000/svg" xmlns:xlink="http://www.w3.org/1999/xlink">
<g id="graph0" class="graph" transform="scale(1 1) rotate(0) translate(4 1048)">
<title>snakemake_dag</title>
<polygon fill="#ffffff" stroke="transparent" points="-4,4 -4,-1048 785,-1048 785,4 -4,4"/>
<!-- 0 -->
<g id="node1" class="node">
<title>0</title>
<path fill="none" stroke="#ced856" stroke-width="2" d="M296.5,-36C296.5,-36 249.5,-36 249.5,-36 243.5,-36 237.5,-30 237.5,-24 237.5,-24 237.5,-12 237.5,-12 237.5,-6 243.5,0 249.5,0 249.5,0 296.5,0 296.5,0 302.5,0 308.5,-6 308.5,-12 308.5,-12 308.5,-24 308.5,-24 308.5,-30 302.5,-36 296.5,-36"/>
<text text-anchor="middle" x="273" y="-15.5" font-family="sans" font-size="10.00" fill="#000000">target_taxon</text>
</g>
<!-- 1 -->
<g id="node2" class="node">
<title>1</title>
<path fill="none" stroke="#d89c56" stroke-width="2" d="M486.5,-108C486.5,-108 433.5,-108 433.5,-108 427.5,-108 421.5,-102 421.5,-96 421.5,-96 421.5,-84 421.5,-84 421.5,-78 427.5,-72 433.5,-72 433.5,-72 486.5,-72 486.5,-72 492.5,-72 498.5,-78 498.5,-84 498.5,-84 498.5,-96 498.5,-96 498.5,-102 492.5,-108 486.5,-108"/>
<text text-anchor="middle" x="460" y="-87.5" font-family="sans" font-size="10.00" fill="#000000">multiqc_taxon</text>
</g>
<!-- 1&#45;&gt;0 -->
<g id="edge3" class="edge">
<title>1&#45;&gt;0</title>
<path fill="none" stroke="#c0c0c0" stroke-width="2" d="M421.2535,-75.0816C391.199,-63.5098 349.4907,-47.451 317.9665,-35.3133"/>
<polygon fill="#c0c0c0" stroke="#c0c0c0" stroke-width="2" points="319.124,-32.0086 308.5342,-31.6816 316.6088,-38.5411 319.124,-32.0086"/>
</g>
<!-- 2 -->
<g id="node3" class="node">
<title>2</title>
<path fill="none" stroke="#56b1d8" stroke-width="2" d="M769,-828C769,-828 707,-828 707,-828 701,-828 695,-822 695,-816 695,-816 695,-804 695,-804 695,-798 701,-792 707,-792 707,-792 769,-792 769,-792 775,-792 781,-798 781,-804 781,-804 781,-816 781,-816 781,-822 775,-828 769,-828"/>
<text text-anchor="middle" x="738" y="-807.5" font-family="sans" font-size="10.00" fill="#000000">trim_fastqc_raw</text>
</g>
<!-- 2&#45;&gt;1 -->
<g id="edge9" class="edge">
<title>2&#45;&gt;1</title>
<path fill="none" stroke="#c0c0c0" stroke-width="2" d="M740.072,-791.8427C743.0011,-764.5621 748,-711.359 748,-666 748,-666 748,-666 748,-234 748,-128.2565 590.7576,-100.1606 508.6472,-92.6978"/>
<polygon fill="#c0c0c0" stroke="#c0c0c0" stroke-width="2" points="508.8,-89.1984 498.5421,-91.849 508.214,-96.1738 508.8,-89.1984"/>
</g>
<!-- 3 -->
<g id="node4" class="node">
<title>3</title>
<path fill="none" stroke="#d8a456" stroke-width="2" d="M697,-1044C697,-1044 621,-1044 621,-1044 615,-1044 609,-1038 609,-1032 609,-1032 609,-1020 609,-1020 609,-1014 615,-1008 621,-1008 621,-1008 697,-1008 697,-1008 703,-1008 709,-1014 709,-1020 709,-1020 709,-1032 709,-1032 709,-1038 703,-1044 697,-1044"/>
<text text-anchor="middle" x="659" y="-1023.5" font-family="sans" font-size="10.00" fill="#000000">trim_get_fastq_raw</text>
</g>
<!-- 3&#45;&gt;2 -->
<g id="edge13" class="edge">
<title>3&#45;&gt;2</title>
<path fill="none" stroke="#c0c0c0" stroke-width="2" d="M671.4668,-1007.6252C677.9546,-997.4571 685.6302,-984.4001 691,-972 710.6365,-926.6546 724.8063,-870.7044 732.1848,-837.8301"/>
<polygon fill="#c0c0c0" stroke="#c0c0c0" stroke-width="2" points="735.6149,-838.528 734.3401,-828.0102 728.7776,-837.0273 735.6149,-838.528"/>
</g>
<!-- 4 -->
<g id="node5" class="node">
<title>4</title>
<path fill="none" stroke="#56d89a" stroke-width="2" d="M670,-972C670,-972 546,-972 546,-972 540,-972 534,-966 534,-960 534,-960 534,-948 534,-948 534,-942 540,-936 546,-936 546,-936 670,-936 670,-936 676,-936 682,-942 682,-948 682,-948 682,-960 682,-960 682,-966 676,-972 670,-972"/>
<text text-anchor="middle" x="608" y="-951.5" font-family="sans" font-size="10.00" fill="#000000">trim_adapterremoval_fastq_pe</text>
</g>
<!-- 3&#45;&gt;4 -->
<g id="edge14" class="edge">
<title>3&#45;&gt;4</title>
<path fill="none" stroke="#c0c0c0" stroke-width="2" d="M646.1305,-1007.8314C640.3165,-999.6232 633.3304,-989.7606 626.9354,-980.7323"/>
<polygon fill="#c0c0c0" stroke="#c0c0c0" stroke-width="2" points="629.679,-978.5505 621.0427,-972.4133 623.9669,-982.5966 629.679,-978.5505"/>
</g>
<!-- 4&#45;&gt;1 -->
<g id="edge7" class="edge">
<title>4&#45;&gt;1</title>
<path fill="none" stroke="#c0c0c0" stroke-width="2" d="M607.1712,-935.8191C605.9996,-908.5085 604,-855.2675 604,-810 604,-810 604,-810 604,-234 604,-178.334 549.5306,-136.6709 507.5922,-112.8426"/>
<polygon fill="#c0c0c0" stroke="#c0c0c0" stroke-width="2" points="509.0377,-109.643 498.5894,-107.8869 505.662,-115.7754 509.0377,-109.643"/>
</g>
<!-- 5 -->
<g id="node6" class="node">
<title>5</title>
<path fill="none" stroke="#56d87b" stroke-width="2" d="M707.5,-756C707.5,-756 644.5,-756 644.5,-756 638.5,-756 632.5,-750 632.5,-744 632.5,-744 632.5,-732 632.5,-732 632.5,-726 638.5,-720 644.5,-720 644.5,-720 707.5,-720 707.5,-720 713.5,-720 719.5,-726 719.5,-732 719.5,-732 719.5,-744 719.5,-744 719.5,-750 713.5,-756 707.5,-756"/>
<text text-anchor="middle" x="676" y="-735.5" font-family="sans" font-size="10.00" fill="#000000">trim_fastqc_trim</text>
</g>
<!-- 4&#45;&gt;5 -->
<g id="edge15" class="edge">
<title>4&#45;&gt;5</title>
<path fill="none" stroke="#c0c0c0" stroke-width="2" d="M613.6807,-935.9555C625.5557,-898.235 653.0755,-810.8188 667.2356,-765.8399"/>
<polygon fill="#c0c0c0" stroke="#c0c0c0" stroke-width="2" points="670.6232,-766.7346 670.2877,-756.1451 663.9463,-764.6325 670.6232,-766.7346"/>
</g>
<!-- 7 -->
<g id="node8" class="node">
<title>7</title>
<path fill="none" stroke="#d85656" stroke-width="2" d="M505.5,-900C505.5,-900 428.5,-900 428.5,-900 422.5,-900 416.5,-894 416.5,-888 416.5,-888 416.5,-876 416.5,-876 416.5,-870 422.5,-864 428.5,-864 428.5,-864 505.5,-864 505.5,-864 511.5,-864 517.5,-870 517.5,-876 517.5,-876 517.5,-888 517.5,-888 517.5,-894 511.5,-900 505.5,-900"/>
<text text-anchor="middle" x="467" y="-879.5" font-family="sans" font-size="10.00" fill="#000000">derep_merge_lanes</text>
</g>
<!-- 4&#45;&gt;7 -->
<g id="edge19" class="edge">
<title>4&#45;&gt;7</title>
<path fill="none" stroke="#c0c0c0" stroke-width="2" d="M572.4197,-935.8314C553.9675,-926.4089 531.2455,-914.8062 511.627,-904.7883"/>
<polygon fill="#c0c0c0" stroke="#c0c0c0" stroke-width="2" points="513.0667,-901.5935 502.5689,-900.1628 509.8832,-907.8278 513.0667,-901.5935"/>
</g>
<!-- 5&#45;&gt;1 -->
<g id="edge12" class="edge">
<title>5&#45;&gt;1</title>
<path fill="none" stroke="#c0c0c0" stroke-width="2" d="M672.4776,-719.8955C667.4982,-692.6824 659,-639.5642 659,-594 659,-594 659,-594 659,-234 659,-190.0449 650.568,-173.519 618,-144 587.8293,-116.6538 543.1979,-103.0594 509.0589,-96.3588"/>
<polygon fill="#c0c0c0" stroke="#c0c0c0" stroke-width="2" points="509.2942,-92.8441 498.8285,-94.493 508.0383,-99.7305 509.2942,-92.8441"/>
</g>
<!-- 6 -->
<g id="node7" class="node">
<title>6</title>
<path fill="none" stroke="#56d8c9" stroke-width="2" d="M333.5,-684C333.5,-684 258.5,-684 258.5,-684 252.5,-684 246.5,-678 246.5,-672 246.5,-672 246.5,-660 246.5,-660 246.5,-654 252.5,-648 258.5,-648 258.5,-648 333.5,-648 333.5,-648 339.5,-648 345.5,-654 345.5,-660 345.5,-660 345.5,-672 345.5,-672 345.5,-678 339.5,-684 333.5,-684"/>
<text text-anchor="middle" x="296" y="-663.5" font-family="sans" font-size="10.00" fill="#000000">derep_seqkit_stats</text>
</g>
<!-- 6&#45;&gt;1 -->
<g id="edge5" class="edge">
<title>6&#45;&gt;1</title>
<path fill="none" stroke="#c0c0c0" stroke-width="2" d="M257.9466,-647.9698C215.8845,-625.0867 154,-581.337 154,-522 154,-522 154,-522 154,-234 154,-189.669 162.0823,-171.3128 197,-144 229.7591,-118.3756 344.6446,-102.236 411.2404,-94.8093"/>
<polygon fill="#c0c0c0" stroke="#c0c0c0" stroke-width="2" points="411.932,-98.2547 421.494,-93.692 411.1737,-91.2959 411.932,-98.2547"/>
</g>
<!-- 7&#45;&gt;6 -->
<g id="edge16" class="edge">
<title>7&#45;&gt;6</title>
<path fill="none" stroke="#c0c0c0" stroke-width="2" d="M434.259,-863.9728C399.2777,-842.8837 345.082,-804.5847 317,-756 306.0597,-737.0721 300.8162,-712.7965 298.3046,-694.228"/>
<polygon fill="#c0c0c0" stroke="#c0c0c0" stroke-width="2" points="301.7514,-693.5668 297.1191,-684.0383 294.7983,-694.3758 301.7514,-693.5668"/>
</g>
<!-- 9 -->
<g id="node10" class="node">
<title>9</title>
<path fill="none" stroke="#bed856" stroke-width="2" d="M563.5,-684C563.5,-684 478.5,-684 478.5,-684 472.5,-684 466.5,-678 466.5,-672 466.5,-672 466.5,-660 466.5,-660 466.5,-654 472.5,-648 478.5,-648 478.5,-648 563.5,-648 563.5,-648 569.5,-648 575.5,-654 575.5,-660 575.5,-660 575.5,-672 575.5,-672 575.5,-678 569.5,-684 563.5,-684"/>
<text text-anchor="middle" x="521" y="-663.5" font-family="sans" font-size="10.00" fill="#000000">derep_nonpareil_infer</text>
</g>
<!-- 7&#45;&gt;9 -->
<g id="edge21" class="edge">
<title>7&#45;&gt;9</title>
<path fill="none" stroke="#c0c0c0" stroke-width="2" d="M473.1583,-863.6047C476.546,-853.2085 480.7155,-839.9405 484,-828 496.786,-781.5167 508.6454,-726.6895 515.3397,-694.2187"/>
<polygon fill="#c0c0c0" stroke="#c0c0c0" stroke-width="2" points="518.8327,-694.6066 517.4058,-684.1083 511.9744,-693.205 518.8327,-694.6066"/>
</g>
<!-- 10 -->
<g id="node11" class="node">
<title>10</title>
<path fill="none" stroke="#d85e56" stroke-width="2" d="M463,-828C463,-828 415,-828 415,-828 409,-828 403,-822 403,-816 403,-816 403,-804 403,-804 403,-798 409,-792 415,-792 415,-792 463,-792 463,-792 469,-792 475,-798 475,-804 475,-804 475,-816 475,-816 475,-822 469,-828 463,-828"/>
<text text-anchor="middle" x="439" y="-807.5" font-family="sans" font-size="10.00" fill="#000000">derep_seqkit</text>
</g>
<!-- 7&#45;&gt;10 -->
<g id="edge24" class="edge">
<title>7&#45;&gt;10</title>
<path fill="none" stroke="#c0c0c0" stroke-width="2" d="M459.9344,-863.8314C456.874,-855.9617 453.2221,-846.5712 449.8318,-837.8533"/>
<polygon fill="#c0c0c0" stroke="#c0c0c0" stroke-width="2" points="453.0473,-836.4647 446.1607,-828.4133 446.5232,-839.0019 453.0473,-836.4647"/>
</g>
<!-- 8 -->
<g id="node9" class="node">
<title>8</title>
<path fill="none" stroke="#56d8b9" stroke-width="2" d="M564,-540C564,-540 482,-540 482,-540 476,-540 470,-534 470,-528 470,-528 470,-516 470,-516 470,-510 476,-504 482,-504 482,-504 564,-504 564,-504 570,-504 576,-510 576,-516 576,-516 576,-528 576,-528 576,-534 570,-540 564,-540"/>
<text text-anchor="middle" x="523" y="-519.5" font-family="sans" font-size="10.00" fill="#000000">derep_nonpareil_plot</text>
</g>
<!-- 8&#45;&gt;1 -->
<g id="edge11" class="edge">
<title>8&#45;&gt;1</title>
<path fill="none" stroke="#c0c0c0" stroke-width="2" d="M523,-503.8146C523,-476.4983 523,-423.25 523,-378 523,-378 523,-378 523,-234 523,-192.6022 516.7469,-181.4009 499,-144 494.4638,-134.4402 488.1881,-124.8157 481.9957,-116.3939"/>
<polygon fill="#c0c0c0" stroke="#c0c0c0" stroke-width="2" points="484.7532,-114.238 475.8987,-108.42 479.1925,-118.4899 484.7532,-114.238"/>
</g>
<!-- 9&#45;&gt;8 -->
<g id="edge20" class="edge">
<title>9&#45;&gt;8</title>
<path fill="none" stroke="#c0c0c0" stroke-width="2" d="M521.2533,-647.7623C521.5944,-623.201 522.2049,-579.2474 522.6062,-550.3541"/>
<polygon fill="#c0c0c0" stroke="#c0c0c0" stroke-width="2" points="526.1094,-550.1373 522.7488,-540.0896 519.1101,-550.04 526.1094,-550.1373"/>
</g>
<!-- 10&#45;&gt;6 -->
<g id="edge17" class="edge">
<title>10&#45;&gt;6</title>
<path fill="none" stroke="#c0c0c0" stroke-width="2" d="M402.8001,-794.3349C384.4923,-785.1167 362.8549,-772.0981 347,-756 329.293,-738.0214 315.6598,-712.6661 306.9626,-693.4476"/>
<polygon fill="#c0c0c0" stroke="#c0c0c0" stroke-width="2" points="310.0649,-691.8048 302.869,-684.0285 303.645,-694.5949 310.0649,-691.8048"/>
</g>
<!-- 10&#45;&gt;9 -->
<g id="edge22" class="edge">
<title>10&#45;&gt;9</title>
<path fill="none" stroke="#c0c0c0" stroke-width="2" d="M453.5765,-791.5707C461.3027,-781.3865 470.6816,-768.3317 478,-756 490.0055,-735.7704 501.3777,-711.668 509.4082,-693.4992"/>
<polygon fill="#c0c0c0" stroke="#c0c0c0" stroke-width="2" points="512.727,-694.644 513.5086,-684.0781 506.3086,-691.8505 512.727,-694.644"/>
</g>
<!-- 11 -->
<g id="node12" class="node">
<title>11</title>
<path fill="none" stroke="#566bd8" stroke-width="2" d="M456.5,-756C456.5,-756 367.5,-756 367.5,-756 361.5,-756 355.5,-750 355.5,-744 355.5,-744 355.5,-732 355.5,-732 355.5,-726 361.5,-720 367.5,-720 367.5,-720 456.5,-720 456.5,-720 462.5,-720 468.5,-726 468.5,-732 468.5,-732 468.5,-744 468.5,-744 468.5,-750 462.5,-756 456.5,-756"/>
<text text-anchor="middle" x="412" y="-735.5" font-family="sans" font-size="10.00" fill="#000000">derep_low_complexity</text>
</g>
<!-- 10&#45;&gt;11 -->
<g id="edge25" class="edge">
<title>10&#45;&gt;11</title>
<path fill="none" stroke="#c0c0c0" stroke-width="2" d="M432.1868,-791.8314C429.2356,-783.9617 425.7142,-774.5712 422.445,-765.8533"/>
<polygon fill="#c0c0c0" stroke="#c0c0c0" stroke-width="2" points="425.6934,-764.5476 418.905,-756.4133 419.1391,-767.0055 425.6934,-764.5476"/>
</g>
<!-- 11&#45;&gt;6 -->
<g id="edge18" class="edge">
<title>11&#45;&gt;6</title>
<path fill="none" stroke="#c0c0c0" stroke-width="2" d="M382.7283,-719.8314C367.8912,-710.6221 349.6985,-699.3301 333.8138,-689.4706"/>
<polygon fill="#c0c0c0" stroke="#c0c0c0" stroke-width="2" points="335.6045,-686.4628 325.2623,-684.1628 331.913,-692.4102 335.6045,-686.4628"/>
</g>
<!-- 11&#45;&gt;9 -->
<g id="edge23" class="edge">
<title>11&#45;&gt;9</title>
<path fill="none" stroke="#c0c0c0" stroke-width="2" d="M439.5053,-719.8314C453.318,-710.7074 470.2256,-699.539 485.0529,-689.7449"/>
<polygon fill="#c0c0c0" stroke="#c0c0c0" stroke-width="2" points="487.0886,-692.5949 493.5035,-684.1628 483.2304,-686.7541 487.0886,-692.5949"/>
</g>
<!-- 12 -->
<g id="node13" class="node">
<title>12</title>
<path fill="none" stroke="#b6d856" stroke-width="2" d="M436,-684C436,-684 380,-684 380,-684 374,-684 368,-678 368,-672 368,-672 368,-660 368,-660 368,-654 374,-648 380,-648 380,-648 436,-648 436,-648 442,-648 448,-654 448,-660 448,-660 448,-672 448,-672 448,-678 442,-684 436,-684"/>
<text text-anchor="middle" x="408" y="-663.5" font-family="sans" font-size="10.00" fill="#000000">taxon_bowtie2</text>
</g>
<!-- 11&#45;&gt;12 -->
<g id="edge26" class="edge">
<title>11&#45;&gt;12</title>
<path fill="none" stroke="#c0c0c0" stroke-width="2" d="M410.9906,-719.8314C410.5628,-712.131 410.0541,-702.9743 409.5787,-694.4166"/>
<polygon fill="#c0c0c0" stroke="#c0c0c0" stroke-width="2" points="413.0724,-694.2037 409.023,-684.4133 406.0831,-694.592 413.0724,-694.2037"/>
</g>
<!-- 12&#45;&gt;1 -->
<g id="edge4" class="edge">
<title>12&#45;&gt;1</title>
<path fill="none" stroke="#c0c0c0" stroke-width="2" d="M413.8388,-647.672C416.9547,-637.297 420.6255,-624.0276 423,-612 457.2884,-438.3177 470.2115,-392.9845 466,-216 465.2022,-182.4754 463.2122,-143.9761 461.7416,-118.4475"/>
<polygon fill="#c0c0c0" stroke="#c0c0c0" stroke-width="2" points="465.2291,-118.1304 461.1481,-108.3531 458.2411,-118.5413 465.2291,-118.1304"/>
</g>
<!-- 16 -->
<g id="node17" class="node">
<title>16</title>
<path fill="none" stroke="#56d863" stroke-width="2" d="M402,-612C402,-612 322,-612 322,-612 316,-612 310,-606 310,-600 310,-600 310,-588 310,-588 310,-582 316,-576 322,-576 322,-576 402,-576 402,-576 408,-576 414,-582 414,-588 414,-588 414,-600 414,-600 414,-606 408,-612 402,-612"/>
<text text-anchor="middle" x="362" y="-591.5" font-family="sans" font-size="10.00" fill="#000000">taxon_clean_header</text>
</g>
<!-- 12&#45;&gt;16 -->
<g id="edge30" class="edge">
<title>12&#45;&gt;16</title>
<path fill="none" stroke="#c0c0c0" stroke-width="2" d="M396.3923,-647.8314C391.2022,-639.7079 384.9768,-629.9637 379.2575,-621.0118"/>
<polygon fill="#c0c0c0" stroke="#c0c0c0" stroke-width="2" points="382.0974,-618.9559 373.764,-612.4133 376.1985,-622.7246 382.0974,-618.9559"/>
</g>
<!-- 13 -->
<g id="node14" class="node">
<title>13</title>
<path fill="none" stroke="#56a9d8" stroke-width="2" d="M444.5,-252C444.5,-252 355.5,-252 355.5,-252 349.5,-252 343.5,-246 343.5,-240 343.5,-240 343.5,-228 343.5,-228 343.5,-222 349.5,-216 355.5,-216 355.5,-216 444.5,-216 444.5,-216 450.5,-216 456.5,-222 456.5,-228 456.5,-228 456.5,-240 456.5,-240 456.5,-246 450.5,-252 444.5,-252"/>
<text text-anchor="middle" x="400" y="-231.5" font-family="sans" font-size="10.00" fill="#000000">taxon_samtools_stats</text>
</g>
<!-- 13&#45;&gt;1 -->
<g id="edge10" class="edge">
<title>13&#45;&gt;1</title>
<path fill="none" stroke="#c0c0c0" stroke-width="2" d="M407.599,-215.7623C417.9231,-190.9846 436.4703,-146.4714 448.5025,-117.5939"/>
<polygon fill="#c0c0c0" stroke="#c0c0c0" stroke-width="2" points="451.8472,-118.6666 452.4627,-108.0896 445.3857,-115.9742 451.8472,-118.6666"/>
</g>
<!-- 14 -->
<g id="node15" class="node">
<title>14</title>
<path fill="none" stroke="#56b9d8" stroke-width="2" d="M398,-468C398,-468 326,-468 326,-468 320,-468 314,-462 314,-456 314,-456 314,-444 314,-444 314,-438 320,-432 326,-432 326,-432 398,-432 398,-432 404,-432 410,-438 410,-444 410,-444 410,-456 410,-456 410,-462 404,-468 398,-468"/>
<text text-anchor="middle" x="362" y="-447.5" font-family="sans" font-size="10.00" fill="#000000">taxon_merge_alns</text>
</g>
<!-- 14&#45;&gt;13 -->
<g id="edge27" class="edge">
<title>14&#45;&gt;13</title>
<path fill="none" stroke="#c0c0c0" stroke-width="2" d="M365.1745,-431.9555C371.7965,-394.3144 387.1246,-307.1867 395.0522,-262.1246"/>
<polygon fill="#c0c0c0" stroke="#c0c0c0" stroke-width="2" points="398.5221,-262.6003 396.8078,-252.1451 391.628,-261.3874 398.5221,-262.6003"/>
</g>
<!-- 19 -->
<g id="node20" class="node">
<title>19</title>
<path fill="none" stroke="#5682d8" stroke-width="2" d="M312.5,-396C312.5,-396 207.5,-396 207.5,-396 201.5,-396 195.5,-390 195.5,-384 195.5,-384 195.5,-372 195.5,-372 195.5,-366 201.5,-360 207.5,-360 207.5,-360 312.5,-360 312.5,-360 318.5,-360 324.5,-366 324.5,-372 324.5,-372 324.5,-384 324.5,-384 324.5,-390 318.5,-396 312.5,-396"/>
<text text-anchor="middle" x="260" y="-375.5" font-family="sans" font-size="10.00" fill="#000000">taxon_sort_merged_name</text>
</g>
<!-- 14&#45;&gt;19 -->
<g id="edge33" class="edge">
<title>14&#45;&gt;19</title>
<path fill="none" stroke="#c0c0c0" stroke-width="2" d="M336.2611,-431.8314C323.4563,-422.7927 307.8091,-411.7476 294.0281,-402.0198"/>
<polygon fill="#c0c0c0" stroke="#c0c0c0" stroke-width="2" points="295.9188,-399.0703 285.7307,-396.1628 291.882,-404.7891 295.9188,-399.0703"/>
</g>
<!-- 15 -->
<g id="node16" class="node">
<title>15</title>
<path fill="none" stroke="#9fd856" stroke-width="2" d="M396,-540C396,-540 328,-540 328,-540 322,-540 316,-534 316,-528 316,-528 316,-516 316,-516 316,-510 322,-504 328,-504 328,-504 396,-504 396,-504 402,-504 408,-510 408,-516 408,-516 408,-528 408,-528 408,-534 402,-540 396,-540"/>
<text text-anchor="middle" x="362" y="-519.5" font-family="sans" font-size="10.00" fill="#000000">taxon_sort_coord</text>
</g>
<!-- 15&#45;&gt;14 -->
<g id="edge28" class="edge">
<title>15&#45;&gt;14</title>
<path fill="none" stroke="#c0c0c0" stroke-width="2" d="M362,-503.8314C362,-496.131 362,-486.9743 362,-478.4166"/>
<polygon fill="#c0c0c0" stroke="#c0c0c0" stroke-width="2" points="365.5001,-478.4132 362,-468.4133 358.5001,-478.4133 365.5001,-478.4132"/>
</g>
<!-- 16&#45;&gt;15 -->
<g id="edge29" class="edge">
<title>16&#45;&gt;15</title>
<path fill="none" stroke="#c0c0c0" stroke-width="2" d="M362,-575.8314C362,-568.131 362,-558.9743 362,-550.4166"/>
<polygon fill="#c0c0c0" stroke="#c0c0c0" stroke-width="2" points="365.5001,-550.4132 362,-540.4133 358.5001,-550.4133 365.5001,-550.4132"/>
</g>
<!-- 17 -->
<g id="node18" class="node">
<title>17</title>
<path fill="none" stroke="#d8b456" stroke-width="2" d="M313.5,-252C313.5,-252 232.5,-252 232.5,-252 226.5,-252 220.5,-246 220.5,-240 220.5,-240 220.5,-228 220.5,-228 220.5,-222 226.5,-216 232.5,-216 232.5,-216 313.5,-216 313.5,-216 319.5,-216 325.5,-222 325.5,-228 325.5,-228 325.5,-240 325.5,-240 325.5,-246 319.5,-252 313.5,-252"/>
<text text-anchor="middle" x="273" y="-231.5" font-family="sans" font-size="10.00" fill="#000000">taxon_metadmg_dfit</text>
</g>
<!-- 17&#45;&gt;1 -->
<g id="edge8" class="edge">
<title>17&#45;&gt;1</title>
<path fill="none" stroke="#c0c0c0" stroke-width="2" d="M299.3259,-215.9096C314.094,-205.6088 332.7586,-192.3346 349,-180 377.3303,-158.4843 408.7484,-132.8353 430.907,-114.4334"/>
<polygon fill="#c0c0c0" stroke="#c0c0c0" stroke-width="2" points="433.1843,-117.0917 438.6289,-108.0028 428.7048,-111.7127 433.1843,-117.0917"/>
</g>
<!-- 20 -->
<g id="node21" class="node">
<title>20</title>
<path fill="none" stroke="#56d892" stroke-width="2" d="M328,-180C328,-180 218,-180 218,-180 212,-180 206,-174 206,-168 206,-168 206,-156 206,-156 206,-150 212,-144 218,-144 218,-144 328,-144 328,-144 334,-144 340,-150 340,-156 340,-156 340,-168 340,-168 340,-174 334,-180 328,-180"/>
<text text-anchor="middle" x="273" y="-159.5" font-family="sans" font-size="10.00" fill="#000000">taxon_metadmg_aggregate</text>
</g>
<!-- 17&#45;&gt;20 -->
<g id="edge34" class="edge">
<title>17&#45;&gt;20</title>
<path fill="none" stroke="#c0c0c0" stroke-width="2" d="M273,-215.8314C273,-208.131 273,-198.9743 273,-190.4166"/>
<polygon fill="#c0c0c0" stroke="#c0c0c0" stroke-width="2" points="276.5001,-190.4132 273,-180.4133 269.5001,-190.4133 276.5001,-190.4132"/>
</g>
<!-- 18 -->
<g id="node19" class="node">
<title>18</title>
<path fill="none" stroke="#d88d56" stroke-width="2" d="M300,-324C300,-324 220,-324 220,-324 214,-324 208,-318 208,-312 208,-312 208,-300 208,-300 208,-294 214,-288 220,-288 220,-288 300,-288 300,-288 306,-288 312,-294 312,-300 312,-300 312,-312 312,-312 312,-318 306,-324 300,-324"/>
<text text-anchor="middle" x="260" y="-303.5" font-family="sans" font-size="10.00" fill="#000000">taxon_metadmg_lca</text>
</g>
<!-- 18&#45;&gt;17 -->
<g id="edge31" class="edge">
<title>18&#45;&gt;17</title>
<path fill="none" stroke="#c0c0c0" stroke-width="2" d="M263.2804,-287.8314C264.6708,-280.131 266.3241,-270.9743 267.8692,-262.4166"/>
<polygon fill="#c0c0c0" stroke="#c0c0c0" stroke-width="2" points="271.3428,-262.8761 269.6754,-252.4133 264.4542,-261.6322 271.3428,-262.8761"/>
</g>
<!-- 18&#45;&gt;20 -->
<g id="edge35" class="edge">
<title>18&#45;&gt;20</title>
<path fill="none" stroke="#c0c0c0" stroke-width="2" d="M237.325,-287.9909C227.2112,-278.4972 216.3802,-265.9355 211,-252 205.2373,-237.0738 204.3719,-230.5626 211,-216 216.174,-204.6322 225.0543,-194.7268 234.5028,-186.6122"/>
<polygon fill="#c0c0c0" stroke="#c0c0c0" stroke-width="2" points="236.8729,-189.1986 242.5042,-180.2243 232.5055,-183.7281 236.8729,-189.1986"/>
</g>
<!-- 19&#45;&gt;18 -->
<g id="edge32" class="edge">
<title>19&#45;&gt;18</title>
<path fill="none" stroke="#c0c0c0" stroke-width="2" d="M260,-359.8314C260,-352.131 260,-342.9743 260,-334.4166"/>
<polygon fill="#c0c0c0" stroke="#c0c0c0" stroke-width="2" points="263.5001,-334.4132 260,-324.4133 256.5001,-334.4133 263.5001,-334.4132"/>
</g>
<!-- 21 -->
<g id="node22" class="node">
<title>21</title>
<path fill="none" stroke="#d87d56" stroke-width="2" d="M114,-180C114,-180 12,-180 12,-180 6,-180 0,-174 0,-168 0,-168 0,-156 0,-156 0,-150 6,-144 12,-144 12,-144 114,-144 114,-144 120,-144 126,-150 126,-156 126,-156 126,-168 126,-168 126,-174 120,-180 114,-180"/>
<text text-anchor="middle" x="63" y="-159.5" font-family="sans" font-size="10.00" fill="#000000">taxon_metadmg_damage</text>
</g>
<!-- 19&#45;&gt;21 -->
<g id="edge36" class="edge">
<title>19&#45;&gt;21</title>
<path fill="none" stroke="#c0c0c0" stroke-width="2" d="M238.119,-359.9996C226.169,-349.8357 211.3363,-336.6643 199,-324 155.0146,-278.8454 108.8676,-221.4067 83.2352,-188.4611"/>
<polygon fill="#c0c0c0" stroke="#c0c0c0" stroke-width="2" points="85.7609,-186.006 76.8712,-180.2419 80.226,-190.2916 85.7609,-186.006"/>
</g>
<!-- 20&#45;&gt;0 -->
<g id="edge2" class="edge">
<title>20&#45;&gt;0</title>
<path fill="none" stroke="#c0c0c0" stroke-width="2" d="M273,-143.7623C273,-119.201 273,-75.2474 273,-46.3541"/>
<polygon fill="#c0c0c0" stroke="#c0c0c0" stroke-width="2" points="276.5001,-46.0896 273,-36.0896 269.5001,-46.0897 276.5001,-46.0896"/>
</g>
<!-- 20&#45;&gt;1 -->
<g id="edge6" class="edge">
<title>20&#45;&gt;1</title>
<path fill="none" stroke="#c0c0c0" stroke-width="2" d="M320.188,-143.8314C348.1592,-133.0617 383.5283,-119.4436 411.6935,-108.5993"/>
<polygon fill="#c0c0c0" stroke="#c0c0c0" stroke-width="2" points="413.2569,-111.7479 421.3315,-104.8884 410.7417,-105.2154 413.2569,-111.7479"/>
</g>
<!-- 21&#45;&gt;0 -->
<g id="edge1" class="edge">
<title>21&#45;&gt;0</title>
<path fill="none" stroke="#c0c0c0" stroke-width="2" d="M89.5966,-143.7623C127.3086,-117.9026 196.3702,-70.5461 238.1412,-41.9032"/>
<polygon fill="#c0c0c0" stroke="#c0c0c0" stroke-width="2" points="240.3514,-44.6315 246.6193,-36.0896 236.3926,-38.8584 240.3514,-44.6315"/>
</g>
</g>
</svg>
