<?xml version="1.0" encoding="UTF-8" standalone="no"?>
<!DOCTYPE svg PUBLIC "-//W3C//DTD SVG 1.1//EN"
 "http://www.w3.org/Graphics/SVG/1.1/DTD/svg11.dtd">
<!-- Generated by graphviz version 2.40.1 (0)
 -->
<!-- Title: snakemake_dag Pages: 1 -->
<svg width="1018pt" height="1916pt"
 viewBox="0.00 0.00 1018.00 1916.00" xmlns="http://www.w3.org/2000/svg" xmlns:xlink="http://www.w3.org/1999/xlink">
<g id="graph0" class="graph" transform="scale(1 1) rotate(0) translate(4 1912)">
<title>snakemake_dag</title>
<polygon fill="#ffffff" stroke="transparent" points="-4,4 -4,-1912 1014,-1912 1014,4 -4,4"/>
<!-- 0 -->
<g id="node1" class="node">
<title>0</title>
<path fill="none" stroke="#bed856" stroke-width="2" d="M347.5,-36C347.5,-36 300.5,-36 300.5,-36 294.5,-36 288.5,-30 288.5,-24 288.5,-24 288.5,-12 288.5,-12 288.5,-6 294.5,0 300.5,0 300.5,0 347.5,0 347.5,0 353.5,0 359.5,-6 359.5,-12 359.5,-12 359.5,-24 359.5,-24 359.5,-30 353.5,-36 347.5,-36"/>
<text text-anchor="middle" x="324" y="-15.5" font-family="sans" font-size="10.00" fill="#000000">target_taxon</text>
</g>
<!-- 1 -->
<g id="node2" class="node">
<title>1</title>
<path fill="none" stroke="#d8b456" stroke-width="2" d="M580.5,-108C580.5,-108 527.5,-108 527.5,-108 521.5,-108 515.5,-102 515.5,-96 515.5,-96 515.5,-84 515.5,-84 515.5,-78 521.5,-72 527.5,-72 527.5,-72 580.5,-72 580.5,-72 586.5,-72 592.5,-78 592.5,-84 592.5,-84 592.5,-96 592.5,-96 592.5,-102 586.5,-108 580.5,-108"/>
<text text-anchor="middle" x="554" y="-87.5" font-family="sans" font-size="10.00" fill="#000000">multiqc_taxon</text>
</g>
<!-- 1&#45;&gt;0 -->
<g id="edge3" class="edge">
<title>1&#45;&gt;0</title>
<path fill="none" stroke="#c0c0c0" stroke-width="2" d="M515.2437,-77.8676C474.8612,-65.2261 411.65,-45.4382 369.0654,-32.1074"/>
<polygon fill="#c0c0c0" stroke="#c0c0c0" stroke-width="2" points="370.099,-28.7636 359.5101,-29.1162 368.0078,-35.4439 370.099,-28.7636"/>
</g>
<!-- 2 -->
<g id="node3" class="node">
<title>2</title>
<path fill="none" stroke="#5673d8" stroke-width="2" d="M74,-1692C74,-1692 12,-1692 12,-1692 6,-1692 0,-1686 0,-1680 0,-1680 0,-1668 0,-1668 0,-1662 6,-1656 12,-1656 12,-1656 74,-1656 74,-1656 80,-1656 86,-1662 86,-1668 86,-1668 86,-1680 86,-1680 86,-1686 80,-1692 74,-1692"/>
<text text-anchor="middle" x="43" y="-1671.5" font-family="sans" font-size="10.00" fill="#000000">trim_fastqc_raw</text>
</g>
<!-- 2&#45;&gt;1 -->
<g id="edge10" class="edge">
<title>2&#45;&gt;1</title>
<path fill="none" stroke="#c0c0c0" stroke-width="2" d="M34.7291,-1655.7881C23.281,-1628.8727 4,-1576.6212 4,-1530 4,-1530 4,-1530 4,-666 4,-567.5608 53,-548.4392 53,-450 53,-450 53,-450 53,-378 53,-250.4886 110.7494,-211.3867 219,-144 265.9058,-114.8009 423.9311,-99.3997 505.0521,-93.2529"/>
<polygon fill="#c0c0c0" stroke="#c0c0c0" stroke-width="2" points="505.782,-96.7086 515.4966,-92.4806 505.2656,-89.7277 505.782,-96.7086"/>
</g>
<!-- 3 -->
<g id="node4" class="node">
<title>3</title>
<path fill="none" stroke="#5663d8" stroke-width="2" d="M214,-1908C214,-1908 138,-1908 138,-1908 132,-1908 126,-1902 126,-1896 126,-1896 126,-1884 126,-1884 126,-1878 132,-1872 138,-1872 138,-1872 214,-1872 214,-1872 220,-1872 226,-1878 226,-1884 226,-1884 226,-1896 226,-1896 226,-1902 220,-1908 214,-1908"/>
<text text-anchor="middle" x="176" y="-1887.5" font-family="sans" font-size="10.00" fill="#000000">trim_get_fastq_raw</text>
</g>
<!-- 3&#45;&gt;2 -->
<g id="edge22" class="edge">
<title>3&#45;&gt;2</title>
<path fill="none" stroke="#c0c0c0" stroke-width="2" d="M164.8893,-1871.9555C141.4676,-1833.9173 86.9288,-1745.3431 59.4481,-1700.7127"/>
<polygon fill="#c0c0c0" stroke="#c0c0c0" stroke-width="2" points="62.3962,-1698.8252 54.1727,-1692.1451 56.4355,-1702.4954 62.3962,-1698.8252"/>
</g>
<!-- 4 -->
<g id="node5" class="node">
<title>4</title>
<path fill="none" stroke="#568ad8" stroke-width="2" d="M335,-1836C335,-1836 211,-1836 211,-1836 205,-1836 199,-1830 199,-1824 199,-1824 199,-1812 199,-1812 199,-1806 205,-1800 211,-1800 211,-1800 335,-1800 335,-1800 341,-1800 347,-1806 347,-1812 347,-1812 347,-1824 347,-1824 347,-1830 341,-1836 335,-1836"/>
<text text-anchor="middle" x="273" y="-1815.5" font-family="sans" font-size="10.00" fill="#000000">trim_adapterremoval_fastq_pe</text>
</g>
<!-- 3&#45;&gt;4 -->
<g id="edge23" class="edge">
<title>3&#45;&gt;4</title>
<path fill="none" stroke="#c0c0c0" stroke-width="2" d="M200.4772,-1871.8314C212.5395,-1862.8779 227.254,-1851.9558 240.2686,-1842.2955"/>
<polygon fill="#c0c0c0" stroke="#c0c0c0" stroke-width="2" points="242.587,-1844.9335 248.5306,-1836.1628 238.4148,-1839.3127 242.587,-1844.9335"/>
</g>
<!-- 4&#45;&gt;1 -->
<g id="edge14" class="edge">
<title>4&#45;&gt;1</title>
<path fill="none" stroke="#c0c0c0" stroke-width="2" d="M347.1435,-1810.4819C527.0396,-1791.2446 972,-1737.2677 972,-1674 972,-1674 972,-1674 972,-234 972,-191.3959 972.1452,-170.7677 939,-144 926.0361,-133.5305 703.9049,-107.0724 603.0785,-95.5289"/>
<polygon fill="#c0c0c0" stroke="#c0c0c0" stroke-width="2" points="603.1769,-92.0175 592.8444,-94.3608 602.383,-98.9724 603.1769,-92.0175"/>
</g>
<!-- 5 -->
<g id="node6" class="node">
<title>5</title>
<path fill="none" stroke="#566bd8" stroke-width="2" d="M169.5,-1620C169.5,-1620 106.5,-1620 106.5,-1620 100.5,-1620 94.5,-1614 94.5,-1608 94.5,-1608 94.5,-1596 94.5,-1596 94.5,-1590 100.5,-1584 106.5,-1584 106.5,-1584 169.5,-1584 169.5,-1584 175.5,-1584 181.5,-1590 181.5,-1596 181.5,-1596 181.5,-1608 181.5,-1608 181.5,-1614 175.5,-1620 169.5,-1620"/>
<text text-anchor="middle" x="138" y="-1599.5" font-family="sans" font-size="10.00" fill="#000000">trim_fastqc_trim</text>
</g>
<!-- 4&#45;&gt;5 -->
<g id="edge24" class="edge">
<title>4&#45;&gt;5</title>
<path fill="none" stroke="#c0c0c0" stroke-width="2" d="M261.7222,-1799.9555C237.9483,-1761.9173 182.5894,-1673.3431 154.6954,-1628.7127"/>
<polygon fill="#c0c0c0" stroke="#c0c0c0" stroke-width="2" points="157.6087,-1626.7701 149.3407,-1620.1451 151.6727,-1630.4801 157.6087,-1626.7701"/>
</g>
<!-- 7 -->
<g id="node8" class="node">
<title>7</title>
<path fill="none" stroke="#d87556" stroke-width="2" d="M358.5,-1764C358.5,-1764 281.5,-1764 281.5,-1764 275.5,-1764 269.5,-1758 269.5,-1752 269.5,-1752 269.5,-1740 269.5,-1740 269.5,-1734 275.5,-1728 281.5,-1728 281.5,-1728 358.5,-1728 358.5,-1728 364.5,-1728 370.5,-1734 370.5,-1740 370.5,-1740 370.5,-1752 370.5,-1752 370.5,-1758 364.5,-1764 358.5,-1764"/>
<text text-anchor="middle" x="320" y="-1743.5" font-family="sans" font-size="10.00" fill="#000000">derep_merge_lanes</text>
</g>
<!-- 4&#45;&gt;7 -->
<g id="edge28" class="edge">
<title>4&#45;&gt;7</title>
<path fill="none" stroke="#c0c0c0" stroke-width="2" d="M284.8601,-1799.8314C290.1629,-1791.7079 296.5237,-1781.9637 302.3673,-1773.0118"/>
<polygon fill="#c0c0c0" stroke="#c0c0c0" stroke-width="2" points="305.4448,-1774.7003 307.9802,-1764.4133 299.5831,-1770.8739 305.4448,-1774.7003"/>
</g>
<!-- 5&#45;&gt;1 -->
<g id="edge21" class="edge">
<title>5&#45;&gt;1</title>
<path fill="none" stroke="#c0c0c0" stroke-width="2" d="M121.577,-1583.9758C99.776,-1558.1064 64,-1508.032 64,-1458 64,-1458 64,-1458 64,-1170 64,-1041.8026 80,-1010.1974 80,-882 80,-882 80,-882 80,-666 80,-579.0077 186.8622,-196.1966 248,-144 285.9109,-111.6335 428.5565,-97.8561 504.9627,-92.6964"/>
<polygon fill="#c0c0c0" stroke="#c0c0c0" stroke-width="2" points="505.535,-96.1667 515.2865,-92.0245 505.0803,-89.1815 505.535,-96.1667"/>
</g>
<!-- 6 -->
<g id="node7" class="node">
<title>6</title>
<path fill="none" stroke="#d86656" stroke-width="2" d="M297.5,-1548C297.5,-1548 248.5,-1548 248.5,-1548 242.5,-1548 236.5,-1542 236.5,-1536 236.5,-1536 236.5,-1524 236.5,-1524 236.5,-1518 242.5,-1512 248.5,-1512 248.5,-1512 297.5,-1512 297.5,-1512 303.5,-1512 309.5,-1518 309.5,-1524 309.5,-1524 309.5,-1536 309.5,-1536 309.5,-1542 303.5,-1548 297.5,-1548"/>
<text text-anchor="middle" x="273" y="-1527.5" font-family="sans" font-size="10.00" fill="#000000">derep_fastqc</text>
</g>
<!-- 6&#45;&gt;1 -->
<g id="edge12" class="edge">
<title>6&#45;&gt;1</title>
<path fill="none" stroke="#c0c0c0" stroke-width="2" d="M236.3162,-1517.7718C186.0708,-1498.4334 102,-1455.667 102,-1386 102,-1386 102,-1386 102,-1170 102,-982.9332 236.3156,-969.1984 391,-864 426.6237,-839.7729 452.8451,-860.6083 481,-828 503.8435,-801.5432 554,-556.9541 554,-522 554,-522 554,-522 554,-234 554,-193.876 554,-147.4631 554,-118.4177"/>
<polygon fill="#c0c0c0" stroke="#c0c0c0" stroke-width="2" points="557.5001,-118.1853 554,-108.1854 550.5001,-118.1854 557.5001,-118.1853"/>
</g>
<!-- 7&#45;&gt;6 -->
<g id="edge26" class="edge">
<title>7&#45;&gt;6</title>
<path fill="none" stroke="#c0c0c0" stroke-width="2" d="M316.0736,-1727.9555C307.8832,-1690.3144 288.9249,-1603.1867 279.1197,-1558.1246"/>
<polygon fill="#c0c0c0" stroke="#c0c0c0" stroke-width="2" points="282.4945,-1557.1722 276.9482,-1548.1451 275.6545,-1558.6606 282.4945,-1557.1722"/>
</g>
<!-- 9 -->
<g id="node10" class="node">
<title>9</title>
<path fill="none" stroke="#d88556" stroke-width="2" d="M713.5,-1548C713.5,-1548 628.5,-1548 628.5,-1548 622.5,-1548 616.5,-1542 616.5,-1536 616.5,-1536 616.5,-1524 616.5,-1524 616.5,-1518 622.5,-1512 628.5,-1512 628.5,-1512 713.5,-1512 713.5,-1512 719.5,-1512 725.5,-1518 725.5,-1524 725.5,-1524 725.5,-1536 725.5,-1536 725.5,-1542 719.5,-1548 713.5,-1548"/>
<text text-anchor="middle" x="671" y="-1527.5" font-family="sans" font-size="10.00" fill="#000000">derep_nonpareil_infer</text>
</g>
<!-- 7&#45;&gt;9 -->
<g id="edge31" class="edge">
<title>7&#45;&gt;9</title>
<path fill="none" stroke="#c0c0c0" stroke-width="2" d="M350.7545,-1727.7626C368.3903,-1717.3014 390.943,-1703.9184 411,-1692 464.7971,-1660.0325 478.8372,-1653.0116 532,-1620 567.3712,-1598.0361 607.2081,-1572.1191 635.1375,-1553.7512"/>
<polygon fill="#c0c0c0" stroke="#c0c0c0" stroke-width="2" points="637.3405,-1556.4912 643.7663,-1548.0675 633.4899,-1550.6455 637.3405,-1556.4912"/>
</g>
<!-- 10 -->
<g id="node11" class="node">
<title>10</title>
<path fill="none" stroke="#d89556" stroke-width="2" d="M390,-1692C390,-1692 342,-1692 342,-1692 336,-1692 330,-1686 330,-1680 330,-1680 330,-1668 330,-1668 330,-1662 336,-1656 342,-1656 342,-1656 390,-1656 390,-1656 396,-1656 402,-1662 402,-1668 402,-1668 402,-1680 402,-1680 402,-1686 396,-1692 390,-1692"/>
<text text-anchor="middle" x="366" y="-1671.5" font-family="sans" font-size="10.00" fill="#000000">derep_seqkit</text>
</g>
<!-- 7&#45;&gt;10 -->
<g id="edge33" class="edge">
<title>7&#45;&gt;10</title>
<path fill="none" stroke="#c0c0c0" stroke-width="2" d="M331.6077,-1727.8314C336.7978,-1719.7079 343.0232,-1709.9637 348.7425,-1701.0118"/>
<polygon fill="#c0c0c0" stroke="#c0c0c0" stroke-width="2" points="351.8015,-1702.7246 354.236,-1692.4133 345.9026,-1698.9559 351.8015,-1702.7246"/>
</g>
<!-- 8 -->
<g id="node9" class="node">
<title>8</title>
<path fill="none" stroke="#d88d56" stroke-width="2" d="M932,-1404C932,-1404 850,-1404 850,-1404 844,-1404 838,-1398 838,-1392 838,-1392 838,-1380 838,-1380 838,-1374 844,-1368 850,-1368 850,-1368 932,-1368 932,-1368 938,-1368 944,-1374 944,-1380 944,-1380 944,-1392 944,-1392 944,-1398 938,-1404 932,-1404"/>
<text text-anchor="middle" x="891" y="-1383.5" font-family="sans" font-size="10.00" fill="#000000">derep_nonpareil_plot</text>
</g>
<!-- 8&#45;&gt;1 -->
<g id="edge8" class="edge">
<title>8&#45;&gt;1</title>
<path fill="none" stroke="#c0c0c0" stroke-width="2" d="M900.1192,-1367.8786C912.7415,-1341.076 934,-1288.9635 934,-1242 934,-1242 934,-1242 934,-234 934,-193.1184 944.7558,-172.0339 915,-144 892.5765,-122.874 695.9195,-102.6847 602.6666,-94.1988"/>
<polygon fill="#c0c0c0" stroke="#c0c0c0" stroke-width="2" points="602.9035,-90.7061 592.6297,-93.2944 602.2752,-97.6778 602.9035,-90.7061"/>
</g>
<!-- 9&#45;&gt;8 -->
<g id="edge29" class="edge">
<title>9&#45;&gt;8</title>
<path fill="none" stroke="#c0c0c0" stroke-width="2" d="M725.7308,-1519.0422C756.7244,-1510.8895 794.9744,-1497.3895 824,-1476 846.6075,-1459.3401 865.0006,-1432.9014 876.7562,-1412.9815"/>
<polygon fill="#c0c0c0" stroke="#c0c0c0" stroke-width="2" points="879.9227,-1414.4939 881.8323,-1404.0726 873.8407,-1411.0284 879.9227,-1414.4939"/>
</g>
<!-- 10&#45;&gt;6 -->
<g id="edge25" class="edge">
<title>10&#45;&gt;6</title>
<path fill="none" stroke="#c0c0c0" stroke-width="2" d="M353.5629,-1655.5764C346.5779,-1645.1714 337.7361,-1631.904 330,-1620 316.2684,-1598.8704 301.0074,-1574.7384 289.7345,-1556.7852"/>
<polygon fill="#c0c0c0" stroke="#c0c0c0" stroke-width="2" points="292.5095,-1554.6222 284.2324,-1548.0087 286.5787,-1558.3405 292.5095,-1554.6222"/>
</g>
<!-- 10&#45;&gt;9 -->
<g id="edge30" class="edge">
<title>10&#45;&gt;9</title>
<path fill="none" stroke="#c0c0c0" stroke-width="2" d="M402.1852,-1656.9158C457.2685,-1630.9093 562.1983,-1581.3687 623.399,-1552.4739"/>
<polygon fill="#c0c0c0" stroke="#c0c0c0" stroke-width="2" points="624.9172,-1555.6277 632.4657,-1548.1932 621.9286,-1549.2977 624.9172,-1555.6277"/>
</g>
<!-- 11 -->
<g id="node12" class="node">
<title>11</title>
<path fill="none" stroke="#d86e56" stroke-width="2" d="M440.5,-1620C440.5,-1620 351.5,-1620 351.5,-1620 345.5,-1620 339.5,-1614 339.5,-1608 339.5,-1608 339.5,-1596 339.5,-1596 339.5,-1590 345.5,-1584 351.5,-1584 351.5,-1584 440.5,-1584 440.5,-1584 446.5,-1584 452.5,-1590 452.5,-1596 452.5,-1596 452.5,-1608 452.5,-1608 452.5,-1614 446.5,-1620 440.5,-1620"/>
<text text-anchor="middle" x="396" y="-1599.5" font-family="sans" font-size="10.00" fill="#000000">derep_low_complexity</text>
</g>
<!-- 10&#45;&gt;11 -->
<g id="edge34" class="edge">
<title>10&#45;&gt;11</title>
<path fill="none" stroke="#c0c0c0" stroke-width="2" d="M373.5703,-1655.8314C376.8493,-1647.9617 380.762,-1638.5712 384.3945,-1629.8533"/>
<polygon fill="#c0c0c0" stroke="#c0c0c0" stroke-width="2" points="387.7124,-1630.9902 388.3278,-1620.4133 381.2508,-1628.2979 387.7124,-1630.9902"/>
</g>
<!-- 11&#45;&gt;6 -->
<g id="edge27" class="edge">
<title>11&#45;&gt;6</title>
<path fill="none" stroke="#c0c0c0" stroke-width="2" d="M364.9619,-1583.8314C349.2295,-1574.6221 329.9389,-1563.3301 313.0956,-1553.4706"/>
<polygon fill="#c0c0c0" stroke="#c0c0c0" stroke-width="2" points="314.4265,-1550.1941 304.0282,-1548.1628 310.8902,-1556.2352 314.4265,-1550.1941"/>
</g>
<!-- 11&#45;&gt;9 -->
<g id="edge32" class="edge">
<title>11&#45;&gt;9</title>
<path fill="none" stroke="#c0c0c0" stroke-width="2" d="M452.5154,-1587.9216C492.8168,-1577.7938 548.5277,-1563.6152 606.5084,-1548.1038"/>
<polygon fill="#c0c0c0" stroke="#c0c0c0" stroke-width="2" points="607.4589,-1551.4726 616.2107,-1545.5013 605.6453,-1544.7116 607.4589,-1551.4726"/>
</g>
<!-- 13 -->
<g id="node14" class="node">
<title>13</title>
<path fill="none" stroke="#d8d356" stroke-width="2" d="M500.5,-900C500.5,-900 411.5,-900 411.5,-900 405.5,-900 399.5,-894 399.5,-888 399.5,-888 399.5,-876 399.5,-876 399.5,-870 405.5,-864 411.5,-864 411.5,-864 500.5,-864 500.5,-864 506.5,-864 512.5,-870 512.5,-876 512.5,-876 512.5,-888 512.5,-888 512.5,-894 506.5,-900 500.5,-900"/>
<text text-anchor="middle" x="456" y="-879.5" font-family="sans" font-size="10.00" fill="#000000">prefilter_reads_extract</text>
</g>
<!-- 11&#45;&gt;13 -->
<g id="edge37" class="edge">
<title>11&#45;&gt;13</title>
<path fill="none" stroke="#c0c0c0" stroke-width="2" d="M399.7296,-1583.9053C405.0019,-1556.7046 414,-1503.6021 414,-1458 414,-1458 414,-1458 414,-1026 414,-984.0688 430.6152,-937.918 442.9448,-909.4435"/>
<polygon fill="#c0c0c0" stroke="#c0c0c0" stroke-width="2" points="446.2152,-910.7032 447.0929,-900.1447 439.8225,-907.8513 446.2152,-910.7032"/>
</g>
<!-- 20 -->
<g id="node21" class="node">
<title>20</title>
<path fill="none" stroke="#56d8a9" stroke-width="2" d="M586,-1548C586,-1548 464,-1548 464,-1548 458,-1548 452,-1542 452,-1536 452,-1536 452,-1524 452,-1524 452,-1518 458,-1512 464,-1512 464,-1512 586,-1512 586,-1512 592,-1512 598,-1518 598,-1524 598,-1524 598,-1536 598,-1536 598,-1542 592,-1548 586,-1548"/>
<text text-anchor="middle" x="525" y="-1527.5" font-family="sans" font-size="10.00" fill="#000000">taxon_prefilter_shard_bowtie2</text>
</g>
<!-- 11&#45;&gt;20 -->
<g id="edge46" class="edge">
<title>11&#45;&gt;20</title>
<path fill="none" stroke="#c0c0c0" stroke-width="2" d="M428.5521,-1583.8314C445.2048,-1574.5368 465.6585,-1563.1208 483.4385,-1553.1971"/>
<polygon fill="#c0c0c0" stroke="#c0c0c0" stroke-width="2" points="485.4321,-1556.0927 492.4583,-1548.1628 482.0205,-1549.9803 485.4321,-1556.0927"/>
</g>
<!-- 38 -->
<g id="node39" class="node">
<title>38</title>
<path fill="none" stroke="#56d8c9" stroke-width="2" d="M336,-1332C336,-1332 142,-1332 142,-1332 136,-1332 130,-1326 130,-1320 130,-1320 130,-1308 130,-1308 130,-1302 136,-1296 142,-1296 142,-1296 336,-1296 336,-1296 342,-1296 348,-1302 348,-1308 348,-1308 348,-1320 348,-1320 348,-1326 342,-1332 336,-1332"/>
<text text-anchor="middle" x="239" y="-1311.5" font-family="sans" font-size="10.00" fill="#000000">taxon_prefilter_shard_saturated_reads_extract</text>
</g>
<!-- 11&#45;&gt;38 -->
<g id="edge67" class="edge">
<title>11&#45;&gt;38</title>
<path fill="none" stroke="#c0c0c0" stroke-width="2" d="M383.9948,-1583.7229C377.3168,-1573.3638 368.9714,-1560.0934 362,-1548 319.7003,-1474.6223 274.4683,-1385.4371 252.5128,-1341.3658"/>
<polygon fill="#c0c0c0" stroke="#c0c0c0" stroke-width="2" points="255.5263,-1339.5649 247.9421,-1332.1669 249.2575,-1342.6797 255.5263,-1339.5649"/>
</g>
<!-- 40 -->
<g id="node41" class="node">
<title>40</title>
<path fill="none" stroke="#56b1d8" stroke-width="2" d="M276,-612C276,-612 120,-612 120,-612 114,-612 108,-606 108,-600 108,-600 108,-588 108,-588 108,-582 114,-576 120,-576 120,-576 276,-576 276,-576 282,-576 288,-582 288,-588 288,-588 288,-600 288,-600 288,-606 282,-612 276,-612"/>
<text text-anchor="middle" x="198" y="-591.5" font-family="sans" font-size="10.00" fill="#000000">taxon_shard_saturated_reads_extract</text>
</g>
<!-- 11&#45;&gt;40 -->
<g id="edge71" class="edge">
<title>11&#45;&gt;40</title>
<path fill="none" stroke="#c0c0c0" stroke-width="2" d="M391.856,-1583.9265C385.9979,-1556.7528 376,-1503.6844 376,-1458 376,-1458 376,-1458 376,-1386 376,-1345.1184 365.7808,-1335.9275 357,-1296 297.0692,-1023.486 276.9308,-956.514 217,-684 212.4837,-663.4636 207.5868,-640.2433 203.8956,-622.5329"/>
<polygon fill="#c0c0c0" stroke="#c0c0c0" stroke-width="2" points="207.2288,-621.3696 201.7673,-612.2909 200.3752,-622.7939 207.2288,-621.3696"/>
</g>
<!-- 12 -->
<g id="node13" class="node">
<title>12</title>
<path fill="none" stroke="#d8d356" stroke-width="2" d="M597.5,-756C597.5,-756 540.5,-756 540.5,-756 534.5,-756 528.5,-750 528.5,-744 528.5,-744 528.5,-732 528.5,-732 528.5,-726 534.5,-720 540.5,-720 540.5,-720 597.5,-720 597.5,-720 603.5,-720 609.5,-726 609.5,-732 609.5,-732 609.5,-744 609.5,-744 609.5,-750 603.5,-756 597.5,-756"/>
<text text-anchor="middle" x="569" y="-735.5" font-family="sans" font-size="10.00" fill="#000000">prefilter_fastqc</text>
</g>
<!-- 12&#45;&gt;1 -->
<g id="edge11" class="edge">
<title>12&#45;&gt;1</title>
<path fill="none" stroke="#c0c0c0" stroke-width="2" d="M573.7656,-719.9623C580.5025,-692.8344 592,-639.8236 592,-594 592,-594 592,-594 592,-234 592,-192.3681 576.9672,-146.14 565.8119,-117.567"/>
<polygon fill="#c0c0c0" stroke="#c0c0c0" stroke-width="2" points="569.0368,-116.2055 562.0588,-108.2332 562.5422,-118.817 569.0368,-116.2055"/>
</g>
<!-- 13&#45;&gt;12 -->
<g id="edge35" class="edge">
<title>13&#45;&gt;12</title>
<path fill="none" stroke="#c0c0c0" stroke-width="2" d="M478.3108,-863.7887C489.7128,-853.8738 503.383,-841.0004 514,-828 530.0521,-808.3444 544.8429,-783.5945 555.0338,-765.0262"/>
<polygon fill="#c0c0c0" stroke="#c0c0c0" stroke-width="2" points="558.1279,-766.6623 559.789,-756.1985 551.9651,-763.3426 558.1279,-766.6623"/>
</g>
<!-- 27 -->
<g id="node28" class="node">
<title>27</title>
<path fill="none" stroke="#56c9d8" stroke-width="2" d="M459.5,-828C459.5,-828 374.5,-828 374.5,-828 368.5,-828 362.5,-822 362.5,-816 362.5,-816 362.5,-804 362.5,-804 362.5,-798 368.5,-792 374.5,-792 374.5,-792 459.5,-792 459.5,-792 465.5,-792 471.5,-798 471.5,-804 471.5,-804 471.5,-816 471.5,-816 471.5,-822 465.5,-828 459.5,-828"/>
<text text-anchor="middle" x="417" y="-807.5" font-family="sans" font-size="10.00" fill="#000000">taxon_shard_bowtie2</text>
</g>
<!-- 13&#45;&gt;27 -->
<g id="edge54" class="edge">
<title>13&#45;&gt;27</title>
<path fill="none" stroke="#c0c0c0" stroke-width="2" d="M446.1587,-863.8314C441.8043,-855.7925 436.5902,-846.1666 431.7831,-837.2918"/>
<polygon fill="#c0c0c0" stroke="#c0c0c0" stroke-width="2" points="434.8143,-835.5392 426.9739,-828.4133 428.6592,-838.8732 434.8143,-835.5392"/>
</g>
<!-- 14 -->
<g id="node15" class="node">
<title>14</title>
<path fill="none" stroke="#d6d856" stroke-width="2" d="M540,-972C540,-972 454,-972 454,-972 448,-972 442,-966 442,-960 442,-960 442,-948 442,-948 442,-942 448,-936 454,-936 454,-936 540,-936 540,-936 546,-936 552,-942 552,-948 552,-948 552,-960 552,-960 552,-966 546,-972 540,-972"/>
<text text-anchor="middle" x="497" y="-951.5" font-family="sans" font-size="10.00" fill="#000000">prefilter_reads_merge</text>
</g>
<!-- 14&#45;&gt;13 -->
<g id="edge36" class="edge">
<title>14&#45;&gt;13</title>
<path fill="none" stroke="#c0c0c0" stroke-width="2" d="M486.654,-935.8314C482.0763,-927.7925 476.5948,-918.1666 471.5412,-909.2918"/>
<polygon fill="#c0c0c0" stroke="#c0c0c0" stroke-width="2" points="474.4752,-907.3712 466.4853,-900.4133 468.3923,-910.8351 474.4752,-907.3712"/>
</g>
<!-- 15 -->
<g id="node16" class="node">
<title>15</title>
<path fill="none" stroke="#ced856" stroke-width="2" d="M639,-1044C639,-1044 537,-1044 537,-1044 531,-1044 525,-1038 525,-1032 525,-1032 525,-1020 525,-1020 525,-1014 531,-1008 537,-1008 537,-1008 639,-1008 639,-1008 645,-1008 651,-1014 651,-1020 651,-1020 651,-1032 651,-1032 651,-1038 645,-1044 639,-1044"/>
<text text-anchor="middle" x="588" y="-1023.5" font-family="sans" font-size="10.00" fill="#000000">prefilter_reads_taxonomy</text>
</g>
<!-- 15&#45;&gt;14 -->
<g id="edge38" class="edge">
<title>15&#45;&gt;14</title>
<path fill="none" stroke="#c0c0c0" stroke-width="2" d="M565.0369,-1007.8314C553.8285,-998.9632 540.1791,-988.1637 528.0561,-978.5718"/>
<polygon fill="#c0c0c0" stroke="#c0c0c0" stroke-width="2" points="529.9697,-975.6229 519.9558,-972.1628 525.6263,-981.1125 529.9697,-975.6229"/>
</g>
<!-- 16 -->
<g id="node17" class="node">
<title>16</title>
<path fill="none" stroke="#56d863" stroke-width="2" d="M735,-1116C735,-1116 623,-1116 623,-1116 617,-1116 611,-1110 611,-1104 611,-1104 611,-1092 611,-1092 611,-1086 617,-1080 623,-1080 623,-1080 735,-1080 735,-1080 741,-1080 747,-1086 747,-1092 747,-1092 747,-1104 747,-1104 747,-1110 741,-1116 735,-1116"/>
<text text-anchor="middle" x="679" y="-1095.5" font-family="sans" font-size="10.00" fill="#000000">taxon_prefilter_align_merge</text>
</g>
<!-- 16&#45;&gt;15 -->
<g id="edge40" class="edge">
<title>16&#45;&gt;15</title>
<path fill="none" stroke="#c0c0c0" stroke-width="2" d="M656.0369,-1079.8314C644.8285,-1070.9632 631.1791,-1060.1637 619.0561,-1050.5718"/>
<polygon fill="#c0c0c0" stroke="#c0c0c0" stroke-width="2" points="620.9697,-1047.6229 610.9558,-1044.1628 616.6263,-1053.1125 620.9697,-1047.6229"/>
</g>
<!-- 23 -->
<g id="node24" class="node">
<title>23</title>
<path fill="none" stroke="#56d87b" stroke-width="2" d="M689.5,-972C689.5,-972 582.5,-972 582.5,-972 576.5,-972 570.5,-966 570.5,-960 570.5,-960 570.5,-948 570.5,-948 570.5,-942 576.5,-936 582.5,-936 582.5,-936 689.5,-936 689.5,-936 695.5,-936 701.5,-942 701.5,-948 701.5,-948 701.5,-960 701.5,-960 701.5,-966 695.5,-972 689.5,-972"/>
<text text-anchor="middle" x="636" y="-951.5" font-family="sans" font-size="10.00" fill="#000000">taxon_prefilter_align_stats</text>
</g>
<!-- 16&#45;&gt;23 -->
<g id="edge49" class="edge">
<title>16&#45;&gt;23</title>
<path fill="none" stroke="#c0c0c0" stroke-width="2" d="M676.3088,-1079.7786C673.3251,-1061.3876 667.8709,-1032.3085 660,-1008 657.1379,-999.1608 653.2973,-989.8176 649.5287,-981.4332"/>
<polygon fill="#c0c0c0" stroke="#c0c0c0" stroke-width="2" points="652.5887,-979.7127 645.2007,-972.1188 646.2405,-982.6625 652.5887,-979.7127"/>
</g>
<!-- 25 -->
<g id="node26" class="node">
<title>25</title>
<path fill="none" stroke="#56d89a" stroke-width="2" d="M827,-324C827,-324 709,-324 709,-324 703,-324 697,-318 697,-312 697,-312 697,-300 697,-300 697,-294 703,-288 709,-288 709,-288 827,-288 827,-288 833,-288 839,-294 839,-300 839,-300 839,-312 839,-312 839,-318 833,-324 827,-324"/>
<text text-anchor="middle" x="768" y="-303.5" font-family="sans" font-size="10.00" fill="#000000">taxon_prefilter_metadmg_lca</text>
</g>
<!-- 16&#45;&gt;25 -->
<g id="edge51" class="edge">
<title>16&#45;&gt;25</title>
<path fill="none" stroke="#c0c0c0" stroke-width="2" d="M687.3522,-1079.9868C700.161,-1050.0446 722.0695,-988.1617 711,-936 707.3653,-918.8723 698.6347,-917.1277 695,-900 691.6785,-884.3486 693.96,-879.9662 695,-864 708.3094,-659.6627 748.7567,-415.8916 762.9845,-334.221"/>
<polygon fill="#c0c0c0" stroke="#c0c0c0" stroke-width="2" points="766.4586,-334.6731 764.7376,-324.219 759.5637,-333.4646 766.4586,-334.6731"/>
</g>
<!-- 39 -->
<g id="node40" class="node">
<title>39</title>
<path fill="none" stroke="#56d892" stroke-width="2" d="M856,-900C856,-900 716,-900 716,-900 710,-900 704,-894 704,-888 704,-888 704,-876 704,-876 704,-870 710,-864 716,-864 716,-864 856,-864 856,-864 862,-864 868,-870 868,-876 868,-876 868,-888 868,-888 868,-894 862,-900 856,-900"/>
<text text-anchor="middle" x="786" y="-879.5" font-family="sans" font-size="10.00" fill="#000000">taxon_prefilter_metadmg_damage</text>
</g>
<!-- 16&#45;&gt;39 -->
<g id="edge69" class="edge">
<title>16&#45;&gt;39</title>
<path fill="none" stroke="#c0c0c0" stroke-width="2" d="M708.205,-1079.8639C720.9226,-1070.5876 734.9578,-1058.2439 744,-1044 770.416,-1002.3877 780.2653,-944.788 783.9043,-910.662"/>
<polygon fill="#c0c0c0" stroke="#c0c0c0" stroke-width="2" points="787.4123,-910.7448 784.8808,-900.4569 780.4441,-910.0781 787.4123,-910.7448"/>
</g>
<!-- 17 -->
<g id="node18" class="node">
<title>17</title>
<path fill="none" stroke="#56d8d8" stroke-width="2" d="M745,-1188C745,-1188 611,-1188 611,-1188 605,-1188 599,-1182 599,-1176 599,-1176 599,-1164 599,-1164 599,-1158 605,-1152 611,-1152 611,-1152 745,-1152 745,-1152 751,-1152 757,-1158 757,-1164 757,-1164 757,-1176 757,-1176 757,-1182 751,-1188 745,-1188"/>
<text text-anchor="middle" x="678" y="-1167.5" font-family="sans" font-size="10.00" fill="#000000">taxon_prefilter_shard_sort_query</text>
</g>
<!-- 17&#45;&gt;16 -->
<g id="edge41" class="edge">
<title>17&#45;&gt;16</title>
<path fill="none" stroke="#c0c0c0" stroke-width="2" d="M678.2523,-1151.8314C678.3593,-1144.131 678.4865,-1134.9743 678.6053,-1126.4166"/>
<polygon fill="#c0c0c0" stroke="#c0c0c0" stroke-width="2" points="682.1049,-1126.4609 678.7443,-1116.4133 675.1056,-1126.3637 682.1049,-1126.4609"/>
</g>
<!-- 18 -->
<g id="node19" class="node">
<title>18</title>
<path fill="none" stroke="#56d0d8" stroke-width="2" d="M737,-1260C737,-1260 617,-1260 617,-1260 611,-1260 605,-1254 605,-1248 605,-1248 605,-1236 605,-1236 605,-1230 611,-1224 617,-1224 617,-1224 737,-1224 737,-1224 743,-1224 749,-1230 749,-1236 749,-1236 749,-1248 749,-1248 749,-1254 743,-1260 737,-1260"/>
<text text-anchor="middle" x="677" y="-1239.5" font-family="sans" font-size="10.00" fill="#000000">taxon_prefilter_shard_unicorn</text>
</g>
<!-- 18&#45;&gt;17 -->
<g id="edge42" class="edge">
<title>18&#45;&gt;17</title>
<path fill="none" stroke="#c0c0c0" stroke-width="2" d="M677.2523,-1223.8314C677.3593,-1216.131 677.4865,-1206.9743 677.6053,-1198.4166"/>
<polygon fill="#c0c0c0" stroke="#c0c0c0" stroke-width="2" points="681.1049,-1198.4609 677.7443,-1188.4133 674.1056,-1198.3637 681.1049,-1198.4609"/>
</g>
<!-- 19 -->
<g id="node20" class="node">
<title>19</title>
<path fill="none" stroke="#56d8d0" stroke-width="2" d="M774,-1332C774,-1332 578,-1332 578,-1332 572,-1332 566,-1326 566,-1320 566,-1320 566,-1308 566,-1308 566,-1302 572,-1296 578,-1296 578,-1296 774,-1296 774,-1296 780,-1296 786,-1302 786,-1308 786,-1308 786,-1320 786,-1320 786,-1326 780,-1332 774,-1332"/>
<text text-anchor="middle" x="676" y="-1311.5" font-family="sans" font-size="10.00" fill="#000000">taxon_prefilter_shard_saturated_reads_remove</text>
</g>
<!-- 19&#45;&gt;18 -->
<g id="edge43" class="edge">
<title>19&#45;&gt;18</title>
<path fill="none" stroke="#c0c0c0" stroke-width="2" d="M676.2523,-1295.8314C676.3593,-1288.131 676.4865,-1278.9743 676.6053,-1270.4166"/>
<polygon fill="#c0c0c0" stroke="#c0c0c0" stroke-width="2" points="680.1049,-1270.4609 676.7443,-1260.4133 673.1056,-1270.3637 680.1049,-1270.4609"/>
</g>
<!-- 20&#45;&gt;1 -->
<g id="edge20" class="edge">
<title>20&#45;&gt;1</title>
<path fill="none" stroke="#c0c0c0" stroke-width="2" d="M577.1263,-1511.9695C599.8773,-1502.9002 626.2632,-1490.6926 648,-1476 723.7716,-1424.7836 750.4927,-1411.8971 795,-1332 894.7506,-1152.9334 896,-1086.9756 896,-882 896,-882 896,-882 896,-666 896,-476.6103 668,-495.3897 668,-306 668,-306 668,-306 668,-234 668,-183.147 623.7553,-139.7674 590.3936,-114.2861"/>
<polygon fill="#c0c0c0" stroke="#c0c0c0" stroke-width="2" points="592.2982,-111.3413 582.1798,-108.1998 588.1307,-116.9655 592.2982,-111.3413"/>
</g>
<!-- 20&#45;&gt;19 -->
<g id="edge44" class="edge">
<title>20&#45;&gt;19</title>
<path fill="none" stroke="#c0c0c0" stroke-width="2" d="M571.2372,-1511.9334C589.1311,-1503.1798 608.7018,-1491.2201 623,-1476 658.0709,-1438.6677 669.9459,-1377.7573 673.9591,-1342.2207"/>
<polygon fill="#c0c0c0" stroke="#c0c0c0" stroke-width="2" points="677.4626,-1342.3582 674.9692,-1332.0609 670.497,-1341.6656 677.4626,-1342.3582"/>
</g>
<!-- 22 -->
<g id="node23" class="node">
<title>22</title>
<path fill="none" stroke="#56d8c1" stroke-width="2" d="M602,-1476C602,-1476 466,-1476 466,-1476 460,-1476 454,-1470 454,-1464 454,-1464 454,-1452 454,-1452 454,-1446 460,-1440 466,-1440 466,-1440 602,-1440 602,-1440 608,-1440 614,-1446 614,-1452 614,-1452 614,-1464 614,-1464 614,-1470 608,-1476 602,-1476"/>
<text text-anchor="middle" x="534" y="-1455.5" font-family="sans" font-size="10.00" fill="#000000">taxon_prefilter_shard_count_alns</text>
</g>
<!-- 20&#45;&gt;22 -->
<g id="edge48" class="edge">
<title>20&#45;&gt;22</title>
<path fill="none" stroke="#c0c0c0" stroke-width="2" d="M527.2711,-1511.8314C528.2336,-1504.131 529.3782,-1494.9743 530.4479,-1486.4166"/>
<polygon fill="#c0c0c0" stroke="#c0c0c0" stroke-width="2" points="533.9309,-1486.7702 531.6983,-1476.4133 526.9849,-1485.9019 533.9309,-1486.7702"/>
</g>
<!-- 21 -->
<g id="node22" class="node">
<title>21</title>
<path fill="none" stroke="#56d8c9" stroke-width="2" d="M636,-1404C636,-1404 454,-1404 454,-1404 448,-1404 442,-1398 442,-1392 442,-1392 442,-1380 442,-1380 442,-1374 448,-1368 454,-1368 454,-1368 636,-1368 636,-1368 642,-1368 648,-1374 648,-1380 648,-1380 648,-1392 648,-1392 648,-1398 642,-1404 636,-1404"/>
<text text-anchor="middle" x="545" y="-1383.5" font-family="sans" font-size="10.00" fill="#000000">taxon_prefilter_shard_saturated_reads_filter</text>
</g>
<!-- 21&#45;&gt;14 -->
<g id="edge39" class="edge">
<title>21&#45;&gt;14</title>
<path fill="none" stroke="#c0c0c0" stroke-width="2" d="M534.5847,-1367.5566C520.4675,-1340.7787 497,-1289.1706 497,-1242 497,-1242 497,-1242 497,-1098 497,-1057.876 497,-1011.4631 497,-982.4177"/>
<polygon fill="#c0c0c0" stroke="#c0c0c0" stroke-width="2" points="500.5001,-982.1853 497,-972.1854 493.5001,-982.1854 500.5001,-982.1853"/>
</g>
<!-- 21&#45;&gt;19 -->
<g id="edge45" class="edge">
<title>21&#45;&gt;19</title>
<path fill="none" stroke="#c0c0c0" stroke-width="2" d="M578.0568,-1367.8314C594.9677,-1358.5368 615.7385,-1347.1208 633.7941,-1337.1971"/>
<polygon fill="#c0c0c0" stroke="#c0c0c0" stroke-width="2" points="635.876,-1340.0468 642.9537,-1332.1628 632.5043,-1333.9122 635.876,-1340.0468"/>
</g>
<!-- 21&#45;&gt;38 -->
<g id="edge68" class="edge">
<title>21&#45;&gt;38</title>
<path fill="none" stroke="#c0c0c0" stroke-width="2" d="M468.1783,-1367.9243C424.8089,-1357.7198 370.4759,-1344.9355 325.599,-1334.3762"/>
<polygon fill="#c0c0c0" stroke="#c0c0c0" stroke-width="2" points="326.1237,-1330.9042 315.5879,-1332.0207 324.5204,-1337.7181 326.1237,-1330.9042"/>
</g>
<!-- 22&#45;&gt;21 -->
<g id="edge47" class="edge">
<title>22&#45;&gt;21</title>
<path fill="none" stroke="#c0c0c0" stroke-width="2" d="M536.7758,-1439.8314C537.9522,-1432.131 539.3511,-1422.9743 540.6586,-1414.4166"/>
<polygon fill="#c0c0c0" stroke="#c0c0c0" stroke-width="2" points="544.1364,-1414.8272 542.1869,-1404.4133 537.2167,-1413.7699 544.1364,-1414.8272"/>
</g>
<!-- 23&#45;&gt;1 -->
<g id="edge15" class="edge">
<title>23&#45;&gt;1</title>
<path fill="none" stroke="#c0c0c0" stroke-width="2" d="M636.4144,-935.8157C637.0002,-908.5008 638,-855.2544 638,-810 638,-810 638,-810 638,-666 638,-505.9605 630,-466.0395 630,-306 630,-306 630,-306 630,-234 630,-188.656 600.1616,-143.5999 577.8774,-116.2735"/>
<polygon fill="#c0c0c0" stroke="#c0c0c0" stroke-width="2" points="580.3585,-113.7856 571.2456,-108.3814 574.9994,-118.2889 580.3585,-113.7856"/>
</g>
<!-- 24 -->
<g id="node25" class="node">
<title>24</title>
<path fill="none" stroke="#56d89a" stroke-width="2" d="M827.5,-252C827.5,-252 708.5,-252 708.5,-252 702.5,-252 696.5,-246 696.5,-240 696.5,-240 696.5,-228 696.5,-228 696.5,-222 702.5,-216 708.5,-216 708.5,-216 827.5,-216 827.5,-216 833.5,-216 839.5,-222 839.5,-228 839.5,-228 839.5,-240 839.5,-240 839.5,-246 833.5,-252 827.5,-252"/>
<text text-anchor="middle" x="768" y="-231.5" font-family="sans" font-size="10.00" fill="#000000">taxon_prefilter_metadmg_dfit</text>
</g>
<!-- 24&#45;&gt;1 -->
<g id="edge19" class="edge">
<title>24&#45;&gt;1</title>
<path fill="none" stroke="#c0c0c0" stroke-width="2" d="M754.2536,-215.6417C738.5969,-195.7791 711.3567,-164.2426 682,-144 657.7222,-127.2595 627.4364,-114.1917 602.4198,-105.1072"/>
<polygon fill="#c0c0c0" stroke="#c0c0c0" stroke-width="2" points="603.3571,-101.7265 592.7623,-101.7007 601.0286,-108.3279 603.3571,-101.7265"/>
</g>
<!-- 26 -->
<g id="node27" class="node">
<title>26</title>
<path fill="none" stroke="#56d88a" stroke-width="2" d="M894,-180C894,-180 746,-180 746,-180 740,-180 734,-174 734,-168 734,-168 734,-156 734,-156 734,-150 740,-144 746,-144 746,-144 894,-144 894,-144 900,-144 906,-150 906,-156 906,-156 906,-168 906,-168 906,-174 900,-180 894,-180"/>
<text text-anchor="middle" x="820" y="-159.5" font-family="sans" font-size="10.00" fill="#000000">taxon_prefilter_metadmg_aggregate</text>
</g>
<!-- 24&#45;&gt;26 -->
<g id="edge52" class="edge">
<title>24&#45;&gt;26</title>
<path fill="none" stroke="#c0c0c0" stroke-width="2" d="M781.1218,-215.8314C787.0499,-207.6232 794.1729,-197.7606 800.6933,-188.7323"/>
<polygon fill="#c0c0c0" stroke="#c0c0c0" stroke-width="2" points="803.684,-190.5693 806.7015,-180.4133 798.0092,-186.4708 803.684,-190.5693"/>
</g>
<!-- 25&#45;&gt;24 -->
<g id="edge50" class="edge">
<title>25&#45;&gt;24</title>
<path fill="none" stroke="#c0c0c0" stroke-width="2" d="M768,-287.8314C768,-280.131 768,-270.9743 768,-262.4166"/>
<polygon fill="#c0c0c0" stroke="#c0c0c0" stroke-width="2" points="771.5001,-262.4132 768,-252.4133 764.5001,-262.4133 771.5001,-262.4132"/>
</g>
<!-- 25&#45;&gt;26 -->
<g id="edge53" class="edge">
<title>25&#45;&gt;26</title>
<path fill="none" stroke="#c0c0c0" stroke-width="2" d="M810.9854,-287.8854C825.7829,-279.3151 840.7061,-267.4972 849,-252 859.784,-231.8499 850.2622,-206.9991 839.3309,-188.5195"/>
<polygon fill="#c0c0c0" stroke="#c0c0c0" stroke-width="2" points="842.245,-186.5793 833.9342,-180.008 836.3332,-190.3277 842.245,-186.5793"/>
</g>
<!-- 26&#45;&gt;0 -->
<g id="edge2" class="edge">
<title>26&#45;&gt;0</title>
<path fill="none" stroke="#c0c0c0" stroke-width="2" d="M782.637,-143.8793C739.8711,-123.7791 667.2948,-91.6052 602,-72 521.9292,-47.9582 425.5767,-32.0302 369.8985,-24.0444"/>
<polygon fill="#c0c0c0" stroke="#c0c0c0" stroke-width="2" points="370.0463,-20.5307 359.6554,-22.5993 369.0684,-27.462 370.0463,-20.5307"/>
</g>
<!-- 26&#45;&gt;1 -->
<g id="edge9" class="edge">
<title>26&#45;&gt;1</title>
<path fill="none" stroke="#c0c0c0" stroke-width="2" d="M753.2203,-143.9243C706.3466,-131.2367 644.7399,-114.5612 602.5172,-103.1325"/>
<polygon fill="#c0c0c0" stroke="#c0c0c0" stroke-width="2" points="603.3209,-99.7241 592.7537,-100.4897 601.4919,-106.481 603.3209,-99.7241"/>
</g>
<!-- 27&#45;&gt;1 -->
<g id="edge18" class="edge">
<title>27&#45;&gt;1</title>
<path fill="none" stroke="#c0c0c0" stroke-width="2" d="M427.973,-791.8796C453.7489,-747.5353 516,-629.3294 516,-522 516,-522 516,-522 516,-234 516,-192.3681 531.0328,-146.14 542.1881,-117.567"/>
<polygon fill="#c0c0c0" stroke="#c0c0c0" stroke-width="2" points="545.4578,-118.817 545.9412,-108.2332 538.9632,-116.2055 545.4578,-118.817"/>
</g>
<!-- 32 -->
<g id="node33" class="node">
<title>32</title>
<path fill="none" stroke="#56a2d8" stroke-width="2" d="M476,-612C476,-612 318,-612 318,-612 312,-612 306,-606 306,-600 306,-600 306,-588 306,-588 306,-582 312,-576 318,-576 318,-576 476,-576 476,-576 482,-576 488,-582 488,-588 488,-588 488,-600 488,-600 488,-606 482,-612 476,-612"/>
<text text-anchor="middle" x="397" y="-591.5" font-family="sans" font-size="10.00" fill="#000000">taxon_shard_saturated_reads_remove</text>
</g>
<!-- 27&#45;&gt;32 -->
<g id="edge60" class="edge">
<title>27&#45;&gt;32</title>
<path fill="none" stroke="#c0c0c0" stroke-width="2" d="M416.0966,-791.981C414.4984,-762.0305 410.785,-700.1358 405,-648 404.074,-639.6549 402.8308,-630.6185 401.6009,-622.3687"/>
<polygon fill="#c0c0c0" stroke="#c0c0c0" stroke-width="2" points="405.055,-621.8024 400.0749,-612.451 398.1364,-622.867 405.055,-621.8024"/>
</g>
<!-- 34 -->
<g id="node35" class="node">
<title>34</title>
<path fill="none" stroke="#56b1d8" stroke-width="2" d="M372,-756C372,-756 274,-756 274,-756 268,-756 262,-750 262,-744 262,-744 262,-732 262,-732 262,-726 268,-720 274,-720 274,-720 372,-720 372,-720 378,-720 384,-726 384,-732 384,-732 384,-744 384,-744 384,-750 378,-756 372,-756"/>
<text text-anchor="middle" x="323" y="-735.5" font-family="sans" font-size="10.00" fill="#000000">taxon_shard_count_alns</text>
</g>
<!-- 27&#45;&gt;34 -->
<g id="edge62" class="edge">
<title>27&#45;&gt;34</title>
<path fill="none" stroke="#c0c0c0" stroke-width="2" d="M393.2798,-791.8314C381.5906,-782.8779 367.3312,-771.9558 354.7191,-762.2955"/>
<polygon fill="#c0c0c0" stroke="#c0c0c0" stroke-width="2" points="356.7797,-759.4651 346.7126,-756.1628 352.5231,-765.0222 356.7797,-759.4651"/>
</g>
<!-- 28 -->
<g id="node29" class="node">
<title>28</title>
<path fill="none" stroke="#88d856" stroke-width="2" d="M475.5,-252C475.5,-252 406.5,-252 406.5,-252 400.5,-252 394.5,-246 394.5,-240 394.5,-240 394.5,-228 394.5,-228 394.5,-222 400.5,-216 406.5,-216 406.5,-216 475.5,-216 475.5,-216 481.5,-216 487.5,-222 487.5,-228 487.5,-228 487.5,-240 487.5,-240 487.5,-246 481.5,-252 475.5,-252"/>
<text text-anchor="middle" x="441" y="-231.5" font-family="sans" font-size="10.00" fill="#000000">taxon_align_stats</text>
</g>
<!-- 28&#45;&gt;1 -->
<g id="edge17" class="edge">
<title>28&#45;&gt;1</title>
<path fill="none" stroke="#c0c0c0" stroke-width="2" d="M452.0612,-215.7706C463.6714,-197.1198 482.8651,-167.6095 502,-144 509.8594,-134.3027 519.1282,-124.2924 527.6473,-115.5646"/>
<polygon fill="#c0c0c0" stroke="#c0c0c0" stroke-width="2" points="530.3301,-117.8299 534.8866,-108.2649 525.3598,-112.9007 530.3301,-117.8299"/>
</g>
<!-- 29 -->
<g id="node30" class="node">
<title>29</title>
<path fill="none" stroke="#a7d856" stroke-width="2" d="M371,-396C371,-396 297,-396 297,-396 291,-396 285,-390 285,-384 285,-384 285,-372 285,-372 285,-366 291,-360 297,-360 297,-360 371,-360 371,-360 377,-360 383,-366 383,-372 383,-372 383,-384 383,-384 383,-390 377,-396 371,-396"/>
<text text-anchor="middle" x="334" y="-375.5" font-family="sans" font-size="10.00" fill="#000000">taxon_align_merge</text>
</g>
<!-- 29&#45;&gt;28 -->
<g id="edge55" class="edge">
<title>29&#45;&gt;28</title>
<path fill="none" stroke="#c0c0c0" stroke-width="2" d="M352.9085,-359.8358C362.9671,-349.7293 375.2377,-336.6642 385,-324 400.4744,-303.9258 415.5075,-279.4009 426.095,-261.0249"/>
<polygon fill="#c0c0c0" stroke="#c0c0c0" stroke-width="2" points="429.1619,-262.712 431.0613,-252.2888 423.0765,-259.2525 429.1619,-262.712"/>
</g>
<!-- 36 -->
<g id="node37" class="node">
<title>36</title>
<path fill="none" stroke="#68d856" stroke-width="2" d="M364,-324C364,-324 284,-324 284,-324 278,-324 272,-318 272,-312 272,-312 272,-300 272,-300 272,-294 278,-288 284,-288 284,-288 364,-288 364,-288 370,-288 376,-294 376,-300 376,-300 376,-312 376,-312 376,-318 370,-324 364,-324"/>
<text text-anchor="middle" x="324" y="-303.5" font-family="sans" font-size="10.00" fill="#000000">taxon_metadmg_lca</text>
</g>
<!-- 29&#45;&gt;36 -->
<g id="edge64" class="edge">
<title>29&#45;&gt;36</title>
<path fill="none" stroke="#c0c0c0" stroke-width="2" d="M331.4766,-359.8314C330.4071,-352.131 329.1353,-342.9743 327.9468,-334.4166"/>
<polygon fill="#c0c0c0" stroke="#c0c0c0" stroke-width="2" points="331.3999,-333.8367 326.5574,-324.4133 324.4664,-334.7997 331.3999,-333.8367"/>
</g>
<!-- 41 -->
<g id="node42" class="node">
<title>41</title>
<path fill="none" stroke="#78d856" stroke-width="2" d="M259,-108C259,-108 157,-108 157,-108 151,-108 145,-102 145,-96 145,-96 145,-84 145,-84 145,-78 151,-72 157,-72 157,-72 259,-72 259,-72 265,-72 271,-78 271,-84 271,-84 271,-96 271,-96 271,-102 265,-108 259,-108"/>
<text text-anchor="middle" x="208" y="-87.5" font-family="sans" font-size="10.00" fill="#000000">taxon_metadmg_damage</text>
</g>
<!-- 29&#45;&gt;41 -->
<g id="edge72" class="edge">
<title>29&#45;&gt;41</title>
<path fill="none" stroke="#c0c0c0" stroke-width="2" d="M304.1619,-359.8661C290.387,-350.4282 274.563,-337.95 263,-324 217.3369,-268.9103 207.4398,-249.64 191,-180 186.0908,-159.2042 191.0192,-135.4429 196.8102,-117.559"/>
<polygon fill="#c0c0c0" stroke="#c0c0c0" stroke-width="2" points="200.1453,-118.6251 200.1551,-108.0303 193.5404,-116.3066 200.1453,-118.6251"/>
</g>
<!-- 30 -->
<g id="node31" class="node">
<title>30</title>
<path fill="none" stroke="#569ad8" stroke-width="2" d="M400.5,-468C400.5,-468 303.5,-468 303.5,-468 297.5,-468 291.5,-462 291.5,-456 291.5,-456 291.5,-444 291.5,-444 291.5,-438 297.5,-432 303.5,-432 303.5,-432 400.5,-432 400.5,-432 406.5,-432 412.5,-438 412.5,-444 412.5,-444 412.5,-456 412.5,-456 412.5,-462 406.5,-468 400.5,-468"/>
<text text-anchor="middle" x="352" y="-447.5" font-family="sans" font-size="10.00" fill="#000000">taxon_shard_sort_query</text>
</g>
<!-- 30&#45;&gt;29 -->
<g id="edge56" class="edge">
<title>30&#45;&gt;29</title>
<path fill="none" stroke="#c0c0c0" stroke-width="2" d="M347.4578,-431.8314C345.5116,-424.0463 343.1932,-414.7729 341.0337,-406.1347"/>
<polygon fill="#c0c0c0" stroke="#c0c0c0" stroke-width="2" points="344.4242,-405.2658 338.6033,-396.4133 337.6332,-406.9636 344.4242,-405.2658"/>
</g>
<!-- 31 -->
<g id="node32" class="node">
<title>31</title>
<path fill="none" stroke="#5692d8" stroke-width="2" d="M429.5,-540C429.5,-540 346.5,-540 346.5,-540 340.5,-540 334.5,-534 334.5,-528 334.5,-528 334.5,-516 334.5,-516 334.5,-510 340.5,-504 346.5,-504 346.5,-504 429.5,-504 429.5,-504 435.5,-504 441.5,-510 441.5,-516 441.5,-516 441.5,-528 441.5,-528 441.5,-534 435.5,-540 429.5,-540"/>
<text text-anchor="middle" x="388" y="-519.5" font-family="sans" font-size="10.00" fill="#000000">taxon_shard_unicorn</text>
</g>
<!-- 31&#45;&gt;30 -->
<g id="edge57" class="edge">
<title>31&#45;&gt;30</title>
<path fill="none" stroke="#c0c0c0" stroke-width="2" d="M378.9157,-503.8314C374.9385,-495.8771 370.1845,-486.369 365.7861,-477.5723"/>
<polygon fill="#c0c0c0" stroke="#c0c0c0" stroke-width="2" points="368.8093,-475.7923 361.2066,-468.4133 362.5483,-478.9228 368.8093,-475.7923"/>
</g>
<!-- 32&#45;&gt;31 -->
<g id="edge58" class="edge">
<title>32&#45;&gt;31</title>
<path fill="none" stroke="#c0c0c0" stroke-width="2" d="M394.7289,-575.8314C393.7664,-568.131 392.6218,-558.9743 391.5521,-550.4166"/>
<polygon fill="#c0c0c0" stroke="#c0c0c0" stroke-width="2" points="395.0151,-549.9019 390.3017,-540.4133 388.0691,-550.7702 395.0151,-549.9019"/>
</g>
<!-- 33 -->
<g id="node34" class="node">
<title>33</title>
<path fill="none" stroke="#56a9d8" stroke-width="2" d="M383.5,-684C383.5,-684 238.5,-684 238.5,-684 232.5,-684 226.5,-678 226.5,-672 226.5,-672 226.5,-660 226.5,-660 226.5,-654 232.5,-648 238.5,-648 238.5,-648 383.5,-648 383.5,-648 389.5,-648 395.5,-654 395.5,-660 395.5,-660 395.5,-672 395.5,-672 395.5,-678 389.5,-684 383.5,-684"/>
<text text-anchor="middle" x="311" y="-663.5" font-family="sans" font-size="10.00" fill="#000000">taxon_shard_saturated_reads_filter</text>
</g>
<!-- 33&#45;&gt;32 -->
<g id="edge59" class="edge">
<title>33&#45;&gt;32</title>
<path fill="none" stroke="#c0c0c0" stroke-width="2" d="M332.7014,-647.8314C343.1921,-639.0485 355.9455,-628.3712 367.3194,-618.8489"/>
<polygon fill="#c0c0c0" stroke="#c0c0c0" stroke-width="2" points="369.8847,-621.2659 375.3055,-612.1628 365.3911,-615.8986 369.8847,-621.2659"/>
</g>
<!-- 33&#45;&gt;40 -->
<g id="edge70" class="edge">
<title>33&#45;&gt;40</title>
<path fill="none" stroke="#c0c0c0" stroke-width="2" d="M282.4853,-647.8314C268.1658,-638.7074 250.6376,-627.539 235.2662,-617.7449"/>
<polygon fill="#c0c0c0" stroke="#c0c0c0" stroke-width="2" points="236.8199,-614.5847 226.5055,-612.1628 233.0583,-620.4882 236.8199,-614.5847"/>
</g>
<!-- 34&#45;&gt;33 -->
<g id="edge61" class="edge">
<title>34&#45;&gt;33</title>
<path fill="none" stroke="#c0c0c0" stroke-width="2" d="M319.9719,-719.8314C318.6885,-712.131 317.1624,-702.9743 315.7361,-694.4166"/>
<polygon fill="#c0c0c0" stroke="#c0c0c0" stroke-width="2" points="319.1653,-693.7018 314.0689,-684.4133 312.2606,-694.8526 319.1653,-693.7018"/>
</g>
<!-- 35 -->
<g id="node36" class="node">
<title>35</title>
<path fill="none" stroke="#70d856" stroke-width="2" d="M364.5,-252C364.5,-252 283.5,-252 283.5,-252 277.5,-252 271.5,-246 271.5,-240 271.5,-240 271.5,-228 271.5,-228 271.5,-222 277.5,-216 283.5,-216 283.5,-216 364.5,-216 364.5,-216 370.5,-216 376.5,-222 376.5,-228 376.5,-228 376.5,-240 376.5,-240 376.5,-246 370.5,-252 364.5,-252"/>
<text text-anchor="middle" x="324" y="-231.5" font-family="sans" font-size="10.00" fill="#000000">taxon_metadmg_dfit</text>
</g>
<!-- 35&#45;&gt;1 -->
<g id="edge16" class="edge">
<title>35&#45;&gt;1</title>
<path fill="none" stroke="#c0c0c0" stroke-width="2" d="M353.1297,-215.7623C394.6061,-189.7945 470.7057,-142.1495 516.394,-113.5446"/>
<polygon fill="#c0c0c0" stroke="#c0c0c0" stroke-width="2" points="518.4883,-116.3628 525.1069,-108.0896 514.7737,-110.4297 518.4883,-116.3628"/>
</g>
<!-- 37 -->
<g id="node38" class="node">
<title>37</title>
<path fill="none" stroke="#78d856" stroke-width="2" d="M379,-180C379,-180 269,-180 269,-180 263,-180 257,-174 257,-168 257,-168 257,-156 257,-156 257,-150 263,-144 269,-144 269,-144 379,-144 379,-144 385,-144 391,-150 391,-156 391,-156 391,-168 391,-168 391,-174 385,-180 379,-180"/>
<text text-anchor="middle" x="324" y="-159.5" font-family="sans" font-size="10.00" fill="#000000">taxon_metadmg_aggregate</text>
</g>
<!-- 35&#45;&gt;37 -->
<g id="edge66" class="edge">
<title>35&#45;&gt;37</title>
<path fill="none" stroke="#c0c0c0" stroke-width="2" d="M324,-215.8314C324,-208.131 324,-198.9743 324,-190.4166"/>
<polygon fill="#c0c0c0" stroke="#c0c0c0" stroke-width="2" points="327.5001,-190.4132 324,-180.4133 320.5001,-190.4133 327.5001,-190.4132"/>
</g>
<!-- 36&#45;&gt;35 -->
<g id="edge63" class="edge">
<title>36&#45;&gt;35</title>
<path fill="none" stroke="#c0c0c0" stroke-width="2" d="M324,-287.8314C324,-280.131 324,-270.9743 324,-262.4166"/>
<polygon fill="#c0c0c0" stroke="#c0c0c0" stroke-width="2" points="327.5001,-262.4132 324,-252.4133 320.5001,-262.4133 327.5001,-262.4132"/>
</g>
<!-- 36&#45;&gt;37 -->
<g id="edge65" class="edge">
<title>36&#45;&gt;37</title>
<path fill="none" stroke="#c0c0c0" stroke-width="2" d="M293.5042,-287.7757C281.3178,-278.7056 268.6228,-266.5508 262,-252 255.3719,-237.4374 255.3719,-230.5626 262,-216 267.174,-204.6322 276.0543,-194.7268 285.5028,-186.6122"/>
<polygon fill="#c0c0c0" stroke="#c0c0c0" stroke-width="2" points="287.8729,-189.1986 293.5042,-180.2243 283.5055,-183.7281 287.8729,-189.1986"/>
</g>
<!-- 37&#45;&gt;0 -->
<g id="edge4" class="edge">
<title>37&#45;&gt;0</title>
<path fill="none" stroke="#c0c0c0" stroke-width="2" d="M324,-143.7623C324,-119.201 324,-75.2474 324,-46.3541"/>
<polygon fill="#c0c0c0" stroke="#c0c0c0" stroke-width="2" points="327.5001,-46.0896 324,-36.0896 320.5001,-46.0897 327.5001,-46.0896"/>
</g>
<!-- 37&#45;&gt;1 -->
<g id="edge13" class="edge">
<title>37&#45;&gt;1</title>
<path fill="none" stroke="#c0c0c0" stroke-width="2" d="M381.7418,-143.9243C419.9342,-131.9684 469.4386,-116.4714 505.5707,-105.1605"/>
<polygon fill="#c0c0c0" stroke="#c0c0c0" stroke-width="2" points="506.889,-108.4153 515.3867,-102.0876 504.7977,-101.735 506.889,-108.4153"/>
</g>
<!-- 38&#45;&gt;0 -->
<g id="edge1" class="edge">
<title>38&#45;&gt;0</title>
<path fill="none" stroke="#c0c0c0" stroke-width="2" d="M223.8688,-1295.9918C177.7388,-1239.1893 42,-1057.1641 42,-882 42,-882 42,-882 42,-666 42,-569.2529 15,-546.7471 15,-450 15,-450 15,-450 15,-162 15,-107.2846 51.7278,-99.5521 99,-72 155.2619,-39.2083 230.4899,-26.2931 278.105,-21.2304"/>
<polygon fill="#c0c0c0" stroke="#c0c0c0" stroke-width="2" points="278.5157,-24.7069 288.1219,-20.238 277.8255,-17.741 278.5157,-24.7069"/>
</g>
<!-- 39&#45;&gt;0 -->
<g id="edge7" class="edge">
<title>39&#45;&gt;0</title>
<path fill="none" stroke="#c0c0c0" stroke-width="2" d="M801.9791,-863.898C823.1909,-837.9361 858,-787.7525 858,-738 858,-738 858,-738 858,-666 858,-462.4619 1010,-437.5381 1010,-234 1010,-234 1010,-234 1010,-162 1010,-96.4236 523.6716,-39.189 369.9742,-22.7383"/>
<polygon fill="#c0c0c0" stroke="#c0c0c0" stroke-width="2" points="370.2304,-19.2459 359.9165,-21.6693 369.4905,-26.2067 370.2304,-19.2459"/>
</g>
<!-- 40&#45;&gt;0 -->
<g id="edge5" class="edge">
<title>40&#45;&gt;0</title>
<path fill="none" stroke="#c0c0c0" stroke-width="2" d="M185.9337,-575.6747C157.9505,-531.3489 91,-414.0121 91,-306 91,-306 91,-306 91,-162 91,-117.2786 101.6066,-100.5848 136,-72 157.639,-54.0156 230.0388,-36.6874 278.4158,-26.7017"/>
<polygon fill="#c0c0c0" stroke="#c0c0c0" stroke-width="2" points="279.244,-30.105 288.3473,-24.6847 277.8508,-23.245 279.244,-30.105"/>
</g>
<!-- 41&#45;&gt;0 -->
<g id="edge6" class="edge">
<title>41&#45;&gt;0</title>
<path fill="none" stroke="#c0c0c0" stroke-width="2" d="M237.2717,-71.8314C252.1088,-62.6221 270.3015,-51.3301 286.1862,-41.4706"/>
<polygon fill="#c0c0c0" stroke="#c0c0c0" stroke-width="2" points="288.087,-44.4102 294.7377,-36.1628 284.3955,-38.4628 288.087,-44.4102"/>
</g>
</g>
</svg>
