<?xml version="1.0" encoding="UTF-8" standalone="no"?>
<!DOCTYPE svg PUBLIC "-//W3C//DTD SVG 1.1//EN"
 "http://www.w3.org/Graphics/SVG/1.1/DTD/svg11.dtd">
<!-- Generated by graphviz version 2.40.1 (0)
 -->
<!-- Title: snakemake_dag Pages: 1 -->
<svg width="1017pt" height="1916pt"
 viewBox="0.00 0.00 1017.00 1916.00" xmlns="http://www.w3.org/2000/svg" xmlns:xlink="http://www.w3.org/1999/xlink">
<g id="graph0" class="graph" transform="scale(1 1) rotate(0) translate(4 1912)">
<title>snakemake_dag</title>
<polygon fill="#ffffff" stroke="transparent" points="-4,4 -4,-1912 1013,-1912 1013,4 -4,4"/>
<!-- 0 -->
<g id="node1" class="node">
<title>0</title>
<path fill="none" stroke="#bed856" stroke-width="2" d="M346.5,-36C346.5,-36 299.5,-36 299.5,-36 293.5,-36 287.5,-30 287.5,-24 287.5,-24 287.5,-12 287.5,-12 287.5,-6 293.5,0 299.5,0 299.5,0 346.5,0 346.5,0 352.5,0 358.5,-6 358.5,-12 358.5,-12 358.5,-24 358.5,-24 358.5,-30 352.5,-36 346.5,-36"/>
<text text-anchor="middle" x="323" y="-15.5" font-family="sans" font-size="10.00" fill="#000000">target_taxon</text>
</g>
<!-- 1 -->
<g id="node2" class="node">
<title>1</title>
<path fill="none" stroke="#d8b456" stroke-width="2" d="M579.5,-108C579.5,-108 526.5,-108 526.5,-108 520.5,-108 514.5,-102 514.5,-96 514.5,-96 514.5,-84 514.5,-84 514.5,-78 520.5,-72 526.5,-72 526.5,-72 579.5,-72 579.5,-72 585.5,-72 591.5,-78 591.5,-84 591.5,-84 591.5,-96 591.5,-96 591.5,-102 585.5,-108 579.5,-108"/>
<text text-anchor="middle" x="553" y="-87.5" font-family="sans" font-size="10.00" fill="#000000">multiqc_taxon</text>
</g>
<!-- 1&#45;&gt;0 -->
<g id="edge6" class="edge">
<title>1&#45;&gt;0</title>
<path fill="none" stroke="#c0c0c0" stroke-width="2" d="M514.2437,-77.8676C473.8612,-65.2261 410.65,-45.4382 368.0654,-32.1074"/>
<polygon fill="#c0c0c0" stroke="#c0c0c0" stroke-width="2" points="369.099,-28.7636 358.5101,-29.1162 367.0078,-35.4439 369.099,-28.7636"/>
</g>
<!-- 2 -->
<g id="node3" class="node">
<title>2</title>
<path fill="none" stroke="#5673d8" stroke-width="2" d="M74,-1692C74,-1692 12,-1692 12,-1692 6,-1692 0,-1686 0,-1680 0,-1680 0,-1668 0,-1668 0,-1662 6,-1656 12,-1656 12,-1656 74,-1656 74,-1656 80,-1656 86,-1662 86,-1668 86,-1668 86,-1680 86,-1680 86,-1686 80,-1692 74,-1692"/>
<text text-anchor="middle" x="43" y="-1671.5" font-family="sans" font-size="10.00" fill="#000000">trim_fastqc_raw</text>
</g>
<!-- 2&#45;&gt;1 -->
<g id="edge8" class="edge">
<title>2&#45;&gt;1</title>
<path fill="none" stroke="#c0c0c0" stroke-width="2" d="M34.517,-1655.81C22.7754,-1628.9218 3,-1576.7039 3,-1530 3,-1530 3,-1530 3,-666 3,-567.5608 52,-548.4392 52,-450 52,-450 52,-450 52,-378 52,-250.4886 109.7494,-211.3867 218,-144 264.9058,-114.8009 422.9311,-99.3997 504.0521,-93.2529"/>
<polygon fill="#c0c0c0" stroke="#c0c0c0" stroke-width="2" points="504.782,-96.7086 514.4966,-92.4806 504.2656,-89.7277 504.782,-96.7086"/>
</g>
<!-- 3 -->
<g id="node4" class="node">
<title>3</title>
<path fill="none" stroke="#5663d8" stroke-width="2" d="M214,-1908C214,-1908 138,-1908 138,-1908 132,-1908 126,-1902 126,-1896 126,-1896 126,-1884 126,-1884 126,-1878 132,-1872 138,-1872 138,-1872 214,-1872 214,-1872 220,-1872 226,-1878 226,-1884 226,-1884 226,-1896 226,-1896 226,-1902 220,-1908 214,-1908"/>
<text text-anchor="middle" x="176" y="-1887.5" font-family="sans" font-size="10.00" fill="#000000">trim_get_fastq_raw</text>
</g>
<!-- 3&#45;&gt;2 -->
<g id="edge22" class="edge">
<title>3&#45;&gt;2</title>
<path fill="none" stroke="#c0c0c0" stroke-width="2" d="M164.8893,-1871.9555C141.4676,-1833.9173 86.9288,-1745.3431 59.4481,-1700.7127"/>
<polygon fill="#c0c0c0" stroke="#c0c0c0" stroke-width="2" points="62.3962,-1698.8252 54.1727,-1692.1451 56.4355,-1702.4954 62.3962,-1698.8252"/>
</g>
<!-- 4 -->
<g id="node5" class="node">
<title>4</title>
<path fill="none" stroke="#568ad8" stroke-width="2" d="M343,-1836C343,-1836 219,-1836 219,-1836 213,-1836 207,-1830 207,-1824 207,-1824 207,-1812 207,-1812 207,-1806 213,-1800 219,-1800 219,-1800 343,-1800 343,-1800 349,-1800 355,-1806 355,-1812 355,-1812 355,-1824 355,-1824 355,-1830 349,-1836 343,-1836"/>
<text text-anchor="middle" x="281" y="-1815.5" font-family="sans" font-size="10.00" fill="#000000">trim_adapterremoval_fastq_pe</text>
</g>
<!-- 3&#45;&gt;4 -->
<g id="edge23" class="edge">
<title>3&#45;&gt;4</title>
<path fill="none" stroke="#c0c0c0" stroke-width="2" d="M202.4959,-1871.8314C215.6774,-1862.7927 231.7847,-1851.7476 245.9711,-1842.0198"/>
<polygon fill="#c0c0c0" stroke="#c0c0c0" stroke-width="2" points="248.2446,-1844.7047 254.5125,-1836.1628 244.2859,-1838.9316 248.2446,-1844.7047"/>
</g>
<!-- 4&#45;&gt;1 -->
<g id="edge13" class="edge">
<title>4&#45;&gt;1</title>
<path fill="none" stroke="#c0c0c0" stroke-width="2" d="M355.1696,-1810.2786C533.3801,-1790.7288 971,-1736.3718 971,-1674 971,-1674 971,-1674 971,-234 971,-191.3959 971.1452,-170.7677 938,-144 925.0361,-133.5305 702.9049,-107.0724 602.0785,-95.5289"/>
<polygon fill="#c0c0c0" stroke="#c0c0c0" stroke-width="2" points="602.1769,-92.0175 591.8444,-94.3608 601.383,-98.9724 602.1769,-92.0175"/>
</g>
<!-- 5 -->
<g id="node6" class="node">
<title>5</title>
<path fill="none" stroke="#566bd8" stroke-width="2" d="M169.5,-1620C169.5,-1620 106.5,-1620 106.5,-1620 100.5,-1620 94.5,-1614 94.5,-1608 94.5,-1608 94.5,-1596 94.5,-1596 94.5,-1590 100.5,-1584 106.5,-1584 106.5,-1584 169.5,-1584 169.5,-1584 175.5,-1584 181.5,-1590 181.5,-1596 181.5,-1596 181.5,-1608 181.5,-1608 181.5,-1614 175.5,-1620 169.5,-1620"/>
<text text-anchor="middle" x="138" y="-1599.5" font-family="sans" font-size="10.00" fill="#000000">trim_fastqc_trim</text>
</g>
<!-- 4&#45;&gt;5 -->
<g id="edge24" class="edge">
<title>4&#45;&gt;5</title>
<path fill="none" stroke="#c0c0c0" stroke-width="2" d="M269.0539,-1799.9555C243.8712,-1761.9173 185.2317,-1673.3431 155.6848,-1628.7127"/>
<polygon fill="#c0c0c0" stroke="#c0c0c0" stroke-width="2" points="158.4514,-1626.5513 150.0127,-1620.1451 152.6146,-1630.4155 158.4514,-1626.5513"/>
</g>
<!-- 7 -->
<g id="node8" class="node">
<title>7</title>
<path fill="none" stroke="#d87556" stroke-width="2" d="M346.5,-1764C346.5,-1764 269.5,-1764 269.5,-1764 263.5,-1764 257.5,-1758 257.5,-1752 257.5,-1752 257.5,-1740 257.5,-1740 257.5,-1734 263.5,-1728 269.5,-1728 269.5,-1728 346.5,-1728 346.5,-1728 352.5,-1728 358.5,-1734 358.5,-1740 358.5,-1740 358.5,-1752 358.5,-1752 358.5,-1758 352.5,-1764 346.5,-1764"/>
<text text-anchor="middle" x="308" y="-1743.5" font-family="sans" font-size="10.00" fill="#000000">derep_merge_lanes</text>
</g>
<!-- 4&#45;&gt;7 -->
<g id="edge28" class="edge">
<title>4&#45;&gt;7</title>
<path fill="none" stroke="#c0c0c0" stroke-width="2" d="M287.8132,-1799.8314C290.7644,-1791.9617 294.2858,-1782.5712 297.555,-1773.8533"/>
<polygon fill="#c0c0c0" stroke="#c0c0c0" stroke-width="2" points="300.8609,-1775.0055 301.095,-1764.4133 294.3066,-1772.5476 300.8609,-1775.0055"/>
</g>
<!-- 5&#45;&gt;1 -->
<g id="edge21" class="edge">
<title>5&#45;&gt;1</title>
<path fill="none" stroke="#c0c0c0" stroke-width="2" d="M121.577,-1583.9758C99.776,-1558.1064 64,-1508.032 64,-1458 64,-1458 64,-1458 64,-1170 64,-1041.8265 79,-1010.1735 79,-882 79,-882 79,-882 79,-666 79,-579.0077 185.8622,-196.1966 247,-144 284.9109,-111.6335 427.5565,-97.8561 503.9627,-92.6964"/>
<polygon fill="#c0c0c0" stroke="#c0c0c0" stroke-width="2" points="504.535,-96.1667 514.2865,-92.0245 504.0803,-89.1815 504.535,-96.1667"/>
</g>
<!-- 6 -->
<g id="node7" class="node">
<title>6</title>
<path fill="none" stroke="#d86656" stroke-width="2" d="M297.5,-1548C297.5,-1548 248.5,-1548 248.5,-1548 242.5,-1548 236.5,-1542 236.5,-1536 236.5,-1536 236.5,-1524 236.5,-1524 236.5,-1518 242.5,-1512 248.5,-1512 248.5,-1512 297.5,-1512 297.5,-1512 303.5,-1512 309.5,-1518 309.5,-1524 309.5,-1524 309.5,-1536 309.5,-1536 309.5,-1542 303.5,-1548 297.5,-1548"/>
<text text-anchor="middle" x="273" y="-1527.5" font-family="sans" font-size="10.00" fill="#000000">derep_fastqc</text>
</g>
<!-- 6&#45;&gt;1 -->
<g id="edge18" class="edge">
<title>6&#45;&gt;1</title>
<path fill="none" stroke="#c0c0c0" stroke-width="2" d="M236.3162,-1517.7718C186.0708,-1498.4334 102,-1455.667 102,-1386 102,-1386 102,-1386 102,-1170 102,-975.7722 259.4817,-981.6798 414,-864 439.3494,-844.6941 456.8276,-853.4505 476,-828 497.0954,-799.9968 553,-557.0599 553,-522 553,-522 553,-522 553,-234 553,-193.876 553,-147.4631 553,-118.4177"/>
<polygon fill="#c0c0c0" stroke="#c0c0c0" stroke-width="2" points="556.5001,-118.1853 553,-108.1854 549.5001,-118.1854 556.5001,-118.1853"/>
</g>
<!-- 7&#45;&gt;6 -->
<g id="edge27" class="edge">
<title>7&#45;&gt;6</title>
<path fill="none" stroke="#c0c0c0" stroke-width="2" d="M305.0761,-1727.9555C298.9769,-1690.3144 284.859,-1603.1867 277.5572,-1558.1246"/>
<polygon fill="#c0c0c0" stroke="#c0c0c0" stroke-width="2" points="280.9947,-1557.4565 275.9402,-1548.1451 274.0848,-1558.5762 280.9947,-1557.4565"/>
</g>
<!-- 9 -->
<g id="node10" class="node">
<title>9</title>
<path fill="none" stroke="#d88556" stroke-width="2" d="M691.5,-1548C691.5,-1548 606.5,-1548 606.5,-1548 600.5,-1548 594.5,-1542 594.5,-1536 594.5,-1536 594.5,-1524 594.5,-1524 594.5,-1518 600.5,-1512 606.5,-1512 606.5,-1512 691.5,-1512 691.5,-1512 697.5,-1512 703.5,-1518 703.5,-1524 703.5,-1524 703.5,-1536 703.5,-1536 703.5,-1542 697.5,-1548 691.5,-1548"/>
<text text-anchor="middle" x="649" y="-1527.5" font-family="sans" font-size="10.00" fill="#000000">derep_nonpareil_infer</text>
</g>
<!-- 7&#45;&gt;9 -->
<g id="edge32" class="edge">
<title>7&#45;&gt;9</title>
<path fill="none" stroke="#c0c0c0" stroke-width="2" d="M346.3295,-1727.7725C366.7217,-1717.752 392.0493,-1704.7866 414,-1692 489.826,-1647.8305 573.1977,-1587.2501 617.3921,-1554.0989"/>
<polygon fill="#c0c0c0" stroke="#c0c0c0" stroke-width="2" points="619.5524,-1556.8535 625.4362,-1548.0427 615.3421,-1551.2612 619.5524,-1556.8535"/>
</g>
<!-- 10 -->
<g id="node11" class="node">
<title>10</title>
<path fill="none" stroke="#d89556" stroke-width="2" d="M393,-1692C393,-1692 345,-1692 345,-1692 339,-1692 333,-1686 333,-1680 333,-1680 333,-1668 333,-1668 333,-1662 339,-1656 345,-1656 345,-1656 393,-1656 393,-1656 399,-1656 405,-1662 405,-1668 405,-1668 405,-1680 405,-1680 405,-1686 399,-1692 393,-1692"/>
<text text-anchor="middle" x="369" y="-1671.5" font-family="sans" font-size="10.00" fill="#000000">derep_seqkit</text>
</g>
<!-- 7&#45;&gt;10 -->
<g id="edge33" class="edge">
<title>7&#45;&gt;10</title>
<path fill="none" stroke="#c0c0c0" stroke-width="2" d="M323.3929,-1727.8314C330.4904,-1719.454 339.048,-1709.3531 346.824,-1700.1749"/>
<polygon fill="#c0c0c0" stroke="#c0c0c0" stroke-width="2" points="349.6061,-1702.3056 353.3999,-1692.4133 344.2652,-1697.7807 349.6061,-1702.3056"/>
</g>
<!-- 8 -->
<g id="node9" class="node">
<title>8</title>
<path fill="none" stroke="#d88d56" stroke-width="2" d="M931,-1404C931,-1404 849,-1404 849,-1404 843,-1404 837,-1398 837,-1392 837,-1392 837,-1380 837,-1380 837,-1374 843,-1368 849,-1368 849,-1368 931,-1368 931,-1368 937,-1368 943,-1374 943,-1380 943,-1380 943,-1392 943,-1392 943,-1398 937,-1404 931,-1404"/>
<text text-anchor="middle" x="890" y="-1383.5" font-family="sans" font-size="10.00" fill="#000000">derep_nonpareil_plot</text>
</g>
<!-- 8&#45;&gt;1 -->
<g id="edge14" class="edge">
<title>8&#45;&gt;1</title>
<path fill="none" stroke="#c0c0c0" stroke-width="2" d="M899.1192,-1367.8786C911.7415,-1341.076 933,-1288.9635 933,-1242 933,-1242 933,-1242 933,-234 933,-193.1184 943.7558,-172.0339 914,-144 891.5765,-122.874 694.9195,-102.6847 601.6666,-94.1988"/>
<polygon fill="#c0c0c0" stroke="#c0c0c0" stroke-width="2" points="601.9035,-90.7061 591.6297,-93.2944 601.2752,-97.6778 601.9035,-90.7061"/>
</g>
<!-- 9&#45;&gt;8 -->
<g id="edge29" class="edge">
<title>9&#45;&gt;8</title>
<path fill="none" stroke="#c0c0c0" stroke-width="2" d="M703.5129,-1522.1501C739.9384,-1514.8376 787.5003,-1501.124 823,-1476 845.9229,-1459.7769 864.2762,-1433.2831 875.9368,-1413.2316"/>
<polygon fill="#c0c0c0" stroke="#c0c0c0" stroke-width="2" points="879.131,-1414.6909 880.9648,-1404.256 873.0239,-1411.2698 879.131,-1414.6909"/>
</g>
<!-- 10&#45;&gt;6 -->
<g id="edge26" class="edge">
<title>10&#45;&gt;6</title>
<path fill="none" stroke="#c0c0c0" stroke-width="2" d="M355.3616,-1655.7024C347.7429,-1645.3368 338.1676,-1632.0668 330,-1620 315.8749,-1599.1314 300.6392,-1574.9826 289.4762,-1556.9565"/>
<polygon fill="#c0c0c0" stroke="#c0c0c0" stroke-width="2" points="292.2658,-1554.8121 284.0374,-1548.138 286.3078,-1558.4867 292.2658,-1554.8121"/>
</g>
<!-- 10&#45;&gt;9 -->
<g id="edge31" class="edge">
<title>10&#45;&gt;9</title>
<path fill="none" stroke="#c0c0c0" stroke-width="2" d="M404.1787,-1655.9081C455.1016,-1629.7192 549.3174,-1581.2654 604.8451,-1552.7082"/>
<polygon fill="#c0c0c0" stroke="#c0c0c0" stroke-width="2" points="606.4528,-1555.8172 613.745,-1548.1311 603.2514,-1549.5922 606.4528,-1555.8172"/>
</g>
<!-- 11 -->
<g id="node12" class="node">
<title>11</title>
<path fill="none" stroke="#d86e56" stroke-width="2" d="M440.5,-1620C440.5,-1620 351.5,-1620 351.5,-1620 345.5,-1620 339.5,-1614 339.5,-1608 339.5,-1608 339.5,-1596 339.5,-1596 339.5,-1590 345.5,-1584 351.5,-1584 351.5,-1584 440.5,-1584 440.5,-1584 446.5,-1584 452.5,-1590 452.5,-1596 452.5,-1596 452.5,-1608 452.5,-1608 452.5,-1614 446.5,-1620 440.5,-1620"/>
<text text-anchor="middle" x="396" y="-1599.5" font-family="sans" font-size="10.00" fill="#000000">derep_low_complexity</text>
</g>
<!-- 10&#45;&gt;11 -->
<g id="edge34" class="edge">
<title>10&#45;&gt;11</title>
<path fill="none" stroke="#c0c0c0" stroke-width="2" d="M375.8132,-1655.8314C378.7644,-1647.9617 382.2858,-1638.5712 385.555,-1629.8533"/>
<polygon fill="#c0c0c0" stroke="#c0c0c0" stroke-width="2" points="388.8609,-1631.0055 389.095,-1620.4133 382.3066,-1628.5476 388.8609,-1631.0055"/>
</g>
<!-- 11&#45;&gt;6 -->
<g id="edge25" class="edge">
<title>11&#45;&gt;6</title>
<path fill="none" stroke="#c0c0c0" stroke-width="2" d="M364.9619,-1583.8314C349.2295,-1574.6221 329.9389,-1563.3301 313.0956,-1553.4706"/>
<polygon fill="#c0c0c0" stroke="#c0c0c0" stroke-width="2" points="314.4265,-1550.1941 304.0282,-1548.1628 310.8902,-1556.2352 314.4265,-1550.1941"/>
</g>
<!-- 11&#45;&gt;9 -->
<g id="edge30" class="edge">
<title>11&#45;&gt;9</title>
<path fill="none" stroke="#c0c0c0" stroke-width="2" d="M452.5397,-1585.9531C488.04,-1575.8723 535.0416,-1562.5164 584.7278,-1548.361"/>
<polygon fill="#c0c0c0" stroke="#c0c0c0" stroke-width="2" points="585.7075,-1551.7213 594.3656,-1545.6149 583.7893,-1544.9892 585.7075,-1551.7213"/>
</g>
<!-- 13 -->
<g id="node14" class="node">
<title>13</title>
<path fill="none" stroke="#d8d356" stroke-width="2" d="M523.5,-900C523.5,-900 434.5,-900 434.5,-900 428.5,-900 422.5,-894 422.5,-888 422.5,-888 422.5,-876 422.5,-876 422.5,-870 428.5,-864 434.5,-864 434.5,-864 523.5,-864 523.5,-864 529.5,-864 535.5,-870 535.5,-876 535.5,-876 535.5,-888 535.5,-888 535.5,-894 529.5,-900 523.5,-900"/>
<text text-anchor="middle" x="479" y="-879.5" font-family="sans" font-size="10.00" fill="#000000">prefilter_reads_extract</text>
</g>
<!-- 11&#45;&gt;13 -->
<g id="edge37" class="edge">
<title>11&#45;&gt;13</title>
<path fill="none" stroke="#c0c0c0" stroke-width="2" d="M399.7296,-1583.9053C405.0019,-1556.7046 414,-1503.6021 414,-1458 414,-1458 414,-1458 414,-1026 414,-985.1184 414.9675,-972.6898 433,-936 437.9399,-925.949 445.1747,-916.2248 452.4507,-907.8635"/>
<polygon fill="#c0c0c0" stroke="#c0c0c0" stroke-width="2" points="455.2023,-910.0409 459.3657,-900.2983 450.0355,-905.3181 455.2023,-910.0409"/>
</g>
<!-- 20 -->
<g id="node21" class="node">
<title>20</title>
<path fill="none" stroke="#56d89a" stroke-width="2" d="M564.5,-1548C564.5,-1548 471.5,-1548 471.5,-1548 465.5,-1548 459.5,-1542 459.5,-1536 459.5,-1536 459.5,-1524 459.5,-1524 459.5,-1518 465.5,-1512 471.5,-1512 471.5,-1512 564.5,-1512 564.5,-1512 570.5,-1512 576.5,-1518 576.5,-1524 576.5,-1524 576.5,-1536 576.5,-1536 576.5,-1542 570.5,-1548 564.5,-1548"/>
<text text-anchor="middle" x="518" y="-1527.5" font-family="sans" font-size="10.00" fill="#000000">taxon_prefilter_bowtie2</text>
</g>
<!-- 11&#45;&gt;20 -->
<g id="edge46" class="edge">
<title>11&#45;&gt;20</title>
<path fill="none" stroke="#c0c0c0" stroke-width="2" d="M426.7858,-1583.8314C442.3903,-1574.6221 461.524,-1563.3301 478.2303,-1553.4706"/>
<polygon fill="#c0c0c0" stroke="#c0c0c0" stroke-width="2" points="480.3909,-1556.2596 487.2241,-1548.1628 476.8331,-1550.2312 480.3909,-1556.2596"/>
</g>
<!-- 38 -->
<g id="node39" class="node">
<title>38</title>
<path fill="none" stroke="#56d0d8" stroke-width="2" d="M336,-1332C336,-1332 142,-1332 142,-1332 136,-1332 130,-1326 130,-1320 130,-1320 130,-1308 130,-1308 130,-1302 136,-1296 142,-1296 142,-1296 336,-1296 336,-1296 342,-1296 348,-1302 348,-1308 348,-1308 348,-1320 348,-1320 348,-1326 342,-1332 336,-1332"/>
<text text-anchor="middle" x="239" y="-1311.5" font-family="sans" font-size="10.00" fill="#000000">taxon_prefilter_shard_saturated_reads_extract</text>
</g>
<!-- 11&#45;&gt;38 -->
<g id="edge68" class="edge">
<title>11&#45;&gt;38</title>
<path fill="none" stroke="#c0c0c0" stroke-width="2" d="M383.9948,-1583.7229C377.3168,-1573.3638 368.9714,-1560.0934 362,-1548 319.7003,-1474.6223 274.4683,-1385.4371 252.5128,-1341.3658"/>
<polygon fill="#c0c0c0" stroke="#c0c0c0" stroke-width="2" points="255.5263,-1339.5649 247.9421,-1332.1669 249.2575,-1342.6797 255.5263,-1339.5649"/>
</g>
<!-- 40 -->
<g id="node41" class="node">
<title>40</title>
<path fill="none" stroke="#56a9d8" stroke-width="2" d="M275,-612C275,-612 119,-612 119,-612 113,-612 107,-606 107,-600 107,-600 107,-588 107,-588 107,-582 113,-576 119,-576 119,-576 275,-576 275,-576 281,-576 287,-582 287,-588 287,-588 287,-600 287,-600 287,-606 281,-612 275,-612"/>
<text text-anchor="middle" x="197" y="-591.5" font-family="sans" font-size="10.00" fill="#000000">taxon_shard_saturated_reads_extract</text>
</g>
<!-- 11&#45;&gt;40 -->
<g id="edge71" class="edge">
<title>11&#45;&gt;40</title>
<path fill="none" stroke="#c0c0c0" stroke-width="2" d="M391.856,-1583.9265C385.9979,-1556.7528 376,-1503.6844 376,-1458 376,-1458 376,-1458 376,-1386 376,-1345.1184 365.8118,-1335.9207 357,-1296 296.8363,-1023.4354 276.1637,-956.5646 216,-684 211.4677,-663.4671 206.5713,-640.2467 202.8843,-622.5353"/>
<polygon fill="#c0c0c0" stroke="#c0c0c0" stroke-width="2" points="206.2178,-621.3731 200.7591,-612.2927 199.3638,-622.7953 206.2178,-621.3731"/>
</g>
<!-- 12 -->
<g id="node13" class="node">
<title>12</title>
<path fill="none" stroke="#d8d356" stroke-width="2" d="M596.5,-756C596.5,-756 539.5,-756 539.5,-756 533.5,-756 527.5,-750 527.5,-744 527.5,-744 527.5,-732 527.5,-732 527.5,-726 533.5,-720 539.5,-720 539.5,-720 596.5,-720 596.5,-720 602.5,-720 608.5,-726 608.5,-732 608.5,-732 608.5,-744 608.5,-744 608.5,-750 602.5,-756 596.5,-756"/>
<text text-anchor="middle" x="568" y="-735.5" font-family="sans" font-size="10.00" fill="#000000">prefilter_fastqc</text>
</g>
<!-- 12&#45;&gt;1 -->
<g id="edge16" class="edge">
<title>12&#45;&gt;1</title>
<path fill="none" stroke="#c0c0c0" stroke-width="2" d="M572.7656,-719.9623C579.5025,-692.8344 591,-639.8236 591,-594 591,-594 591,-594 591,-234 591,-192.3681 575.9672,-146.14 564.8119,-117.567"/>
<polygon fill="#c0c0c0" stroke="#c0c0c0" stroke-width="2" points="568.0368,-116.2055 561.0588,-108.2332 561.5422,-118.817 568.0368,-116.2055"/>
</g>
<!-- 13&#45;&gt;12 -->
<g id="edge35" class="edge">
<title>13&#45;&gt;12</title>
<path fill="none" stroke="#c0c0c0" stroke-width="2" d="M490.2719,-863.7623C505.7196,-838.7682 533.579,-793.6924 551.4109,-764.8409"/>
<polygon fill="#c0c0c0" stroke="#c0c0c0" stroke-width="2" points="554.5394,-766.4362 556.8196,-756.0896 548.5849,-762.7559 554.5394,-766.4362"/>
</g>
<!-- 27 -->
<g id="node28" class="node">
<title>27</title>
<path fill="none" stroke="#78d856" stroke-width="2" d="M455,-828C455,-828 399,-828 399,-828 393,-828 387,-822 387,-816 387,-816 387,-804 387,-804 387,-798 393,-792 399,-792 399,-792 455,-792 455,-792 461,-792 467,-798 467,-804 467,-804 467,-816 467,-816 467,-822 461,-828 455,-828"/>
<text text-anchor="middle" x="427" y="-807.5" font-family="sans" font-size="10.00" fill="#000000">taxon_bowtie2</text>
</g>
<!-- 13&#45;&gt;27 -->
<g id="edge54" class="edge">
<title>13&#45;&gt;27</title>
<path fill="none" stroke="#c0c0c0" stroke-width="2" d="M465.8782,-863.8314C459.9501,-855.6232 452.8271,-845.7606 446.3067,-836.7323"/>
<polygon fill="#c0c0c0" stroke="#c0c0c0" stroke-width="2" points="448.9908,-834.4708 440.2985,-828.4133 443.316,-838.5693 448.9908,-834.4708"/>
</g>
<!-- 14 -->
<g id="node15" class="node">
<title>14</title>
<path fill="none" stroke="#d6d856" stroke-width="2" d="M540,-972C540,-972 454,-972 454,-972 448,-972 442,-966 442,-960 442,-960 442,-948 442,-948 442,-942 448,-936 454,-936 454,-936 540,-936 540,-936 546,-936 552,-942 552,-948 552,-948 552,-960 552,-960 552,-966 546,-972 540,-972"/>
<text text-anchor="middle" x="497" y="-951.5" font-family="sans" font-size="10.00" fill="#000000">prefilter_reads_merge</text>
</g>
<!-- 14&#45;&gt;13 -->
<g id="edge36" class="edge">
<title>14&#45;&gt;13</title>
<path fill="none" stroke="#c0c0c0" stroke-width="2" d="M492.4578,-935.8314C490.5116,-928.0463 488.1932,-918.7729 486.0337,-910.1347"/>
<polygon fill="#c0c0c0" stroke="#c0c0c0" stroke-width="2" points="489.4242,-909.2658 483.6033,-900.4133 482.6332,-910.9636 489.4242,-909.2658"/>
</g>
<!-- 15 -->
<g id="node16" class="node">
<title>15</title>
<path fill="none" stroke="#ced856" stroke-width="2" d="M639,-1044C639,-1044 537,-1044 537,-1044 531,-1044 525,-1038 525,-1032 525,-1032 525,-1020 525,-1020 525,-1014 531,-1008 537,-1008 537,-1008 639,-1008 639,-1008 645,-1008 651,-1014 651,-1020 651,-1020 651,-1032 651,-1032 651,-1038 645,-1044 639,-1044"/>
<text text-anchor="middle" x="588" y="-1023.5" font-family="sans" font-size="10.00" fill="#000000">prefilter_reads_taxonomy</text>
</g>
<!-- 15&#45;&gt;14 -->
<g id="edge39" class="edge">
<title>15&#45;&gt;14</title>
<path fill="none" stroke="#c0c0c0" stroke-width="2" d="M565.0369,-1007.8314C553.8285,-998.9632 540.1791,-988.1637 528.0561,-978.5718"/>
<polygon fill="#c0c0c0" stroke="#c0c0c0" stroke-width="2" points="529.9697,-975.6229 519.9558,-972.1628 525.6263,-981.1125 529.9697,-975.6229"/>
</g>
<!-- 16 -->
<g id="node17" class="node">
<title>16</title>
<path fill="none" stroke="#56d873" stroke-width="2" d="M735,-1116C735,-1116 623,-1116 623,-1116 617,-1116 611,-1110 611,-1104 611,-1104 611,-1092 611,-1092 611,-1086 617,-1080 623,-1080 623,-1080 735,-1080 735,-1080 741,-1080 747,-1086 747,-1092 747,-1092 747,-1104 747,-1104 747,-1110 741,-1116 735,-1116"/>
<text text-anchor="middle" x="679" y="-1095.5" font-family="sans" font-size="10.00" fill="#000000">taxon_prefilter_align_merge</text>
</g>
<!-- 16&#45;&gt;15 -->
<g id="edge40" class="edge">
<title>16&#45;&gt;15</title>
<path fill="none" stroke="#c0c0c0" stroke-width="2" d="M656.0369,-1079.8314C644.8285,-1070.9632 631.1791,-1060.1637 619.0561,-1050.5718"/>
<polygon fill="#c0c0c0" stroke="#c0c0c0" stroke-width="2" points="620.9697,-1047.6229 610.9558,-1044.1628 616.6263,-1053.1125 620.9697,-1047.6229"/>
</g>
<!-- 23 -->
<g id="node24" class="node">
<title>23</title>
<path fill="none" stroke="#56d892" stroke-width="2" d="M689.5,-972C689.5,-972 582.5,-972 582.5,-972 576.5,-972 570.5,-966 570.5,-960 570.5,-960 570.5,-948 570.5,-948 570.5,-942 576.5,-936 582.5,-936 582.5,-936 689.5,-936 689.5,-936 695.5,-936 701.5,-942 701.5,-948 701.5,-948 701.5,-960 701.5,-960 701.5,-966 695.5,-972 689.5,-972"/>
<text text-anchor="middle" x="636" y="-951.5" font-family="sans" font-size="10.00" fill="#000000">taxon_prefilter_align_stats</text>
</g>
<!-- 16&#45;&gt;23 -->
<g id="edge49" class="edge">
<title>16&#45;&gt;23</title>
<path fill="none" stroke="#c0c0c0" stroke-width="2" d="M676.3088,-1079.7786C673.3251,-1061.3876 667.8709,-1032.3085 660,-1008 657.1379,-999.1608 653.2973,-989.8176 649.5287,-981.4332"/>
<polygon fill="#c0c0c0" stroke="#c0c0c0" stroke-width="2" points="652.5887,-979.7127 645.2007,-972.1188 646.2405,-982.6625 652.5887,-979.7127"/>
</g>
<!-- 25 -->
<g id="node26" class="node">
<title>25</title>
<path fill="none" stroke="#56d8c9" stroke-width="2" d="M826,-324C826,-324 708,-324 708,-324 702,-324 696,-318 696,-312 696,-312 696,-300 696,-300 696,-294 702,-288 708,-288 708,-288 826,-288 826,-288 832,-288 838,-294 838,-300 838,-300 838,-312 838,-312 838,-318 832,-324 826,-324"/>
<text text-anchor="middle" x="767" y="-303.5" font-family="sans" font-size="10.00" fill="#000000">taxon_prefilter_metadmg_lca</text>
</g>
<!-- 16&#45;&gt;25 -->
<g id="edge51" class="edge">
<title>16&#45;&gt;25</title>
<path fill="none" stroke="#c0c0c0" stroke-width="2" d="M687.4863,-1079.9575C700.488,-1049.9732 722.6674,-988.0312 711,-936 707.1284,-918.7345 697.8716,-917.2655 694,-900 690.4991,-884.3877 692.96,-879.9662 694,-864 707.3094,-659.6627 747.7567,-415.8916 761.9845,-334.221"/>
<polygon fill="#c0c0c0" stroke="#c0c0c0" stroke-width="2" points="765.4586,-334.6731 763.7376,-324.219 758.5637,-333.4646 765.4586,-334.6731"/>
</g>
<!-- 39 -->
<g id="node40" class="node">
<title>39</title>
<path fill="none" stroke="#56d8b9" stroke-width="2" d="M855,-900C855,-900 715,-900 715,-900 709,-900 703,-894 703,-888 703,-888 703,-876 703,-876 703,-870 709,-864 715,-864 715,-864 855,-864 855,-864 861,-864 867,-870 867,-876 867,-876 867,-888 867,-888 867,-894 861,-900 855,-900"/>
<text text-anchor="middle" x="785" y="-879.5" font-family="sans" font-size="10.00" fill="#000000">taxon_prefilter_metadmg_damage</text>
</g>
<!-- 16&#45;&gt;39 -->
<g id="edge69" class="edge">
<title>16&#45;&gt;39</title>
<path fill="none" stroke="#c0c0c0" stroke-width="2" d="M708.2426,-1079.8877C720.9681,-1070.6164 734.9991,-1058.27 744,-1044 770.2563,-1002.3732 779.7185,-944.7782 783.1145,-910.657"/>
<polygon fill="#c0c0c0" stroke="#c0c0c0" stroke-width="2" points="786.6222,-910.7232 784.0175,-900.4535 779.6495,-910.106 786.6222,-910.7232"/>
</g>
<!-- 17 -->
<g id="node18" class="node">
<title>17</title>
<path fill="none" stroke="#56b9d8" stroke-width="2" d="M745,-1188C745,-1188 611,-1188 611,-1188 605,-1188 599,-1182 599,-1176 599,-1176 599,-1164 599,-1164 599,-1158 605,-1152 611,-1152 611,-1152 745,-1152 745,-1152 751,-1152 757,-1158 757,-1164 757,-1164 757,-1176 757,-1176 757,-1182 751,-1188 745,-1188"/>
<text text-anchor="middle" x="678" y="-1167.5" font-family="sans" font-size="10.00" fill="#000000">taxon_prefilter_shard_sort_query</text>
</g>
<!-- 17&#45;&gt;16 -->
<g id="edge41" class="edge">
<title>17&#45;&gt;16</title>
<path fill="none" stroke="#c0c0c0" stroke-width="2" d="M678.2523,-1151.8314C678.3593,-1144.131 678.4865,-1134.9743 678.6053,-1126.4166"/>
<polygon fill="#c0c0c0" stroke="#c0c0c0" stroke-width="2" points="682.1049,-1126.4609 678.7443,-1116.4133 675.1056,-1126.3637 682.1049,-1126.4609"/>
</g>
<!-- 18 -->
<g id="node19" class="node">
<title>18</title>
<path fill="none" stroke="#56d8d0" stroke-width="2" d="M750,-1260C750,-1260 604,-1260 604,-1260 598,-1260 592,-1254 592,-1248 592,-1248 592,-1236 592,-1236 592,-1230 598,-1224 604,-1224 604,-1224 750,-1224 750,-1224 756,-1224 762,-1230 762,-1236 762,-1236 762,-1248 762,-1248 762,-1254 756,-1260 750,-1260"/>
<text text-anchor="middle" x="677" y="-1239.5" font-family="sans" font-size="10.00" fill="#000000">taxon_prefilter_shard_clean_header</text>
</g>
<!-- 18&#45;&gt;17 -->
<g id="edge42" class="edge">
<title>18&#45;&gt;17</title>
<path fill="none" stroke="#c0c0c0" stroke-width="2" d="M677.2523,-1223.8314C677.3593,-1216.131 677.4865,-1206.9743 677.6053,-1198.4166"/>
<polygon fill="#c0c0c0" stroke="#c0c0c0" stroke-width="2" points="681.1049,-1198.4609 677.7443,-1188.4133 674.1056,-1198.3637 681.1049,-1198.4609"/>
</g>
<!-- 19 -->
<g id="node20" class="node">
<title>19</title>
<path fill="none" stroke="#56c1d8" stroke-width="2" d="M774,-1332C774,-1332 578,-1332 578,-1332 572,-1332 566,-1326 566,-1320 566,-1320 566,-1308 566,-1308 566,-1302 572,-1296 578,-1296 578,-1296 774,-1296 774,-1296 780,-1296 786,-1302 786,-1308 786,-1308 786,-1320 786,-1320 786,-1326 780,-1332 774,-1332"/>
<text text-anchor="middle" x="676" y="-1311.5" font-family="sans" font-size="10.00" fill="#000000">taxon_prefilter_shard_saturated_reads_remove</text>
</g>
<!-- 19&#45;&gt;18 -->
<g id="edge43" class="edge">
<title>19&#45;&gt;18</title>
<path fill="none" stroke="#c0c0c0" stroke-width="2" d="M676.2523,-1295.8314C676.3593,-1288.131 676.4865,-1278.9743 676.6053,-1270.4166"/>
<polygon fill="#c0c0c0" stroke="#c0c0c0" stroke-width="2" points="680.1049,-1270.4609 676.7443,-1260.4133 673.1056,-1270.3637 680.1049,-1270.4609"/>
</g>
<!-- 20&#45;&gt;1 -->
<g id="edge10" class="edge">
<title>20&#45;&gt;1</title>
<path fill="none" stroke="#c0c0c0" stroke-width="2" d="M575.2085,-1511.9168C599.0767,-1503.007 626.4364,-1490.9365 649,-1476 724.9976,-1425.6916 752.0438,-1412.3824 795,-1332 906.3345,-1123.6639 895,-1046.2188 895,-810 895,-810 895,-810 895,-666 895,-476.6103 667,-495.3897 667,-306 667,-306 667,-306 667,-234 667,-183.147 622.7553,-139.7674 589.3936,-114.2861"/>
<polygon fill="#c0c0c0" stroke="#c0c0c0" stroke-width="2" points="591.2982,-111.3413 581.1798,-108.1998 587.1307,-116.9655 591.2982,-111.3413"/>
</g>
<!-- 20&#45;&gt;19 -->
<g id="edge45" class="edge">
<title>20&#45;&gt;19</title>
<path fill="none" stroke="#c0c0c0" stroke-width="2" d="M568.8838,-1511.9527C587.6881,-1503.3396 608.0402,-1491.4747 623,-1476 658.6014,-1439.1733 670.2895,-1378.0847 674.1261,-1342.3798"/>
<polygon fill="#c0c0c0" stroke="#c0c0c0" stroke-width="2" points="677.6346,-1342.4517 675.0824,-1332.1688 670.6651,-1341.7988 677.6346,-1342.4517"/>
</g>
<!-- 22 -->
<g id="node23" class="node">
<title>22</title>
<path fill="none" stroke="#56d8d8" stroke-width="2" d="M602,-1476C602,-1476 466,-1476 466,-1476 460,-1476 454,-1470 454,-1464 454,-1464 454,-1452 454,-1452 454,-1446 460,-1440 466,-1440 466,-1440 602,-1440 602,-1440 608,-1440 614,-1446 614,-1452 614,-1452 614,-1464 614,-1464 614,-1470 608,-1476 602,-1476"/>
<text text-anchor="middle" x="534" y="-1455.5" font-family="sans" font-size="10.00" fill="#000000">taxon_prefilter_shard_count_alns</text>
</g>
<!-- 20&#45;&gt;22 -->
<g id="edge48" class="edge">
<title>20&#45;&gt;22</title>
<path fill="none" stroke="#c0c0c0" stroke-width="2" d="M522.0375,-1511.8314C523.7487,-1504.131 525.7835,-1494.9743 527.6852,-1486.4166"/>
<polygon fill="#c0c0c0" stroke="#c0c0c0" stroke-width="2" points="531.1554,-1486.9344 529.9082,-1476.4133 524.3221,-1485.4159 531.1554,-1486.9344"/>
</g>
<!-- 21 -->
<g id="node22" class="node">
<title>21</title>
<path fill="none" stroke="#56c9d8" stroke-width="2" d="M636,-1404C636,-1404 454,-1404 454,-1404 448,-1404 442,-1398 442,-1392 442,-1392 442,-1380 442,-1380 442,-1374 448,-1368 454,-1368 454,-1368 636,-1368 636,-1368 642,-1368 648,-1374 648,-1380 648,-1380 648,-1392 648,-1392 648,-1398 642,-1404 636,-1404"/>
<text text-anchor="middle" x="545" y="-1383.5" font-family="sans" font-size="10.00" fill="#000000">taxon_prefilter_shard_saturated_reads_filter</text>
</g>
<!-- 21&#45;&gt;14 -->
<g id="edge38" class="edge">
<title>21&#45;&gt;14</title>
<path fill="none" stroke="#c0c0c0" stroke-width="2" d="M534.5847,-1367.5566C520.4675,-1340.7787 497,-1289.1706 497,-1242 497,-1242 497,-1242 497,-1098 497,-1057.876 497,-1011.4631 497,-982.4177"/>
<polygon fill="#c0c0c0" stroke="#c0c0c0" stroke-width="2" points="500.5001,-982.1853 497,-972.1854 493.5001,-982.1854 500.5001,-982.1853"/>
</g>
<!-- 21&#45;&gt;19 -->
<g id="edge44" class="edge">
<title>21&#45;&gt;19</title>
<path fill="none" stroke="#c0c0c0" stroke-width="2" d="M578.0568,-1367.8314C594.9677,-1358.5368 615.7385,-1347.1208 633.7941,-1337.1971"/>
<polygon fill="#c0c0c0" stroke="#c0c0c0" stroke-width="2" points="635.876,-1340.0468 642.9537,-1332.1628 632.5043,-1333.9122 635.876,-1340.0468"/>
</g>
<!-- 21&#45;&gt;38 -->
<g id="edge67" class="edge">
<title>21&#45;&gt;38</title>
<path fill="none" stroke="#c0c0c0" stroke-width="2" d="M468.1783,-1367.9243C424.8089,-1357.7198 370.4759,-1344.9355 325.599,-1334.3762"/>
<polygon fill="#c0c0c0" stroke="#c0c0c0" stroke-width="2" points="326.1237,-1330.9042 315.5879,-1332.0207 324.5204,-1337.7181 326.1237,-1330.9042"/>
</g>
<!-- 22&#45;&gt;21 -->
<g id="edge47" class="edge">
<title>22&#45;&gt;21</title>
<path fill="none" stroke="#c0c0c0" stroke-width="2" d="M536.7758,-1439.8314C537.9522,-1432.131 539.3511,-1422.9743 540.6586,-1414.4166"/>
<polygon fill="#c0c0c0" stroke="#c0c0c0" stroke-width="2" points="544.1364,-1414.8272 542.1869,-1404.4133 537.2167,-1413.7699 544.1364,-1414.8272"/>
</g>
<!-- 23&#45;&gt;1 -->
<g id="edge17" class="edge">
<title>23&#45;&gt;1</title>
<path fill="none" stroke="#c0c0c0" stroke-width="2" d="M635.6624,-935.9625C634.2641,-859.6489 629,-555.7646 629,-306 629,-306 629,-306 629,-234 629,-188.656 599.1616,-143.5999 576.8774,-116.2735"/>
<polygon fill="#c0c0c0" stroke="#c0c0c0" stroke-width="2" points="579.3585,-113.7856 570.2456,-108.3814 573.9994,-118.2889 579.3585,-113.7856"/>
</g>
<!-- 24 -->
<g id="node25" class="node">
<title>24</title>
<path fill="none" stroke="#56d8c1" stroke-width="2" d="M826.5,-252C826.5,-252 707.5,-252 707.5,-252 701.5,-252 695.5,-246 695.5,-240 695.5,-240 695.5,-228 695.5,-228 695.5,-222 701.5,-216 707.5,-216 707.5,-216 826.5,-216 826.5,-216 832.5,-216 838.5,-222 838.5,-228 838.5,-228 838.5,-240 838.5,-240 838.5,-246 832.5,-252 826.5,-252"/>
<text text-anchor="middle" x="767" y="-231.5" font-family="sans" font-size="10.00" fill="#000000">taxon_prefilter_metadmg_dfit</text>
</g>
<!-- 24&#45;&gt;1 -->
<g id="edge20" class="edge">
<title>24&#45;&gt;1</title>
<path fill="none" stroke="#c0c0c0" stroke-width="2" d="M753.2536,-215.6417C737.5969,-195.7791 710.3567,-164.2426 681,-144 656.7222,-127.2595 626.4364,-114.1917 601.4198,-105.1072"/>
<polygon fill="#c0c0c0" stroke="#c0c0c0" stroke-width="2" points="602.3571,-101.7265 591.7623,-101.7007 600.0286,-108.3279 602.3571,-101.7265"/>
</g>
<!-- 26 -->
<g id="node27" class="node">
<title>26</title>
<path fill="none" stroke="#56d8b1" stroke-width="2" d="M893,-180C893,-180 745,-180 745,-180 739,-180 733,-174 733,-168 733,-168 733,-156 733,-156 733,-150 739,-144 745,-144 745,-144 893,-144 893,-144 899,-144 905,-150 905,-156 905,-156 905,-168 905,-168 905,-174 899,-180 893,-180"/>
<text text-anchor="middle" x="819" y="-159.5" font-family="sans" font-size="10.00" fill="#000000">taxon_prefilter_metadmg_aggregate</text>
</g>
<!-- 24&#45;&gt;26 -->
<g id="edge53" class="edge">
<title>24&#45;&gt;26</title>
<path fill="none" stroke="#c0c0c0" stroke-width="2" d="M780.1218,-215.8314C786.0499,-207.6232 793.1729,-197.7606 799.6933,-188.7323"/>
<polygon fill="#c0c0c0" stroke="#c0c0c0" stroke-width="2" points="802.684,-190.5693 805.7015,-180.4133 797.0092,-186.4708 802.684,-190.5693"/>
</g>
<!-- 25&#45;&gt;24 -->
<g id="edge50" class="edge">
<title>25&#45;&gt;24</title>
<path fill="none" stroke="#c0c0c0" stroke-width="2" d="M767,-287.8314C767,-280.131 767,-270.9743 767,-262.4166"/>
<polygon fill="#c0c0c0" stroke="#c0c0c0" stroke-width="2" points="770.5001,-262.4132 767,-252.4133 763.5001,-262.4133 770.5001,-262.4132"/>
</g>
<!-- 25&#45;&gt;26 -->
<g id="edge52" class="edge">
<title>25&#45;&gt;26</title>
<path fill="none" stroke="#c0c0c0" stroke-width="2" d="M809.9854,-287.8854C824.7829,-279.3151 839.7061,-267.4972 848,-252 858.784,-231.8499 849.2622,-206.9991 838.3309,-188.5195"/>
<polygon fill="#c0c0c0" stroke="#c0c0c0" stroke-width="2" points="841.245,-186.5793 832.9342,-180.008 835.3332,-190.3277 841.245,-186.5793"/>
</g>
<!-- 26&#45;&gt;0 -->
<g id="edge5" class="edge">
<title>26&#45;&gt;0</title>
<path fill="none" stroke="#c0c0c0" stroke-width="2" d="M781.637,-143.8793C738.8711,-123.7791 666.2948,-91.6052 601,-72 520.9292,-47.9582 424.5767,-32.0302 368.8985,-24.0444"/>
<polygon fill="#c0c0c0" stroke="#c0c0c0" stroke-width="2" points="369.0463,-20.5307 358.6554,-22.5993 368.0684,-27.462 369.0463,-20.5307"/>
</g>
<!-- 26&#45;&gt;1 -->
<g id="edge15" class="edge">
<title>26&#45;&gt;1</title>
<path fill="none" stroke="#c0c0c0" stroke-width="2" d="M752.2203,-143.9243C705.3466,-131.2367 643.7399,-114.5612 601.5172,-103.1325"/>
<polygon fill="#c0c0c0" stroke="#c0c0c0" stroke-width="2" points="602.3209,-99.7241 591.7537,-100.4897 600.4919,-106.481 602.3209,-99.7241"/>
</g>
<!-- 27&#45;&gt;1 -->
<g id="edge9" class="edge">
<title>27&#45;&gt;1</title>
<path fill="none" stroke="#c0c0c0" stroke-width="2" d="M436.7538,-791.7257C459.6656,-747.0397 515,-628.1325 515,-522 515,-522 515,-522 515,-234 515,-192.3681 530.0328,-146.14 541.1881,-117.567"/>
<polygon fill="#c0c0c0" stroke="#c0c0c0" stroke-width="2" points="544.4578,-118.817 544.9412,-108.2332 537.9632,-116.2055 544.4578,-118.817"/>
</g>
<!-- 32 -->
<g id="node33" class="node">
<title>32</title>
<path fill="none" stroke="#569ad8" stroke-width="2" d="M475,-612C475,-612 317,-612 317,-612 311,-612 305,-606 305,-600 305,-600 305,-588 305,-588 305,-582 311,-576 317,-576 317,-576 475,-576 475,-576 481,-576 487,-582 487,-588 487,-588 487,-600 487,-600 487,-606 481,-612 475,-612"/>
<text text-anchor="middle" x="396" y="-591.5" font-family="sans" font-size="10.00" fill="#000000">taxon_shard_saturated_reads_remove</text>
</g>
<!-- 27&#45;&gt;32 -->
<g id="edge60" class="edge">
<title>27&#45;&gt;32</title>
<path fill="none" stroke="#c0c0c0" stroke-width="2" d="M424.4148,-791.5305C420.1961,-761.4502 411.5444,-700.0087 404,-648 402.7946,-639.6907 401.4654,-630.6653 400.2425,-622.4146"/>
<polygon fill="#c0c0c0" stroke="#c0c0c0" stroke-width="2" points="403.6997,-621.8671 398.7675,-612.4903 396.7757,-622.8962 403.6997,-621.8671"/>
</g>
<!-- 34 -->
<g id="node35" class="node">
<title>34</title>
<path fill="none" stroke="#56b1d8" stroke-width="2" d="M371,-756C371,-756 273,-756 273,-756 267,-756 261,-750 261,-744 261,-744 261,-732 261,-732 261,-726 267,-720 273,-720 273,-720 371,-720 371,-720 377,-720 383,-726 383,-732 383,-732 383,-744 383,-744 383,-750 377,-756 371,-756"/>
<text text-anchor="middle" x="322" y="-735.5" font-family="sans" font-size="10.00" fill="#000000">taxon_shard_count_alns</text>
</g>
<!-- 27&#45;&gt;34 -->
<g id="edge62" class="edge">
<title>27&#45;&gt;34</title>
<path fill="none" stroke="#c0c0c0" stroke-width="2" d="M400.5041,-791.8314C387.3226,-782.7927 371.2153,-771.7476 357.0289,-762.0198"/>
<polygon fill="#c0c0c0" stroke="#c0c0c0" stroke-width="2" points="358.7141,-758.9316 348.4875,-756.1628 354.7554,-764.7047 358.7141,-758.9316"/>
</g>
<!-- 28 -->
<g id="node29" class="node">
<title>28</title>
<path fill="none" stroke="#88d856" stroke-width="2" d="M474.5,-252C474.5,-252 405.5,-252 405.5,-252 399.5,-252 393.5,-246 393.5,-240 393.5,-240 393.5,-228 393.5,-228 393.5,-222 399.5,-216 405.5,-216 405.5,-216 474.5,-216 474.5,-216 480.5,-216 486.5,-222 486.5,-228 486.5,-228 486.5,-240 486.5,-240 486.5,-246 480.5,-252 474.5,-252"/>
<text text-anchor="middle" x="440" y="-231.5" font-family="sans" font-size="10.00" fill="#000000">taxon_align_stats</text>
</g>
<!-- 28&#45;&gt;1 -->
<g id="edge11" class="edge">
<title>28&#45;&gt;1</title>
<path fill="none" stroke="#c0c0c0" stroke-width="2" d="M451.0612,-215.7706C462.6714,-197.1198 481.8651,-167.6095 501,-144 508.8594,-134.3027 518.1282,-124.2924 526.6473,-115.5646"/>
<polygon fill="#c0c0c0" stroke="#c0c0c0" stroke-width="2" points="529.3301,-117.8299 533.8866,-108.2649 524.3598,-112.9007 529.3301,-117.8299"/>
</g>
<!-- 29 -->
<g id="node30" class="node">
<title>29</title>
<path fill="none" stroke="#a7d856" stroke-width="2" d="M369,-396C369,-396 295,-396 295,-396 289,-396 283,-390 283,-384 283,-384 283,-372 283,-372 283,-366 289,-360 295,-360 295,-360 369,-360 369,-360 375,-360 381,-366 381,-372 381,-372 381,-384 381,-384 381,-390 375,-396 369,-396"/>
<text text-anchor="middle" x="332" y="-375.5" font-family="sans" font-size="10.00" fill="#000000">taxon_align_merge</text>
</g>
<!-- 29&#45;&gt;28 -->
<g id="edge55" class="edge">
<title>29&#45;&gt;28</title>
<path fill="none" stroke="#c0c0c0" stroke-width="2" d="M351.3102,-359.8914C361.5751,-349.8013 374.0852,-336.7339 384,-324 399.5715,-304.001 414.5972,-279.4704 425.1572,-261.0731"/>
<polygon fill="#c0c0c0" stroke="#c0c0c0" stroke-width="2" points="428.2287,-262.7519 430.1082,-252.3251 422.1367,-259.3041 428.2287,-262.7519"/>
</g>
<!-- 36 -->
<g id="node37" class="node">
<title>36</title>
<path fill="none" stroke="#56d85b" stroke-width="2" d="M363,-324C363,-324 283,-324 283,-324 277,-324 271,-318 271,-312 271,-312 271,-300 271,-300 271,-294 277,-288 283,-288 283,-288 363,-288 363,-288 369,-288 375,-294 375,-300 375,-300 375,-312 375,-312 375,-318 369,-324 363,-324"/>
<text text-anchor="middle" x="323" y="-303.5" font-family="sans" font-size="10.00" fill="#000000">taxon_metadmg_lca</text>
</g>
<!-- 29&#45;&gt;36 -->
<g id="edge64" class="edge">
<title>29&#45;&gt;36</title>
<path fill="none" stroke="#c0c0c0" stroke-width="2" d="M329.7289,-359.8314C328.7664,-352.131 327.6218,-342.9743 326.5521,-334.4166"/>
<polygon fill="#c0c0c0" stroke="#c0c0c0" stroke-width="2" points="330.0151,-333.9019 325.3017,-324.4133 323.0691,-334.7702 330.0151,-333.9019"/>
</g>
<!-- 41 -->
<g id="node42" class="node">
<title>41</title>
<path fill="none" stroke="#61d856" stroke-width="2" d="M258,-108C258,-108 156,-108 156,-108 150,-108 144,-102 144,-96 144,-96 144,-84 144,-84 144,-78 150,-72 156,-72 156,-72 258,-72 258,-72 264,-72 270,-78 270,-84 270,-84 270,-96 270,-96 270,-102 264,-108 258,-108"/>
<text text-anchor="middle" x="207" y="-87.5" font-family="sans" font-size="10.00" fill="#000000">taxon_metadmg_damage</text>
</g>
<!-- 29&#45;&gt;41 -->
<g id="edge72" class="edge">
<title>29&#45;&gt;41</title>
<path fill="none" stroke="#c0c0c0" stroke-width="2" d="M302.5932,-359.7909C289.0148,-350.3359 273.4126,-337.865 262,-324 216.5257,-268.7543 206.4398,-249.64 190,-180 185.0908,-159.2042 190.0192,-135.4429 195.8102,-117.559"/>
<polygon fill="#c0c0c0" stroke="#c0c0c0" stroke-width="2" points="199.1453,-118.6251 199.1551,-108.0303 192.5404,-116.3066 199.1453,-118.6251"/>
</g>
<!-- 30 -->
<g id="node31" class="node">
<title>30</title>
<path fill="none" stroke="#5692d8" stroke-width="2" d="M398.5,-468C398.5,-468 301.5,-468 301.5,-468 295.5,-468 289.5,-462 289.5,-456 289.5,-456 289.5,-444 289.5,-444 289.5,-438 295.5,-432 301.5,-432 301.5,-432 398.5,-432 398.5,-432 404.5,-432 410.5,-438 410.5,-444 410.5,-444 410.5,-456 410.5,-456 410.5,-462 404.5,-468 398.5,-468"/>
<text text-anchor="middle" x="350" y="-447.5" font-family="sans" font-size="10.00" fill="#000000">taxon_shard_sort_query</text>
</g>
<!-- 30&#45;&gt;29 -->
<g id="edge56" class="edge">
<title>30&#45;&gt;29</title>
<path fill="none" stroke="#c0c0c0" stroke-width="2" d="M345.4578,-431.8314C343.5116,-424.0463 341.1932,-414.7729 339.0337,-406.1347"/>
<polygon fill="#c0c0c0" stroke="#c0c0c0" stroke-width="2" points="342.4242,-405.2658 336.6033,-396.4133 335.6332,-406.9636 342.4242,-405.2658"/>
</g>
<!-- 31 -->
<g id="node32" class="node">
<title>31</title>
<path fill="none" stroke="#56b1d8" stroke-width="2" d="M440.5,-540C440.5,-540 331.5,-540 331.5,-540 325.5,-540 319.5,-534 319.5,-528 319.5,-528 319.5,-516 319.5,-516 319.5,-510 325.5,-504 331.5,-504 331.5,-504 440.5,-504 440.5,-504 446.5,-504 452.5,-510 452.5,-516 452.5,-516 452.5,-528 452.5,-528 452.5,-534 446.5,-540 440.5,-540"/>
<text text-anchor="middle" x="386" y="-519.5" font-family="sans" font-size="10.00" fill="#000000">taxon_shard_clean_header</text>
</g>
<!-- 31&#45;&gt;30 -->
<g id="edge57" class="edge">
<title>31&#45;&gt;30</title>
<path fill="none" stroke="#c0c0c0" stroke-width="2" d="M376.9157,-503.8314C372.9385,-495.8771 368.1845,-486.369 363.7861,-477.5723"/>
<polygon fill="#c0c0c0" stroke="#c0c0c0" stroke-width="2" points="366.8093,-475.7923 359.2066,-468.4133 360.5483,-478.9228 366.8093,-475.7923"/>
</g>
<!-- 32&#45;&gt;31 -->
<g id="edge58" class="edge">
<title>32&#45;&gt;31</title>
<path fill="none" stroke="#c0c0c0" stroke-width="2" d="M393.4766,-575.8314C392.4071,-568.131 391.1353,-558.9743 389.9468,-550.4166"/>
<polygon fill="#c0c0c0" stroke="#c0c0c0" stroke-width="2" points="393.3999,-549.8367 388.5574,-540.4133 386.4664,-550.7997 393.3999,-549.8367"/>
</g>
<!-- 33 -->
<g id="node34" class="node">
<title>33</title>
<path fill="none" stroke="#56a2d8" stroke-width="2" d="M382.5,-684C382.5,-684 237.5,-684 237.5,-684 231.5,-684 225.5,-678 225.5,-672 225.5,-672 225.5,-660 225.5,-660 225.5,-654 231.5,-648 237.5,-648 237.5,-648 382.5,-648 382.5,-648 388.5,-648 394.5,-654 394.5,-660 394.5,-660 394.5,-672 394.5,-672 394.5,-678 388.5,-684 382.5,-684"/>
<text text-anchor="middle" x="310" y="-663.5" font-family="sans" font-size="10.00" fill="#000000">taxon_shard_saturated_reads_filter</text>
</g>
<!-- 33&#45;&gt;32 -->
<g id="edge59" class="edge">
<title>33&#45;&gt;32</title>
<path fill="none" stroke="#c0c0c0" stroke-width="2" d="M331.7014,-647.8314C342.1921,-639.0485 354.9455,-628.3712 366.3194,-618.8489"/>
<polygon fill="#c0c0c0" stroke="#c0c0c0" stroke-width="2" points="368.8847,-621.2659 374.3055,-612.1628 364.3911,-615.8986 368.8847,-621.2659"/>
</g>
<!-- 33&#45;&gt;40 -->
<g id="edge70" class="edge">
<title>33&#45;&gt;40</title>
<path fill="none" stroke="#c0c0c0" stroke-width="2" d="M281.4853,-647.8314C267.1658,-638.7074 249.6376,-627.539 234.2662,-617.7449"/>
<polygon fill="#c0c0c0" stroke="#c0c0c0" stroke-width="2" points="235.8199,-614.5847 225.5055,-612.1628 232.0583,-620.4882 235.8199,-614.5847"/>
</g>
<!-- 34&#45;&gt;33 -->
<g id="edge61" class="edge">
<title>34&#45;&gt;33</title>
<path fill="none" stroke="#c0c0c0" stroke-width="2" d="M318.9719,-719.8314C317.6885,-712.131 316.1624,-702.9743 314.7361,-694.4166"/>
<polygon fill="#c0c0c0" stroke="#c0c0c0" stroke-width="2" points="318.1653,-693.7018 313.0689,-684.4133 311.2606,-694.8526 318.1653,-693.7018"/>
</g>
<!-- 35 -->
<g id="node36" class="node">
<title>35</title>
<path fill="none" stroke="#59d856" stroke-width="2" d="M363.5,-252C363.5,-252 282.5,-252 282.5,-252 276.5,-252 270.5,-246 270.5,-240 270.5,-240 270.5,-228 270.5,-228 270.5,-222 276.5,-216 282.5,-216 282.5,-216 363.5,-216 363.5,-216 369.5,-216 375.5,-222 375.5,-228 375.5,-228 375.5,-240 375.5,-240 375.5,-246 369.5,-252 363.5,-252"/>
<text text-anchor="middle" x="323" y="-231.5" font-family="sans" font-size="10.00" fill="#000000">taxon_metadmg_dfit</text>
</g>
<!-- 35&#45;&gt;1 -->
<g id="edge19" class="edge">
<title>35&#45;&gt;1</title>
<path fill="none" stroke="#c0c0c0" stroke-width="2" d="M352.1297,-215.7623C393.6061,-189.7945 469.7057,-142.1495 515.394,-113.5446"/>
<polygon fill="#c0c0c0" stroke="#c0c0c0" stroke-width="2" points="517.4883,-116.3628 524.1069,-108.0896 513.7737,-110.4297 517.4883,-116.3628"/>
</g>
<!-- 37 -->
<g id="node38" class="node">
<title>37</title>
<path fill="none" stroke="#68d856" stroke-width="2" d="M378,-180C378,-180 268,-180 268,-180 262,-180 256,-174 256,-168 256,-168 256,-156 256,-156 256,-150 262,-144 268,-144 268,-144 378,-144 378,-144 384,-144 390,-150 390,-156 390,-156 390,-168 390,-168 390,-174 384,-180 378,-180"/>
<text text-anchor="middle" x="323" y="-159.5" font-family="sans" font-size="10.00" fill="#000000">taxon_metadmg_aggregate</text>
</g>
<!-- 35&#45;&gt;37 -->
<g id="edge65" class="edge">
<title>35&#45;&gt;37</title>
<path fill="none" stroke="#c0c0c0" stroke-width="2" d="M323,-215.8314C323,-208.131 323,-198.9743 323,-190.4166"/>
<polygon fill="#c0c0c0" stroke="#c0c0c0" stroke-width="2" points="326.5001,-190.4132 323,-180.4133 319.5001,-190.4133 326.5001,-190.4132"/>
</g>
<!-- 36&#45;&gt;35 -->
<g id="edge63" class="edge">
<title>36&#45;&gt;35</title>
<path fill="none" stroke="#c0c0c0" stroke-width="2" d="M323,-287.8314C323,-280.131 323,-270.9743 323,-262.4166"/>
<polygon fill="#c0c0c0" stroke="#c0c0c0" stroke-width="2" points="326.5001,-262.4132 323,-252.4133 319.5001,-262.4133 326.5001,-262.4132"/>
</g>
<!-- 36&#45;&gt;37 -->
<g id="edge66" class="edge">
<title>36&#45;&gt;37</title>
<path fill="none" stroke="#c0c0c0" stroke-width="2" d="M292.5042,-287.7757C280.3178,-278.7056 267.6228,-266.5508 261,-252 254.3719,-237.4374 254.3719,-230.5626 261,-216 266.174,-204.6322 275.0543,-194.7268 284.5028,-186.6122"/>
<polygon fill="#c0c0c0" stroke="#c0c0c0" stroke-width="2" points="286.8729,-189.1986 292.5042,-180.2243 282.5055,-183.7281 286.8729,-189.1986"/>
</g>
<!-- 37&#45;&gt;0 -->
<g id="edge1" class="edge">
<title>37&#45;&gt;0</title>
<path fill="none" stroke="#c0c0c0" stroke-width="2" d="M323,-143.7623C323,-119.201 323,-75.2474 323,-46.3541"/>
<polygon fill="#c0c0c0" stroke="#c0c0c0" stroke-width="2" points="326.5001,-46.0896 323,-36.0896 319.5001,-46.0897 326.5001,-46.0896"/>
</g>
<!-- 37&#45;&gt;1 -->
<g id="edge12" class="edge">
<title>37&#45;&gt;1</title>
<path fill="none" stroke="#c0c0c0" stroke-width="2" d="M380.7418,-143.9243C418.9342,-131.9684 468.4386,-116.4714 504.5707,-105.1605"/>
<polygon fill="#c0c0c0" stroke="#c0c0c0" stroke-width="2" points="505.889,-108.4153 514.3867,-102.0876 503.7977,-101.735 505.889,-108.4153"/>
</g>
<!-- 38&#45;&gt;0 -->
<g id="edge3" class="edge">
<title>38&#45;&gt;0</title>
<path fill="none" stroke="#c0c0c0" stroke-width="2" d="M223.4633,-1295.6023C176.7866,-1238.3853 41,-1056.905 41,-882 41,-882 41,-882 41,-666 41,-569.2529 14,-546.7471 14,-450 14,-450 14,-450 14,-162 14,-107.2846 50.7278,-99.5521 98,-72 154.2619,-39.2083 229.4899,-26.2931 277.105,-21.2304"/>
<polygon fill="#c0c0c0" stroke="#c0c0c0" stroke-width="2" points="277.5157,-24.7069 287.1219,-20.238 276.8255,-17.741 277.5157,-24.7069"/>
</g>
<!-- 39&#45;&gt;0 -->
<g id="edge2" class="edge">
<title>39&#45;&gt;0</title>
<path fill="none" stroke="#c0c0c0" stroke-width="2" d="M800.9791,-863.898C822.1909,-837.9361 857,-787.7525 857,-738 857,-738 857,-738 857,-666 857,-462.4619 1009,-437.5381 1009,-234 1009,-234 1009,-234 1009,-162 1009,-96.4236 522.6716,-39.189 368.9742,-22.7383"/>
<polygon fill="#c0c0c0" stroke="#c0c0c0" stroke-width="2" points="369.2304,-19.2459 358.9165,-21.6693 368.4905,-26.2067 369.2304,-19.2459"/>
</g>
<!-- 40&#45;&gt;0 -->
<g id="edge7" class="edge">
<title>40&#45;&gt;0</title>
<path fill="none" stroke="#c0c0c0" stroke-width="2" d="M180.749,-575.8688C150.8161,-540.5221 90,-458.7684 90,-378 90,-378 90,-378 90,-162 90,-117.2786 100.6066,-100.5848 135,-72 156.639,-54.0156 229.0388,-36.6874 277.4158,-26.7017"/>
<polygon fill="#c0c0c0" stroke="#c0c0c0" stroke-width="2" points="278.244,-30.105 287.3473,-24.6847 276.8508,-23.245 278.244,-30.105"/>
</g>
<!-- 41&#45;&gt;0 -->
<g id="edge4" class="edge">
<title>41&#45;&gt;0</title>
<path fill="none" stroke="#c0c0c0" stroke-width="2" d="M236.2717,-71.8314C251.1088,-62.6221 269.3015,-51.3301 285.1862,-41.4706"/>
<polygon fill="#c0c0c0" stroke="#c0c0c0" stroke-width="2" points="287.087,-44.4102 293.7377,-36.1628 283.3955,-38.4628 287.087,-44.4102"/>
</g>
</g>
</svg>
