<?xml version="1.0" encoding="UTF-8" standalone="no"?>
<!DOCTYPE svg PUBLIC "-//W3C//DTD SVG 1.1//EN"
 "http://www.w3.org/Graphics/SVG/1.1/DTD/svg11.dtd">
<!-- Generated by graphviz version 2.40.1 (0)
 -->
<!-- Title: snakemake_dag Pages: 1 -->
<svg width="1190pt" height="1916pt"
 viewBox="0.00 0.00 1190.00 1916.00" xmlns="http://www.w3.org/2000/svg" xmlns:xlink="http://www.w3.org/1999/xlink">
<g id="graph0" class="graph" transform="scale(1 1) rotate(0) translate(4 1912)">
<title>snakemake_dag</title>
<polygon fill="#ffffff" stroke="transparent" points="-4,4 -4,-1912 1186,-1912 1186,4 -4,4"/>
<!-- 0 -->
<g id="node1" class="node">
<title>0</title>
<path fill="none" stroke="#bed856" stroke-width="2" d="M674.5,-36C674.5,-36 627.5,-36 627.5,-36 621.5,-36 615.5,-30 615.5,-24 615.5,-24 615.5,-12 615.5,-12 615.5,-6 621.5,0 627.5,0 627.5,0 674.5,0 674.5,0 680.5,0 686.5,-6 686.5,-12 686.5,-12 686.5,-24 686.5,-24 686.5,-30 680.5,-36 674.5,-36"/>
<text text-anchor="middle" x="651" y="-15.5" font-family="sans" font-size="10.00" fill="#000000">target_taxon</text>
</g>
<!-- 1 -->
<g id="node2" class="node">
<title>1</title>
<path fill="none" stroke="#d8b456" stroke-width="2" d="M677.5,-108C677.5,-108 624.5,-108 624.5,-108 618.5,-108 612.5,-102 612.5,-96 612.5,-96 612.5,-84 612.5,-84 612.5,-78 618.5,-72 624.5,-72 624.5,-72 677.5,-72 677.5,-72 683.5,-72 689.5,-78 689.5,-84 689.5,-84 689.5,-96 689.5,-96 689.5,-102 683.5,-108 677.5,-108"/>
<text text-anchor="middle" x="651" y="-87.5" font-family="sans" font-size="10.00" fill="#000000">multiqc_taxon</text>
</g>
<!-- 1&#45;&gt;0 -->
<g id="edge3" class="edge">
<title>1&#45;&gt;0</title>
<path fill="none" stroke="#c0c0c0" stroke-width="2" d="M651,-71.8314C651,-64.131 651,-54.9743 651,-46.4166"/>
<polygon fill="#c0c0c0" stroke="#c0c0c0" stroke-width="2" points="654.5001,-46.4132 651,-36.4133 647.5001,-46.4133 654.5001,-46.4132"/>
</g>
<!-- 2 -->
<g id="node3" class="node">
<title>2</title>
<path fill="none" stroke="#5673d8" stroke-width="2" d="M74,-1476C74,-1476 12,-1476 12,-1476 6,-1476 0,-1470 0,-1464 0,-1464 0,-1452 0,-1452 0,-1446 6,-1440 12,-1440 12,-1440 74,-1440 74,-1440 80,-1440 86,-1446 86,-1452 86,-1452 86,-1464 86,-1464 86,-1470 80,-1476 74,-1476"/>
<text text-anchor="middle" x="43" y="-1455.5" font-family="sans" font-size="10.00" fill="#000000">trim_fastqc_raw</text>
</g>
<!-- 2&#45;&gt;1 -->
<g id="edge11" class="edge">
<title>2&#45;&gt;1</title>
<path fill="none" stroke="#c0c0c0" stroke-width="2" d="M49.9985,-1439.6679C59.6853,-1412.6028 76,-1360.1665 76,-1314 76,-1314 76,-1314 76,-666 76,-564.231 152,-551.769 152,-450 152,-450 152,-450 152,-306 152,-222.5331 177.4888,-190.205 247,-144 304.2988,-105.9127 507.6592,-94.53 602.1196,-91.2584"/>
<polygon fill="#c0c0c0" stroke="#c0c0c0" stroke-width="2" points="602.391,-94.7514 612.2702,-90.9237 602.1603,-87.7552 602.391,-94.7514"/>
</g>
<!-- 3 -->
<g id="node4" class="node">
<title>3</title>
<path fill="none" stroke="#5663d8" stroke-width="2" d="M440,-1908C440,-1908 364,-1908 364,-1908 358,-1908 352,-1902 352,-1896 352,-1896 352,-1884 352,-1884 352,-1878 358,-1872 364,-1872 364,-1872 440,-1872 440,-1872 446,-1872 452,-1878 452,-1884 452,-1884 452,-1896 452,-1896 452,-1902 446,-1908 440,-1908"/>
<text text-anchor="middle" x="402" y="-1887.5" font-family="sans" font-size="10.00" fill="#000000">trim_get_fastq_raw</text>
</g>
<!-- 3&#45;&gt;2 -->
<g id="edge22" class="edge">
<title>3&#45;&gt;2</title>
<path fill="none" stroke="#c0c0c0" stroke-width="2" d="M351.904,-1879.8287C256.9102,-1859.0953 60,-1808.5713 60,-1746 60,-1746 60,-1746 60,-1602 60,-1561.5973 53.3181,-1515.2552 48.3326,-1486.3013"/>
<polygon fill="#c0c0c0" stroke="#c0c0c0" stroke-width="2" points="51.7165,-1485.3387 46.5224,-1476.1045 44.8243,-1486.5623 51.7165,-1485.3387"/>
</g>
<!-- 4 -->
<g id="node5" class="node">
<title>4</title>
<path fill="none" stroke="#568ad8" stroke-width="2" d="M879,-1836C879,-1836 755,-1836 755,-1836 749,-1836 743,-1830 743,-1824 743,-1824 743,-1812 743,-1812 743,-1806 749,-1800 755,-1800 755,-1800 879,-1800 879,-1800 885,-1800 891,-1806 891,-1812 891,-1812 891,-1824 891,-1824 891,-1830 885,-1836 879,-1836"/>
<text text-anchor="middle" x="817" y="-1815.5" font-family="sans" font-size="10.00" fill="#000000">trim_adapterremoval_fastq_pe</text>
</g>
<!-- 3&#45;&gt;4 -->
<g id="edge23" class="edge">
<title>3&#45;&gt;4</title>
<path fill="none" stroke="#c0c0c0" stroke-width="2" d="M452.0587,-1881.3151C521.6643,-1869.239 648.6095,-1847.2147 732.8953,-1832.5917"/>
<polygon fill="#c0c0c0" stroke="#c0c0c0" stroke-width="2" points="733.7014,-1836.0042 742.9559,-1830.8462 732.5047,-1829.1072 733.7014,-1836.0042"/>
</g>
<!-- 4&#45;&gt;1 -->
<g id="edge9" class="edge">
<title>4&#45;&gt;1</title>
<path fill="none" stroke="#c0c0c0" stroke-width="2" d="M825.483,-1799.81C837.2246,-1772.9218 857,-1720.7039 857,-1674 857,-1674 857,-1674 857,-1602 857,-1303.7649 817.124,-1231.2453 775,-936 762.4379,-847.9528 746,-826.9389 746,-738 746,-738 746,-738 746,-234 746,-186.0912 708.9087,-141.8312 681.079,-115.3654"/>
<polygon fill="#c0c0c0" stroke="#c0c0c0" stroke-width="2" points="683.2364,-112.5938 673.5137,-108.3843 678.4892,-117.7382 683.2364,-112.5938"/>
</g>
<!-- 5 -->
<g id="node6" class="node">
<title>5</title>
<path fill="none" stroke="#566bd8" stroke-width="2" d="M1141.5,-1404C1141.5,-1404 1078.5,-1404 1078.5,-1404 1072.5,-1404 1066.5,-1398 1066.5,-1392 1066.5,-1392 1066.5,-1380 1066.5,-1380 1066.5,-1374 1072.5,-1368 1078.5,-1368 1078.5,-1368 1141.5,-1368 1141.5,-1368 1147.5,-1368 1153.5,-1374 1153.5,-1380 1153.5,-1380 1153.5,-1392 1153.5,-1392 1153.5,-1398 1147.5,-1404 1141.5,-1404"/>
<text text-anchor="middle" x="1110" y="-1383.5" font-family="sans" font-size="10.00" fill="#000000">trim_fastqc_trim</text>
</g>
<!-- 4&#45;&gt;5 -->
<g id="edge24" class="edge">
<title>4&#45;&gt;5</title>
<path fill="none" stroke="#c0c0c0" stroke-width="2" d="M891.2046,-1802.1292C955.4074,-1783.5266 1038,-1745.6679 1038,-1674 1038,-1674 1038,-1674 1038,-1530 1038,-1484.9118 1066.5883,-1439.4695 1087.7364,-1412.0221"/>
<polygon fill="#c0c0c0" stroke="#c0c0c0" stroke-width="2" points="1090.5468,-1414.1111 1094.0209,-1404.102 1085.0633,-1409.7601 1090.5468,-1414.1111"/>
</g>
<!-- 7 -->
<g id="node8" class="node">
<title>7</title>
<path fill="none" stroke="#d87556" stroke-width="2" d="M801.5,-1764C801.5,-1764 724.5,-1764 724.5,-1764 718.5,-1764 712.5,-1758 712.5,-1752 712.5,-1752 712.5,-1740 712.5,-1740 712.5,-1734 718.5,-1728 724.5,-1728 724.5,-1728 801.5,-1728 801.5,-1728 807.5,-1728 813.5,-1734 813.5,-1740 813.5,-1740 813.5,-1752 813.5,-1752 813.5,-1758 807.5,-1764 801.5,-1764"/>
<text text-anchor="middle" x="763" y="-1743.5" font-family="sans" font-size="10.00" fill="#000000">derep_merge_lanes</text>
</g>
<!-- 4&#45;&gt;7 -->
<g id="edge28" class="edge">
<title>4&#45;&gt;7</title>
<path fill="none" stroke="#c0c0c0" stroke-width="2" d="M803.3735,-1799.8314C797.154,-1791.5386 789.6678,-1781.557 782.84,-1772.4533"/>
<polygon fill="#c0c0c0" stroke="#c0c0c0" stroke-width="2" points="785.61,-1770.3133 776.81,-1764.4133 780.01,-1774.5133 785.61,-1770.3133"/>
</g>
<!-- 5&#45;&gt;1 -->
<g id="edge21" class="edge">
<title>5&#45;&gt;1</title>
<path fill="none" stroke="#c0c0c0" stroke-width="2" d="M1125.9791,-1367.898C1147.1909,-1341.9361 1182,-1291.7525 1182,-1242 1182,-1242 1182,-1242 1182,-594 1182,-492.231 1106,-479.769 1106,-378 1106,-378 1106,-378 1106,-234 1106,-175.8389 1063.2787,-169.4882 1011,-144 957.0807,-117.7119 785.174,-100.7178 699.9114,-93.6891"/>
<polygon fill="#c0c0c0" stroke="#c0c0c0" stroke-width="2" points="699.96,-90.1816 689.7097,-92.8617 699.394,-97.1587 699.96,-90.1816"/>
</g>
<!-- 6 -->
<g id="node7" class="node">
<title>6</title>
<path fill="none" stroke="#d86656" stroke-width="2" d="M816.5,-1548C816.5,-1548 767.5,-1548 767.5,-1548 761.5,-1548 755.5,-1542 755.5,-1536 755.5,-1536 755.5,-1524 755.5,-1524 755.5,-1518 761.5,-1512 767.5,-1512 767.5,-1512 816.5,-1512 816.5,-1512 822.5,-1512 828.5,-1518 828.5,-1524 828.5,-1524 828.5,-1536 828.5,-1536 828.5,-1542 822.5,-1548 816.5,-1548"/>
<text text-anchor="middle" x="792" y="-1527.5" font-family="sans" font-size="10.00" fill="#000000">derep_fastqc</text>
</g>
<!-- 6&#45;&gt;1 -->
<g id="edge19" class="edge">
<title>6&#45;&gt;1</title>
<path fill="none" stroke="#c0c0c0" stroke-width="2" d="M789.0992,-1511.8696C784.9985,-1484.6233 778,-1431.4634 778,-1386 778,-1386 778,-1386 778,-1170 778,-1033.1133 770.8945,-998.0145 743,-864 739.5907,-847.6208 736.5877,-844.0889 732,-828 702.4973,-724.5355 670,-701.5886 670,-594 670,-594 670,-594 670,-234 670,-193.5282 662.532,-147.2037 656.96,-118.2725"/>
<polygon fill="#c0c0c0" stroke="#c0c0c0" stroke-width="2" points="660.3177,-117.2111 654.9368,-108.0844 653.4517,-118.5746 660.3177,-117.2111"/>
</g>
<!-- 7&#45;&gt;6 -->
<g id="edge25" class="edge">
<title>7&#45;&gt;6</title>
<path fill="none" stroke="#c0c0c0" stroke-width="2" d="M776.3562,-1727.5137C782.7508,-1717.5235 789.718,-1704.6657 793,-1692 804.7896,-1646.5023 800.7613,-1591.3739 796.5423,-1558.5752"/>
<polygon fill="#c0c0c0" stroke="#c0c0c0" stroke-width="2" points="799.9656,-1557.7796 795.1268,-1548.3543 793.0318,-1558.7399 799.9656,-1557.7796"/>
</g>
<!-- 9 -->
<g id="node10" class="node">
<title>9</title>
<path fill="none" stroke="#d88556" stroke-width="2" d="M433.5,-1692C433.5,-1692 348.5,-1692 348.5,-1692 342.5,-1692 336.5,-1686 336.5,-1680 336.5,-1680 336.5,-1668 336.5,-1668 336.5,-1662 342.5,-1656 348.5,-1656 348.5,-1656 433.5,-1656 433.5,-1656 439.5,-1656 445.5,-1662 445.5,-1668 445.5,-1668 445.5,-1680 445.5,-1680 445.5,-1686 439.5,-1692 433.5,-1692"/>
<text text-anchor="middle" x="391" y="-1671.5" font-family="sans" font-size="10.00" fill="#000000">derep_nonpareil_infer</text>
</g>
<!-- 7&#45;&gt;9 -->
<g id="edge30" class="edge">
<title>7&#45;&gt;9</title>
<path fill="none" stroke="#c0c0c0" stroke-width="2" d="M712.4433,-1736.2148C645.8475,-1723.3253 528.6567,-1700.6432 455.6747,-1686.5177"/>
<polygon fill="#c0c0c0" stroke="#c0c0c0" stroke-width="2" points="456.1628,-1683.0473 445.6799,-1684.5832 454.8325,-1689.9197 456.1628,-1683.0473"/>
</g>
<!-- 10 -->
<g id="node11" class="node">
<title>10</title>
<path fill="none" stroke="#d89556" stroke-width="2" d="M772,-1692C772,-1692 724,-1692 724,-1692 718,-1692 712,-1686 712,-1680 712,-1680 712,-1668 712,-1668 712,-1662 718,-1656 724,-1656 724,-1656 772,-1656 772,-1656 778,-1656 784,-1662 784,-1668 784,-1668 784,-1680 784,-1680 784,-1686 778,-1692 772,-1692"/>
<text text-anchor="middle" x="748" y="-1671.5" font-family="sans" font-size="10.00" fill="#000000">derep_seqkit</text>
</g>
<!-- 7&#45;&gt;10 -->
<g id="edge31" class="edge">
<title>7&#45;&gt;10</title>
<path fill="none" stroke="#c0c0c0" stroke-width="2" d="M759.2149,-1727.8314C757.6106,-1720.131 755.703,-1710.9743 753.9201,-1702.4166"/>
<polygon fill="#c0c0c0" stroke="#c0c0c0" stroke-width="2" points="757.3021,-1701.4892 751.8361,-1692.4133 750.4493,-1702.9169 757.3021,-1701.4892"/>
</g>
<!-- 8 -->
<g id="node9" class="node">
<title>8</title>
<path fill="none" stroke="#d88d56" stroke-width="2" d="M204,-1260C204,-1260 122,-1260 122,-1260 116,-1260 110,-1254 110,-1248 110,-1248 110,-1236 110,-1236 110,-1230 116,-1224 122,-1224 122,-1224 204,-1224 204,-1224 210,-1224 216,-1230 216,-1236 216,-1236 216,-1248 216,-1248 216,-1254 210,-1260 204,-1260"/>
<text text-anchor="middle" x="163" y="-1239.5" font-family="sans" font-size="10.00" fill="#000000">derep_nonpareil_plot</text>
</g>
<!-- 8&#45;&gt;1 -->
<g id="edge15" class="edge">
<title>8&#45;&gt;1</title>
<path fill="none" stroke="#c0c0c0" stroke-width="2" d="M185.5802,-1223.7113C211.3806,-1203.6112 255.5385,-1171.5823 298,-1152 351.2758,-1127.4304 382.2472,-1156.1768 425,-1116 462.0806,-1081.1537 444.7628,-1055.5041 463,-1008 496.3998,-921.0006 532,-903.1904 532,-810 532,-810 532,-810 532,-234 532,-192.6022 530.708,-176.7733 556,-144 568.0288,-128.4131 585.9176,-116.5892 602.9383,-108.0391"/>
<polygon fill="#c0c0c0" stroke="#c0c0c0" stroke-width="2" points="604.723,-111.0665 612.2622,-103.6226 601.7264,-104.7403 604.723,-111.0665"/>
</g>
<!-- 9&#45;&gt;8 -->
<g id="edge29" class="edge">
<title>9&#45;&gt;8</title>
<path fill="none" stroke="#c0c0c0" stroke-width="2" d="M336.2737,-1669.746C255.5474,-1660.1516 114,-1629.1866 114,-1530 114,-1530 114,-1530 114,-1386 114,-1345.1184 118.6912,-1334.2958 133,-1296 136.4182,-1286.8516 141.2005,-1277.3789 145.944,-1268.9702"/>
<polygon fill="#c0c0c0" stroke="#c0c0c0" stroke-width="2" points="148.9717,-1270.7261 151.0096,-1260.3291 142.9329,-1267.186 148.9717,-1270.7261"/>
</g>
<!-- 10&#45;&gt;6 -->
<g id="edge26" class="edge">
<title>10&#45;&gt;6</title>
<path fill="none" stroke="#c0c0c0" stroke-width="2" d="M753.5726,-1655.7623C761.1105,-1631.0928 774.6262,-1586.8598 783.4527,-1557.9731"/>
<polygon fill="#c0c0c0" stroke="#c0c0c0" stroke-width="2" points="786.8976,-1558.6759 786.4726,-1548.0896 780.2031,-1556.6303 786.8976,-1558.6759"/>
</g>
<!-- 11 -->
<g id="node12" class="node">
<title>11</title>
<path fill="none" stroke="#d86e56" stroke-width="2" d="M733.5,-1620C733.5,-1620 644.5,-1620 644.5,-1620 638.5,-1620 632.5,-1614 632.5,-1608 632.5,-1608 632.5,-1596 632.5,-1596 632.5,-1590 638.5,-1584 644.5,-1584 644.5,-1584 733.5,-1584 733.5,-1584 739.5,-1584 745.5,-1590 745.5,-1596 745.5,-1596 745.5,-1608 745.5,-1608 745.5,-1614 739.5,-1620 733.5,-1620"/>
<text text-anchor="middle" x="689" y="-1599.5" font-family="sans" font-size="10.00" fill="#000000">derep_low_complexity</text>
</g>
<!-- 10&#45;&gt;11 -->
<g id="edge32" class="edge">
<title>10&#45;&gt;11</title>
<path fill="none" stroke="#c0c0c0" stroke-width="2" d="M733.1118,-1655.8314C726.247,-1647.454 717.9699,-1637.3531 710.4489,-1628.1749"/>
<polygon fill="#c0c0c0" stroke="#c0c0c0" stroke-width="2" points="713.1341,-1625.9297 704.0886,-1620.4133 707.7197,-1630.3665 713.1341,-1625.9297"/>
</g>
<!-- 11&#45;&gt;6 -->
<g id="edge27" class="edge">
<title>11&#45;&gt;6</title>
<path fill="none" stroke="#c0c0c0" stroke-width="2" d="M714.9912,-1583.8314C727.9216,-1574.7927 743.7222,-1563.7476 757.6383,-1554.0198"/>
<polygon fill="#c0c0c0" stroke="#c0c0c0" stroke-width="2" points="759.8263,-1556.7608 766.0171,-1548.1628 755.8157,-1551.0235 759.8263,-1556.7608"/>
</g>
<!-- 13 -->
<g id="node14" class="node">
<title>13</title>
<path fill="none" stroke="#d8d356" stroke-width="2" d="M721.5,-900C721.5,-900 632.5,-900 632.5,-900 626.5,-900 620.5,-894 620.5,-888 620.5,-888 620.5,-876 620.5,-876 620.5,-870 626.5,-864 632.5,-864 632.5,-864 721.5,-864 721.5,-864 727.5,-864 733.5,-870 733.5,-876 733.5,-876 733.5,-888 733.5,-888 733.5,-894 727.5,-900 721.5,-900"/>
<text text-anchor="middle" x="677" y="-879.5" font-family="sans" font-size="10.00" fill="#000000">prefilter_reads_extract</text>
</g>
<!-- 11&#45;&gt;13 -->
<g id="edge35" class="edge">
<title>11&#45;&gt;13</title>
<path fill="none" stroke="#c0c0c0" stroke-width="2" d="M690.835,-1583.8166C694.4185,-1546.6844 702,-1459.4452 702,-1386 702,-1386 702,-1386 702,-1026 702,-985.0964 692.087,-938.6076 684.7454,-909.7868"/>
<polygon fill="#c0c0c0" stroke="#c0c0c0" stroke-width="2" points="688.1037,-908.7952 682.18,-900.0111 681.333,-910.572 688.1037,-908.7952"/>
</g>
<!-- 20 -->
<g id="node21" class="node">
<title>20</title>
<path fill="none" stroke="#56d8a9" stroke-width="2" d="M627,-1548C627,-1548 505,-1548 505,-1548 499,-1548 493,-1542 493,-1536 493,-1536 493,-1524 493,-1524 493,-1518 499,-1512 505,-1512 505,-1512 627,-1512 627,-1512 633,-1512 639,-1518 639,-1524 639,-1524 639,-1536 639,-1536 639,-1542 633,-1548 627,-1548"/>
<text text-anchor="middle" x="566" y="-1527.5" font-family="sans" font-size="10.00" fill="#000000">taxon_prefilter_shard_bowtie2</text>
</g>
<!-- 11&#45;&gt;20 -->
<g id="edge44" class="edge">
<title>11&#45;&gt;20</title>
<path fill="none" stroke="#c0c0c0" stroke-width="2" d="M657.9619,-1583.8314C642.2295,-1574.6221 622.9389,-1563.3301 606.0956,-1553.4706"/>
<polygon fill="#c0c0c0" stroke="#c0c0c0" stroke-width="2" points="607.4265,-1550.1941 597.0282,-1548.1628 603.8902,-1556.2352 607.4265,-1550.1941"/>
</g>
<!-- 38 -->
<g id="node39" class="node">
<title>38</title>
<path fill="none" stroke="#56d8c9" stroke-width="2" d="M348,-1332C348,-1332 154,-1332 154,-1332 148,-1332 142,-1326 142,-1320 142,-1320 142,-1308 142,-1308 142,-1302 148,-1296 154,-1296 154,-1296 348,-1296 348,-1296 354,-1296 360,-1302 360,-1308 360,-1308 360,-1320 360,-1320 360,-1326 354,-1332 348,-1332"/>
<text text-anchor="middle" x="251" y="-1311.5" font-family="sans" font-size="10.00" fill="#000000">taxon_prefilter_shard_saturated_reads_extract</text>
</g>
<!-- 11&#45;&gt;38 -->
<g id="edge66" class="edge">
<title>11&#45;&gt;38</title>
<path fill="none" stroke="#c0c0c0" stroke-width="2" d="M632.4367,-1595.2974C589.4589,-1588.3261 530.085,-1574.5429 484,-1548 388.6293,-1493.0708 305.2685,-1388.9352 269.5365,-1340.2819"/>
<polygon fill="#c0c0c0" stroke="#c0c0c0" stroke-width="2" points="272.3319,-1338.1748 263.6231,-1332.141 266.6683,-1342.2887 272.3319,-1338.1748"/>
</g>
<!-- 40 -->
<g id="node41" class="node">
<title>40</title>
<path fill="none" stroke="#56b1d8" stroke-width="2" d="M1142,-612C1142,-612 986,-612 986,-612 980,-612 974,-606 974,-600 974,-600 974,-588 974,-588 974,-582 980,-576 986,-576 986,-576 1142,-576 1142,-576 1148,-576 1154,-582 1154,-588 1154,-588 1154,-600 1154,-600 1154,-606 1148,-612 1142,-612"/>
<text text-anchor="middle" x="1064" y="-591.5" font-family="sans" font-size="10.00" fill="#000000">taxon_shard_saturated_reads_extract</text>
</g>
<!-- 11&#45;&gt;40 -->
<g id="edge69" class="edge">
<title>11&#45;&gt;40</title>
<path fill="none" stroke="#c0c0c0" stroke-width="2" d="M697.0647,-1583.7986C701.3926,-1573.4631 706.5339,-1560.1911 710,-1548 730.0248,-1477.5672 740,-1459.2242 740,-1386 740,-1386 740,-1386 740,-1170 740,-954.362 888.4655,-944.6062 993,-756 1010.3436,-724.7078 1014.5008,-716.7074 1029,-684 1038.1298,-663.405 1047.3184,-639.6337 1053.9886,-621.695"/>
<polygon fill="#c0c0c0" stroke="#c0c0c0" stroke-width="2" points="1057.3391,-622.7246 1057.5119,-612.1312 1050.7707,-620.3047 1057.3391,-622.7246"/>
</g>
<!-- 12 -->
<g id="node13" class="node">
<title>12</title>
<path fill="none" stroke="#d8d356" stroke-width="2" d="M667.5,-756C667.5,-756 610.5,-756 610.5,-756 604.5,-756 598.5,-750 598.5,-744 598.5,-744 598.5,-732 598.5,-732 598.5,-726 604.5,-720 610.5,-720 610.5,-720 667.5,-720 667.5,-720 673.5,-720 679.5,-726 679.5,-732 679.5,-732 679.5,-744 679.5,-744 679.5,-750 673.5,-756 667.5,-756"/>
<text text-anchor="middle" x="639" y="-735.5" font-family="sans" font-size="10.00" fill="#000000">prefilter_fastqc</text>
</g>
<!-- 12&#45;&gt;1 -->
<g id="edge14" class="edge">
<title>12&#45;&gt;1</title>
<path fill="none" stroke="#c0c0c0" stroke-width="2" d="M637.5496,-719.8284C635.4993,-692.5296 632,-639.3034 632,-594 632,-594 632,-594 632,-234 632,-193.5282 639.468,-147.2037 645.04,-118.2725"/>
<polygon fill="#c0c0c0" stroke="#c0c0c0" stroke-width="2" points="648.5483,-118.5746 647.0632,-108.0844 641.6823,-117.2111 648.5483,-118.5746"/>
</g>
<!-- 13&#45;&gt;12 -->
<g id="edge33" class="edge">
<title>13&#45;&gt;12</title>
<path fill="none" stroke="#c0c0c0" stroke-width="2" d="M672.1873,-863.7623C665.6773,-839.0928 654.0047,-794.8598 646.3818,-765.9731"/>
<polygon fill="#c0c0c0" stroke="#c0c0c0" stroke-width="2" points="649.7094,-764.8656 643.7736,-756.0896 642.9411,-766.6517 649.7094,-764.8656"/>
</g>
<!-- 27 -->
<g id="node28" class="node">
<title>27</title>
<path fill="none" stroke="#56c9d8" stroke-width="2" d="M871.5,-828C871.5,-828 786.5,-828 786.5,-828 780.5,-828 774.5,-822 774.5,-816 774.5,-816 774.5,-804 774.5,-804 774.5,-798 780.5,-792 786.5,-792 786.5,-792 871.5,-792 871.5,-792 877.5,-792 883.5,-798 883.5,-804 883.5,-804 883.5,-816 883.5,-816 883.5,-822 877.5,-828 871.5,-828"/>
<text text-anchor="middle" x="829" y="-807.5" font-family="sans" font-size="10.00" fill="#000000">taxon_shard_bowtie2</text>
</g>
<!-- 13&#45;&gt;27 -->
<g id="edge52" class="edge">
<title>13&#45;&gt;27</title>
<path fill="none" stroke="#c0c0c0" stroke-width="2" d="M715.356,-863.8314C735.5044,-854.2874 760.3752,-842.5065 781.7083,-832.4013"/>
<polygon fill="#c0c0c0" stroke="#c0c0c0" stroke-width="2" points="783.3807,-835.482 790.9198,-828.038 780.3841,-829.1558 783.3807,-835.482"/>
</g>
<!-- 14 -->
<g id="node15" class="node">
<title>14</title>
<path fill="none" stroke="#d6d856" stroke-width="2" d="M624,-972C624,-972 538,-972 538,-972 532,-972 526,-966 526,-960 526,-960 526,-948 526,-948 526,-942 532,-936 538,-936 538,-936 624,-936 624,-936 630,-936 636,-942 636,-948 636,-948 636,-960 636,-960 636,-966 630,-972 624,-972"/>
<text text-anchor="middle" x="581" y="-951.5" font-family="sans" font-size="10.00" fill="#000000">prefilter_reads_merge</text>
</g>
<!-- 14&#45;&gt;13 -->
<g id="edge34" class="edge">
<title>14&#45;&gt;13</title>
<path fill="none" stroke="#c0c0c0" stroke-width="2" d="M605.2249,-935.8314C617.1628,-926.8779 631.7256,-915.9558 644.606,-906.2955"/>
<polygon fill="#c0c0c0" stroke="#c0c0c0" stroke-width="2" points="646.8829,-908.9629 652.7829,-900.1628 642.6829,-903.3629 646.8829,-908.9629"/>
</g>
<!-- 15 -->
<g id="node16" class="node">
<title>15</title>
<path fill="none" stroke="#ced856" stroke-width="2" d="M586,-1044C586,-1044 484,-1044 484,-1044 478,-1044 472,-1038 472,-1032 472,-1032 472,-1020 472,-1020 472,-1014 478,-1008 484,-1008 484,-1008 586,-1008 586,-1008 592,-1008 598,-1014 598,-1020 598,-1020 598,-1032 598,-1032 598,-1038 592,-1044 586,-1044"/>
<text text-anchor="middle" x="535" y="-1023.5" font-family="sans" font-size="10.00" fill="#000000">prefilter_reads_taxonomy</text>
</g>
<!-- 15&#45;&gt;14 -->
<g id="edge36" class="edge">
<title>15&#45;&gt;14</title>
<path fill="none" stroke="#c0c0c0" stroke-width="2" d="M546.6077,-1007.8314C551.7978,-999.7079 558.0232,-989.9637 563.7425,-981.0118"/>
<polygon fill="#c0c0c0" stroke="#c0c0c0" stroke-width="2" points="566.8015,-982.7246 569.236,-972.4133 560.9026,-978.9559 566.8015,-982.7246"/>
</g>
<!-- 16 -->
<g id="node17" class="node">
<title>16</title>
<path fill="none" stroke="#56d863" stroke-width="2" d="M404,-1116C404,-1116 292,-1116 292,-1116 286,-1116 280,-1110 280,-1104 280,-1104 280,-1092 280,-1092 280,-1086 286,-1080 292,-1080 292,-1080 404,-1080 404,-1080 410,-1080 416,-1086 416,-1092 416,-1092 416,-1104 416,-1104 416,-1110 410,-1116 404,-1116"/>
<text text-anchor="middle" x="348" y="-1095.5" font-family="sans" font-size="10.00" fill="#000000">taxon_prefilter_align_merge</text>
</g>
<!-- 16&#45;&gt;15 -->
<g id="edge38" class="edge">
<title>16&#45;&gt;15</title>
<path fill="none" stroke="#c0c0c0" stroke-width="2" d="M395.188,-1079.8314C420.5316,-1070.0734 451.9485,-1057.977 478.5774,-1047.7242"/>
<polygon fill="#c0c0c0" stroke="#c0c0c0" stroke-width="2" points="480.0768,-1050.8974 488.1513,-1044.038 477.5615,-1044.3649 480.0768,-1050.8974"/>
</g>
<!-- 23 -->
<g id="node24" class="node">
<title>23</title>
<path fill="none" stroke="#56d87b" stroke-width="2" d="M457.5,-972C457.5,-972 350.5,-972 350.5,-972 344.5,-972 338.5,-966 338.5,-960 338.5,-960 338.5,-948 338.5,-948 338.5,-942 344.5,-936 350.5,-936 350.5,-936 457.5,-936 457.5,-936 463.5,-936 469.5,-942 469.5,-948 469.5,-948 469.5,-960 469.5,-960 469.5,-966 463.5,-972 457.5,-972"/>
<text text-anchor="middle" x="404" y="-951.5" font-family="sans" font-size="10.00" fill="#000000">taxon_prefilter_align_stats</text>
</g>
<!-- 16&#45;&gt;23 -->
<g id="edge47" class="edge">
<title>16&#45;&gt;23</title>
<path fill="none" stroke="#c0c0c0" stroke-width="2" d="M355.0924,-1079.7623C364.7282,-1054.9846 382.0389,-1010.4714 393.269,-981.5939"/>
<polygon fill="#c0c0c0" stroke="#c0c0c0" stroke-width="2" points="396.6026,-982.6783 396.9651,-972.0896 390.0786,-980.1411 396.6026,-982.6783"/>
</g>
<!-- 25 -->
<g id="node26" class="node">
<title>25</title>
<path fill="none" stroke="#56d89a" stroke-width="2" d="M393,-324C393,-324 275,-324 275,-324 269,-324 263,-318 263,-312 263,-312 263,-300 263,-300 263,-294 269,-288 275,-288 275,-288 393,-288 393,-288 399,-288 405,-294 405,-300 405,-300 405,-312 405,-312 405,-318 399,-324 393,-324"/>
<text text-anchor="middle" x="334" y="-303.5" font-family="sans" font-size="10.00" fill="#000000">taxon_prefilter_metadmg_lca</text>
</g>
<!-- 16&#45;&gt;25 -->
<g id="edge49" class="edge">
<title>16&#45;&gt;25</title>
<path fill="none" stroke="#c0c0c0" stroke-width="2" d="M344.3666,-1079.7345C339.7103,-1055.31 331.8944,-1010.6057 329,-972 327.8038,-956.0448 328.6827,-951.9969 329,-936 330.1113,-879.9669 334,-866.0441 334,-810 334,-810 334,-810 334,-450 334,-409.876 334,-363.4631 334,-334.4177"/>
<polygon fill="#c0c0c0" stroke="#c0c0c0" stroke-width="2" points="337.5001,-334.1853 334,-324.1854 330.5001,-334.1854 337.5001,-334.1853"/>
</g>
<!-- 39 -->
<g id="node40" class="node">
<title>39</title>
<path fill="none" stroke="#56d892" stroke-width="2" d="M294,-900C294,-900 154,-900 154,-900 148,-900 142,-894 142,-888 142,-888 142,-876 142,-876 142,-870 148,-864 154,-864 154,-864 294,-864 294,-864 300,-864 306,-870 306,-876 306,-876 306,-888 306,-888 306,-894 300,-900 294,-900"/>
<text text-anchor="middle" x="224" y="-879.5" font-family="sans" font-size="10.00" fill="#000000">taxon_prefilter_metadmg_damage</text>
</g>
<!-- 16&#45;&gt;39 -->
<g id="edge67" class="edge">
<title>16&#45;&gt;39</title>
<path fill="none" stroke="#c0c0c0" stroke-width="2" d="M327.4603,-1079.9306C317.0908,-1070.0544 304.8655,-1057.1729 296,-1044 266.7223,-1000.4971 244.5241,-943.1448 232.9501,-909.646"/>
<polygon fill="#c0c0c0" stroke="#c0c0c0" stroke-width="2" points="236.2256,-908.4065 229.7031,-900.0574 229.5954,-910.6517 236.2256,-908.4065"/>
</g>
<!-- 17 -->
<g id="node18" class="node">
<title>17</title>
<path fill="none" stroke="#56d8d8" stroke-width="2" d="M453,-1188C453,-1188 319,-1188 319,-1188 313,-1188 307,-1182 307,-1176 307,-1176 307,-1164 307,-1164 307,-1158 313,-1152 319,-1152 319,-1152 453,-1152 453,-1152 459,-1152 465,-1158 465,-1164 465,-1164 465,-1176 465,-1176 465,-1182 459,-1188 453,-1188"/>
<text text-anchor="middle" x="386" y="-1167.5" font-family="sans" font-size="10.00" fill="#000000">taxon_prefilter_shard_sort_query</text>
</g>
<!-- 17&#45;&gt;16 -->
<g id="edge39" class="edge">
<title>17&#45;&gt;16</title>
<path fill="none" stroke="#c0c0c0" stroke-width="2" d="M376.411,-1151.8314C372.1683,-1143.7925 367.0879,-1134.1666 362.404,-1125.2918"/>
<polygon fill="#c0c0c0" stroke="#c0c0c0" stroke-width="2" points="365.4811,-1123.6235 357.7181,-1116.4133 359.2904,-1126.8908 365.4811,-1123.6235"/>
</g>
<!-- 18 -->
<g id="node19" class="node">
<title>18</title>
<path fill="none" stroke="#56d0d8" stroke-width="2" d="M478,-1260C478,-1260 358,-1260 358,-1260 352,-1260 346,-1254 346,-1248 346,-1248 346,-1236 346,-1236 346,-1230 352,-1224 358,-1224 358,-1224 478,-1224 478,-1224 484,-1224 490,-1230 490,-1236 490,-1236 490,-1248 490,-1248 490,-1254 484,-1260 478,-1260"/>
<text text-anchor="middle" x="418" y="-1239.5" font-family="sans" font-size="10.00" fill="#000000">taxon_prefilter_shard_unicorn</text>
</g>
<!-- 18&#45;&gt;17 -->
<g id="edge40" class="edge">
<title>18&#45;&gt;17</title>
<path fill="none" stroke="#c0c0c0" stroke-width="2" d="M409.925,-1223.8314C406.3898,-1215.8771 402.164,-1206.369 398.2544,-1197.5723"/>
<polygon fill="#c0c0c0" stroke="#c0c0c0" stroke-width="2" points="401.4435,-1196.1299 394.1837,-1188.4133 395.0468,-1198.9729 401.4435,-1196.1299"/>
</g>
<!-- 19 -->
<g id="node20" class="node">
<title>19</title>
<path fill="none" stroke="#56d8d0" stroke-width="2" d="M586,-1332C586,-1332 390,-1332 390,-1332 384,-1332 378,-1326 378,-1320 378,-1320 378,-1308 378,-1308 378,-1302 384,-1296 390,-1296 390,-1296 586,-1296 586,-1296 592,-1296 598,-1302 598,-1308 598,-1308 598,-1320 598,-1320 598,-1326 592,-1332 586,-1332"/>
<text text-anchor="middle" x="488" y="-1311.5" font-family="sans" font-size="10.00" fill="#000000">taxon_prefilter_shard_saturated_reads_remove</text>
</g>
<!-- 19&#45;&gt;18 -->
<g id="edge41" class="edge">
<title>19&#45;&gt;18</title>
<path fill="none" stroke="#c0c0c0" stroke-width="2" d="M470.336,-1295.8314C462.0268,-1287.2848 451.9736,-1276.9443 442.9082,-1267.6198"/>
<polygon fill="#c0c0c0" stroke="#c0c0c0" stroke-width="2" points="445.3821,-1265.1435 435.9018,-1260.4133 440.3631,-1270.023 445.3821,-1265.1435"/>
</g>
<!-- 20&#45;&gt;1 -->
<g id="edge13" class="edge">
<title>20&#45;&gt;1</title>
<path fill="none" stroke="#c0c0c0" stroke-width="2" d="M596.1143,-1511.8266C609.3266,-1502.5424 624.0585,-1490.2028 634,-1476 658.1785,-1441.4576 664,-1428.1637 664,-1386 664,-1386 664,-1386 664,-1026 664,-985.1184 663.9669,-972.2155 645,-936 634.7895,-916.5041 620.8717,-919.6697 611,-900 563.64,-805.6333 570,-771.5843 570,-666 570,-666 570,-666 570,-234 570,-187.7913 602.0762,-142.7153 625.8584,-115.6452"/>
<polygon fill="#c0c0c0" stroke="#c0c0c0" stroke-width="2" points="628.5065,-117.9351 632.6198,-108.1713 623.3155,-113.2389 628.5065,-117.9351"/>
</g>
<!-- 20&#45;&gt;19 -->
<g id="edge43" class="edge">
<title>20&#45;&gt;19</title>
<path fill="none" stroke="#c0c0c0" stroke-width="2" d="M511.945,-1511.9501C492.494,-1503.4123 471.5395,-1491.5998 456,-1476 430.8895,-1450.7921 428.9812,-1438.6739 421,-1404 417.411,-1388.4077 414.0952,-1382.4334 421,-1368 426.596,-1356.3025 436.0993,-1346.3295 446.2172,-1338.2563"/>
<polygon fill="#c0c0c0" stroke="#c0c0c0" stroke-width="2" points="448.4496,-1340.9583 454.4003,-1332.1924 444.282,-1335.3341 448.4496,-1340.9583"/>
</g>
<!-- 22 -->
<g id="node23" class="node">
<title>22</title>
<path fill="none" stroke="#56d8c1" stroke-width="2" d="M613,-1476C613,-1476 477,-1476 477,-1476 471,-1476 465,-1470 465,-1464 465,-1464 465,-1452 465,-1452 465,-1446 471,-1440 477,-1440 477,-1440 613,-1440 613,-1440 619,-1440 625,-1446 625,-1452 625,-1452 625,-1464 625,-1464 625,-1470 619,-1476 613,-1476"/>
<text text-anchor="middle" x="545" y="-1455.5" font-family="sans" font-size="10.00" fill="#000000">taxon_prefilter_shard_count_alns</text>
</g>
<!-- 20&#45;&gt;22 -->
<g id="edge46" class="edge">
<title>20&#45;&gt;22</title>
<path fill="none" stroke="#c0c0c0" stroke-width="2" d="M560.7008,-1511.8314C558.4302,-1504.0463 555.7254,-1494.7729 553.206,-1486.1347"/>
<polygon fill="#c0c0c0" stroke="#c0c0c0" stroke-width="2" points="556.5306,-1485.0332 550.3705,-1476.4133 549.8106,-1486.9933 556.5306,-1485.0332"/>
</g>
<!-- 21 -->
<g id="node22" class="node">
<title>21</title>
<path fill="none" stroke="#56d8c9" stroke-width="2" d="M624,-1404C624,-1404 442,-1404 442,-1404 436,-1404 430,-1398 430,-1392 430,-1392 430,-1380 430,-1380 430,-1374 436,-1368 442,-1368 442,-1368 624,-1368 624,-1368 630,-1368 636,-1374 636,-1380 636,-1380 636,-1392 636,-1392 636,-1398 630,-1404 624,-1404"/>
<text text-anchor="middle" x="533" y="-1383.5" font-family="sans" font-size="10.00" fill="#000000">taxon_prefilter_shard_saturated_reads_filter</text>
</g>
<!-- 21&#45;&gt;14 -->
<g id="edge37" class="edge">
<title>21&#45;&gt;14</title>
<path fill="none" stroke="#c0c0c0" stroke-width="2" d="M568.0987,-1367.9183C582.225,-1358.943 597.4108,-1346.8222 607,-1332 629.2063,-1297.6752 626,-1282.8816 626,-1242 626,-1242 626,-1242 626,-1098 626,-1057.1184 620.1851,-1046.697 607,-1008 603.9278,-998.9835 599.728,-989.5101 595.5999,-981.0596"/>
<polygon fill="#c0c0c0" stroke="#c0c0c0" stroke-width="2" points="598.6705,-979.3758 591.0335,-972.0323 592.4242,-982.5354 598.6705,-979.3758"/>
</g>
<!-- 21&#45;&gt;19 -->
<g id="edge42" class="edge">
<title>21&#45;&gt;19</title>
<path fill="none" stroke="#c0c0c0" stroke-width="2" d="M521.6446,-1367.8314C516.5674,-1359.7079 510.4773,-1349.9637 504.8824,-1341.0118"/>
<polygon fill="#c0c0c0" stroke="#c0c0c0" stroke-width="2" points="507.7763,-1339.0383 499.5083,-1332.4133 501.8403,-1342.7483 507.7763,-1339.0383"/>
</g>
<!-- 21&#45;&gt;38 -->
<g id="edge65" class="edge">
<title>21&#45;&gt;38</title>
<path fill="none" stroke="#c0c0c0" stroke-width="2" d="M462.2035,-1367.9243C422.4792,-1357.7819 372.7737,-1345.0912 331.5636,-1334.5694"/>
<polygon fill="#c0c0c0" stroke="#c0c0c0" stroke-width="2" points="332.3807,-1331.1658 321.8256,-1332.0831 330.649,-1337.9483 332.3807,-1331.1658"/>
</g>
<!-- 22&#45;&gt;21 -->
<g id="edge45" class="edge">
<title>22&#45;&gt;21</title>
<path fill="none" stroke="#c0c0c0" stroke-width="2" d="M541.9719,-1439.8314C540.6885,-1432.131 539.1624,-1422.9743 537.7361,-1414.4166"/>
<polygon fill="#c0c0c0" stroke="#c0c0c0" stroke-width="2" points="541.1653,-1413.7018 536.0689,-1404.4133 534.2606,-1414.8526 541.1653,-1413.7018"/>
</g>
<!-- 23&#45;&gt;1 -->
<g id="edge8" class="edge">
<title>23&#45;&gt;1</title>
<path fill="none" stroke="#c0c0c0" stroke-width="2" d="M424.874,-935.8028C451.4609,-910.4918 494,-861.8869 494,-810 494,-810 494,-810 494,-234 494,-192.6022 490.6141,-175.0449 518,-144 539.6784,-119.4252 574.1774,-105.8489 602.6066,-98.4561"/>
<polygon fill="#c0c0c0" stroke="#c0c0c0" stroke-width="2" points="603.4821,-101.8453 612.3782,-96.0911 601.8355,-95.0417 603.4821,-101.8453"/>
</g>
<!-- 24 -->
<g id="node25" class="node">
<title>24</title>
<path fill="none" stroke="#56d89a" stroke-width="2" d="M453.5,-252C453.5,-252 334.5,-252 334.5,-252 328.5,-252 322.5,-246 322.5,-240 322.5,-240 322.5,-228 322.5,-228 322.5,-222 328.5,-216 334.5,-216 334.5,-216 453.5,-216 453.5,-216 459.5,-216 465.5,-222 465.5,-228 465.5,-228 465.5,-240 465.5,-240 465.5,-246 459.5,-252 453.5,-252"/>
<text text-anchor="middle" x="394" y="-231.5" font-family="sans" font-size="10.00" fill="#000000">taxon_prefilter_metadmg_dfit</text>
</g>
<!-- 24&#45;&gt;1 -->
<g id="edge20" class="edge">
<title>24&#45;&gt;1</title>
<path fill="none" stroke="#c0c0c0" stroke-width="2" d="M406.8473,-215.8481C422.1009,-195.5659 449.364,-163.0794 480,-144 517.6421,-120.5573 566.3349,-106.4842 602.1276,-98.6117"/>
<polygon fill="#c0c0c0" stroke="#c0c0c0" stroke-width="2" points="603.2656,-101.9487 612.327,-96.4585 601.8197,-95.0996 603.2656,-101.9487"/>
</g>
<!-- 26 -->
<g id="node27" class="node">
<title>26</title>
<path fill="none" stroke="#56d88a" stroke-width="2" d="M416,-180C416,-180 268,-180 268,-180 262,-180 256,-174 256,-168 256,-168 256,-156 256,-156 256,-150 262,-144 268,-144 268,-144 416,-144 416,-144 422,-144 428,-150 428,-156 428,-156 428,-168 428,-168 428,-174 422,-180 416,-180"/>
<text text-anchor="middle" x="342" y="-159.5" font-family="sans" font-size="10.00" fill="#000000">taxon_prefilter_metadmg_aggregate</text>
</g>
<!-- 24&#45;&gt;26 -->
<g id="edge51" class="edge">
<title>24&#45;&gt;26</title>
<path fill="none" stroke="#c0c0c0" stroke-width="2" d="M380.8782,-215.8314C374.9501,-207.6232 367.8271,-197.7606 361.3067,-188.7323"/>
<polygon fill="#c0c0c0" stroke="#c0c0c0" stroke-width="2" points="363.9908,-186.4708 355.2985,-180.4133 358.316,-190.5693 363.9908,-186.4708"/>
</g>
<!-- 25&#45;&gt;24 -->
<g id="edge48" class="edge">
<title>25&#45;&gt;24</title>
<path fill="none" stroke="#c0c0c0" stroke-width="2" d="M349.1405,-287.8314C356.1217,-279.454 364.5391,-269.3531 372.1876,-260.1749"/>
<polygon fill="#c0c0c0" stroke="#c0c0c0" stroke-width="2" points="374.9425,-262.3362 378.6556,-252.4133 369.5649,-257.8548 374.9425,-262.3362"/>
</g>
<!-- 25&#45;&gt;26 -->
<g id="edge50" class="edge">
<title>25&#45;&gt;26</title>
<path fill="none" stroke="#c0c0c0" stroke-width="2" d="M324.5596,-287.684C316.3851,-269.4668 306.777,-240.7405 313,-216 315.3386,-206.7024 319.623,-197.2609 324.1938,-188.9283"/>
<polygon fill="#c0c0c0" stroke="#c0c0c0" stroke-width="2" points="327.3549,-190.4564 329.3878,-180.0585 321.3143,-186.9192 327.3549,-190.4564"/>
</g>
<!-- 26&#45;&gt;0 -->
<g id="edge2" class="edge">
<title>26&#45;&gt;0</title>
<path fill="none" stroke="#c0c0c0" stroke-width="2" d="M380.8222,-143.9081C438.2122,-117.1633 545.4287,-67.1983 606.1157,-38.917"/>
<polygon fill="#c0c0c0" stroke="#c0c0c0" stroke-width="2" points="607.8556,-41.9676 615.4413,-34.5711 604.8988,-35.6227 607.8556,-41.9676"/>
</g>
<!-- 26&#45;&gt;1 -->
<g id="edge16" class="edge">
<title>26&#45;&gt;1</title>
<path fill="none" stroke="#c0c0c0" stroke-width="2" d="M419.5749,-143.9243C476.989,-130.5463 553.431,-112.7345 602.4404,-101.3149"/>
<polygon fill="#c0c0c0" stroke="#c0c0c0" stroke-width="2" points="603.5206,-104.657 612.4654,-98.9789 601.932,-97.8396 603.5206,-104.657"/>
</g>
<!-- 27&#45;&gt;1 -->
<g id="edge12" class="edge">
<title>27&#45;&gt;1</title>
<path fill="none" stroke="#c0c0c0" stroke-width="2" d="M810.3589,-791.9961C776.4175,-757.1816 708,-676.7424 708,-594 708,-594 708,-594 708,-234 708,-192.6022 700.2954,-182.0557 684,-144 680.0617,-134.8027 674.7497,-125.3159 669.5396,-116.9093"/>
<polygon fill="#c0c0c0" stroke="#c0c0c0" stroke-width="2" points="672.3442,-114.7994 663.9958,-108.276 666.454,-118.5817 672.3442,-114.7994"/>
</g>
<!-- 32 -->
<g id="node33" class="node">
<title>32</title>
<path fill="none" stroke="#56a2d8" stroke-width="2" d="M944,-612C944,-612 786,-612 786,-612 780,-612 774,-606 774,-600 774,-600 774,-588 774,-588 774,-582 780,-576 786,-576 786,-576 944,-576 944,-576 950,-576 956,-582 956,-588 956,-588 956,-600 956,-600 956,-606 950,-612 944,-612"/>
<text text-anchor="middle" x="865" y="-591.5" font-family="sans" font-size="10.00" fill="#000000">taxon_shard_saturated_reads_remove</text>
</g>
<!-- 27&#45;&gt;32 -->
<g id="edge57" class="edge">
<title>27&#45;&gt;32</title>
<path fill="none" stroke="#c0c0c0" stroke-width="2" d="M828.5706,-791.7171C828.2772,-761.3871 829.4556,-698.9594 842,-648 844.1708,-639.1815 847.6178,-629.9581 851.1893,-621.6807"/>
<polygon fill="#c0c0c0" stroke="#c0c0c0" stroke-width="2" points="854.4199,-623.0313 855.3701,-612.4792 848.0469,-620.1356 854.4199,-623.0313"/>
</g>
<!-- 34 -->
<g id="node35" class="node">
<title>34</title>
<path fill="none" stroke="#56b1d8" stroke-width="2" d="M972,-756C972,-756 874,-756 874,-756 868,-756 862,-750 862,-744 862,-744 862,-732 862,-732 862,-726 868,-720 874,-720 874,-720 972,-720 972,-720 978,-720 984,-726 984,-732 984,-732 984,-744 984,-744 984,-750 978,-756 972,-756"/>
<text text-anchor="middle" x="923" y="-735.5" font-family="sans" font-size="10.00" fill="#000000">taxon_shard_count_alns</text>
</g>
<!-- 27&#45;&gt;34 -->
<g id="edge60" class="edge">
<title>27&#45;&gt;34</title>
<path fill="none" stroke="#c0c0c0" stroke-width="2" d="M852.7202,-791.8314C864.4094,-782.8779 878.6688,-771.9558 891.2809,-762.2955"/>
<polygon fill="#c0c0c0" stroke="#c0c0c0" stroke-width="2" points="893.4769,-765.0222 899.2874,-756.1628 889.2203,-759.4651 893.4769,-765.0222"/>
</g>
<!-- 28 -->
<g id="node29" class="node">
<title>28</title>
<path fill="none" stroke="#88d856" stroke-width="2" d="M855.5,-252C855.5,-252 786.5,-252 786.5,-252 780.5,-252 774.5,-246 774.5,-240 774.5,-240 774.5,-228 774.5,-228 774.5,-222 780.5,-216 786.5,-216 786.5,-216 855.5,-216 855.5,-216 861.5,-216 867.5,-222 867.5,-228 867.5,-228 867.5,-240 867.5,-240 867.5,-246 861.5,-252 855.5,-252"/>
<text text-anchor="middle" x="821" y="-231.5" font-family="sans" font-size="10.00" fill="#000000">taxon_align_stats</text>
</g>
<!-- 28&#45;&gt;1 -->
<g id="edge10" class="edge">
<title>28&#45;&gt;1</title>
<path fill="none" stroke="#c0c0c0" stroke-width="2" d="M812.2513,-215.7314C802.0229,-195.9473 783.4651,-164.4793 760,-144 742.2809,-128.5356 719.3512,-116.3069 699.0972,-107.4252"/>
<polygon fill="#c0c0c0" stroke="#c0c0c0" stroke-width="2" points="700.2808,-104.1257 689.707,-103.4576 697.5563,-110.5737 700.2808,-104.1257"/>
</g>
<!-- 29 -->
<g id="node30" class="node">
<title>29</title>
<path fill="none" stroke="#a7d856" stroke-width="2" d="M965,-396C965,-396 891,-396 891,-396 885,-396 879,-390 879,-384 879,-384 879,-372 879,-372 879,-366 885,-360 891,-360 891,-360 965,-360 965,-360 971,-360 977,-366 977,-372 977,-372 977,-384 977,-384 977,-390 971,-396 965,-396"/>
<text text-anchor="middle" x="928" y="-375.5" font-family="sans" font-size="10.00" fill="#000000">taxon_align_merge</text>
</g>
<!-- 29&#45;&gt;28 -->
<g id="edge53" class="edge">
<title>29&#45;&gt;28</title>
<path fill="none" stroke="#c0c0c0" stroke-width="2" d="M909.0915,-359.8358C899.0329,-349.7293 886.7623,-336.6642 877,-324 861.5256,-303.9258 846.4925,-279.4009 835.905,-261.0249"/>
<polygon fill="#c0c0c0" stroke="#c0c0c0" stroke-width="2" points="838.9235,-259.2525 830.9387,-252.2888 832.8381,-262.712 838.9235,-259.2525"/>
</g>
<!-- 36 -->
<g id="node37" class="node">
<title>36</title>
<path fill="none" stroke="#68d856" stroke-width="2" d="M978,-324C978,-324 898,-324 898,-324 892,-324 886,-318 886,-312 886,-312 886,-300 886,-300 886,-294 892,-288 898,-288 898,-288 978,-288 978,-288 984,-288 990,-294 990,-300 990,-300 990,-312 990,-312 990,-318 984,-324 978,-324"/>
<text text-anchor="middle" x="938" y="-303.5" font-family="sans" font-size="10.00" fill="#000000">taxon_metadmg_lca</text>
</g>
<!-- 29&#45;&gt;36 -->
<g id="edge62" class="edge">
<title>29&#45;&gt;36</title>
<path fill="none" stroke="#c0c0c0" stroke-width="2" d="M930.5234,-359.8314C931.5929,-352.131 932.8647,-342.9743 934.0532,-334.4166"/>
<polygon fill="#c0c0c0" stroke="#c0c0c0" stroke-width="2" points="937.5336,-334.7997 935.4426,-324.4133 930.6001,-333.8367 937.5336,-334.7997"/>
</g>
<!-- 41 -->
<g id="node42" class="node">
<title>41</title>
<path fill="none" stroke="#78d856" stroke-width="2" d="M1033,-108C1033,-108 931,-108 931,-108 925,-108 919,-102 919,-96 919,-96 919,-84 919,-84 919,-78 925,-72 931,-72 931,-72 1033,-72 1033,-72 1039,-72 1045,-78 1045,-84 1045,-84 1045,-96 1045,-96 1045,-102 1039,-108 1033,-108"/>
<text text-anchor="middle" x="982" y="-87.5" font-family="sans" font-size="10.00" fill="#000000">taxon_metadmg_damage</text>
</g>
<!-- 29&#45;&gt;41 -->
<g id="edge70" class="edge">
<title>29&#45;&gt;41</title>
<path fill="none" stroke="#c0c0c0" stroke-width="2" d="M961.1511,-359.7695C974.7784,-350.6981 989.5496,-338.5442 999,-324 1016.9148,-296.4292 1012.1967,-284.6592 1016,-252 1021.5582,-204.2711 1024.3294,-190.1656 1011,-144 1008.3405,-134.789 1003.9612,-125.3732 999.4019,-117.0374"/>
<polygon fill="#c0c0c0" stroke="#c0c0c0" stroke-width="2" points="1002.2986,-115.0551 994.2599,-108.1536 996.2402,-118.5617 1002.2986,-115.0551"/>
</g>
<!-- 30 -->
<g id="node31" class="node">
<title>30</title>
<path fill="none" stroke="#569ad8" stroke-width="2" d="M958.5,-468C958.5,-468 861.5,-468 861.5,-468 855.5,-468 849.5,-462 849.5,-456 849.5,-456 849.5,-444 849.5,-444 849.5,-438 855.5,-432 861.5,-432 861.5,-432 958.5,-432 958.5,-432 964.5,-432 970.5,-438 970.5,-444 970.5,-444 970.5,-456 970.5,-456 970.5,-462 964.5,-468 958.5,-468"/>
<text text-anchor="middle" x="910" y="-447.5" font-family="sans" font-size="10.00" fill="#000000">taxon_shard_sort_query</text>
</g>
<!-- 30&#45;&gt;29 -->
<g id="edge54" class="edge">
<title>30&#45;&gt;29</title>
<path fill="none" stroke="#c0c0c0" stroke-width="2" d="M914.5422,-431.8314C916.4884,-424.0463 918.8068,-414.7729 920.9663,-406.1347"/>
<polygon fill="#c0c0c0" stroke="#c0c0c0" stroke-width="2" points="924.3668,-406.9636 923.3967,-396.4133 917.5758,-405.2658 924.3668,-406.9636"/>
</g>
<!-- 31 -->
<g id="node32" class="node">
<title>31</title>
<path fill="none" stroke="#5692d8" stroke-width="2" d="M915.5,-540C915.5,-540 832.5,-540 832.5,-540 826.5,-540 820.5,-534 820.5,-528 820.5,-528 820.5,-516 820.5,-516 820.5,-510 826.5,-504 832.5,-504 832.5,-504 915.5,-504 915.5,-504 921.5,-504 927.5,-510 927.5,-516 927.5,-516 927.5,-528 927.5,-528 927.5,-534 921.5,-540 915.5,-540"/>
<text text-anchor="middle" x="874" y="-519.5" font-family="sans" font-size="10.00" fill="#000000">taxon_shard_unicorn</text>
</g>
<!-- 31&#45;&gt;30 -->
<g id="edge55" class="edge">
<title>31&#45;&gt;30</title>
<path fill="none" stroke="#c0c0c0" stroke-width="2" d="M883.0843,-503.8314C887.0615,-495.8771 891.8155,-486.369 896.2139,-477.5723"/>
<polygon fill="#c0c0c0" stroke="#c0c0c0" stroke-width="2" points="899.4517,-478.9228 900.7934,-468.4133 893.1907,-475.7923 899.4517,-478.9228"/>
</g>
<!-- 32&#45;&gt;31 -->
<g id="edge56" class="edge">
<title>32&#45;&gt;31</title>
<path fill="none" stroke="#c0c0c0" stroke-width="2" d="M867.2711,-575.8314C868.2336,-568.131 869.3782,-558.9743 870.4479,-550.4166"/>
<polygon fill="#c0c0c0" stroke="#c0c0c0" stroke-width="2" points="873.9309,-550.7702 871.6983,-540.4133 866.9849,-549.9019 873.9309,-550.7702"/>
</g>
<!-- 33 -->
<g id="node34" class="node">
<title>33</title>
<path fill="none" stroke="#56a9d8" stroke-width="2" d="M1007.5,-684C1007.5,-684 862.5,-684 862.5,-684 856.5,-684 850.5,-678 850.5,-672 850.5,-672 850.5,-660 850.5,-660 850.5,-654 856.5,-648 862.5,-648 862.5,-648 1007.5,-648 1007.5,-648 1013.5,-648 1019.5,-654 1019.5,-660 1019.5,-660 1019.5,-672 1019.5,-672 1019.5,-678 1013.5,-684 1007.5,-684"/>
<text text-anchor="middle" x="935" y="-663.5" font-family="sans" font-size="10.00" fill="#000000">taxon_shard_saturated_reads_filter</text>
</g>
<!-- 33&#45;&gt;32 -->
<g id="edge58" class="edge">
<title>33&#45;&gt;32</title>
<path fill="none" stroke="#c0c0c0" stroke-width="2" d="M917.336,-647.8314C909.0268,-639.2848 898.9736,-628.9443 889.9082,-619.6198"/>
<polygon fill="#c0c0c0" stroke="#c0c0c0" stroke-width="2" points="892.3821,-617.1435 882.9018,-612.4133 887.3631,-622.023 892.3821,-617.1435"/>
</g>
<!-- 33&#45;&gt;40 -->
<g id="edge68" class="edge">
<title>33&#45;&gt;40</title>
<path fill="none" stroke="#c0c0c0" stroke-width="2" d="M967.5521,-647.8314C984.2048,-638.5368 1004.6585,-627.1208 1022.4385,-617.1971"/>
<polygon fill="#c0c0c0" stroke="#c0c0c0" stroke-width="2" points="1024.4321,-620.0927 1031.4583,-612.1628 1021.0205,-613.9803 1024.4321,-620.0927"/>
</g>
<!-- 34&#45;&gt;33 -->
<g id="edge59" class="edge">
<title>34&#45;&gt;33</title>
<path fill="none" stroke="#c0c0c0" stroke-width="2" d="M926.0281,-719.8314C927.3115,-712.131 928.8376,-702.9743 930.2639,-694.4166"/>
<polygon fill="#c0c0c0" stroke="#c0c0c0" stroke-width="2" points="933.7394,-694.8526 931.9311,-684.4133 926.8347,-693.7018 933.7394,-694.8526"/>
</g>
<!-- 35 -->
<g id="node36" class="node">
<title>35</title>
<path fill="none" stroke="#70d856" stroke-width="2" d="M978.5,-252C978.5,-252 897.5,-252 897.5,-252 891.5,-252 885.5,-246 885.5,-240 885.5,-240 885.5,-228 885.5,-228 885.5,-222 891.5,-216 897.5,-216 897.5,-216 978.5,-216 978.5,-216 984.5,-216 990.5,-222 990.5,-228 990.5,-228 990.5,-240 990.5,-240 990.5,-246 984.5,-252 978.5,-252"/>
<text text-anchor="middle" x="938" y="-231.5" font-family="sans" font-size="10.00" fill="#000000">taxon_metadmg_dfit</text>
</g>
<!-- 35&#45;&gt;1 -->
<g id="edge17" class="edge">
<title>35&#45;&gt;1</title>
<path fill="none" stroke="#c0c0c0" stroke-width="2" d="M911.3233,-215.9776C882.0982,-196.6926 833.4502,-165.9222 789,-144 759.9217,-129.659 726.0299,-116.3513 699.1107,-106.5349"/>
<polygon fill="#c0c0c0" stroke="#c0c0c0" stroke-width="2" points="700.1247,-103.18 689.5303,-103.0808 697.7505,-109.7651 700.1247,-103.18"/>
</g>
<!-- 37 -->
<g id="node38" class="node">
<title>37</title>
<path fill="none" stroke="#78d856" stroke-width="2" d="M990,-180C990,-180 880,-180 880,-180 874,-180 868,-174 868,-168 868,-168 868,-156 868,-156 868,-150 874,-144 880,-144 880,-144 990,-144 990,-144 996,-144 1002,-150 1002,-156 1002,-156 1002,-168 1002,-168 1002,-174 996,-180 990,-180"/>
<text text-anchor="middle" x="935" y="-159.5" font-family="sans" font-size="10.00" fill="#000000">taxon_metadmg_aggregate</text>
</g>
<!-- 35&#45;&gt;37 -->
<g id="edge64" class="edge">
<title>35&#45;&gt;37</title>
<path fill="none" stroke="#c0c0c0" stroke-width="2" d="M937.243,-215.8314C936.9221,-208.131 936.5406,-198.9743 936.184,-190.4166"/>
<polygon fill="#c0c0c0" stroke="#c0c0c0" stroke-width="2" points="939.6806,-190.2589 935.7672,-180.4133 932.6867,-190.5503 939.6806,-190.2589"/>
</g>
<!-- 36&#45;&gt;35 -->
<g id="edge61" class="edge">
<title>36&#45;&gt;35</title>
<path fill="none" stroke="#c0c0c0" stroke-width="2" d="M938,-287.8314C938,-280.131 938,-270.9743 938,-262.4166"/>
<polygon fill="#c0c0c0" stroke="#c0c0c0" stroke-width="2" points="941.5001,-262.4132 938,-252.4133 934.5001,-262.4133 941.5001,-262.4132"/>
</g>
<!-- 36&#45;&gt;37 -->
<g id="edge63" class="edge">
<title>36&#45;&gt;37</title>
<path fill="none" stroke="#c0c0c0" stroke-width="2" d="M968.4958,-287.7757C980.6822,-278.7056 993.3772,-266.5508 1000,-252 1006.6281,-237.4374 1006.7975,-230.4843 1000,-216 994.5409,-204.3676 985.2088,-194.3739 975.2927,-186.2592"/>
<polygon fill="#c0c0c0" stroke="#c0c0c0" stroke-width="2" points="977.355,-183.4304 967.2779,-180.1588 973.1154,-189.0005 977.355,-183.4304"/>
</g>
<!-- 37&#45;&gt;0 -->
<g id="edge6" class="edge">
<title>37&#45;&gt;0</title>
<path fill="none" stroke="#c0c0c0" stroke-width="2" d="M899.3188,-143.9081C847.6683,-117.7192 752.1067,-69.2654 695.7857,-40.7082"/>
<polygon fill="#c0c0c0" stroke="#c0c0c0" stroke-width="2" points="697.2605,-37.5319 686.7586,-36.1311 694.0948,-43.7752 697.2605,-37.5319"/>
</g>
<!-- 37&#45;&gt;1 -->
<g id="edge18" class="edge">
<title>37&#45;&gt;1</title>
<path fill="none" stroke="#c0c0c0" stroke-width="2" d="M867.696,-144.937C816.0443,-131.8422 745.9597,-114.0743 699.6535,-102.3347"/>
<polygon fill="#c0c0c0" stroke="#c0c0c0" stroke-width="2" points="700.4145,-98.917 689.861,-99.8521 698.6942,-105.7023 700.4145,-98.917"/>
</g>
<!-- 38&#45;&gt;0 -->
<g id="edge1" class="edge">
<title>38&#45;&gt;0</title>
<path fill="none" stroke="#c0c0c0" stroke-width="2" d="M245.7985,-1295.8845C223.6382,-1218.688 138.0043,-920.1991 133,-900 123.1688,-860.3181 114,-850.8816 114,-810 114,-810 114,-810 114,-162 114,-95.3333 172.242,-97.1077 234,-72 300.5669,-44.9372 511.3631,-27.5628 605.1899,-20.9805"/>
<polygon fill="#c0c0c0" stroke="#c0c0c0" stroke-width="2" points="605.5003,-24.4675 615.235,-20.2858 605.0173,-17.4841 605.5003,-24.4675"/>
</g>
<!-- 39&#45;&gt;0 -->
<g id="edge4" class="edge">
<title>39&#45;&gt;0</title>
<path fill="none" stroke="#c0c0c0" stroke-width="2" d="M216.7895,-863.6867C206.8091,-836.6448 190,-784.2373 190,-738 190,-738 190,-738 190,-162 190,-75.6228 488.5996,-35.0084 605.1661,-22.4444"/>
<polygon fill="#c0c0c0" stroke="#c0c0c0" stroke-width="2" points="605.633,-25.9146 615.2097,-21.3829 604.8972,-18.9534 605.633,-25.9146"/>
</g>
<!-- 40&#45;&gt;0 -->
<g id="edge5" class="edge">
<title>40&#45;&gt;0</title>
<path fill="none" stroke="#c0c0c0" stroke-width="2" d="M1082.1532,-575.7859C1105.7566,-550.0803 1144,-500.6202 1144,-450 1144,-450 1144,-450 1144,-162 1144,-105.4315 1104.706,-97.078 1054,-72 992.0071,-41.3397 788.8093,-25.9785 696.8894,-20.4588"/>
<polygon fill="#c0c0c0" stroke="#c0c0c0" stroke-width="2" points="696.9602,-16.9571 686.7721,-19.8642 696.5495,-23.945 696.9602,-16.9571"/>
</g>
<!-- 41&#45;&gt;0 -->
<g id="edge7" class="edge">
<title>41&#45;&gt;0</title>
<path fill="none" stroke="#c0c0c0" stroke-width="2" d="M918.9623,-76.2879C854.0226,-62.162 754.3833,-40.4882 696.665,-27.9332"/>
<polygon fill="#c0c0c0" stroke="#c0c0c0" stroke-width="2" points="697.254,-24.4795 686.7385,-25.7739 695.7661,-31.3196 697.254,-24.4795"/>
</g>
</g>
</svg>
