<?xml version="1.0" encoding="UTF-8" standalone="no"?>
<!DOCTYPE svg PUBLIC "-//W3C//DTD SVG 1.1//EN"
 "http://www.w3.org/Graphics/SVG/1.1/DTD/svg11.dtd">
<!-- Generated by graphviz version 2.40.1 (0)
 -->
<!-- Title: snakemake_dag Pages: 1 -->
<svg width="2069pt" height="1986pt"
 viewBox="0.00 0.00 2069.00 1986.00" xmlns="http://www.w3.org/2000/svg" xmlns:xlink="http://www.w3.org/1999/xlink">
<g id="graph0" class="graph" transform="scale(1 1) rotate(0) translate(4 1982)">
<title>snakemake_dag</title>
<polygon fill="#ffffff" stroke="transparent" points="-4,4 -4,-1982 2065,-1982 2065,4 -4,4"/>
<!-- 0 -->
<g id="node1" class="node">
<title>0</title>
<path fill="none" stroke="#bed856" stroke-width="2" d="M1838.5,-36C1838.5,-36 1791.5,-36 1791.5,-36 1785.5,-36 1779.5,-30 1779.5,-24 1779.5,-24 1779.5,-12 1779.5,-12 1779.5,-6 1785.5,0 1791.5,0 1791.5,0 1838.5,0 1838.5,0 1844.5,0 1850.5,-6 1850.5,-12 1850.5,-12 1850.5,-24 1850.5,-24 1850.5,-30 1844.5,-36 1838.5,-36"/>
<text text-anchor="middle" x="1815" y="-15.5" font-family="sans" font-size="10.00" fill="#000000">target_taxon</text>
</g>
<!-- 1 -->
<g id="node2" class="node">
<title>1</title>
<path fill="none" stroke="#d8b456" stroke-width="2" d="M916.5,-108C916.5,-108 863.5,-108 863.5,-108 857.5,-108 851.5,-102 851.5,-96 851.5,-96 851.5,-84 851.5,-84 851.5,-78 857.5,-72 863.5,-72 863.5,-72 916.5,-72 916.5,-72 922.5,-72 928.5,-78 928.5,-84 928.5,-84 928.5,-96 928.5,-96 928.5,-102 922.5,-108 916.5,-108"/>
<text text-anchor="middle" x="890" y="-87.5" font-family="sans" font-size="10.00" fill="#000000">multiqc_taxon</text>
</g>
<!-- 1&#45;&gt;0 -->
<g id="edge1" class="edge">
<title>1&#45;&gt;0</title>
<path fill="none" stroke="#c0c0c0" stroke-width="2" d="M928.5684,-86.9979C1076.785,-75.4611 1609.4294,-34.0012 1769.3107,-21.5564"/>
<polygon fill="#c0c0c0" stroke="#c0c0c0" stroke-width="2" points="1769.5965,-25.0448 1779.2947,-20.7792 1769.0532,-18.0659 1769.5965,-25.0448"/>
</g>
<!-- 2 -->
<g id="node3" class="node">
<title>2</title>
<path fill="none" stroke="#5673d8" stroke-width="2" d="M74,-1420C74,-1420 12,-1420 12,-1420 6,-1420 0,-1414 0,-1408 0,-1408 0,-1396 0,-1396 0,-1390 6,-1384 12,-1384 12,-1384 74,-1384 74,-1384 80,-1384 86,-1390 86,-1396 86,-1396 86,-1408 86,-1408 86,-1414 80,-1420 74,-1420"/>
<text text-anchor="middle" x="43" y="-1399.5" font-family="sans" font-size="10.00" fill="#000000">trim_fastqc_raw</text>
</g>
<!-- 2&#45;&gt;1 -->
<g id="edge8" class="edge">
<title>2&#45;&gt;1</title>
<path fill="none" stroke="#c0c0c0" stroke-width="2" d="M46.5224,-1383.8955C51.5018,-1356.6824 60,-1303.5642 60,-1258 60,-1258 60,-1258 60,-234 60,-190.2273 64.1321,-169.0907 100,-144 160.6592,-101.5671 678.5122,-92.3108 841.2599,-90.442"/>
<polygon fill="#c0c0c0" stroke="#c0c0c0" stroke-width="2" points="841.497,-93.9397 851.4577,-90.3294 841.4196,-86.9402 841.497,-93.9397"/>
</g>
<!-- 3 -->
<g id="node4" class="node">
<title>3</title>
<path fill="none" stroke="#5663d8" stroke-width="2" d="M169.5,-1978C169.5,-1978 74.5,-1978 74.5,-1978 68.5,-1978 62.5,-1972 62.5,-1966 62.5,-1966 62.5,-1927 62.5,-1927 62.5,-1921 68.5,-1915 74.5,-1915 74.5,-1915 169.5,-1915 169.5,-1915 175.5,-1915 181.5,-1921 181.5,-1927 181.5,-1927 181.5,-1966 181.5,-1966 181.5,-1972 175.5,-1978 169.5,-1978"/>
<text text-anchor="middle" x="122" y="-1966" font-family="sans" font-size="10.00" fill="#000000">trim_get_fastq_raw</text>
<text text-anchor="middle" x="122" y="-1955" font-family="sans" font-size="10.00" fill="#000000">lane: L001</text>
<text text-anchor="middle" x="122" y="-1944" font-family="sans" font-size="10.00" fill="#000000">library: lib1</text>
<text text-anchor="middle" x="122" y="-1933" font-family="sans" font-size="10.00" fill="#000000">read_type_raw: R2</text>
<text text-anchor="middle" x="122" y="-1922" font-family="sans" font-size="10.00" fill="#000000">sample: HD827sonic_1</text>
</g>
<!-- 3&#45;&gt;2 -->
<g id="edge32" class="edge">
<title>3&#45;&gt;2</title>
<path fill="none" stroke="#c0c0c0" stroke-width="2" d="M95.0336,-1914.7314C72.1479,-1884.4601 43,-1836.5685 43,-1789 43,-1789 43,-1789 43,-1559.5 43,-1514.4939 43,-1462.2537 43,-1430.6861"/>
<polygon fill="#c0c0c0" stroke="#c0c0c0" stroke-width="2" points="46.5001,-1430.4282 43,-1420.4282 39.5001,-1430.4282 46.5001,-1430.4282"/>
</g>
<!-- 6 -->
<g id="node7" class="node">
<title>6</title>
<path fill="none" stroke="#568ad8" stroke-width="2" d="M420,-1879C420,-1879 296,-1879 296,-1879 290,-1879 284,-1873 284,-1867 284,-1867 284,-1855 284,-1855 284,-1849 290,-1843 296,-1843 296,-1843 420,-1843 420,-1843 426,-1843 432,-1849 432,-1855 432,-1855 432,-1867 432,-1867 432,-1873 426,-1879 420,-1879"/>
<text text-anchor="middle" x="358" y="-1858.5" font-family="sans" font-size="10.00" fill="#000000">trim_adapterremoval_fastq_pe</text>
</g>
<!-- 3&#45;&gt;6 -->
<g id="edge35" class="edge">
<title>3&#45;&gt;6</title>
<path fill="none" stroke="#c0c0c0" stroke-width="2" d="M181.5528,-1924.9247C217.2496,-1911.9922 262.4937,-1895.6008 298.2293,-1882.6542"/>
<polygon fill="#c0c0c0" stroke="#c0c0c0" stroke-width="2" points="299.8308,-1885.7967 308.0406,-1879.0997 297.4464,-1879.2153 299.8308,-1885.7967"/>
</g>
<!-- 4 -->
<g id="node5" class="node">
<title>4</title>
<path fill="none" stroke="#5673d8" stroke-width="2" d="M145,-1807C145,-1807 83,-1807 83,-1807 77,-1807 71,-1801 71,-1795 71,-1795 71,-1783 71,-1783 71,-1777 77,-1771 83,-1771 83,-1771 145,-1771 145,-1771 151,-1771 157,-1777 157,-1783 157,-1783 157,-1795 157,-1795 157,-1801 151,-1807 145,-1807"/>
<text text-anchor="middle" x="114" y="-1786.5" font-family="sans" font-size="10.00" fill="#000000">trim_fastqc_raw</text>
</g>
<!-- 4&#45;&gt;1 -->
<g id="edge9" class="edge">
<title>4&#45;&gt;1</title>
<path fill="none" stroke="#c0c0c0" stroke-width="2" d="M114,-1770.8146C114,-1743.4983 114,-1690.25 114,-1645 114,-1645 114,-1645 114,-234 114,-192.6022 106.0969,-170.3812 138,-144 192.0483,-99.3066 682.6879,-91.599 840.9992,-90.274"/>
<polygon fill="#c0c0c0" stroke="#c0c0c0" stroke-width="2" points="841.404,-93.771 851.3761,-90.1924 841.3489,-86.7712 841.404,-93.771"/>
</g>
<!-- 5 -->
<g id="node6" class="node">
<title>5</title>
<path fill="none" stroke="#5663d8" stroke-width="2" d="M344.5,-1978C344.5,-1978 249.5,-1978 249.5,-1978 243.5,-1978 237.5,-1972 237.5,-1966 237.5,-1966 237.5,-1927 237.5,-1927 237.5,-1921 243.5,-1915 249.5,-1915 249.5,-1915 344.5,-1915 344.5,-1915 350.5,-1915 356.5,-1921 356.5,-1927 356.5,-1927 356.5,-1966 356.5,-1966 356.5,-1972 350.5,-1978 344.5,-1978"/>
<text text-anchor="middle" x="297" y="-1966" font-family="sans" font-size="10.00" fill="#000000">trim_get_fastq_raw</text>
<text text-anchor="middle" x="297" y="-1955" font-family="sans" font-size="10.00" fill="#000000">lane: L001</text>
<text text-anchor="middle" x="297" y="-1944" font-family="sans" font-size="10.00" fill="#000000">library: lib1</text>
<text text-anchor="middle" x="297" y="-1933" font-family="sans" font-size="10.00" fill="#000000">read_type_raw: R1</text>
<text text-anchor="middle" x="297" y="-1922" font-family="sans" font-size="10.00" fill="#000000">sample: HD827sonic_1</text>
</g>
<!-- 5&#45;&gt;4 -->
<g id="edge33" class="edge">
<title>5&#45;&gt;4</title>
<path fill="none" stroke="#c0c0c0" stroke-width="2" d="M259.9672,-1914.6275C225.3063,-1884.7964 174.2505,-1840.855 142.6169,-1813.6293"/>
<polygon fill="#c0c0c0" stroke="#c0c0c0" stroke-width="2" points="144.8773,-1810.9569 135.0147,-1807.0865 140.311,-1816.2625 144.8773,-1810.9569"/>
</g>
<!-- 5&#45;&gt;6 -->
<g id="edge34" class="edge">
<title>5&#45;&gt;6</title>
<path fill="none" stroke="#c0c0c0" stroke-width="2" d="M319.7141,-1914.663C326.1162,-1905.6896 333.0088,-1896.0287 339.1573,-1887.4106"/>
<polygon fill="#c0c0c0" stroke="#c0c0c0" stroke-width="2" points="342.0534,-1889.3776 345.0121,-1879.2043 336.355,-1885.3121 342.0534,-1889.3776"/>
</g>
<!-- 6&#45;&gt;1 -->
<g id="edge10" class="edge">
<title>6&#45;&gt;1</title>
<path fill="none" stroke="#c0c0c0" stroke-width="2" d="M328.4612,-1842.812C315.9342,-1833.602 302.3315,-1821.3266 294,-1807 120.1571,-1508.0658 152,-1387.8078 152,-1042 152,-1042 152,-1042 152,-234 152,-181.9317 180.7836,-167.9823 227,-144 281.1269,-115.9128 697.2541,-97.4139 841.1953,-91.801"/>
<polygon fill="#c0c0c0" stroke="#c0c0c0" stroke-width="2" points="841.6229,-95.2872 851.4804,-91.4038 841.3528,-88.2924 841.6229,-95.2872"/>
</g>
<!-- 7 -->
<g id="node8" class="node">
<title>7</title>
<path fill="none" stroke="#566bd8" stroke-width="2" d="M318,-1132C318,-1132 192,-1132 192,-1132 186,-1132 180,-1126 180,-1120 180,-1120 180,-1108 180,-1108 180,-1102 186,-1096 192,-1096 192,-1096 318,-1096 318,-1096 324,-1096 330,-1102 330,-1108 330,-1108 330,-1120 330,-1120 330,-1126 324,-1132 318,-1132"/>
<text text-anchor="middle" x="255" y="-1117" font-family="sans" font-size="10.00" fill="#000000">trim_fastqc_trim</text>
<text text-anchor="middle" x="255" y="-1106" font-family="sans" font-size="10.00" fill="#000000">read_type_trim: collapsedtrunc</text>
</g>
<!-- 6&#45;&gt;7 -->
<g id="edge36" class="edge">
<title>6&#45;&gt;7</title>
<path fill="none" stroke="#c0c0c0" stroke-width="2" d="M342.2428,-1842.8597C321.3256,-1816.8524 287,-1766.6151 287,-1717 287,-1717 287,-1717 287,-1258 287,-1216.9442 274.4511,-1170.8385 265.0701,-1142.1076"/>
<polygon fill="#c0c0c0" stroke="#c0c0c0" stroke-width="2" points="268.2932,-1140.7116 261.7864,-1132.3503 261.6589,-1142.9443 268.2932,-1140.7116"/>
</g>
<!-- 8 -->
<g id="node9" class="node">
<title>8</title>
<path fill="none" stroke="#566bd8" stroke-width="2" d="M356,-988C356,-988 252,-988 252,-988 246,-988 240,-982 240,-976 240,-976 240,-964 240,-964 240,-958 246,-952 252,-952 252,-952 356,-952 356,-952 362,-952 368,-958 368,-964 368,-964 368,-976 368,-976 368,-982 362,-988 356,-988"/>
<text text-anchor="middle" x="304" y="-973" font-family="sans" font-size="10.00" fill="#000000">trim_fastqc_trim</text>
<text text-anchor="middle" x="304" y="-962" font-family="sans" font-size="10.00" fill="#000000">read_type_trim: collapsed</text>
</g>
<!-- 6&#45;&gt;8 -->
<g id="edge37" class="edge">
<title>6&#45;&gt;8</title>
<path fill="none" stroke="#c0c0c0" stroke-width="2" d="M358,-1842.8146C358,-1815.4983 358,-1762.25 358,-1717 358,-1717 358,-1717 358,-1114 358,-1071.061 336.6894,-1025.2426 320.843,-997.1081"/>
<polygon fill="#c0c0c0" stroke="#c0c0c0" stroke-width="2" points="323.7634,-995.1672 315.7172,-988.2744 317.7089,-998.6804 323.7634,-995.1672"/>
</g>
<!-- 9 -->
<g id="node10" class="node">
<title>9</title>
<path fill="none" stroke="#566bd8" stroke-width="2" d="M394,-916C394,-916 318,-916 318,-916 312,-916 306,-910 306,-904 306,-904 306,-892 306,-892 306,-886 312,-880 318,-880 318,-880 394,-880 394,-880 400,-880 406,-886 406,-892 406,-892 406,-904 406,-904 406,-910 400,-916 394,-916"/>
<text text-anchor="middle" x="356" y="-901" font-family="sans" font-size="10.00" fill="#000000">trim_fastqc_trim</text>
<text text-anchor="middle" x="356" y="-890" font-family="sans" font-size="10.00" fill="#000000">read_type_trim: R2</text>
</g>
<!-- 6&#45;&gt;9 -->
<g id="edge38" class="edge">
<title>6&#45;&gt;9</title>
<path fill="none" stroke="#c0c0c0" stroke-width="2" d="M366.0588,-1842.7668C377.2134,-1815.8248 396,-1763.5405 396,-1717 396,-1717 396,-1717 396,-1042 396,-1000.2219 380.176,-954.0316 368.4336,-925.5067"/>
<polygon fill="#c0c0c0" stroke="#c0c0c0" stroke-width="2" points="371.6092,-924.0301 364.483,-916.19 365.1646,-926.7629 371.6092,-924.0301"/>
</g>
<!-- 10 -->
<g id="node11" class="node">
<title>10</title>
<path fill="none" stroke="#566bd8" stroke-width="2" d="M432,-684C432,-684 356,-684 356,-684 350,-684 344,-678 344,-672 344,-672 344,-660 344,-660 344,-654 350,-648 356,-648 356,-648 432,-648 432,-648 438,-648 444,-654 444,-660 444,-660 444,-672 444,-672 444,-678 438,-684 432,-684"/>
<text text-anchor="middle" x="394" y="-669" font-family="sans" font-size="10.00" fill="#000000">trim_fastqc_trim</text>
<text text-anchor="middle" x="394" y="-658" font-family="sans" font-size="10.00" fill="#000000">read_type_trim: R1</text>
</g>
<!-- 6&#45;&gt;10 -->
<g id="edge39" class="edge">
<title>6&#45;&gt;10</title>
<path fill="none" stroke="#c0c0c0" stroke-width="2" d="M375.2456,-1842.6186C397.6688,-1816.719 434,-1767.0348 434,-1717 434,-1717 434,-1717 434,-818 434,-773.3809 417.6808,-723.7483 405.8896,-693.7104"/>
<polygon fill="#c0c0c0" stroke="#c0c0c0" stroke-width="2" points="409.0838,-692.2729 402.0946,-684.3104 402.5929,-694.8935 409.0838,-692.2729"/>
</g>
<!-- 11 -->
<g id="node12" class="node">
<title>11</title>
<path fill="none" stroke="#566bd8" stroke-width="2" d="M523,-396C523,-396 421,-396 421,-396 415,-396 409,-390 409,-384 409,-384 409,-372 409,-372 409,-366 415,-360 421,-360 421,-360 523,-360 523,-360 529,-360 535,-366 535,-372 535,-372 535,-384 535,-384 535,-390 529,-396 523,-396"/>
<text text-anchor="middle" x="472" y="-381" font-family="sans" font-size="10.00" fill="#000000">trim_fastqc_trim</text>
<text text-anchor="middle" x="472" y="-370" font-family="sans" font-size="10.00" fill="#000000">read_type_trim: singleton</text>
</g>
<!-- 6&#45;&gt;11 -->
<g id="edge40" class="edge">
<title>6&#45;&gt;11</title>
<path fill="none" stroke="#c0c0c0" stroke-width="2" d="M386.1798,-1842.8002C419.9384,-1818.5315 472,-1772.1626 472,-1717 472,-1717 472,-1717 472,-522 472,-481.876 472,-435.4631 472,-406.4177"/>
<polygon fill="#c0c0c0" stroke="#c0c0c0" stroke-width="2" points="475.5001,-406.1853 472,-396.1854 468.5001,-406.1854 475.5001,-406.1853"/>
</g>
<!-- 13 -->
<g id="node14" class="node">
<title>13</title>
<path fill="none" stroke="#d87556" stroke-width="2" d="M645,-1807C645,-1807 541,-1807 541,-1807 535,-1807 529,-1801 529,-1795 529,-1795 529,-1783 529,-1783 529,-1777 535,-1771 541,-1771 541,-1771 645,-1771 645,-1771 651,-1771 657,-1777 657,-1783 657,-1783 657,-1795 657,-1795 657,-1801 651,-1807 645,-1807"/>
<text text-anchor="middle" x="593" y="-1792" font-family="sans" font-size="10.00" fill="#000000">derep_merge_lanes</text>
<text text-anchor="middle" x="593" y="-1781" font-family="sans" font-size="10.00" fill="#000000">read_type_trim: collapsed</text>
</g>
<!-- 6&#45;&gt;13 -->
<g id="edge42" class="edge">
<title>6&#45;&gt;13</title>
<path fill="none" stroke="#c0c0c0" stroke-width="2" d="M416.9971,-1842.9243C449.542,-1832.9531 490.1261,-1820.5188 524.1189,-1810.104"/>
<polygon fill="#c0c0c0" stroke="#c0c0c0" stroke-width="2" points="525.4426,-1813.3591 533.9786,-1807.0831 523.392,-1806.6662 525.4426,-1813.3591"/>
</g>
<!-- 7&#45;&gt;1 -->
<g id="edge11" class="edge">
<title>7&#45;&gt;1</title>
<path fill="none" stroke="#c0c0c0" stroke-width="2" d="M245.8808,-1095.8786C233.2585,-1069.076 212,-1016.9635 212,-970 212,-970 212,-970 212,-234 212,-181.646 241.5502,-168.1527 288,-144 336.6004,-118.729 706.4331,-98.7567 841.1285,-92.2521"/>
<polygon fill="#c0c0c0" stroke="#c0c0c0" stroke-width="2" points="841.3461,-95.7458 851.1672,-91.7713 841.0111,-88.7538 841.3461,-95.7458"/>
</g>
<!-- 8&#45;&gt;1 -->
<g id="edge12" class="edge">
<title>8&#45;&gt;1</title>
<path fill="none" stroke="#c0c0c0" stroke-width="2" d="M298.8632,-951.9212C291.286,-923.6136 278,-866.9931 278,-818 278,-818 278,-818 278,-234 278,-186.6526 294.6751,-168.8128 335,-144 377.6042,-117.7847 713.1971,-98.7002 840.8997,-92.3208"/>
<polygon fill="#c0c0c0" stroke="#c0c0c0" stroke-width="2" points="841.3509,-95.8028 851.1658,-91.813 841.005,-88.8114 841.3509,-95.8028"/>
</g>
<!-- 9&#45;&gt;1 -->
<g id="edge13" class="edge">
<title>9&#45;&gt;1</title>
<path fill="none" stroke="#c0c0c0" stroke-width="2" d="M348.2876,-879.6526C336.6641,-850.2911 316,-790.6841 316,-738 316,-738 316,-738 316,-234 316,-178.0565 353.7148,-168.517 404,-144 480.2486,-106.8243 733.6229,-94.7827 841.1117,-91.2887"/>
<polygon fill="#c0c0c0" stroke="#c0c0c0" stroke-width="2" points="841.4672,-94.7794 851.3525,-90.9675 841.2476,-87.7828 841.4672,-94.7794"/>
</g>
<!-- 10&#45;&gt;1 -->
<g id="edge14" class="edge">
<title>10&#45;&gt;1</title>
<path fill="none" stroke="#c0c0c0" stroke-width="2" d="M391.3064,-647.862C387.4986,-620.6061 381,-567.434 381,-522 381,-522 381,-522 381,-234 381,-162.6269 447.4253,-169.7282 514,-144 572.8154,-121.2704 753.5625,-102.3671 841.2629,-94.2564"/>
<polygon fill="#c0c0c0" stroke="#c0c0c0" stroke-width="2" points="841.843,-97.718 851.4824,-93.3212 841.205,-90.7471 841.843,-97.718"/>
</g>
<!-- 11&#45;&gt;1 -->
<g id="edge15" class="edge">
<title>11&#45;&gt;1</title>
<path fill="none" stroke="#c0c0c0" stroke-width="2" d="M472.0153,-359.956C473.1092,-315.5605 482.5506,-200.5371 549,-144 592.2209,-107.2264 758.0632,-95.3095 841.4854,-91.597"/>
<polygon fill="#c0c0c0" stroke="#c0c0c0" stroke-width="2" points="841.6357,-95.0939 851.4788,-91.1741 841.3397,-88.1001 841.6357,-95.0939"/>
</g>
<!-- 12 -->
<g id="node13" class="node">
<title>12</title>
<path fill="none" stroke="#d86656" stroke-width="2" d="M582,-1420C582,-1420 512,-1420 512,-1420 506,-1420 500,-1414 500,-1408 500,-1408 500,-1396 500,-1396 500,-1390 506,-1384 512,-1384 512,-1384 582,-1384 582,-1384 588,-1384 594,-1390 594,-1396 594,-1396 594,-1408 594,-1408 594,-1414 588,-1420 582,-1420"/>
<text text-anchor="middle" x="547" y="-1405" font-family="sans" font-size="10.00" fill="#000000">derep_fastqc</text>
<text text-anchor="middle" x="547" y="-1394" font-family="sans" font-size="10.00" fill="#000000">tool: merge_lanes</text>
</g>
<!-- 12&#45;&gt;1 -->
<g id="edge16" class="edge">
<title>12&#45;&gt;1</title>
<path fill="none" stroke="#c0c0c0" stroke-width="2" d="M539.1533,-1383.746C528.2922,-1356.7781 510,-1304.4617 510,-1258 510,-1258 510,-1258 510,-738 510,-544.5604 563,-499.4396 563,-306 563,-306 563,-306 563,-234 563,-186.1711 582.3819,-170.7958 622,-144 657.1982,-120.1936 774.2701,-103.2717 841.4634,-95.2502"/>
<polygon fill="#c0c0c0" stroke="#c0c0c0" stroke-width="2" points="841.8748,-98.7261 851.3993,-94.0855 841.0598,-91.7737 841.8748,-98.7261"/>
</g>
<!-- 13&#45;&gt;12 -->
<g id="edge41" class="edge">
<title>13&#45;&gt;12</title>
<path fill="none" stroke="#c0c0c0" stroke-width="2" d="M579.3721,-1770.8678C572.3669,-1760.7707 564.2265,-1747.7043 559,-1735 543.4103,-1697.1058 539,-1685.9758 539,-1645 539,-1645 539,-1645 539,-1559.5 539,-1514.4359 542.307,-1462.2123 544.6686,-1430.6639"/>
<polygon fill="#c0c0c0" stroke="#c0c0c0" stroke-width="2" points="548.1798,-1430.6519 545.4575,-1420.4128 541.2004,-1430.1147 548.1798,-1430.6519"/>
</g>
<!-- 15 -->
<g id="node16" class="node">
<title>15</title>
<path fill="none" stroke="#d88556" stroke-width="2" d="M664.5,-1735C664.5,-1735 579.5,-1735 579.5,-1735 573.5,-1735 567.5,-1729 567.5,-1723 567.5,-1723 567.5,-1711 567.5,-1711 567.5,-1705 573.5,-1699 579.5,-1699 579.5,-1699 664.5,-1699 664.5,-1699 670.5,-1699 676.5,-1705 676.5,-1711 676.5,-1711 676.5,-1723 676.5,-1723 676.5,-1729 670.5,-1735 664.5,-1735"/>
<text text-anchor="middle" x="622" y="-1720" font-family="sans" font-size="10.00" fill="#000000">derep_nonpareil_infer</text>
<text text-anchor="middle" x="622" y="-1709" font-family="sans" font-size="10.00" fill="#000000">tool: merge_lanes</text>
</g>
<!-- 13&#45;&gt;15 -->
<g id="edge44" class="edge">
<title>13&#45;&gt;15</title>
<path fill="none" stroke="#c0c0c0" stroke-width="2" d="M600.3179,-1770.8314C603.4876,-1762.9617 607.27,-1753.5712 610.7813,-1744.8533"/>
<polygon fill="#c0c0c0" stroke="#c0c0c0" stroke-width="2" points="614.0939,-1745.9968 614.5835,-1735.4133 607.6008,-1743.3815 614.0939,-1745.9968"/>
</g>
<!-- 17 -->
<g id="node18" class="node">
<title>17</title>
<path fill="none" stroke="#d89556" stroke-width="2" d="M755,-1735C755,-1735 707,-1735 707,-1735 701,-1735 695,-1729 695,-1723 695,-1723 695,-1711 695,-1711 695,-1705 701,-1699 707,-1699 707,-1699 755,-1699 755,-1699 761,-1699 767,-1705 767,-1711 767,-1711 767,-1723 767,-1723 767,-1729 761,-1735 755,-1735"/>
<text text-anchor="middle" x="731" y="-1714.5" font-family="sans" font-size="10.00" fill="#000000">derep_seqkit</text>
</g>
<!-- 13&#45;&gt;17 -->
<g id="edge46" class="edge">
<title>13&#45;&gt;17</title>
<path fill="none" stroke="#c0c0c0" stroke-width="2" d="M627.8232,-1770.8314C645.8011,-1761.4516 667.9203,-1749.9112 687.0616,-1739.9244"/>
<polygon fill="#c0c0c0" stroke="#c0c0c0" stroke-width="2" points="688.9411,-1742.8916 696.1879,-1735.1628 685.7031,-1736.6855 688.9411,-1742.8916"/>
</g>
<!-- 14 -->
<g id="node15" class="node">
<title>14</title>
<path fill="none" stroke="#d88d56" stroke-width="2" d="M632,-1132C632,-1132 550,-1132 550,-1132 544,-1132 538,-1126 538,-1120 538,-1120 538,-1108 538,-1108 538,-1102 544,-1096 550,-1096 550,-1096 632,-1096 632,-1096 638,-1096 644,-1102 644,-1108 644,-1108 644,-1120 644,-1120 644,-1126 638,-1132 632,-1132"/>
<text text-anchor="middle" x="591" y="-1111.5" font-family="sans" font-size="10.00" fill="#000000">derep_nonpareil_plot</text>
</g>
<!-- 14&#45;&gt;1 -->
<g id="edge17" class="edge">
<title>14&#45;&gt;1</title>
<path fill="none" stroke="#c0c0c0" stroke-width="2" d="M596.726,-1095.5668C604.6516,-1068.3758 618,-1015.7842 618,-970 618,-970 618,-970 618,-234 618,-190.2273 624.258,-171.8842 658,-144 685.5731,-121.2137 781.8214,-104.5646 841.3393,-96.1634"/>
<polygon fill="#c0c0c0" stroke="#c0c0c0" stroke-width="2" points="841.8535,-99.6257 851.2796,-94.7886 840.8944,-92.6917 841.8535,-99.6257"/>
</g>
<!-- 15&#45;&gt;14 -->
<g id="edge43" class="edge">
<title>15&#45;&gt;14</title>
<path fill="none" stroke="#c0c0c0" stroke-width="2" d="M622,-1698.5718C622,-1669.1655 622,-1609.8125 622,-1559.5 622,-1559.5 622,-1559.5 622,-1258 622,-1217.0037 609.8433,-1170.8829 600.7554,-1142.1326"/>
<polygon fill="#c0c0c0" stroke="#c0c0c0" stroke-width="2" points="603.9998,-1140.7919 597.5743,-1132.3679 597.3441,-1142.9603 603.9998,-1140.7919"/>
</g>
<!-- 16 -->
<g id="node17" class="node">
<title>16</title>
<path fill="none" stroke="#d86656" stroke-width="2" d="M733.5,-1663C733.5,-1663 684.5,-1663 684.5,-1663 678.5,-1663 672.5,-1657 672.5,-1651 672.5,-1651 672.5,-1639 672.5,-1639 672.5,-1633 678.5,-1627 684.5,-1627 684.5,-1627 733.5,-1627 733.5,-1627 739.5,-1627 745.5,-1633 745.5,-1639 745.5,-1639 745.5,-1651 745.5,-1651 745.5,-1657 739.5,-1663 733.5,-1663"/>
<text text-anchor="middle" x="709" y="-1648" font-family="sans" font-size="10.00" fill="#000000">derep_fastqc</text>
<text text-anchor="middle" x="709" y="-1637" font-family="sans" font-size="10.00" fill="#000000">tool: derep</text>
</g>
<!-- 16&#45;&gt;1 -->
<g id="edge18" class="edge">
<title>16&#45;&gt;1</title>
<path fill="none" stroke="#c0c0c0" stroke-width="2" d="M700.0126,-1626.5202C685.8668,-1595.6828 660,-1531.4411 660,-1474 660,-1474 660,-1474 660,-1402 660,-1241.9111 672,-1202.0889 672,-1042 672,-1042 672,-1042 672,-234 672,-153.3789 777.0879,-115.2926 841.3384,-99.541"/>
<polygon fill="#c0c0c0" stroke="#c0c0c0" stroke-width="2" points="842.3451,-102.8997 851.2772,-97.2016 840.7412,-96.0859 842.3451,-102.8997"/>
</g>
<!-- 17&#45;&gt;16 -->
<g id="edge45" class="edge">
<title>17&#45;&gt;16</title>
<path fill="none" stroke="#c0c0c0" stroke-width="2" d="M725.4485,-1698.8314C723.0697,-1691.0463 720.2362,-1681.7729 717.5967,-1673.1347"/>
<polygon fill="#c0c0c0" stroke="#c0c0c0" stroke-width="2" points="720.8958,-1671.954 714.6263,-1663.4133 714.2013,-1673.9996 720.8958,-1671.954"/>
</g>
<!-- 19 -->
<g id="node20" class="node">
<title>19</title>
<path fill="none" stroke="#d86e56" stroke-width="2" d="M1125.5,-1663C1125.5,-1663 1036.5,-1663 1036.5,-1663 1030.5,-1663 1024.5,-1657 1024.5,-1651 1024.5,-1651 1024.5,-1639 1024.5,-1639 1024.5,-1633 1030.5,-1627 1036.5,-1627 1036.5,-1627 1125.5,-1627 1125.5,-1627 1131.5,-1627 1137.5,-1633 1137.5,-1639 1137.5,-1639 1137.5,-1651 1137.5,-1651 1137.5,-1657 1131.5,-1663 1125.5,-1663"/>
<text text-anchor="middle" x="1081" y="-1642.5" font-family="sans" font-size="10.00" fill="#000000">derep_low_complexity</text>
</g>
<!-- 17&#45;&gt;19 -->
<g id="edge48" class="edge">
<title>17&#45;&gt;19</title>
<path fill="none" stroke="#c0c0c0" stroke-width="2" d="M767.1379,-1709.5659C825.355,-1697.5898 940.7943,-1673.8423 1014.2763,-1658.726"/>
<polygon fill="#c0c0c0" stroke="#c0c0c0" stroke-width="2" points="1015.2665,-1662.0957 1024.3562,-1656.6524 1013.856,-1655.2393 1015.2665,-1662.0957"/>
</g>
<!-- 18 -->
<g id="node19" class="node">
<title>18</title>
<path fill="none" stroke="#d86656" stroke-width="2" d="M794,-988C794,-988 712,-988 712,-988 706,-988 700,-982 700,-976 700,-976 700,-964 700,-964 700,-958 706,-952 712,-952 712,-952 794,-952 794,-952 800,-952 806,-958 806,-964 806,-964 806,-976 806,-976 806,-982 800,-988 794,-988"/>
<text text-anchor="middle" x="753" y="-973" font-family="sans" font-size="10.00" fill="#000000">derep_fastqc</text>
<text text-anchor="middle" x="753" y="-962" font-family="sans" font-size="10.00" fill="#000000">tool: low_complexity</text>
</g>
<!-- 18&#45;&gt;1 -->
<g id="edge19" class="edge">
<title>18&#45;&gt;1</title>
<path fill="none" stroke="#c0c0c0" stroke-width="2" d="M758.5319,-951.9483C766.692,-923.677 781,-867.1042 781,-818 781,-818 781,-818 781,-234 781,-183.9186 823.4327,-140.274 855.3479,-114.5303"/>
<polygon fill="#c0c0c0" stroke="#c0c0c0" stroke-width="2" points="857.893,-116.9832 863.6141,-108.0658 853.5808,-111.4691 857.893,-116.9832"/>
</g>
<!-- 19&#45;&gt;18 -->
<g id="edge47" class="edge">
<title>19&#45;&gt;18</title>
<path fill="none" stroke="#c0c0c0" stroke-width="2" d="M1024.1613,-1640.0153C928.497,-1631.1076 743.5802,-1611.4653 722,-1591 683.483,-1554.473 698,-1527.0827 698,-1474 698,-1474 698,-1474 698,-1402 698,-1248.4206 732.6292,-1066.571 746.932,-998.0123"/>
<polygon fill="#c0c0c0" stroke="#c0c0c0" stroke-width="2" points="750.4038,-998.5107 749.0445,-988.0035 743.5547,-997.065 750.4038,-998.5107"/>
</g>
<!-- 21 -->
<g id="node22" class="node">
<title>21</title>
<path fill="none" stroke="#d8d356" stroke-width="2" d="M996.5,-916C996.5,-916 907.5,-916 907.5,-916 901.5,-916 895.5,-910 895.5,-904 895.5,-904 895.5,-892 895.5,-892 895.5,-886 901.5,-880 907.5,-880 907.5,-880 996.5,-880 996.5,-880 1002.5,-880 1008.5,-886 1008.5,-892 1008.5,-892 1008.5,-904 1008.5,-904 1008.5,-910 1002.5,-916 996.5,-916"/>
<text text-anchor="middle" x="952" y="-895.5" font-family="sans" font-size="10.00" fill="#000000">prefilter_reads_extract</text>
</g>
<!-- 19&#45;&gt;21 -->
<g id="edge50" class="edge">
<title>19&#45;&gt;21</title>
<path fill="none" stroke="#c0c0c0" stroke-width="2" d="M1024.4166,-1629.5385C926.541,-1601.1068 736,-1537.5906 736,-1474 736,-1474 736,-1474 736,-1402 736,-1204.4064 877.9945,-995.9065 931.7278,-924.0802"/>
<polygon fill="#c0c0c0" stroke="#c0c0c0" stroke-width="2" points="934.5909,-926.0967 937.8276,-916.0084 929.0062,-921.8764 934.5909,-926.0967"/>
</g>
<!-- 28 -->
<g id="node29" class="node">
<title>28</title>
<path fill="none" stroke="#56d8a9" stroke-width="2" d="M1053,-1591C1053,-1591 931,-1591 931,-1591 925,-1591 919,-1585 919,-1579 919,-1579 919,-1540 919,-1540 919,-1534 925,-1528 931,-1528 931,-1528 1053,-1528 1053,-1528 1059,-1528 1065,-1534 1065,-1540 1065,-1540 1065,-1579 1065,-1579 1065,-1585 1059,-1591 1053,-1591"/>
<text text-anchor="middle" x="992" y="-1579" font-family="sans" font-size="10.00" fill="#000000">taxon_prefilter_shard_bowtie2</text>
<text text-anchor="middle" x="992" y="-1568" font-family="sans" font-size="10.00" fill="#000000">n_shard: 2</text>
<text text-anchor="middle" x="992" y="-1557" font-family="sans" font-size="10.00" fill="#000000">read_type_map: collapsed</text>
<text text-anchor="middle" x="992" y="-1546" font-family="sans" font-size="10.00" fill="#000000">ref: prok</text>
<text text-anchor="middle" x="992" y="-1535" font-family="sans" font-size="10.00" fill="#000000">tot_shards: 2</text>
</g>
<!-- 19&#45;&gt;28 -->
<g id="edge62" class="edge">
<title>19&#45;&gt;28</title>
<path fill="none" stroke="#c0c0c0" stroke-width="2" d="M1062.1254,-1626.8676C1053.4207,-1618.5053 1042.7316,-1608.2366 1032.3469,-1598.2602"/>
<polygon fill="#c0c0c0" stroke="#c0c0c0" stroke-width="2" points="1034.5079,-1595.4828 1024.8717,-1591.079 1029.6584,-1600.5308 1034.5079,-1595.4828"/>
</g>
<!-- 31 -->
<g id="node32" class="node">
<title>31</title>
<path fill="none" stroke="#56d8a9" stroke-width="2" d="M1258,-1591C1258,-1591 1136,-1591 1136,-1591 1130,-1591 1124,-1585 1124,-1579 1124,-1579 1124,-1540 1124,-1540 1124,-1534 1130,-1528 1136,-1528 1136,-1528 1258,-1528 1258,-1528 1264,-1528 1270,-1534 1270,-1540 1270,-1540 1270,-1579 1270,-1579 1270,-1585 1264,-1591 1258,-1591"/>
<text text-anchor="middle" x="1197" y="-1579" font-family="sans" font-size="10.00" fill="#000000">taxon_prefilter_shard_bowtie2</text>
<text text-anchor="middle" x="1197" y="-1568" font-family="sans" font-size="10.00" fill="#000000">n_shard: 1</text>
<text text-anchor="middle" x="1197" y="-1557" font-family="sans" font-size="10.00" fill="#000000">read_type_map: collapsed</text>
<text text-anchor="middle" x="1197" y="-1546" font-family="sans" font-size="10.00" fill="#000000">ref: prok</text>
<text text-anchor="middle" x="1197" y="-1535" font-family="sans" font-size="10.00" fill="#000000">tot_shards: 2</text>
</g>
<!-- 19&#45;&gt;31 -->
<g id="edge67" class="edge">
<title>19&#45;&gt;31</title>
<path fill="none" stroke="#c0c0c0" stroke-width="2" d="M1105.6006,-1626.8676C1117.3866,-1618.1806 1131.9638,-1607.4361 1145.988,-1597.0994"/>
<polygon fill="#c0c0c0" stroke="#c0c0c0" stroke-width="2" points="1148.183,-1599.8296 1154.156,-1591.079 1144.0297,-1594.1948 1148.183,-1599.8296"/>
</g>
<!-- 34 -->
<g id="node35" class="node">
<title>34</title>
<path fill="none" stroke="#56d8a9" stroke-width="2" d="M1456,-1591C1456,-1591 1334,-1591 1334,-1591 1328,-1591 1322,-1585 1322,-1579 1322,-1579 1322,-1540 1322,-1540 1322,-1534 1328,-1528 1334,-1528 1334,-1528 1456,-1528 1456,-1528 1462,-1528 1468,-1534 1468,-1540 1468,-1540 1468,-1579 1468,-1579 1468,-1585 1462,-1591 1456,-1591"/>
<text text-anchor="middle" x="1395" y="-1579" font-family="sans" font-size="10.00" fill="#000000">taxon_prefilter_shard_bowtie2</text>
<text text-anchor="middle" x="1395" y="-1568" font-family="sans" font-size="10.00" fill="#000000">n_shard: 1</text>
<text text-anchor="middle" x="1395" y="-1557" font-family="sans" font-size="10.00" fill="#000000">read_type_map: collapsed</text>
<text text-anchor="middle" x="1395" y="-1546" font-family="sans" font-size="10.00" fill="#000000">ref: virus</text>
<text text-anchor="middle" x="1395" y="-1535" font-family="sans" font-size="10.00" fill="#000000">tot_shards: 1</text>
</g>
<!-- 19&#45;&gt;34 -->
<g id="edge70" class="edge">
<title>19&#45;&gt;34</title>
<path fill="none" stroke="#c0c0c0" stroke-width="2" d="M1137.863,-1629.5166C1186.5455,-1616.2607 1257.2741,-1597.0018 1312.2354,-1582.0362"/>
<polygon fill="#c0c0c0" stroke="#c0c0c0" stroke-width="2" points="1313.2274,-1585.3936 1321.9566,-1579.3892 1311.3883,-1578.6395 1313.2274,-1585.3936"/>
</g>
<!-- 61 -->
<g id="node62" class="node">
<title>61</title>
<path fill="none" stroke="#56d8c9" stroke-width="2" d="M1836,-1348C1836,-1348 1642,-1348 1642,-1348 1636,-1348 1630,-1342 1630,-1336 1630,-1336 1630,-1324 1630,-1324 1630,-1318 1636,-1312 1642,-1312 1642,-1312 1836,-1312 1836,-1312 1842,-1312 1848,-1318 1848,-1324 1848,-1324 1848,-1336 1848,-1336 1848,-1342 1842,-1348 1836,-1348"/>
<text text-anchor="middle" x="1739" y="-1327.5" font-family="sans" font-size="10.00" fill="#000000">taxon_prefilter_shard_saturated_reads_extract</text>
</g>
<!-- 19&#45;&gt;61 -->
<g id="edge105" class="edge">
<title>19&#45;&gt;61</title>
<path fill="none" stroke="#c0c0c0" stroke-width="2" d="M1137.5186,-1640.6478C1231.713,-1632.8374 1416.4429,-1614.9914 1477,-1591 1595.1747,-1544.1818 1687.2636,-1413.6799 1722.9364,-1356.9293"/>
<polygon fill="#c0c0c0" stroke="#c0c0c0" stroke-width="2" points="1726.075,-1358.5087 1728.3643,-1348.1642 1720.1237,-1354.8233 1726.075,-1358.5087"/>
</g>
<!-- 63 -->
<g id="node64" class="node">
<title>63</title>
<path fill="none" stroke="#56b1d8" stroke-width="2" d="M2049,-612C2049,-612 1893,-612 1893,-612 1887,-612 1881,-606 1881,-600 1881,-600 1881,-588 1881,-588 1881,-582 1887,-576 1893,-576 1893,-576 2049,-576 2049,-576 2055,-576 2061,-582 2061,-588 2061,-588 2061,-600 2061,-600 2061,-606 2055,-612 2049,-612"/>
<text text-anchor="middle" x="1971" y="-591.5" font-family="sans" font-size="10.00" fill="#000000">taxon_shard_saturated_reads_extract</text>
</g>
<!-- 19&#45;&gt;63 -->
<g id="edge108" class="edge">
<title>19&#45;&gt;63</title>
<path fill="none" stroke="#c0c0c0" stroke-width="2" d="M1137.6876,-1640.1558C1333.7245,-1622.6547 1971,-1559.2095 1971,-1474 1971,-1474 1971,-1474 1971,-738 1971,-697.876 1971,-651.4631 1971,-622.4177"/>
<polygon fill="#c0c0c0" stroke="#c0c0c0" stroke-width="2" points="1974.5001,-622.1853 1971,-612.1854 1967.5001,-622.1854 1974.5001,-622.1853"/>
</g>
<!-- 20 -->
<g id="node21" class="node">
<title>20</title>
<path fill="none" stroke="#d8d356" stroke-width="2" d="M918.5,-756C918.5,-756 861.5,-756 861.5,-756 855.5,-756 849.5,-750 849.5,-744 849.5,-744 849.5,-732 849.5,-732 849.5,-726 855.5,-720 861.5,-720 861.5,-720 918.5,-720 918.5,-720 924.5,-720 930.5,-726 930.5,-732 930.5,-732 930.5,-744 930.5,-744 930.5,-750 924.5,-756 918.5,-756"/>
<text text-anchor="middle" x="890" y="-735.5" font-family="sans" font-size="10.00" fill="#000000">prefilter_fastqc</text>
</g>
<!-- 20&#45;&gt;1 -->
<g id="edge20" class="edge">
<title>20&#45;&gt;1</title>
<path fill="none" stroke="#c0c0c0" stroke-width="2" d="M890,-719.8146C890,-692.4983 890,-639.25 890,-594 890,-594 890,-594 890,-234 890,-193.876 890,-147.4631 890,-118.4177"/>
<polygon fill="#c0c0c0" stroke="#c0c0c0" stroke-width="2" points="893.5001,-118.1853 890,-108.1854 886.5001,-118.1854 893.5001,-118.1853"/>
</g>
<!-- 21&#45;&gt;20 -->
<g id="edge49" class="edge">
<title>21&#45;&gt;20</title>
<path fill="none" stroke="#c0c0c0" stroke-width="2" d="M945.0083,-879.957C934.2171,-852.1086 913.4249,-798.4514 900.7233,-765.6731"/>
<polygon fill="#c0c0c0" stroke="#c0c0c0" stroke-width="2" points="903.9381,-764.2823 897.0612,-756.2226 897.411,-766.8116 903.9381,-764.2823"/>
</g>
<!-- 45 -->
<g id="node46" class="node">
<title>45</title>
<path fill="none" stroke="#56c9d8" stroke-width="2" d="M1627.5,-844C1627.5,-844 1542.5,-844 1542.5,-844 1536.5,-844 1530.5,-838 1530.5,-832 1530.5,-832 1530.5,-804 1530.5,-804 1530.5,-798 1536.5,-792 1542.5,-792 1542.5,-792 1627.5,-792 1627.5,-792 1633.5,-792 1639.5,-798 1639.5,-804 1639.5,-804 1639.5,-832 1639.5,-832 1639.5,-838 1633.5,-844 1627.5,-844"/>
<text text-anchor="middle" x="1585" y="-832" font-family="sans" font-size="10.00" fill="#000000">taxon_shard_bowtie2</text>
<text text-anchor="middle" x="1585" y="-821" font-family="sans" font-size="10.00" fill="#000000">n_shard: 1</text>
<text text-anchor="middle" x="1585" y="-810" font-family="sans" font-size="10.00" fill="#000000">ref: mitoch</text>
<text text-anchor="middle" x="1585" y="-799" font-family="sans" font-size="10.00" fill="#000000">tot_shards: 1</text>
</g>
<!-- 21&#45;&gt;45 -->
<g id="edge84" class="edge">
<title>21&#45;&gt;45</title>
<path fill="none" stroke="#c0c0c0" stroke-width="2" d="M1008.7987,-892.3373C1132.5552,-879.9498 1419.0034,-850.9931 1463,-844 1481.764,-841.0175 1501.9954,-837.0256 1520.4847,-833.0665"/>
<polygon fill="#c0c0c0" stroke="#c0c0c0" stroke-width="2" points="1521.2374,-836.4847 1530.2662,-830.9411 1519.751,-829.6443 1521.2374,-836.4847"/>
</g>
<!-- 46 -->
<g id="node47" class="node">
<title>46</title>
<path fill="none" stroke="#56c9d8" stroke-width="2" d="M1441.5,-844C1441.5,-844 1356.5,-844 1356.5,-844 1350.5,-844 1344.5,-838 1344.5,-832 1344.5,-832 1344.5,-804 1344.5,-804 1344.5,-798 1350.5,-792 1356.5,-792 1356.5,-792 1441.5,-792 1441.5,-792 1447.5,-792 1453.5,-798 1453.5,-804 1453.5,-804 1453.5,-832 1453.5,-832 1453.5,-838 1447.5,-844 1441.5,-844"/>
<text text-anchor="middle" x="1399" y="-832" font-family="sans" font-size="10.00" fill="#000000">taxon_shard_bowtie2</text>
<text text-anchor="middle" x="1399" y="-821" font-family="sans" font-size="10.00" fill="#000000">n_shard: 1</text>
<text text-anchor="middle" x="1399" y="-810" font-family="sans" font-size="10.00" fill="#000000">ref: plastid</text>
<text text-anchor="middle" x="1399" y="-799" font-family="sans" font-size="10.00" fill="#000000">tot_shards: 1</text>
</g>
<!-- 21&#45;&gt;46 -->
<g id="edge85" class="edge">
<title>21&#45;&gt;46</title>
<path fill="none" stroke="#c0c0c0" stroke-width="2" d="M1008.6129,-887.8679C1091.7725,-872.9848 1246.5483,-845.2844 1334.1625,-829.604"/>
<polygon fill="#c0c0c0" stroke="#c0c0c0" stroke-width="2" points="1335.018,-833.0066 1344.245,-827.7996 1333.7847,-826.1161 1335.018,-833.0066"/>
</g>
<!-- 22 -->
<g id="node23" class="node">
<title>22</title>
<path fill="none" stroke="#d6d856" stroke-width="2" d="M1063,-988C1063,-988 977,-988 977,-988 971,-988 965,-982 965,-976 965,-976 965,-964 965,-964 965,-958 971,-952 977,-952 977,-952 1063,-952 1063,-952 1069,-952 1075,-958 1075,-964 1075,-964 1075,-976 1075,-976 1075,-982 1069,-988 1063,-988"/>
<text text-anchor="middle" x="1020" y="-967.5" font-family="sans" font-size="10.00" fill="#000000">prefilter_reads_merge</text>
</g>
<!-- 22&#45;&gt;21 -->
<g id="edge51" class="edge">
<title>22&#45;&gt;21</title>
<path fill="none" stroke="#c0c0c0" stroke-width="2" d="M1002.8407,-951.8314C994.8489,-943.3694 985.1962,-933.1489 976.4584,-923.8971"/>
<polygon fill="#c0c0c0" stroke="#c0c0c0" stroke-width="2" points="978.8011,-921.2802 969.3903,-916.4133 973.712,-926.0866 978.8011,-921.2802"/>
</g>
<!-- 23 -->
<g id="node24" class="node">
<title>23</title>
<path fill="none" stroke="#ced856" stroke-width="2" d="M1071,-1060C1071,-1060 969,-1060 969,-1060 963,-1060 957,-1054 957,-1048 957,-1048 957,-1036 957,-1036 957,-1030 963,-1024 969,-1024 969,-1024 1071,-1024 1071,-1024 1077,-1024 1083,-1030 1083,-1036 1083,-1036 1083,-1048 1083,-1048 1083,-1054 1077,-1060 1071,-1060"/>
<text text-anchor="middle" x="1020" y="-1039.5" font-family="sans" font-size="10.00" fill="#000000">prefilter_reads_taxonomy</text>
</g>
<!-- 23&#45;&gt;22 -->
<g id="edge52" class="edge">
<title>23&#45;&gt;22</title>
<path fill="none" stroke="#c0c0c0" stroke-width="2" d="M1020,-1023.8314C1020,-1016.131 1020,-1006.9743 1020,-998.4166"/>
<polygon fill="#c0c0c0" stroke="#c0c0c0" stroke-width="2" points="1023.5001,-998.4132 1020,-988.4133 1016.5001,-998.4133 1023.5001,-998.4132"/>
</g>
<!-- 24 -->
<g id="node25" class="node">
<title>24</title>
<path fill="none" stroke="#56d863" stroke-width="2" d="M1319,-1132C1319,-1132 1207,-1132 1207,-1132 1201,-1132 1195,-1126 1195,-1120 1195,-1120 1195,-1108 1195,-1108 1195,-1102 1201,-1096 1207,-1096 1207,-1096 1319,-1096 1319,-1096 1325,-1096 1331,-1102 1331,-1108 1331,-1108 1331,-1120 1331,-1120 1331,-1126 1325,-1132 1319,-1132"/>
<text text-anchor="middle" x="1263" y="-1111.5" font-family="sans" font-size="10.00" fill="#000000">taxon_prefilter_align_merge</text>
</g>
<!-- 24&#45;&gt;23 -->
<g id="edge54" class="edge">
<title>24&#45;&gt;23</title>
<path fill="none" stroke="#c0c0c0" stroke-width="2" d="M1201.9945,-1095.9243C1168.1972,-1085.9103 1126.0156,-1073.412 1090.7738,-1062.97"/>
<polygon fill="#c0c0c0" stroke="#c0c0c0" stroke-width="2" points="1091.6129,-1059.5683 1081.0306,-1060.0831 1089.6243,-1066.2799 1091.6129,-1059.5683"/>
</g>
<!-- 41 -->
<g id="node42" class="node">
<title>41</title>
<path fill="none" stroke="#56d87b" stroke-width="2" d="M1260.5,-916C1260.5,-916 1153.5,-916 1153.5,-916 1147.5,-916 1141.5,-910 1141.5,-904 1141.5,-904 1141.5,-892 1141.5,-892 1141.5,-886 1147.5,-880 1153.5,-880 1153.5,-880 1260.5,-880 1260.5,-880 1266.5,-880 1272.5,-886 1272.5,-892 1272.5,-892 1272.5,-904 1272.5,-904 1272.5,-910 1266.5,-916 1260.5,-916"/>
<text text-anchor="middle" x="1207" y="-895.5" font-family="sans" font-size="10.00" fill="#000000">taxon_prefilter_align_stats</text>
</g>
<!-- 24&#45;&gt;41 -->
<g id="edge79" class="edge">
<title>24&#45;&gt;41</title>
<path fill="none" stroke="#c0c0c0" stroke-width="2" d="M1258.3218,-1095.9555C1248.5424,-1058.235 1225.879,-970.8188 1214.2178,-925.8399"/>
<polygon fill="#c0c0c0" stroke="#c0c0c0" stroke-width="2" points="1217.602,-924.9466 1211.7043,-916.1451 1210.826,-926.7034 1217.602,-924.9466"/>
</g>
<!-- 43 -->
<g id="node44" class="node">
<title>43</title>
<path fill="none" stroke="#56d89a" stroke-width="2" d="M1299,-324C1299,-324 1181,-324 1181,-324 1175,-324 1169,-318 1169,-312 1169,-312 1169,-300 1169,-300 1169,-294 1175,-288 1181,-288 1181,-288 1299,-288 1299,-288 1305,-288 1311,-294 1311,-300 1311,-300 1311,-312 1311,-312 1311,-318 1305,-324 1299,-324"/>
<text text-anchor="middle" x="1240" y="-303.5" font-family="sans" font-size="10.00" fill="#000000">taxon_prefilter_metadmg_lca</text>
</g>
<!-- 24&#45;&gt;43 -->
<g id="edge81" class="edge">
<title>24&#45;&gt;43</title>
<path fill="none" stroke="#c0c0c0" stroke-width="2" d="M1271.0588,-1095.7668C1282.2134,-1068.8248 1301,-1016.5405 1301,-970 1301,-970 1301,-970 1301,-450 1301,-406.1465 1276.7171,-360.307 1258.7932,-332.4447"/>
<polygon fill="#c0c0c0" stroke="#c0c0c0" stroke-width="2" points="1261.6765,-330.4595 1253.2361,-324.0555 1255.8407,-334.3253 1261.6765,-330.4595"/>
</g>
<!-- 62 -->
<g id="node63" class="node">
<title>62</title>
<path fill="none" stroke="#56d892" stroke-width="2" d="M1931,-1060C1931,-1060 1791,-1060 1791,-1060 1785,-1060 1779,-1054 1779,-1048 1779,-1048 1779,-1036 1779,-1036 1779,-1030 1785,-1024 1791,-1024 1791,-1024 1931,-1024 1931,-1024 1937,-1024 1943,-1030 1943,-1036 1943,-1036 1943,-1048 1943,-1048 1943,-1054 1937,-1060 1931,-1060"/>
<text text-anchor="middle" x="1861" y="-1039.5" font-family="sans" font-size="10.00" fill="#000000">taxon_prefilter_metadmg_damage</text>
</g>
<!-- 24&#45;&gt;62 -->
<g id="edge107" class="edge">
<title>24&#45;&gt;62</title>
<path fill="none" stroke="#c0c0c0" stroke-width="2" d="M1331.016,-1105.8108C1438.5048,-1092.869 1647.8242,-1067.6666 1768.7496,-1053.1071"/>
<polygon fill="#c0c0c0" stroke="#c0c0c0" stroke-width="2" points="1769.2244,-1056.5753 1778.7343,-1051.9049 1768.3876,-1049.6255 1769.2244,-1056.5753"/>
</g>
<!-- 25 -->
<g id="node26" class="node">
<title>25</title>
<path fill="none" stroke="#56d8d8" stroke-width="2" d="M998,-1204C998,-1204 864,-1204 864,-1204 858,-1204 852,-1198 852,-1192 852,-1192 852,-1180 852,-1180 852,-1174 858,-1168 864,-1168 864,-1168 998,-1168 998,-1168 1004,-1168 1010,-1174 1010,-1180 1010,-1180 1010,-1192 1010,-1192 1010,-1198 1004,-1204 998,-1204"/>
<text text-anchor="middle" x="931" y="-1183.5" font-family="sans" font-size="10.00" fill="#000000">taxon_prefilter_shard_sort_query</text>
</g>
<!-- 25&#45;&gt;24 -->
<g id="edge55" class="edge">
<title>25&#45;&gt;24</title>
<path fill="none" stroke="#c0c0c0" stroke-width="2" d="M1010.1005,-1168.8457C1062.9838,-1157.377 1132.2539,-1142.3546 1184.9239,-1130.9322"/>
<polygon fill="#c0c0c0" stroke="#c0c0c0" stroke-width="2" points="1185.8608,-1134.3104 1194.8918,-1128.7705 1184.3771,-1127.4695 1185.8608,-1134.3104"/>
</g>
<!-- 26 -->
<g id="node27" class="node">
<title>26</title>
<path fill="none" stroke="#56d0d8" stroke-width="2" d="M964,-1276C964,-1276 844,-1276 844,-1276 838,-1276 832,-1270 832,-1264 832,-1264 832,-1252 832,-1252 832,-1246 838,-1240 844,-1240 844,-1240 964,-1240 964,-1240 970,-1240 976,-1246 976,-1252 976,-1252 976,-1264 976,-1264 976,-1270 970,-1276 964,-1276"/>
<text text-anchor="middle" x="904" y="-1255.5" font-family="sans" font-size="10.00" fill="#000000">taxon_prefilter_shard_unicorn</text>
</g>
<!-- 26&#45;&gt;25 -->
<g id="edge58" class="edge">
<title>26&#45;&gt;25</title>
<path fill="none" stroke="#c0c0c0" stroke-width="2" d="M910.8132,-1239.8314C913.7644,-1231.9617 917.2858,-1222.5712 920.555,-1213.8533"/>
<polygon fill="#c0c0c0" stroke="#c0c0c0" stroke-width="2" points="923.8609,-1215.0055 924.095,-1204.4133 917.3066,-1212.5476 923.8609,-1215.0055"/>
</g>
<!-- 27 -->
<g id="node28" class="node">
<title>27</title>
<path fill="none" stroke="#56d8d0" stroke-width="2" d="M972,-1348C972,-1348 776,-1348 776,-1348 770,-1348 764,-1342 764,-1336 764,-1336 764,-1324 764,-1324 764,-1318 770,-1312 776,-1312 776,-1312 972,-1312 972,-1312 978,-1312 984,-1318 984,-1324 984,-1324 984,-1336 984,-1336 984,-1342 978,-1348 972,-1348"/>
<text text-anchor="middle" x="874" y="-1327.5" font-family="sans" font-size="10.00" fill="#000000">taxon_prefilter_shard_saturated_reads_remove</text>
</g>
<!-- 27&#45;&gt;26 -->
<g id="edge59" class="edge">
<title>27&#45;&gt;26</title>
<path fill="none" stroke="#c0c0c0" stroke-width="2" d="M881.5703,-1311.8314C884.8493,-1303.9617 888.762,-1294.5712 892.3945,-1285.8533"/>
<polygon fill="#c0c0c0" stroke="#c0c0c0" stroke-width="2" points="895.7124,-1286.9902 896.3278,-1276.4133 889.2508,-1284.2979 895.7124,-1286.9902"/>
</g>
<!-- 28&#45;&gt;1 -->
<g id="edge21" class="edge">
<title>28&#45;&gt;1</title>
<path fill="none" stroke="#c0c0c0" stroke-width="2" d="M1065.1315,-1539.0205C1081.452,-1534.9408 1098.7413,-1530.9964 1115,-1528 1302.8936,-1493.372 1526,-1593.0579 1526,-1402 1526,-1402 1526,-1402 1526,-1330 1526,-1206.9443 1484.9815,-1156.8086 1378,-1096 1297.5783,-1050.2881 1252.9219,-1106.5802 1173,-1060 1119.2624,-1028.6806 1124.8064,-998.9412 1084,-952 1055.5199,-919.2383 1047.8,-911.5658 1018,-880 1002.6811,-863.7733 993.6395,-863.6157 983,-844 959.9698,-801.5401 959,-786.3036 959,-738 959,-738 959,-738 959,-234 959,-189.474 931.8385,-144.1354 911.5984,-116.5313"/>
<polygon fill="#c0c0c0" stroke="#c0c0c0" stroke-width="2" points="914.1352,-114.0829 905.3133,-108.2156 908.5508,-118.3037 914.1352,-114.0829"/>
</g>
<!-- 28&#45;&gt;27 -->
<g id="edge60" class="edge">
<title>28&#45;&gt;27</title>
<path fill="none" stroke="#c0c0c0" stroke-width="2" d="M930.7738,-1527.7628C917.3363,-1518.0344 904.5763,-1506.0996 896,-1492 870.8446,-1450.6442 869.4418,-1392.4939 871.3084,-1358.2792"/>
<polygon fill="#c0c0c0" stroke="#c0c0c0" stroke-width="2" points="874.8165,-1358.2777 872.0034,-1348.0632 867.8327,-1357.8025 874.8165,-1358.2777"/>
</g>
<!-- 32 -->
<g id="node33" class="node">
<title>32</title>
<path fill="none" stroke="#56d8c1" stroke-width="2" d="M1053,-1492C1053,-1492 917,-1492 917,-1492 911,-1492 905,-1486 905,-1480 905,-1480 905,-1468 905,-1468 905,-1462 911,-1456 917,-1456 917,-1456 1053,-1456 1053,-1456 1059,-1456 1065,-1462 1065,-1468 1065,-1468 1065,-1480 1065,-1480 1065,-1486 1059,-1492 1053,-1492"/>
<text text-anchor="middle" x="985" y="-1471.5" font-family="sans" font-size="10.00" fill="#000000">taxon_prefilter_shard_count_alns</text>
</g>
<!-- 28&#45;&gt;32 -->
<g id="edge68" class="edge">
<title>28&#45;&gt;32</title>
<path fill="none" stroke="#c0c0c0" stroke-width="2" d="M989.3935,-1527.663C988.7124,-1519.3439 987.9829,-1510.4339 987.3179,-1502.3118"/>
<polygon fill="#c0c0c0" stroke="#c0c0c0" stroke-width="2" points="990.7948,-1501.8853 986.4904,-1492.2043 983.8182,-1502.4566 990.7948,-1501.8853"/>
</g>
<!-- 29 -->
<g id="node30" class="node">
<title>29</title>
<path fill="none" stroke="#56d8c9" stroke-width="2" d="M1331,-1420C1331,-1420 1149,-1420 1149,-1420 1143,-1420 1137,-1414 1137,-1408 1137,-1408 1137,-1396 1137,-1396 1137,-1390 1143,-1384 1149,-1384 1149,-1384 1331,-1384 1331,-1384 1337,-1384 1343,-1390 1343,-1396 1343,-1396 1343,-1408 1343,-1408 1343,-1414 1337,-1420 1331,-1420"/>
<text text-anchor="middle" x="1240" y="-1399.5" font-family="sans" font-size="10.00" fill="#000000">taxon_prefilter_shard_saturated_reads_filter</text>
</g>
<!-- 29&#45;&gt;22 -->
<g id="edge53" class="edge">
<title>29&#45;&gt;22</title>
<path fill="none" stroke="#c0c0c0" stroke-width="2" d="M1343.266,-1390.2252C1396.1935,-1381.8388 1452.8691,-1368.3771 1469,-1348 1503.3265,-1304.6376 1484.0249,-1272.8306 1415,-1168 1389.589,-1129.4074 1381.2092,-1116.9025 1340,-1096 1257.5007,-1054.1539 1218.8736,-1099.0187 1135,-1060 1112.4012,-1049.4868 1111.5324,-1039.4829 1092,-1024 1079.4645,-1014.0634 1065.4406,-1003.4383 1053.1234,-994.2645"/>
<polygon fill="#c0c0c0" stroke="#c0c0c0" stroke-width="2" points="1055.0251,-991.3174 1044.908,-988.1716 1050.8552,-996.9399 1055.0251,-991.3174"/>
</g>
<!-- 29&#45;&gt;27 -->
<g id="edge61" class="edge">
<title>29&#45;&gt;27</title>
<path fill="none" stroke="#c0c0c0" stroke-width="2" d="M1148.1152,-1383.9243C1095.5882,-1373.5911 1029.6151,-1360.6128 975.5548,-1349.978"/>
<polygon fill="#c0c0c0" stroke="#c0c0c0" stroke-width="2" points="976.0927,-1346.5168 965.6051,-1348.0207 974.7415,-1353.3852 976.0927,-1346.5168"/>
</g>
<!-- 37 -->
<g id="node38" class="node">
<title>37</title>
<path fill="none" stroke="#56d8d0" stroke-width="2" d="M1210,-1348C1210,-1348 1014,-1348 1014,-1348 1008,-1348 1002,-1342 1002,-1336 1002,-1336 1002,-1324 1002,-1324 1002,-1318 1008,-1312 1014,-1312 1014,-1312 1210,-1312 1210,-1312 1216,-1312 1222,-1318 1222,-1324 1222,-1324 1222,-1336 1222,-1336 1222,-1342 1216,-1348 1210,-1348"/>
<text text-anchor="middle" x="1112" y="-1327.5" font-family="sans" font-size="10.00" fill="#000000">taxon_prefilter_shard_saturated_reads_remove</text>
</g>
<!-- 29&#45;&gt;37 -->
<g id="edge74" class="edge">
<title>29&#45;&gt;37</title>
<path fill="none" stroke="#c0c0c0" stroke-width="2" d="M1207.7002,-1383.8314C1191.1766,-1374.5368 1170.8814,-1363.1208 1153.2393,-1353.1971"/>
<polygon fill="#c0c0c0" stroke="#c0c0c0" stroke-width="2" points="1154.7212,-1350.015 1144.2895,-1348.1628 1151.2893,-1356.116 1154.7212,-1350.015"/>
</g>
<!-- 40 -->
<g id="node41" class="node">
<title>40</title>
<path fill="none" stroke="#56d8d0" stroke-width="2" d="M1448,-1348C1448,-1348 1252,-1348 1252,-1348 1246,-1348 1240,-1342 1240,-1336 1240,-1336 1240,-1324 1240,-1324 1240,-1318 1246,-1312 1252,-1312 1252,-1312 1448,-1312 1448,-1312 1454,-1312 1460,-1318 1460,-1324 1460,-1324 1460,-1336 1460,-1336 1460,-1342 1454,-1348 1448,-1348"/>
<text text-anchor="middle" x="1350" y="-1327.5" font-family="sans" font-size="10.00" fill="#000000">taxon_prefilter_shard_saturated_reads_remove</text>
</g>
<!-- 29&#45;&gt;40 -->
<g id="edge78" class="edge">
<title>29&#45;&gt;40</title>
<path fill="none" stroke="#c0c0c0" stroke-width="2" d="M1267.7576,-1383.8314C1281.697,-1374.7074 1298.7598,-1363.539 1313.7231,-1353.7449"/>
<polygon fill="#c0c0c0" stroke="#c0c0c0" stroke-width="2" points="1315.801,-1356.5679 1322.2512,-1348.1628 1311.9674,-1350.711 1315.801,-1356.5679"/>
</g>
<!-- 29&#45;&gt;61 -->
<g id="edge106" class="edge">
<title>29&#45;&gt;61</title>
<path fill="none" stroke="#c0c0c0" stroke-width="2" d="M1343.0905,-1387.1252C1423.5796,-1375.5116 1535.527,-1359.3588 1619.8517,-1347.1917"/>
<polygon fill="#c0c0c0" stroke="#c0c0c0" stroke-width="2" points="1620.5967,-1350.6206 1629.9943,-1345.7283 1619.597,-1343.6923 1620.5967,-1350.6206"/>
</g>
<!-- 30 -->
<g id="node31" class="node">
<title>30</title>
<path fill="none" stroke="#56d8c1" stroke-width="2" d="M1231,-1492C1231,-1492 1095,-1492 1095,-1492 1089,-1492 1083,-1486 1083,-1480 1083,-1480 1083,-1468 1083,-1468 1083,-1462 1089,-1456 1095,-1456 1095,-1456 1231,-1456 1231,-1456 1237,-1456 1243,-1462 1243,-1468 1243,-1468 1243,-1480 1243,-1480 1243,-1486 1237,-1492 1231,-1492"/>
<text text-anchor="middle" x="1163" y="-1471.5" font-family="sans" font-size="10.00" fill="#000000">taxon_prefilter_shard_count_alns</text>
</g>
<!-- 30&#45;&gt;29 -->
<g id="edge63" class="edge">
<title>30&#45;&gt;29</title>
<path fill="none" stroke="#c0c0c0" stroke-width="2" d="M1182.4304,-1455.8314C1191.732,-1447.1337 1203.0204,-1436.5783 1213.1286,-1427.1265"/>
<polygon fill="#c0c0c0" stroke="#c0c0c0" stroke-width="2" points="1215.6621,-1429.5493 1220.5759,-1420.1628 1210.8811,-1424.4363 1215.6621,-1429.5493"/>
</g>
<!-- 31&#45;&gt;1 -->
<g id="edge23" class="edge">
<title>31&#45;&gt;1</title>
<path fill="none" stroke="#c0c0c0" stroke-width="2" d="M1270.0715,-1538.5496C1284.2537,-1534.7979 1299.0457,-1531.101 1313,-1528 1404.1572,-1507.7424 1445.3307,-1548.0758 1520,-1492 1555.6026,-1465.2628 1564,-1446.5244 1564,-1402 1564,-1402 1564,-1402 1564,-1186 1564,-1019.4163 1356.388,-1141.3169 1211,-1060 1197.0516,-1052.1985 1028.2672,-858.234 1021,-844 999.0356,-800.9791 997,-786.3036 997,-738 997,-738 997,-738 997,-234 997,-184.2513 955.3459,-140.5243 924.0163,-114.6715"/>
<polygon fill="#c0c0c0" stroke="#c0c0c0" stroke-width="2" points="925.8962,-111.6931 915.9017,-108.1774 921.5223,-117.1584 925.8962,-111.6931"/>
</g>
<!-- 31&#45;&gt;30 -->
<g id="edge66" class="edge">
<title>31&#45;&gt;30</title>
<path fill="none" stroke="#c0c0c0" stroke-width="2" d="M1184.3397,-1527.663C1180.9571,-1519.1569 1177.329,-1510.0332 1174.0412,-1501.7655"/>
<polygon fill="#c0c0c0" stroke="#c0c0c0" stroke-width="2" points="1177.1866,-1500.2032 1170.2391,-1492.2043 1170.6821,-1502.7899 1177.1866,-1500.2032"/>
</g>
<!-- 31&#45;&gt;40 -->
<g id="edge77" class="edge">
<title>31&#45;&gt;40</title>
<path fill="none" stroke="#c0c0c0" stroke-width="2" d="M1270.2882,-1539.3877C1337.651,-1520.733 1427.478,-1495.3564 1430,-1492 1462.9344,-1448.1703 1413.607,-1388.6756 1378.9926,-1355.3366"/>
<polygon fill="#c0c0c0" stroke="#c0c0c0" stroke-width="2" points="1381.1194,-1352.5324 1371.4334,-1348.2392 1376.328,-1357.6357 1381.1194,-1352.5324"/>
</g>
<!-- 32&#45;&gt;29 -->
<g id="edge64" class="edge">
<title>32&#45;&gt;29</title>
<path fill="none" stroke="#c0c0c0" stroke-width="2" d="M1049.0181,-1455.9243C1084.6359,-1445.8675 1129.1275,-1433.3052 1166.2049,-1422.8363"/>
<polygon fill="#c0c0c0" stroke="#c0c0c0" stroke-width="2" points="1167.2829,-1426.1688 1175.9555,-1420.0831 1165.3807,-1419.4322 1167.2829,-1426.1688"/>
</g>
<!-- 33 -->
<g id="node34" class="node">
<title>33</title>
<path fill="none" stroke="#56d8c1" stroke-width="2" d="M1409,-1492C1409,-1492 1273,-1492 1273,-1492 1267,-1492 1261,-1486 1261,-1480 1261,-1480 1261,-1468 1261,-1468 1261,-1462 1267,-1456 1273,-1456 1273,-1456 1409,-1456 1409,-1456 1415,-1456 1421,-1462 1421,-1468 1421,-1468 1421,-1480 1421,-1480 1421,-1486 1415,-1492 1409,-1492"/>
<text text-anchor="middle" x="1341" y="-1471.5" font-family="sans" font-size="10.00" fill="#000000">taxon_prefilter_shard_count_alns</text>
</g>
<!-- 33&#45;&gt;29 -->
<g id="edge65" class="edge">
<title>33&#45;&gt;29</title>
<path fill="none" stroke="#c0c0c0" stroke-width="2" d="M1315.5134,-1455.8314C1302.8341,-1446.7927 1287.3404,-1435.7476 1273.6945,-1426.0198"/>
<polygon fill="#c0c0c0" stroke="#c0c0c0" stroke-width="2" points="1275.6529,-1423.1176 1265.4784,-1420.1628 1271.5895,-1428.8176 1275.6529,-1423.1176"/>
</g>
<!-- 34&#45;&gt;1 -->
<g id="edge22" class="edge">
<title>34&#45;&gt;1</title>
<path fill="none" stroke="#c0c0c0" stroke-width="2" d="M1468.098,-1528.8493C1506.5273,-1512.5332 1546.4421,-1495.1763 1550,-1492 1584.4615,-1461.2343 1602,-1448.1966 1602,-1402 1602,-1402 1602,-1402 1602,-1186 1602,-1009.5493 1339.444,-1089.743 1133,-916 1063.9047,-857.8494 1035,-828.3087 1035,-738 1035,-738 1035,-738 1035,-234 1035,-178.0233 979.9221,-136.3474 937.6573,-112.6073"/>
<polygon fill="#c0c0c0" stroke="#c0c0c0" stroke-width="2" points="939.3135,-109.5239 928.8573,-107.8149 935.9656,-115.6714 939.3135,-109.5239"/>
</g>
<!-- 34&#45;&gt;33 -->
<g id="edge69" class="edge">
<title>34&#45;&gt;33</title>
<path fill="none" stroke="#c0c0c0" stroke-width="2" d="M1374.8924,-1527.663C1369.284,-1518.783 1363.2505,-1509.2299 1357.8507,-1500.6803"/>
<polygon fill="#c0c0c0" stroke="#c0c0c0" stroke-width="2" points="1360.7966,-1498.7902 1352.4974,-1492.2043 1354.8782,-1502.5282 1360.7966,-1498.7902"/>
</g>
<!-- 34&#45;&gt;37 -->
<g id="edge73" class="edge">
<title>34&#45;&gt;37</title>
<path fill="none" stroke="#c0c0c0" stroke-width="2" d="M1417.9492,-1527.7123C1429.9755,-1506.9571 1440.2704,-1479.4574 1430,-1456 1411.0781,-1412.7827 1393.7732,-1405.9267 1352,-1384 1329.7096,-1372.2998 1277.0523,-1359.924 1226.7239,-1349.976"/>
<polygon fill="#c0c0c0" stroke="#c0c0c0" stroke-width="2" points="1227.1842,-1346.4999 1216.699,-1348.0197 1225.8434,-1353.3703 1227.1842,-1346.4999"/>
</g>
<!-- 35 -->
<g id="node36" class="node">
<title>35</title>
<path fill="none" stroke="#56d8d8" stroke-width="2" d="M1188,-1204C1188,-1204 1054,-1204 1054,-1204 1048,-1204 1042,-1198 1042,-1192 1042,-1192 1042,-1180 1042,-1180 1042,-1174 1048,-1168 1054,-1168 1054,-1168 1188,-1168 1188,-1168 1194,-1168 1200,-1174 1200,-1180 1200,-1180 1200,-1192 1200,-1192 1200,-1198 1194,-1204 1188,-1204"/>
<text text-anchor="middle" x="1121" y="-1183.5" font-family="sans" font-size="10.00" fill="#000000">taxon_prefilter_shard_sort_query</text>
</g>
<!-- 35&#45;&gt;24 -->
<g id="edge56" class="edge">
<title>35&#45;&gt;24</title>
<path fill="none" stroke="#c0c0c0" stroke-width="2" d="M1156.8326,-1167.8314C1175.4157,-1158.4089 1198.2989,-1146.8062 1218.0565,-1136.7883"/>
<polygon fill="#c0c0c0" stroke="#c0c0c0" stroke-width="2" points="1219.8427,-1139.8069 1227.1789,-1132.1628 1216.677,-1133.5635 1219.8427,-1139.8069"/>
</g>
<!-- 36 -->
<g id="node37" class="node">
<title>36</title>
<path fill="none" stroke="#56d0d8" stroke-width="2" d="M1180,-1276C1180,-1276 1060,-1276 1060,-1276 1054,-1276 1048,-1270 1048,-1264 1048,-1264 1048,-1252 1048,-1252 1048,-1246 1054,-1240 1060,-1240 1060,-1240 1180,-1240 1180,-1240 1186,-1240 1192,-1246 1192,-1252 1192,-1252 1192,-1264 1192,-1264 1192,-1270 1186,-1276 1180,-1276"/>
<text text-anchor="middle" x="1120" y="-1255.5" font-family="sans" font-size="10.00" fill="#000000">taxon_prefilter_shard_unicorn</text>
</g>
<!-- 36&#45;&gt;35 -->
<g id="edge71" class="edge">
<title>36&#45;&gt;35</title>
<path fill="none" stroke="#c0c0c0" stroke-width="2" d="M1120.2523,-1239.8314C1120.3593,-1232.131 1120.4865,-1222.9743 1120.6053,-1214.4166"/>
<polygon fill="#c0c0c0" stroke="#c0c0c0" stroke-width="2" points="1124.1049,-1214.4609 1120.7443,-1204.4133 1117.1056,-1214.3637 1124.1049,-1214.4609"/>
</g>
<!-- 37&#45;&gt;36 -->
<g id="edge72" class="edge">
<title>37&#45;&gt;36</title>
<path fill="none" stroke="#c0c0c0" stroke-width="2" d="M1114.0187,-1311.8314C1114.8743,-1304.131 1115.8917,-1294.9743 1116.8426,-1286.4166"/>
<polygon fill="#c0c0c0" stroke="#c0c0c0" stroke-width="2" points="1120.3283,-1286.7386 1117.9541,-1276.4133 1113.3711,-1285.9656 1120.3283,-1286.7386"/>
</g>
<!-- 38 -->
<g id="node39" class="node">
<title>38</title>
<path fill="none" stroke="#56d8d8" stroke-width="2" d="M1394,-1204C1394,-1204 1260,-1204 1260,-1204 1254,-1204 1248,-1198 1248,-1192 1248,-1192 1248,-1180 1248,-1180 1248,-1174 1254,-1168 1260,-1168 1260,-1168 1394,-1168 1394,-1168 1400,-1168 1406,-1174 1406,-1180 1406,-1180 1406,-1192 1406,-1192 1406,-1198 1400,-1204 1394,-1204"/>
<text text-anchor="middle" x="1327" y="-1183.5" font-family="sans" font-size="10.00" fill="#000000">taxon_prefilter_shard_sort_query</text>
</g>
<!-- 38&#45;&gt;24 -->
<g id="edge57" class="edge">
<title>38&#45;&gt;24</title>
<path fill="none" stroke="#c0c0c0" stroke-width="2" d="M1310.8501,-1167.8314C1303.3283,-1159.3694 1294.2435,-1149.1489 1286.0196,-1139.8971"/>
<polygon fill="#c0c0c0" stroke="#c0c0c0" stroke-width="2" points="1288.627,-1137.5621 1279.3673,-1132.4133 1283.3951,-1142.2127 1288.627,-1137.5621"/>
</g>
<!-- 39 -->
<g id="node40" class="node">
<title>39</title>
<path fill="none" stroke="#56d0d8" stroke-width="2" d="M1398,-1276C1398,-1276 1278,-1276 1278,-1276 1272,-1276 1266,-1270 1266,-1264 1266,-1264 1266,-1252 1266,-1252 1266,-1246 1272,-1240 1278,-1240 1278,-1240 1398,-1240 1398,-1240 1404,-1240 1410,-1246 1410,-1252 1410,-1252 1410,-1264 1410,-1264 1410,-1270 1404,-1276 1398,-1276"/>
<text text-anchor="middle" x="1338" y="-1255.5" font-family="sans" font-size="10.00" fill="#000000">taxon_prefilter_shard_unicorn</text>
</g>
<!-- 39&#45;&gt;38 -->
<g id="edge75" class="edge">
<title>39&#45;&gt;38</title>
<path fill="none" stroke="#c0c0c0" stroke-width="2" d="M1335.2242,-1239.8314C1334.0478,-1232.131 1332.6489,-1222.9743 1331.3414,-1214.4166"/>
<polygon fill="#c0c0c0" stroke="#c0c0c0" stroke-width="2" points="1334.7833,-1213.7699 1329.8131,-1204.4133 1327.8636,-1214.8272 1334.7833,-1213.7699"/>
</g>
<!-- 40&#45;&gt;39 -->
<g id="edge76" class="edge">
<title>40&#45;&gt;39</title>
<path fill="none" stroke="#c0c0c0" stroke-width="2" d="M1346.9719,-1311.8314C1345.6885,-1304.131 1344.1624,-1294.9743 1342.7361,-1286.4166"/>
<polygon fill="#c0c0c0" stroke="#c0c0c0" stroke-width="2" points="1346.1653,-1285.7018 1341.0689,-1276.4133 1339.2606,-1286.8526 1346.1653,-1285.7018"/>
</g>
<!-- 41&#45;&gt;1 -->
<g id="edge24" class="edge">
<title>41&#45;&gt;1</title>
<path fill="none" stroke="#c0c0c0" stroke-width="2" d="M1176.2577,-879.7949C1136.6963,-853.7748 1073,-801.9508 1073,-738 1073,-738 1073,-738 1073,-234 1073,-192.6022 1077.2788,-174.2338 1049,-144 1033.6842,-127.6254 979.3713,-111.4331 938.4533,-101.1155"/>
<polygon fill="#c0c0c0" stroke="#c0c0c0" stroke-width="2" points="939.1824,-97.6905 928.6345,-98.6864 937.5012,-104.4856 939.1824,-97.6905"/>
</g>
<!-- 42 -->
<g id="node43" class="node">
<title>42</title>
<path fill="none" stroke="#56d89a" stroke-width="2" d="M1232.5,-252C1232.5,-252 1113.5,-252 1113.5,-252 1107.5,-252 1101.5,-246 1101.5,-240 1101.5,-240 1101.5,-228 1101.5,-228 1101.5,-222 1107.5,-216 1113.5,-216 1113.5,-216 1232.5,-216 1232.5,-216 1238.5,-216 1244.5,-222 1244.5,-228 1244.5,-228 1244.5,-240 1244.5,-240 1244.5,-246 1238.5,-252 1232.5,-252"/>
<text text-anchor="middle" x="1173" y="-231.5" font-family="sans" font-size="10.00" fill="#000000">taxon_prefilter_metadmg_dfit</text>
</g>
<!-- 42&#45;&gt;1 -->
<g id="edge25" class="edge">
<title>42&#45;&gt;1</title>
<path fill="none" stroke="#c0c0c0" stroke-width="2" d="M1157.8388,-215.9802C1137.8567,-192.6282 1103.3333,-153.7425 1087,-144 1040.8561,-116.4759 980.3295,-102.6168 938.6067,-95.8887"/>
<polygon fill="#c0c0c0" stroke="#c0c0c0" stroke-width="2" points="939.1037,-92.424 928.6884,-94.3662 938.0415,-99.343 939.1037,-92.424"/>
</g>
<!-- 44 -->
<g id="node45" class="node">
<title>44</title>
<path fill="none" stroke="#56d88a" stroke-width="2" d="M1299,-180C1299,-180 1151,-180 1151,-180 1145,-180 1139,-174 1139,-168 1139,-168 1139,-156 1139,-156 1139,-150 1145,-144 1151,-144 1151,-144 1299,-144 1299,-144 1305,-144 1311,-150 1311,-156 1311,-156 1311,-168 1311,-168 1311,-174 1305,-180 1299,-180"/>
<text text-anchor="middle" x="1225" y="-159.5" font-family="sans" font-size="10.00" fill="#000000">taxon_prefilter_metadmg_aggregate</text>
</g>
<!-- 42&#45;&gt;44 -->
<g id="edge83" class="edge">
<title>42&#45;&gt;44</title>
<path fill="none" stroke="#c0c0c0" stroke-width="2" d="M1186.1218,-215.8314C1192.0499,-207.6232 1199.1729,-197.7606 1205.6933,-188.7323"/>
<polygon fill="#c0c0c0" stroke="#c0c0c0" stroke-width="2" points="1208.684,-190.5693 1211.7015,-180.4133 1203.0092,-186.4708 1208.684,-190.5693"/>
</g>
<!-- 43&#45;&gt;42 -->
<g id="edge80" class="edge">
<title>43&#45;&gt;42</title>
<path fill="none" stroke="#c0c0c0" stroke-width="2" d="M1223.0931,-287.8314C1215.2187,-279.3694 1205.708,-269.1489 1197.0987,-259.8971"/>
<polygon fill="#c0c0c0" stroke="#c0c0c0" stroke-width="2" points="1199.5092,-257.3497 1190.1346,-252.4133 1194.3847,-262.1183 1199.5092,-257.3497"/>
</g>
<!-- 43&#45;&gt;44 -->
<g id="edge82" class="edge">
<title>43&#45;&gt;44</title>
<path fill="none" stroke="#c0c0c0" stroke-width="2" d="M1247.0333,-287.8747C1253.16,-269.5585 1260.1716,-240.5364 1254,-216 1251.6614,-206.7024 1247.377,-197.2609 1242.8062,-188.9283"/>
<polygon fill="#c0c0c0" stroke="#c0c0c0" stroke-width="2" points="1245.6857,-186.9192 1237.6122,-180.0585 1239.6451,-190.4564 1245.6857,-186.9192"/>
</g>
<!-- 44&#45;&gt;0 -->
<g id="edge3" class="edge">
<title>44&#45;&gt;0</title>
<path fill="none" stroke="#c0c0c0" stroke-width="2" d="M1298.8285,-143.9808C1422.4382,-113.8117 1667.7032,-53.9504 1769.2874,-29.157"/>
<polygon fill="#c0c0c0" stroke="#c0c0c0" stroke-width="2" points="1770.3495,-32.5006 1779.2345,-26.7292 1768.6897,-25.7002 1770.3495,-32.5006"/>
</g>
<!-- 44&#45;&gt;1 -->
<g id="edge26" class="edge">
<title>44&#45;&gt;1</title>
<path fill="none" stroke="#c0c0c0" stroke-width="2" d="M1140.8978,-143.9243C1076.9875,-130.1884 991.3297,-111.7783 938.446,-100.4123"/>
<polygon fill="#c0c0c0" stroke="#c0c0c0" stroke-width="2" points="939.1563,-96.9851 928.644,-98.3056 937.6853,-103.8288 939.1563,-96.9851"/>
</g>
<!-- 45&#45;&gt;1 -->
<g id="edge27" class="edge">
<title>45&#45;&gt;1</title>
<path fill="none" stroke="#c0c0c0" stroke-width="2" d="M1530.4046,-809.1539C1457.931,-793.9408 1339,-755.3619 1339,-666 1339,-666 1339,-666 1339,-234 1339,-193.1184 1350.0839,-171.6815 1320,-144 1292.338,-118.547 1045.8193,-99.9255 939.0003,-92.9808"/>
<polygon fill="#c0c0c0" stroke="#c0c0c0" stroke-width="2" points="939.011,-89.4744 928.8071,-92.3261 938.5622,-96.46 939.011,-89.4744"/>
</g>
<!-- 53 -->
<g id="node54" class="node">
<title>53</title>
<path fill="none" stroke="#56b1d8" stroke-width="2" d="M1693,-756C1693,-756 1595,-756 1595,-756 1589,-756 1583,-750 1583,-744 1583,-744 1583,-732 1583,-732 1583,-726 1589,-720 1595,-720 1595,-720 1693,-720 1693,-720 1699,-720 1705,-726 1705,-732 1705,-732 1705,-744 1705,-744 1705,-750 1699,-756 1693,-756"/>
<text text-anchor="middle" x="1644" y="-735.5" font-family="sans" font-size="10.00" fill="#000000">taxon_shard_count_alns</text>
</g>
<!-- 45&#45;&gt;53 -->
<g id="edge95" class="edge">
<title>45&#45;&gt;53</title>
<path fill="none" stroke="#c0c0c0" stroke-width="2" d="M1604.3188,-791.805C1610.8386,-782.9646 1618.1146,-773.0988 1624.6378,-764.2538"/>
<polygon fill="#c0c0c0" stroke="#c0c0c0" stroke-width="2" points="1627.4933,-766.2787 1630.612,-756.1532 1621.8597,-762.1239 1627.4933,-766.2787"/>
</g>
<!-- 57 -->
<g id="node58" class="node">
<title>57</title>
<path fill="none" stroke="#56a2d8" stroke-width="2" d="M1775,-612C1775,-612 1617,-612 1617,-612 1611,-612 1605,-606 1605,-600 1605,-600 1605,-588 1605,-588 1605,-582 1611,-576 1617,-576 1617,-576 1775,-576 1775,-576 1781,-576 1787,-582 1787,-588 1787,-588 1787,-600 1787,-600 1787,-606 1781,-612 1775,-612"/>
<text text-anchor="middle" x="1696" y="-591.5" font-family="sans" font-size="10.00" fill="#000000">taxon_shard_saturated_reads_remove</text>
</g>
<!-- 45&#45;&gt;57 -->
<g id="edge99" class="edge">
<title>45&#45;&gt;57</title>
<path fill="none" stroke="#c0c0c0" stroke-width="2" d="M1639.7707,-806.2431C1667.0665,-797.3202 1697.6632,-781.9776 1714,-756 1739.9143,-714.793 1722.875,-655.8182 1708.9067,-621.5595"/>
<polygon fill="#c0c0c0" stroke="#c0c0c0" stroke-width="2" points="1712.0476,-620.0021 1704.9043,-612.1776 1705.609,-622.749 1712.0476,-620.0021"/>
</g>
<!-- 46&#45;&gt;1 -->
<g id="edge28" class="edge">
<title>46&#45;&gt;1</title>
<path fill="none" stroke="#c0c0c0" stroke-width="2" d="M1392.8718,-791.8054C1386.3622,-761.6453 1377,-710.5287 1377,-666 1377,-666 1377,-666 1377,-234 1377,-192.6022 1384.3094,-171.0832 1353,-144 1322.0625,-117.2385 1051.184,-99.0652 938.6719,-92.6075"/>
<polygon fill="#c0c0c0" stroke="#c0c0c0" stroke-width="2" points="938.7918,-89.1088 928.6097,-92.0371 938.3955,-96.0976 938.7918,-89.1088"/>
</g>
<!-- 51 -->
<g id="node52" class="node">
<title>51</title>
<path fill="none" stroke="#56a2d8" stroke-width="2" d="M1575,-612C1575,-612 1417,-612 1417,-612 1411,-612 1405,-606 1405,-600 1405,-600 1405,-588 1405,-588 1405,-582 1411,-576 1417,-576 1417,-576 1575,-576 1575,-576 1581,-576 1587,-582 1587,-588 1587,-588 1587,-600 1587,-600 1587,-606 1581,-612 1575,-612"/>
<text text-anchor="middle" x="1496" y="-591.5" font-family="sans" font-size="10.00" fill="#000000">taxon_shard_saturated_reads_remove</text>
</g>
<!-- 46&#45;&gt;51 -->
<g id="edge91" class="edge">
<title>46&#45;&gt;51</title>
<path fill="none" stroke="#c0c0c0" stroke-width="2" d="M1407.4164,-791.8982C1414.058,-771.9732 1423.8654,-743.9604 1434,-720 1448.7376,-685.157 1468.389,-646.2591 1481.5821,-621.0242"/>
<polygon fill="#c0c0c0" stroke="#c0c0c0" stroke-width="2" points="1484.7404,-622.5383 1486.2986,-612.0586 1478.5453,-619.2792 1484.7404,-622.5383"/>
</g>
<!-- 54 -->
<g id="node55" class="node">
<title>54</title>
<path fill="none" stroke="#56b1d8" stroke-width="2" d="M1553,-756C1553,-756 1455,-756 1455,-756 1449,-756 1443,-750 1443,-744 1443,-744 1443,-732 1443,-732 1443,-726 1449,-720 1455,-720 1455,-720 1553,-720 1553,-720 1559,-720 1565,-726 1565,-732 1565,-732 1565,-744 1565,-744 1565,-750 1559,-756 1553,-756"/>
<text text-anchor="middle" x="1504" y="-735.5" font-family="sans" font-size="10.00" fill="#000000">taxon_shard_count_alns</text>
</g>
<!-- 46&#45;&gt;54 -->
<g id="edge96" class="edge">
<title>46&#45;&gt;54</title>
<path fill="none" stroke="#c0c0c0" stroke-width="2" d="M1433.3809,-791.805C1445.8213,-782.3266 1459.8088,-771.6695 1472.0332,-762.3557"/>
<polygon fill="#c0c0c0" stroke="#c0c0c0" stroke-width="2" points="1474.3407,-764.9977 1480.1739,-756.1532 1470.0984,-759.4297 1474.3407,-764.9977"/>
</g>
<!-- 47 -->
<g id="node48" class="node">
<title>47</title>
<path fill="none" stroke="#88d856" stroke-width="2" d="M1486.5,-252C1486.5,-252 1417.5,-252 1417.5,-252 1411.5,-252 1405.5,-246 1405.5,-240 1405.5,-240 1405.5,-228 1405.5,-228 1405.5,-222 1411.5,-216 1417.5,-216 1417.5,-216 1486.5,-216 1486.5,-216 1492.5,-216 1498.5,-222 1498.5,-228 1498.5,-228 1498.5,-240 1498.5,-240 1498.5,-246 1492.5,-252 1486.5,-252"/>
<text text-anchor="middle" x="1452" y="-231.5" font-family="sans" font-size="10.00" fill="#000000">taxon_align_stats</text>
</g>
<!-- 47&#45;&gt;1 -->
<g id="edge29" class="edge">
<title>47&#45;&gt;1</title>
<path fill="none" stroke="#c0c0c0" stroke-width="2" d="M1445.2841,-215.9509C1436.3777,-194.7959 1418.5021,-160.5325 1391,-144 1352.7441,-121.003 1057.0638,-100.3528 938.7253,-92.9238"/>
<polygon fill="#c0c0c0" stroke="#c0c0c0" stroke-width="2" points="938.7054,-89.4158 928.5072,-92.2876 938.2703,-96.4023 938.7054,-89.4158"/>
</g>
<!-- 48 -->
<g id="node49" class="node">
<title>48</title>
<path fill="none" stroke="#a7d856" stroke-width="2" d="M1647,-396C1647,-396 1573,-396 1573,-396 1567,-396 1561,-390 1561,-384 1561,-384 1561,-372 1561,-372 1561,-366 1567,-360 1573,-360 1573,-360 1647,-360 1647,-360 1653,-360 1659,-366 1659,-372 1659,-372 1659,-384 1659,-384 1659,-390 1653,-396 1647,-396"/>
<text text-anchor="middle" x="1610" y="-375.5" font-family="sans" font-size="10.00" fill="#000000">taxon_align_merge</text>
</g>
<!-- 48&#45;&gt;47 -->
<g id="edge86" class="edge">
<title>48&#45;&gt;47</title>
<path fill="none" stroke="#c0c0c0" stroke-width="2" d="M1589.2813,-359.8725C1577.4262,-349.4468 1562.3096,-336.0627 1549,-324 1524.9567,-302.2092 1497.9152,-277.0656 1478.5038,-258.903"/>
<polygon fill="#c0c0c0" stroke="#c0c0c0" stroke-width="2" points="1480.8928,-256.3451 1471.2017,-252.0633 1476.1074,-261.454 1480.8928,-256.3451"/>
</g>
<!-- 59 -->
<g id="node60" class="node">
<title>59</title>
<path fill="none" stroke="#68d856" stroke-width="2" d="M1650,-324C1650,-324 1570,-324 1570,-324 1564,-324 1558,-318 1558,-312 1558,-312 1558,-300 1558,-300 1558,-294 1564,-288 1570,-288 1570,-288 1650,-288 1650,-288 1656,-288 1662,-294 1662,-300 1662,-300 1662,-312 1662,-312 1662,-318 1656,-324 1650,-324"/>
<text text-anchor="middle" x="1610" y="-303.5" font-family="sans" font-size="10.00" fill="#000000">taxon_metadmg_lca</text>
</g>
<!-- 48&#45;&gt;59 -->
<g id="edge102" class="edge">
<title>48&#45;&gt;59</title>
<path fill="none" stroke="#c0c0c0" stroke-width="2" d="M1610,-359.8314C1610,-352.131 1610,-342.9743 1610,-334.4166"/>
<polygon fill="#c0c0c0" stroke="#c0c0c0" stroke-width="2" points="1613.5001,-334.4132 1610,-324.4133 1606.5001,-334.4133 1613.5001,-334.4132"/>
</g>
<!-- 64 -->
<g id="node65" class="node">
<title>64</title>
<path fill="none" stroke="#78d856" stroke-width="2" d="M2033,-108C2033,-108 1931,-108 1931,-108 1925,-108 1919,-102 1919,-96 1919,-96 1919,-84 1919,-84 1919,-78 1925,-72 1931,-72 1931,-72 2033,-72 2033,-72 2039,-72 2045,-78 2045,-84 2045,-84 2045,-96 2045,-96 2045,-102 2039,-108 2033,-108"/>
<text text-anchor="middle" x="1982" y="-87.5" font-family="sans" font-size="10.00" fill="#000000">taxon_metadmg_damage</text>
</g>
<!-- 48&#45;&gt;64 -->
<g id="edge110" class="edge">
<title>48&#45;&gt;64</title>
<path fill="none" stroke="#c0c0c0" stroke-width="2" d="M1643.047,-359.8268C1699.8796,-327.732 1818.3648,-257.081 1905,-180 1926.7156,-160.6793 1947.9258,-135.2559 1962.5682,-116.3595"/>
<polygon fill="#c0c0c0" stroke="#c0c0c0" stroke-width="2" points="1965.5251,-118.2541 1968.8118,-108.182 1959.9614,-114.0061 1965.5251,-118.2541"/>
</g>
<!-- 49 -->
<g id="node50" class="node">
<title>49</title>
<path fill="none" stroke="#569ad8" stroke-width="2" d="M1578.5,-468C1578.5,-468 1481.5,-468 1481.5,-468 1475.5,-468 1469.5,-462 1469.5,-456 1469.5,-456 1469.5,-444 1469.5,-444 1469.5,-438 1475.5,-432 1481.5,-432 1481.5,-432 1578.5,-432 1578.5,-432 1584.5,-432 1590.5,-438 1590.5,-444 1590.5,-444 1590.5,-456 1590.5,-456 1590.5,-462 1584.5,-468 1578.5,-468"/>
<text text-anchor="middle" x="1530" y="-447.5" font-family="sans" font-size="10.00" fill="#000000">taxon_shard_sort_query</text>
</g>
<!-- 49&#45;&gt;48 -->
<g id="edge87" class="edge">
<title>49&#45;&gt;48</title>
<path fill="none" stroke="#c0c0c0" stroke-width="2" d="M1550.1874,-431.8314C1559.8514,-423.1337 1571.5796,-412.5783 1582.0816,-403.1265"/>
<polygon fill="#c0c0c0" stroke="#c0c0c0" stroke-width="2" points="1584.7275,-405.454 1589.8191,-396.1628 1580.0447,-400.251 1584.7275,-405.454"/>
</g>
<!-- 50 -->
<g id="node51" class="node">
<title>50</title>
<path fill="none" stroke="#5692d8" stroke-width="2" d="M1541.5,-540C1541.5,-540 1458.5,-540 1458.5,-540 1452.5,-540 1446.5,-534 1446.5,-528 1446.5,-528 1446.5,-516 1446.5,-516 1446.5,-510 1452.5,-504 1458.5,-504 1458.5,-504 1541.5,-504 1541.5,-504 1547.5,-504 1553.5,-510 1553.5,-516 1553.5,-516 1553.5,-528 1553.5,-528 1553.5,-534 1547.5,-540 1541.5,-540"/>
<text text-anchor="middle" x="1500" y="-519.5" font-family="sans" font-size="10.00" fill="#000000">taxon_shard_unicorn</text>
</g>
<!-- 50&#45;&gt;49 -->
<g id="edge89" class="edge">
<title>50&#45;&gt;49</title>
<path fill="none" stroke="#c0c0c0" stroke-width="2" d="M1507.5703,-503.8314C1510.8493,-495.9617 1514.762,-486.5712 1518.3945,-477.8533"/>
<polygon fill="#c0c0c0" stroke="#c0c0c0" stroke-width="2" points="1521.7124,-478.9902 1522.3278,-468.4133 1515.2508,-476.2979 1521.7124,-478.9902"/>
</g>
<!-- 51&#45;&gt;50 -->
<g id="edge90" class="edge">
<title>51&#45;&gt;50</title>
<path fill="none" stroke="#c0c0c0" stroke-width="2" d="M1497.0094,-575.8314C1497.4372,-568.131 1497.9459,-558.9743 1498.4213,-550.4166"/>
<polygon fill="#c0c0c0" stroke="#c0c0c0" stroke-width="2" points="1501.9169,-550.592 1498.977,-540.4133 1494.9276,-550.2037 1501.9169,-550.592"/>
</g>
<!-- 52 -->
<g id="node53" class="node">
<title>52</title>
<path fill="none" stroke="#56a9d8" stroke-width="2" d="M1692.5,-684C1692.5,-684 1547.5,-684 1547.5,-684 1541.5,-684 1535.5,-678 1535.5,-672 1535.5,-672 1535.5,-660 1535.5,-660 1535.5,-654 1541.5,-648 1547.5,-648 1547.5,-648 1692.5,-648 1692.5,-648 1698.5,-648 1704.5,-654 1704.5,-660 1704.5,-660 1704.5,-672 1704.5,-672 1704.5,-678 1698.5,-684 1692.5,-684"/>
<text text-anchor="middle" x="1620" y="-663.5" font-family="sans" font-size="10.00" fill="#000000">taxon_shard_saturated_reads_filter</text>
</g>
<!-- 52&#45;&gt;51 -->
<g id="edge92" class="edge">
<title>52&#45;&gt;51</title>
<path fill="none" stroke="#c0c0c0" stroke-width="2" d="M1588.7096,-647.8314C1572.7023,-638.5368 1553.0414,-627.1208 1535.9506,-617.1971"/>
<polygon fill="#c0c0c0" stroke="#c0c0c0" stroke-width="2" points="1537.6858,-614.1575 1527.2804,-612.1628 1534.1708,-620.211 1537.6858,-614.1575"/>
</g>
<!-- 52&#45;&gt;57 -->
<g id="edge100" class="edge">
<title>52&#45;&gt;57</title>
<path fill="none" stroke="#c0c0c0" stroke-width="2" d="M1639.178,-647.8314C1648.3588,-639.1337 1659.5006,-628.5783 1669.4776,-619.1265"/>
<polygon fill="#c0c0c0" stroke="#c0c0c0" stroke-width="2" points="1671.9757,-621.5811 1676.8281,-612.1628 1667.1615,-616.4995 1671.9757,-621.5811"/>
</g>
<!-- 52&#45;&gt;63 -->
<g id="edge109" class="edge">
<title>52&#45;&gt;63</title>
<path fill="none" stroke="#c0c0c0" stroke-width="2" d="M1704.5199,-648.6626C1755.307,-638.2447 1820.1441,-624.9448 1873.1467,-614.0725"/>
<polygon fill="#c0c0c0" stroke="#c0c0c0" stroke-width="2" points="1874.1475,-617.4402 1883.2401,-612.002 1872.7408,-610.5829 1874.1475,-617.4402"/>
</g>
<!-- 53&#45;&gt;52 -->
<g id="edge93" class="edge">
<title>53&#45;&gt;52</title>
<path fill="none" stroke="#c0c0c0" stroke-width="2" d="M1637.9438,-719.8314C1635.3488,-712.0463 1632.2576,-702.7729 1629.3782,-694.1347"/>
<polygon fill="#c0c0c0" stroke="#c0c0c0" stroke-width="2" points="1632.6205,-692.7933 1626.1378,-684.4133 1625.9797,-695.0069 1632.6205,-692.7933"/>
</g>
<!-- 54&#45;&gt;52 -->
<g id="edge94" class="edge">
<title>54&#45;&gt;52</title>
<path fill="none" stroke="#c0c0c0" stroke-width="2" d="M1533.2717,-719.8314C1548.1088,-710.6221 1566.3015,-699.3301 1582.1862,-689.4706"/>
<polygon fill="#c0c0c0" stroke="#c0c0c0" stroke-width="2" points="1584.087,-692.4102 1590.7377,-684.1628 1580.3955,-686.4628 1584.087,-692.4102"/>
</g>
<!-- 55 -->
<g id="node56" class="node">
<title>55</title>
<path fill="none" stroke="#569ad8" stroke-width="2" d="M1732.5,-468C1732.5,-468 1635.5,-468 1635.5,-468 1629.5,-468 1623.5,-462 1623.5,-456 1623.5,-456 1623.5,-444 1623.5,-444 1623.5,-438 1629.5,-432 1635.5,-432 1635.5,-432 1732.5,-432 1732.5,-432 1738.5,-432 1744.5,-438 1744.5,-444 1744.5,-444 1744.5,-456 1744.5,-456 1744.5,-462 1738.5,-468 1732.5,-468"/>
<text text-anchor="middle" x="1684" y="-447.5" font-family="sans" font-size="10.00" fill="#000000">taxon_shard_sort_query</text>
</g>
<!-- 55&#45;&gt;48 -->
<g id="edge88" class="edge">
<title>55&#45;&gt;48</title>
<path fill="none" stroke="#c0c0c0" stroke-width="2" d="M1665.3267,-431.8314C1656.4751,-423.219 1645.7514,-412.7851 1636.1105,-403.4048"/>
<polygon fill="#c0c0c0" stroke="#c0c0c0" stroke-width="2" points="1638.2754,-400.6279 1628.6674,-396.1628 1633.3939,-405.645 1638.2754,-400.6279"/>
</g>
<!-- 56 -->
<g id="node57" class="node">
<title>56</title>
<path fill="none" stroke="#5692d8" stroke-width="2" d="M1729.5,-540C1729.5,-540 1646.5,-540 1646.5,-540 1640.5,-540 1634.5,-534 1634.5,-528 1634.5,-528 1634.5,-516 1634.5,-516 1634.5,-510 1640.5,-504 1646.5,-504 1646.5,-504 1729.5,-504 1729.5,-504 1735.5,-504 1741.5,-510 1741.5,-516 1741.5,-516 1741.5,-528 1741.5,-528 1741.5,-534 1735.5,-540 1729.5,-540"/>
<text text-anchor="middle" x="1688" y="-519.5" font-family="sans" font-size="10.00" fill="#000000">taxon_shard_unicorn</text>
</g>
<!-- 56&#45;&gt;55 -->
<g id="edge97" class="edge">
<title>56&#45;&gt;55</title>
<path fill="none" stroke="#c0c0c0" stroke-width="2" d="M1686.9906,-503.8314C1686.5628,-496.131 1686.0541,-486.9743 1685.5787,-478.4166"/>
<polygon fill="#c0c0c0" stroke="#c0c0c0" stroke-width="2" points="1689.0724,-478.2037 1685.023,-468.4133 1682.0831,-478.592 1689.0724,-478.2037"/>
</g>
<!-- 57&#45;&gt;56 -->
<g id="edge98" class="edge">
<title>57&#45;&gt;56</title>
<path fill="none" stroke="#c0c0c0" stroke-width="2" d="M1693.9813,-575.8314C1693.1257,-568.131 1692.1083,-558.9743 1691.1574,-550.4166"/>
<polygon fill="#c0c0c0" stroke="#c0c0c0" stroke-width="2" points="1694.6289,-549.9656 1690.0459,-540.4133 1687.6717,-550.7386 1694.6289,-549.9656"/>
</g>
<!-- 58 -->
<g id="node59" class="node">
<title>58</title>
<path fill="none" stroke="#70d856" stroke-width="2" d="M1609.5,-252C1609.5,-252 1528.5,-252 1528.5,-252 1522.5,-252 1516.5,-246 1516.5,-240 1516.5,-240 1516.5,-228 1516.5,-228 1516.5,-222 1522.5,-216 1528.5,-216 1528.5,-216 1609.5,-216 1609.5,-216 1615.5,-216 1621.5,-222 1621.5,-228 1621.5,-228 1621.5,-240 1621.5,-240 1621.5,-246 1615.5,-252 1609.5,-252"/>
<text text-anchor="middle" x="1569" y="-231.5" font-family="sans" font-size="10.00" fill="#000000">taxon_metadmg_dfit</text>
</g>
<!-- 58&#45;&gt;1 -->
<g id="edge30" class="edge">
<title>58&#45;&gt;1</title>
<path fill="none" stroke="#c0c0c0" stroke-width="2" d="M1546.6974,-215.8574C1519.2107,-194.6104 1470.2036,-160.2564 1422,-144 1333.0697,-114.0088 1052.7627,-97.7074 938.8493,-92.1794"/>
<polygon fill="#c0c0c0" stroke="#c0c0c0" stroke-width="2" points="938.8338,-88.6748 928.678,-91.6931 938.4994,-95.6668 938.8338,-88.6748"/>
</g>
<!-- 60 -->
<g id="node61" class="node">
<title>60</title>
<path fill="none" stroke="#78d856" stroke-width="2" d="M1632,-180C1632,-180 1522,-180 1522,-180 1516,-180 1510,-174 1510,-168 1510,-168 1510,-156 1510,-156 1510,-150 1516,-144 1522,-144 1522,-144 1632,-144 1632,-144 1638,-144 1644,-150 1644,-156 1644,-156 1644,-168 1644,-168 1644,-174 1638,-180 1632,-180"/>
<text text-anchor="middle" x="1577" y="-159.5" font-family="sans" font-size="10.00" fill="#000000">taxon_metadmg_aggregate</text>
</g>
<!-- 58&#45;&gt;60 -->
<g id="edge104" class="edge">
<title>58&#45;&gt;60</title>
<path fill="none" stroke="#c0c0c0" stroke-width="2" d="M1571.0187,-215.8314C1571.8743,-208.131 1572.8917,-198.9743 1573.8426,-190.4166"/>
<polygon fill="#c0c0c0" stroke="#c0c0c0" stroke-width="2" points="1577.3283,-190.7386 1574.9541,-180.4133 1570.3711,-189.9656 1577.3283,-190.7386"/>
</g>
<!-- 59&#45;&gt;58 -->
<g id="edge101" class="edge">
<title>59&#45;&gt;58</title>
<path fill="none" stroke="#c0c0c0" stroke-width="2" d="M1599.654,-287.8314C1595.0763,-279.7925 1589.5948,-270.1666 1584.5412,-261.2918"/>
<polygon fill="#c0c0c0" stroke="#c0c0c0" stroke-width="2" points="1587.4752,-259.3712 1579.4853,-252.4133 1581.3923,-262.8351 1587.4752,-259.3712"/>
</g>
<!-- 59&#45;&gt;60 -->
<g id="edge103" class="edge">
<title>59&#45;&gt;60</title>
<path fill="none" stroke="#c0c0c0" stroke-width="2" d="M1620.6134,-287.8764C1630.0309,-269.3099 1640.8855,-239.8656 1631,-216 1626.4479,-205.0103 1618.454,-195.0911 1609.9898,-186.8418"/>
<polygon fill="#c0c0c0" stroke="#c0c0c0" stroke-width="2" points="1612.2589,-184.1745 1602.5052,-180.0373 1607.5501,-189.354 1612.2589,-184.1745"/>
</g>
<!-- 60&#45;&gt;0 -->
<g id="edge6" class="edge">
<title>60&#45;&gt;0</title>
<path fill="none" stroke="#c0c0c0" stroke-width="2" d="M1607.1429,-143.7623C1650.1514,-117.7404 1729.1368,-69.9508 1776.381,-41.3661"/>
<polygon fill="#c0c0c0" stroke="#c0c0c0" stroke-width="2" points="1778.3579,-44.2609 1785.1019,-36.0896 1774.7342,-38.2718 1778.3579,-44.2609"/>
</g>
<!-- 60&#45;&gt;1 -->
<g id="edge31" class="edge">
<title>60&#45;&gt;1</title>
<path fill="none" stroke="#c0c0c0" stroke-width="2" d="M1509.8718,-147.4638C1502.8432,-146.1832 1495.7886,-144.9971 1489,-144 1285.7517,-114.1474 1041.1169,-98.2856 938.7546,-92.542"/>
<polygon fill="#c0c0c0" stroke="#c0c0c0" stroke-width="2" points="938.8974,-89.0446 928.719,-91.9859 938.51,-96.0339 938.8974,-89.0446"/>
</g>
<!-- 61&#45;&gt;0 -->
<g id="edge2" class="edge">
<title>61&#45;&gt;0</title>
<path fill="none" stroke="#c0c0c0" stroke-width="2" d="M1741.4864,-1311.855C1745.0013,-1284.5902 1751,-1231.4068 1751,-1186 1751,-1186 1751,-1186 1751,-1114 1751,-849.3558 1815,-786.6442 1815,-522 1815,-522 1815,-522 1815,-162 1815,-121.876 1815,-75.4631 1815,-46.4177"/>
<polygon fill="#c0c0c0" stroke="#c0c0c0" stroke-width="2" points="1818.5001,-46.1853 1815,-36.1854 1811.5001,-46.1854 1818.5001,-46.1853"/>
</g>
<!-- 62&#45;&gt;0 -->
<g id="edge4" class="edge">
<title>62&#45;&gt;0</title>
<path fill="none" stroke="#c0c0c0" stroke-width="2" d="M1859.3424,-1023.8326C1856.9991,-996.5392 1853,-943.3198 1853,-898 1853,-898 1853,-898 1853,-162 1853,-120.3681 1837.9672,-74.14 1826.8119,-45.567"/>
<polygon fill="#c0c0c0" stroke="#c0c0c0" stroke-width="2" points="1830.0368,-44.2055 1823.0588,-36.2332 1823.5422,-46.817 1830.0368,-44.2055"/>
</g>
<!-- 63&#45;&gt;0 -->
<g id="edge5" class="edge">
<title>63&#45;&gt;0</title>
<path fill="none" stroke="#c0c0c0" stroke-width="2" d="M1952.8468,-575.7859C1929.2434,-550.0803 1891,-500.6202 1891,-450 1891,-450 1891,-450 1891,-162 1891,-120.6022 1887.3382,-108.0574 1867,-72 1861.0654,-61.4787 1852.5991,-51.4885 1844.2167,-43.0273"/>
<polygon fill="#c0c0c0" stroke="#c0c0c0" stroke-width="2" points="1846.5664,-40.4309 1836.9378,-36.0103 1841.7081,-45.4705 1846.5664,-40.4309"/>
</g>
<!-- 64&#45;&gt;0 -->
<g id="edge7" class="edge">
<title>64&#45;&gt;0</title>
<path fill="none" stroke="#c0c0c0" stroke-width="2" d="M1939.8588,-71.8314C1915.4401,-61.3035 1884.708,-48.0538 1859.8439,-37.3339"/>
<polygon fill="#c0c0c0" stroke="#c0c0c0" stroke-width="2" points="1861.1959,-34.1054 1850.6272,-33.3603 1858.4245,-40.5334 1861.1959,-34.1054"/>
</g>
</g>
</svg>
